%FSTAX23Y23*%
%MOIN*%
%SFA1B1*%

%IPPOS*%
%ADD10C,0.007874*%
%ADD11C,0.005000*%
%ADD12C,0.009843*%
%ADD13C,0.010000*%
%LNpcb1_legend_top-1*%
%LPD*%
G54D10*
X02173Y01679D02*
D01*
X02173Y01679*
X02173Y01679*
X02173Y01679*
X02173Y0168*
X02173Y0168*
X02173Y0168*
X02173Y0168*
X02173Y01681*
X02173Y01681*
X02173Y01681*
X02172Y01681*
X02172Y01681*
X02172Y01682*
X02172Y01682*
X02171Y01682*
X02171Y01682*
X02171Y01682*
X02171Y01682*
X0217Y01682*
X0217Y01682*
X0217Y01682*
X0217Y01682*
X02169*
X02169Y01682*
X02169Y01682*
X02169Y01682*
X02168Y01682*
X02168Y01682*
X02168Y01682*
X02168Y01682*
X02167Y01682*
X02167Y01682*
X02167Y01681*
X02167Y01681*
X02166Y01681*
X02166Y01681*
X02166Y01681*
X02166Y0168*
X02166Y0168*
X02166Y0168*
X02166Y0168*
X02166Y01679*
X02166Y01679*
X02166Y01679*
X02166Y01679*
X02166Y01678*
X02166Y01678*
X02166Y01678*
X02166Y01677*
X02166Y01677*
X02166Y01677*
X02166Y01677*
X02166Y01676*
X02166Y01676*
X02166Y01676*
X02167Y01676*
X02167Y01676*
X02167Y01675*
X02167Y01675*
X02168Y01675*
X02168Y01675*
X02168Y01675*
X02168Y01675*
X02169Y01675*
X02169Y01675*
X02169Y01675*
X02169Y01675*
X0217*
X0217Y01675*
X0217Y01675*
X0217Y01675*
X02171Y01675*
X02171Y01675*
X02171Y01675*
X02171Y01675*
X02172Y01675*
X02172Y01675*
X02172Y01676*
X02172Y01676*
X02173Y01676*
X02173Y01676*
X02173Y01676*
X02173Y01677*
X02173Y01677*
X02173Y01677*
X02173Y01677*
X02173Y01678*
X02173Y01678*
X02173Y01678*
X02173Y01679*
D01*
X02173Y01679*
X02173Y01679*
X02173Y01679*
X02173Y0168*
X02173Y0168*
X02173Y0168*
X02173Y0168*
X02173Y01681*
X02173Y01681*
X02173Y01681*
X02172Y01681*
X02172Y01681*
X02172Y01682*
X02172Y01682*
X02171Y01682*
X02171Y01682*
X02171Y01682*
X02171Y01682*
X0217Y01682*
X0217Y01682*
X0217Y01682*
X0217Y01682*
X02169*
X02169Y01682*
X02169Y01682*
X02169Y01682*
X02168Y01682*
X02168Y01682*
X02168Y01682*
X02168Y01682*
X02167Y01682*
X02167Y01682*
X02167Y01681*
X02167Y01681*
X02166Y01681*
X02166Y01681*
X02166Y01681*
X02166Y0168*
X02166Y0168*
X02166Y0168*
X02166Y0168*
X02166Y01679*
X02166Y01679*
X02166Y01679*
X02166Y01679*
X02166Y01678*
X02166Y01678*
X02166Y01678*
X02166Y01677*
X02166Y01677*
X02166Y01677*
X02166Y01677*
X02166Y01676*
X02166Y01676*
X02166Y01676*
X02167Y01676*
X02167Y01676*
X02167Y01675*
X02167Y01675*
X02168Y01675*
X02168Y01675*
X02168Y01675*
X02168Y01675*
X02169Y01675*
X02169Y01675*
X02169Y01675*
X02169Y01675*
X0217*
X0217Y01675*
X0217Y01675*
X0217Y01675*
X02171Y01675*
X02171Y01675*
X02171Y01675*
X02171Y01675*
X02172Y01675*
X02172Y01675*
X02172Y01676*
X02172Y01676*
X02173Y01676*
X02173Y01676*
X02173Y01676*
X02173Y01677*
X02173Y01677*
X02173Y01677*
X02173Y01677*
X02173Y01678*
X02173Y01678*
X02173Y01678*
X02173Y01679*
X00154Y01872D02*
X00765D01*
Y01767D02*
Y01872D01*
X00154Y01767D02*
X00765D01*
X00154D02*
Y01872D01*
G54D11*
X02175Y00065D02*
D01*
X02181Y00065*
X02188Y00065*
X02195Y00067*
X02202Y00068*
X02209Y00071*
X02215Y00073*
X02221Y00076*
X02227Y0008*
X02233Y00084*
X02239Y00088*
X02244Y00093*
X02249Y00098*
X02253Y00103*
X02257Y00109*
X02261Y00115*
X02264Y00121*
X02267Y00127*
X0227Y00134*
X02272Y0014*
X02273Y00147*
X02274Y00154*
X02274Y00161*
X02275Y00165*
X01225D02*
D01*
X01225Y00158*
X01225Y00151*
X01227Y00144*
X01228Y00137*
X01231Y0013*
X01233Y00124*
X01236Y00118*
X0124Y00112*
X01244Y00106*
X01248Y001*
X01253Y00095*
X01258Y0009*
X01263Y00086*
X01269Y00082*
X01275Y00078*
X01281Y00075*
X01287Y00072*
X01294Y00069*
X013Y00067*
X01307Y00066*
X01314Y00065*
X01321Y00065*
X01325Y00065*
Y00865D02*
D01*
X01318Y00864*
X01311Y00864*
X01304Y00862*
X01297Y00861*
X0129Y00858*
X01284Y00856*
X01278Y00853*
X01272Y00849*
X01266Y00845*
X0126Y00841*
X01255Y00836*
X0125Y00831*
X01246Y00826*
X01242Y0082*
X01238Y00814*
X01235Y00808*
X01232Y00802*
X01229Y00795*
X01227Y00789*
X01226Y00782*
X01225Y00775*
X01225Y00768*
X01225Y00765*
X02275D02*
D01*
X02274Y00771*
X02274Y00778*
X02272Y00785*
X02271Y00792*
X02268Y00799*
X02266Y00805*
X02263Y00811*
X02259Y00817*
X02255Y00823*
X02251Y00829*
X02246Y00834*
X02241Y00839*
X02236Y00843*
X0223Y00847*
X02225Y00851*
X02218Y00854*
X02212Y00857*
X02205Y0086*
X02199Y00862*
X02192Y00863*
X02185Y00864*
X02178Y00864*
X02175Y00865*
X0242Y00955D02*
Y01146D01*
Y01463D02*
Y01655D01*
X02447Y01146D02*
Y01463D01*
X0242Y01146D02*
X02447D01*
X0242Y01463D02*
X02447D01*
X0002Y01655D02*
X0242D01*
X0002Y00955D02*
Y01655D01*
Y00955D02*
X0242D01*
X0195Y00065D02*
X02175D01*
X01325D02*
X01549D01*
X0205Y00865D02*
X02175D01*
X01325D02*
X01449D01*
X02275Y00165D02*
Y00765D01*
X01225Y00165D02*
Y00765D01*
G54D12*
X00788Y0182D02*
D01*
X00788Y0182*
X00788Y0182*
X00788Y01821*
X00788Y01821*
X00788Y01821*
X00788Y01822*
X00787Y01822*
X00787Y01822*
X00787Y01822*
X00787Y01823*
X00787Y01823*
X00786Y01823*
X00786Y01823*
X00786Y01824*
X00786Y01824*
X00785Y01824*
X00785Y01824*
X00785Y01824*
X00784Y01824*
X00784Y01824*
X00784Y01824*
X00783Y01824*
X00783*
X00783Y01824*
X00782Y01824*
X00782Y01824*
X00782Y01824*
X00781Y01824*
X00781Y01824*
X00781Y01824*
X0078Y01824*
X0078Y01823*
X0078Y01823*
X0078Y01823*
X00779Y01823*
X00779Y01822*
X00779Y01822*
X00779Y01822*
X00779Y01822*
X00778Y01821*
X00778Y01821*
X00778Y01821*
X00778Y0182*
X00778Y0182*
X00778Y0182*
X00778Y01819*
X00778Y01819*
X00778Y01818*
X00778Y01818*
X00778Y01818*
X00779Y01817*
X00779Y01817*
X00779Y01817*
X00779Y01817*
X00779Y01816*
X0078Y01816*
X0078Y01816*
X0078Y01816*
X0078Y01815*
X00781Y01815*
X00781Y01815*
X00781Y01815*
X00782Y01815*
X00782Y01815*
X00782Y01815*
X00783Y01815*
X00783Y01815*
X00783*
X00784Y01815*
X00784Y01815*
X00784Y01815*
X00785Y01815*
X00785Y01815*
X00785Y01815*
X00786Y01815*
X00786Y01815*
X00786Y01816*
X00786Y01816*
X00787Y01816*
X00787Y01816*
X00787Y01817*
X00787Y01817*
X00787Y01817*
X00788Y01817*
X00788Y01818*
X00788Y01818*
X00788Y01818*
X00788Y01819*
X00788Y01819*
X00788Y0182*
G54D13*
X00545Y00325D02*
X00705D01*
X00545Y0066D02*
X00705D01*
X00545Y00325D02*
Y0066D01*
X00705Y00325D02*
Y0066D01*
X01083Y01768D02*
X0243D01*
X01083Y02765D02*
X0243D01*
X01083Y01768D02*
Y02765D01*
X0243Y01768D02*
Y02765D01*
X00155Y01971D02*
Y01912D01*
Y01941*
X00194*
Y01971*
Y01912*
X00254D02*
X00214D01*
X00254Y01951*
Y01961*
X00244Y01971*
X00224*
X00214Y01961*
X0055Y00754D02*
Y00695D01*
X00579*
X00589Y00704*
Y00714*
X00579Y00724*
X0055*
X00579*
X00589Y00734*
Y00744*
X00579Y00754*
X0055*
X00609Y00695D02*
X00629D01*
X00619*
Y00754*
X00609Y00744*
X01085Y00854D02*
Y00805D01*
X01095Y00795*
X01115*
X01125Y00805*
Y00854*
X01184Y00795D02*
X01144D01*
X01184Y00834*
Y00844*
X01174Y00854*
X01154*
X01144Y00844*
X00019Y01776D02*
Y01726D01*
X00028Y01717*
X00048*
X00058Y01726*
Y01776*
X00078Y01717D02*
X00098D01*
X00088*
Y01776*
X00078Y01766*
X01089Y02859D02*
Y028D01*
Y02829*
X01128*
Y02859*
Y028*
X01148D02*
X01168D01*
X01158*
Y02859*
X01148Y02849*
M02*