%FSTAX23Y23*%
%MOIN*%
%SFA1B1*%

%IPPOS*%
%ADD9500C,0.027559*%
%ADD9501C,0.029528*%
%ADD9502C,0.030000*%
%ADD9503C,0.031496*%
%ADD9504C,0.039370*%
%ADD9505C,0.043307*%
%LNpcb1-1*%
%LPD*%
G54D9500*
X0178Y01101D03*
Y0118D03*
Y01258D03*
X01859D03*
Y0118D03*
Y01101D03*
G54D9501*
X0172Y01484D03*
X0182D03*
X0192D03*
X0202D03*
X0212D03*
G54D9502*
X0063Y00415D03*
Y00585D03*
X0235Y0247D03*
Y0257D03*
Y0267D03*
G54D9503*
X0007Y01005D03*
X0017D03*
X0027D03*
X0037D03*
X0047D03*
X0057D03*
X0067D03*
X0077D03*
X0087D03*
X0097D03*
X0107D03*
X0117D03*
X0127D03*
X0137D03*
X0147D03*
X0157D03*
Y01605D03*
X0147D03*
X0137D03*
X0127D03*
X0117D03*
X0107D03*
X0097D03*
X0087D03*
X0077D03*
X0067D03*
X0057D03*
X0047D03*
X0037D03*
X0027D03*
X0017D03*
X0007D03*
X0057Y01505D03*
Y01405D03*
Y01305D03*
Y01205D03*
Y01105D03*
X0167Y01005D03*
X0177D03*
X0187D03*
X0197D03*
X0207D03*
X0217D03*
X0227D03*
X0237D03*
X0227Y01105D03*
Y01605D03*
X0217D03*
X0207D03*
X0197D03*
X0187D03*
X0177D03*
X0167D03*
X0237D03*
X0235Y0187D03*
Y0197D03*
Y0207D03*
Y0217D03*
Y0227D03*
Y0237D03*
G54D9504*
X017Y00115D03*
X018D03*
X019D03*
X016D03*
Y00815D03*
X015D03*
X017D03*
X018D03*
X019D03*
X02D03*
G54D9505*
X0021Y0182D03*
X0031D03*
X0041D03*
X0051D03*
X0061D03*
X0071D03*
M02*