%FSTAX23Y23*%
%MOIN*%
%SFA1B1*%

%IPPOS*%
%AMD20*
4,1,8,-0.015700,-0.035500,0.015700,-0.035500,0.035500,-0.015700,0.035500,0.015700,0.015700,0.035500,-0.015700,0.035500,-0.035500,0.015700,-0.035500,-0.015700,-0.015700,-0.035500,0.0*
1,1,0.039496,-0.015700,-0.015700*
1,1,0.039496,0.015700,-0.015700*
1,1,0.039496,0.015700,0.015700*
1,1,0.039496,-0.015700,0.015700*
%
%ADD14C,0.059496*%
%ADD15C,0.057527*%
%ADD16C,0.055559*%
%ADD17C,0.068000*%
%ADD18C,0.084000*%
%ADD19C,0.070992*%
G04~CAMADD=20~8~0.0~0.0~709.9~709.9~197.5~0.0~15~0.0~0.0~0.0~0.0~0~0.0~0.0~0.0~0.0~0~0.0~0.0~0.0~180.0~710.0~710.0*
%ADD20D20*%
%LNpcb1_soldermask_top-1*%
%LPD*%
G54D14*
X0087Y01005D03*
X0077D03*
X0067D03*
X0057D03*
X0047D03*
X0037D03*
X0027D03*
X0017D03*
X0007D03*
Y01605D03*
X0017D03*
X0027D03*
X0037D03*
X0047D03*
X0057D03*
X0067D03*
X0077D03*
X0087D03*
X0237Y01005D03*
X0227D03*
X0217D03*
X0207D03*
X0197D03*
X0187D03*
X0177D03*
X0167D03*
X0157D03*
X0147D03*
X0137D03*
X0127D03*
X0117D03*
X0107D03*
X0097Y01605D03*
X0107D03*
X0117D03*
X0127D03*
X0137D03*
X0147D03*
X0157D03*
X0167D03*
X0177D03*
X0187D03*
X0197D03*
X0207D03*
X0217D03*
X0097Y01005D03*
X0057Y01205D03*
X0227Y01105D03*
X0057D03*
Y01305D03*
Y01405D03*
Y01505D03*
X0227Y01605D03*
X0237D03*
G54D15*
X0172Y01484D03*
X0182D03*
X0192D03*
X0202D03*
X0212D03*
G54D16*
X01859Y01258D03*
Y0118D03*
X0178Y01258D03*
Y0118D03*
X01859Y01101D03*
X0178D03*
G54D17*
X0063Y00585D03*
Y00415D03*
X0235Y0267D03*
Y0257D03*
Y0247D03*
Y0237D03*
Y0187D03*
Y0197D03*
Y0207D03*
Y0217D03*
Y0227D03*
G54D18*
X018Y00115D03*
X017D03*
X019D03*
X016D03*
X018Y00815D03*
X017D03*
X019D03*
X016D03*
X02D03*
X015D03*
G54D19*
X0041Y0182D03*
X0061D03*
X0051D03*
X0031D03*
X0021D03*
G54D20*
X0071Y0182D03*
M02*