%FSTAX23Y23*%
%MOIN*%
%SFA1B1*%

%IPPOS*%
%ADD11C,0.005000*%
%ADD13C,0.010000*%
%ADD29C,0.015000*%
%ADD31C,0.016000*%
%LNpcb1_drawing_1-1*%
%LPD*%
G54D11*
X02375Y0227D02*
D01*
X02374Y02271*
X02374Y02273*
X02374Y02275*
X02374Y02276*
X02373Y02278*
X02372Y0228*
X02372Y02281*
X02371Y02283*
X0237Y02284*
X02369Y02286*
X02367Y02287*
X02366Y02288*
X02365Y02289*
X02363Y0229*
X02362Y02291*
X0236Y02292*
X02359Y02293*
X02357Y02293*
X02356Y02294*
X02354Y02294*
X02352Y02294*
X0235Y02294*
X02349*
X02347Y02294*
X02345Y02294*
X02343Y02294*
X02342Y02293*
X0234Y02293*
X02339Y02292*
X02337Y02291*
X02336Y0229*
X02334Y02289*
X02333Y02288*
X02332Y02287*
X0233Y02286*
X02329Y02284*
X02328Y02283*
X02327Y02281*
X02327Y0228*
X02326Y02278*
X02325Y02276*
X02325Y02275*
X02325Y02273*
X02325Y02271*
X02325Y0227*
X02325Y02268*
X02325Y02266*
X02325Y02264*
X02325Y02263*
X02326Y02261*
X02327Y02259*
X02327Y02258*
X02328Y02256*
X02329Y02255*
X0233Y02253*
X02332Y02252*
X02333Y02251*
X02334Y0225*
X02336Y02249*
X02337Y02248*
X02339Y02247*
X0234Y02246*
X02342Y02246*
X02343Y02245*
X02345Y02245*
X02347Y02245*
X02349Y02245*
X0235*
X02352Y02245*
X02354Y02245*
X02356Y02245*
X02357Y02246*
X02359Y02246*
X0236Y02247*
X02362Y02248*
X02363Y02249*
X02365Y0225*
X02366Y02251*
X02367Y02252*
X02369Y02253*
X0237Y02255*
X02371Y02256*
X02372Y02258*
X02372Y02259*
X02373Y02261*
X02374Y02263*
X02374Y02264*
X02374Y02266*
X02374Y02268*
X02375Y0227*
Y0217D02*
D01*
X02374Y02171*
X02374Y02173*
X02374Y02175*
X02374Y02176*
X02373Y02178*
X02372Y0218*
X02372Y02181*
X02371Y02183*
X0237Y02184*
X02369Y02186*
X02367Y02187*
X02366Y02188*
X02365Y02189*
X02363Y0219*
X02362Y02191*
X0236Y02192*
X02359Y02193*
X02357Y02193*
X02356Y02194*
X02354Y02194*
X02352Y02194*
X0235Y02194*
X02349*
X02347Y02194*
X02345Y02194*
X02343Y02194*
X02342Y02193*
X0234Y02193*
X02339Y02192*
X02337Y02191*
X02336Y0219*
X02334Y02189*
X02333Y02188*
X02332Y02187*
X0233Y02186*
X02329Y02184*
X02328Y02183*
X02327Y02181*
X02327Y0218*
X02326Y02178*
X02325Y02176*
X02325Y02175*
X02325Y02173*
X02325Y02171*
X02325Y0217*
X02325Y02168*
X02325Y02166*
X02325Y02164*
X02325Y02163*
X02326Y02161*
X02327Y02159*
X02327Y02158*
X02328Y02156*
X02329Y02155*
X0233Y02153*
X02332Y02152*
X02333Y02151*
X02334Y0215*
X02336Y02149*
X02337Y02148*
X02339Y02147*
X0234Y02146*
X02342Y02146*
X02343Y02145*
X02345Y02145*
X02347Y02145*
X02349Y02145*
X0235*
X02352Y02145*
X02354Y02145*
X02356Y02145*
X02357Y02146*
X02359Y02146*
X0236Y02147*
X02362Y02148*
X02363Y02149*
X02365Y0215*
X02366Y02151*
X02367Y02152*
X02369Y02153*
X0237Y02155*
X02371Y02156*
X02372Y02158*
X02372Y02159*
X02373Y02161*
X02374Y02163*
X02374Y02164*
X02374Y02166*
X02374Y02168*
X02375Y0217*
Y0207D02*
D01*
X02374Y02071*
X02374Y02073*
X02374Y02075*
X02374Y02076*
X02373Y02078*
X02372Y0208*
X02372Y02081*
X02371Y02083*
X0237Y02084*
X02369Y02086*
X02367Y02087*
X02366Y02088*
X02365Y02089*
X02363Y0209*
X02362Y02091*
X0236Y02092*
X02359Y02093*
X02357Y02093*
X02356Y02094*
X02354Y02094*
X02352Y02094*
X0235Y02094*
X02349*
X02347Y02094*
X02345Y02094*
X02343Y02094*
X02342Y02093*
X0234Y02093*
X02339Y02092*
X02337Y02091*
X02336Y0209*
X02334Y02089*
X02333Y02088*
X02332Y02087*
X0233Y02086*
X02329Y02084*
X02328Y02083*
X02327Y02081*
X02327Y0208*
X02326Y02078*
X02325Y02076*
X02325Y02075*
X02325Y02073*
X02325Y02071*
X02325Y0207*
X02325Y02068*
X02325Y02066*
X02325Y02064*
X02325Y02063*
X02326Y02061*
X02327Y02059*
X02327Y02058*
X02328Y02056*
X02329Y02055*
X0233Y02053*
X02332Y02052*
X02333Y02051*
X02334Y0205*
X02336Y02049*
X02337Y02048*
X02339Y02047*
X0234Y02046*
X02342Y02046*
X02343Y02045*
X02345Y02045*
X02347Y02045*
X02349Y02045*
X0235*
X02352Y02045*
X02354Y02045*
X02356Y02045*
X02357Y02046*
X02359Y02046*
X0236Y02047*
X02362Y02048*
X02363Y02049*
X02365Y0205*
X02366Y02051*
X02367Y02052*
X02369Y02053*
X0237Y02055*
X02371Y02056*
X02372Y02058*
X02372Y02059*
X02373Y02061*
X02374Y02063*
X02374Y02064*
X02374Y02066*
X02374Y02068*
X02375Y0207*
Y0197D02*
D01*
X02374Y01971*
X02374Y01973*
X02374Y01975*
X02374Y01976*
X02373Y01978*
X02372Y0198*
X02372Y01981*
X02371Y01983*
X0237Y01984*
X02369Y01986*
X02367Y01987*
X02366Y01988*
X02365Y01989*
X02363Y0199*
X02362Y01991*
X0236Y01992*
X02359Y01993*
X02357Y01993*
X02356Y01994*
X02354Y01994*
X02352Y01994*
X0235Y01994*
X02349*
X02347Y01994*
X02345Y01994*
X02343Y01994*
X02342Y01993*
X0234Y01993*
X02339Y01992*
X02337Y01991*
X02336Y0199*
X02334Y01989*
X02333Y01988*
X02332Y01987*
X0233Y01986*
X02329Y01984*
X02328Y01983*
X02327Y01981*
X02327Y0198*
X02326Y01978*
X02325Y01976*
X02325Y01975*
X02325Y01973*
X02325Y01971*
X02325Y0197*
X02325Y01968*
X02325Y01966*
X02325Y01964*
X02325Y01963*
X02326Y01961*
X02327Y01959*
X02327Y01958*
X02328Y01956*
X02329Y01955*
X0233Y01953*
X02332Y01952*
X02333Y01951*
X02334Y0195*
X02336Y01949*
X02337Y01948*
X02339Y01947*
X0234Y01946*
X02342Y01946*
X02343Y01945*
X02345Y01945*
X02347Y01945*
X02349Y01945*
X0235*
X02352Y01945*
X02354Y01945*
X02356Y01945*
X02357Y01946*
X02359Y01946*
X0236Y01947*
X02362Y01948*
X02363Y01949*
X02365Y0195*
X02366Y01951*
X02367Y01952*
X02369Y01953*
X0237Y01955*
X02371Y01956*
X02372Y01958*
X02372Y01959*
X02373Y01961*
X02374Y01963*
X02374Y01964*
X02374Y01966*
X02374Y01968*
X02375Y0197*
Y0187D02*
D01*
X02374Y01871*
X02374Y01873*
X02374Y01875*
X02374Y01876*
X02373Y01878*
X02372Y0188*
X02372Y01881*
X02371Y01883*
X0237Y01884*
X02369Y01886*
X02367Y01887*
X02366Y01888*
X02365Y01889*
X02363Y0189*
X02362Y01891*
X0236Y01892*
X02359Y01893*
X02357Y01893*
X02356Y01894*
X02354Y01894*
X02352Y01894*
X0235Y01894*
X02349*
X02347Y01894*
X02345Y01894*
X02343Y01894*
X02342Y01893*
X0234Y01893*
X02339Y01892*
X02337Y01891*
X02336Y0189*
X02334Y01889*
X02333Y01888*
X02332Y01887*
X0233Y01886*
X02329Y01884*
X02328Y01883*
X02327Y01881*
X02327Y0188*
X02326Y01878*
X02325Y01876*
X02325Y01875*
X02325Y01873*
X02325Y01871*
X02325Y0187*
X02325Y01868*
X02325Y01866*
X02325Y01864*
X02325Y01863*
X02326Y01861*
X02327Y01859*
X02327Y01858*
X02328Y01856*
X02329Y01855*
X0233Y01853*
X02332Y01852*
X02333Y01851*
X02334Y0185*
X02336Y01849*
X02337Y01848*
X02339Y01847*
X0234Y01846*
X02342Y01846*
X02343Y01845*
X02345Y01845*
X02347Y01845*
X02349Y01845*
X0235*
X02352Y01845*
X02354Y01845*
X02356Y01845*
X02357Y01846*
X02359Y01846*
X0236Y01847*
X02362Y01848*
X02363Y01849*
X02365Y0185*
X02366Y01851*
X02367Y01852*
X02369Y01853*
X0237Y01855*
X02371Y01856*
X02372Y01858*
X02372Y01859*
X02373Y01861*
X02374Y01863*
X02374Y01864*
X02374Y01866*
X02374Y01868*
X02375Y0187*
Y0237D02*
D01*
X02374Y02371*
X02374Y02373*
X02374Y02375*
X02374Y02376*
X02373Y02378*
X02372Y0238*
X02372Y02381*
X02371Y02383*
X0237Y02384*
X02369Y02386*
X02367Y02387*
X02366Y02388*
X02365Y02389*
X02363Y0239*
X02362Y02391*
X0236Y02392*
X02359Y02393*
X02357Y02393*
X02356Y02394*
X02354Y02394*
X02352Y02394*
X0235Y02394*
X02349*
X02347Y02394*
X02345Y02394*
X02343Y02394*
X02342Y02393*
X0234Y02393*
X02339Y02392*
X02337Y02391*
X02336Y0239*
X02334Y02389*
X02333Y02388*
X02332Y02387*
X0233Y02386*
X02329Y02384*
X02328Y02383*
X02327Y02381*
X02327Y0238*
X02326Y02378*
X02325Y02376*
X02325Y02375*
X02325Y02373*
X02325Y02371*
X02325Y0237*
X02325Y02368*
X02325Y02366*
X02325Y02364*
X02325Y02363*
X02326Y02361*
X02327Y02359*
X02327Y02358*
X02328Y02356*
X02329Y02355*
X0233Y02353*
X02332Y02352*
X02333Y02351*
X02334Y0235*
X02336Y02349*
X02337Y02348*
X02339Y02347*
X0234Y02346*
X02342Y02346*
X02343Y02345*
X02345Y02345*
X02347Y02345*
X02349Y02345*
X0235*
X02352Y02345*
X02354Y02345*
X02356Y02345*
X02357Y02346*
X02359Y02346*
X0236Y02347*
X02362Y02348*
X02363Y02349*
X02365Y0235*
X02366Y02351*
X02367Y02352*
X02369Y02353*
X0237Y02355*
X02371Y02356*
X02372Y02358*
X02372Y02359*
X02373Y02361*
X02374Y02363*
X02374Y02364*
X02374Y02366*
X02374Y02368*
X02375Y0237*
X02395Y01605D02*
D01*
X02394Y01606*
X02394Y01608*
X02394Y0161*
X02394Y01611*
X02393Y01613*
X02392Y01615*
X02392Y01616*
X02391Y01618*
X0239Y01619*
X02389Y01621*
X02387Y01622*
X02386Y01623*
X02385Y01624*
X02383Y01625*
X02382Y01626*
X0238Y01627*
X02379Y01628*
X02377Y01628*
X02376Y01629*
X02374Y01629*
X02372Y01629*
X0237Y01629*
X02369*
X02367Y01629*
X02365Y01629*
X02363Y01629*
X02362Y01628*
X0236Y01628*
X02359Y01627*
X02357Y01626*
X02356Y01625*
X02354Y01624*
X02353Y01623*
X02352Y01622*
X0235Y01621*
X02349Y01619*
X02348Y01618*
X02347Y01616*
X02347Y01615*
X02346Y01613*
X02345Y01611*
X02345Y0161*
X02345Y01608*
X02345Y01606*
X02345Y01605*
X02345Y01603*
X02345Y01601*
X02345Y01599*
X02345Y01598*
X02346Y01596*
X02347Y01594*
X02347Y01593*
X02348Y01591*
X02349Y0159*
X0235Y01588*
X02352Y01587*
X02353Y01586*
X02354Y01585*
X02356Y01584*
X02357Y01583*
X02359Y01582*
X0236Y01581*
X02362Y01581*
X02363Y0158*
X02365Y0158*
X02367Y0158*
X02369Y0158*
X0237*
X02372Y0158*
X02374Y0158*
X02376Y0158*
X02377Y01581*
X02379Y01581*
X0238Y01582*
X02382Y01583*
X02383Y01584*
X02385Y01585*
X02386Y01586*
X02387Y01587*
X02389Y01588*
X0239Y0159*
X02391Y01591*
X02392Y01593*
X02392Y01594*
X02393Y01596*
X02394Y01598*
X02394Y01599*
X02394Y01601*
X02394Y01603*
X02395Y01605*
X02295D02*
D01*
X02294Y01606*
X02294Y01608*
X02294Y0161*
X02294Y01611*
X02293Y01613*
X02292Y01615*
X02292Y01616*
X02291Y01618*
X0229Y01619*
X02289Y01621*
X02287Y01622*
X02286Y01623*
X02285Y01624*
X02283Y01625*
X02282Y01626*
X0228Y01627*
X02279Y01628*
X02277Y01628*
X02276Y01629*
X02274Y01629*
X02272Y01629*
X0227Y01629*
X02269*
X02267Y01629*
X02265Y01629*
X02263Y01629*
X02262Y01628*
X0226Y01628*
X02259Y01627*
X02257Y01626*
X02256Y01625*
X02254Y01624*
X02253Y01623*
X02252Y01622*
X0225Y01621*
X02249Y01619*
X02248Y01618*
X02247Y01616*
X02247Y01615*
X02246Y01613*
X02245Y01611*
X02245Y0161*
X02245Y01608*
X02245Y01606*
X02245Y01605*
X02245Y01603*
X02245Y01601*
X02245Y01599*
X02245Y01598*
X02246Y01596*
X02247Y01594*
X02247Y01593*
X02248Y01591*
X02249Y0159*
X0225Y01588*
X02252Y01587*
X02253Y01586*
X02254Y01585*
X02256Y01584*
X02257Y01583*
X02259Y01582*
X0226Y01581*
X02262Y01581*
X02263Y0158*
X02265Y0158*
X02267Y0158*
X02269Y0158*
X0227*
X02272Y0158*
X02274Y0158*
X02276Y0158*
X02277Y01581*
X02279Y01581*
X0228Y01582*
X02282Y01583*
X02283Y01584*
X02285Y01585*
X02286Y01586*
X02287Y01587*
X02289Y01588*
X0229Y0159*
X02291Y01591*
X02292Y01593*
X02292Y01594*
X02293Y01596*
X02294Y01598*
X02294Y01599*
X02294Y01601*
X02294Y01603*
X02295Y01605*
X00595Y01505D02*
D01*
X00594Y01506*
X00594Y01508*
X00594Y0151*
X00594Y01511*
X00593Y01513*
X00592Y01515*
X00592Y01516*
X00591Y01518*
X0059Y01519*
X00589Y01521*
X00587Y01522*
X00586Y01523*
X00585Y01524*
X00583Y01525*
X00582Y01526*
X0058Y01527*
X00579Y01528*
X00577Y01528*
X00576Y01529*
X00574Y01529*
X00572Y01529*
X0057Y01529*
X00569*
X00567Y01529*
X00565Y01529*
X00563Y01529*
X00562Y01528*
X0056Y01528*
X00559Y01527*
X00557Y01526*
X00556Y01525*
X00554Y01524*
X00553Y01523*
X00552Y01522*
X0055Y01521*
X00549Y01519*
X00548Y01518*
X00547Y01516*
X00547Y01515*
X00546Y01513*
X00545Y01511*
X00545Y0151*
X00545Y01508*
X00545Y01506*
X00545Y01505*
X00545Y01503*
X00545Y01501*
X00545Y01499*
X00545Y01498*
X00546Y01496*
X00547Y01494*
X00547Y01493*
X00548Y01491*
X00549Y0149*
X0055Y01488*
X00552Y01487*
X00553Y01486*
X00554Y01485*
X00556Y01484*
X00557Y01483*
X00559Y01482*
X0056Y01481*
X00562Y01481*
X00563Y0148*
X00565Y0148*
X00567Y0148*
X00569Y0148*
X0057*
X00572Y0148*
X00574Y0148*
X00576Y0148*
X00577Y01481*
X00579Y01481*
X0058Y01482*
X00582Y01483*
X00583Y01484*
X00585Y01485*
X00586Y01486*
X00587Y01487*
X00589Y01488*
X0059Y0149*
X00591Y01491*
X00592Y01493*
X00592Y01494*
X00593Y01496*
X00594Y01498*
X00594Y01499*
X00594Y01501*
X00594Y01503*
X00595Y01505*
Y01405D02*
D01*
X00594Y01406*
X00594Y01408*
X00594Y0141*
X00594Y01411*
X00593Y01413*
X00592Y01415*
X00592Y01416*
X00591Y01418*
X0059Y01419*
X00589Y01421*
X00587Y01422*
X00586Y01423*
X00585Y01424*
X00583Y01425*
X00582Y01426*
X0058Y01427*
X00579Y01428*
X00577Y01428*
X00576Y01429*
X00574Y01429*
X00572Y01429*
X0057Y01429*
X00569*
X00567Y01429*
X00565Y01429*
X00563Y01429*
X00562Y01428*
X0056Y01428*
X00559Y01427*
X00557Y01426*
X00556Y01425*
X00554Y01424*
X00553Y01423*
X00552Y01422*
X0055Y01421*
X00549Y01419*
X00548Y01418*
X00547Y01416*
X00547Y01415*
X00546Y01413*
X00545Y01411*
X00545Y0141*
X00545Y01408*
X00545Y01406*
X00545Y01405*
X00545Y01403*
X00545Y01401*
X00545Y01399*
X00545Y01398*
X00546Y01396*
X00547Y01394*
X00547Y01393*
X00548Y01391*
X00549Y0139*
X0055Y01388*
X00552Y01387*
X00553Y01386*
X00554Y01385*
X00556Y01384*
X00557Y01383*
X00559Y01382*
X0056Y01381*
X00562Y01381*
X00563Y0138*
X00565Y0138*
X00567Y0138*
X00569Y0138*
X0057*
X00572Y0138*
X00574Y0138*
X00576Y0138*
X00577Y01381*
X00579Y01381*
X0058Y01382*
X00582Y01383*
X00583Y01384*
X00585Y01385*
X00586Y01386*
X00587Y01387*
X00589Y01388*
X0059Y0139*
X00591Y01391*
X00592Y01393*
X00592Y01394*
X00593Y01396*
X00594Y01398*
X00594Y01399*
X00594Y01401*
X00594Y01403*
X00595Y01405*
Y01305D02*
D01*
X00594Y01306*
X00594Y01308*
X00594Y0131*
X00594Y01311*
X00593Y01313*
X00592Y01315*
X00592Y01316*
X00591Y01318*
X0059Y01319*
X00589Y01321*
X00587Y01322*
X00586Y01323*
X00585Y01324*
X00583Y01325*
X00582Y01326*
X0058Y01327*
X00579Y01328*
X00577Y01328*
X00576Y01329*
X00574Y01329*
X00572Y01329*
X0057Y01329*
X00569*
X00567Y01329*
X00565Y01329*
X00563Y01329*
X00562Y01328*
X0056Y01328*
X00559Y01327*
X00557Y01326*
X00556Y01325*
X00554Y01324*
X00553Y01323*
X00552Y01322*
X0055Y01321*
X00549Y01319*
X00548Y01318*
X00547Y01316*
X00547Y01315*
X00546Y01313*
X00545Y01311*
X00545Y0131*
X00545Y01308*
X00545Y01306*
X00545Y01305*
X00545Y01303*
X00545Y01301*
X00545Y01299*
X00545Y01298*
X00546Y01296*
X00547Y01294*
X00547Y01293*
X00548Y01291*
X00549Y0129*
X0055Y01288*
X00552Y01287*
X00553Y01286*
X00554Y01285*
X00556Y01284*
X00557Y01283*
X00559Y01282*
X0056Y01281*
X00562Y01281*
X00563Y0128*
X00565Y0128*
X00567Y0128*
X00569Y0128*
X0057*
X00572Y0128*
X00574Y0128*
X00576Y0128*
X00577Y01281*
X00579Y01281*
X0058Y01282*
X00582Y01283*
X00583Y01284*
X00585Y01285*
X00586Y01286*
X00587Y01287*
X00589Y01288*
X0059Y0129*
X00591Y01291*
X00592Y01293*
X00592Y01294*
X00593Y01296*
X00594Y01298*
X00594Y01299*
X00594Y01301*
X00594Y01303*
X00595Y01305*
Y01105D02*
D01*
X00594Y01106*
X00594Y01108*
X00594Y0111*
X00594Y01111*
X00593Y01113*
X00592Y01115*
X00592Y01116*
X00591Y01118*
X0059Y01119*
X00589Y01121*
X00587Y01122*
X00586Y01123*
X00585Y01124*
X00583Y01125*
X00582Y01126*
X0058Y01127*
X00579Y01128*
X00577Y01128*
X00576Y01129*
X00574Y01129*
X00572Y01129*
X0057Y01129*
X00569*
X00567Y01129*
X00565Y01129*
X00563Y01129*
X00562Y01128*
X0056Y01128*
X00559Y01127*
X00557Y01126*
X00556Y01125*
X00554Y01124*
X00553Y01123*
X00552Y01122*
X0055Y01121*
X00549Y01119*
X00548Y01118*
X00547Y01116*
X00547Y01115*
X00546Y01113*
X00545Y01111*
X00545Y0111*
X00545Y01108*
X00545Y01106*
X00545Y01105*
X00545Y01103*
X00545Y01101*
X00545Y01099*
X00545Y01098*
X00546Y01096*
X00547Y01094*
X00547Y01093*
X00548Y01091*
X00549Y0109*
X0055Y01088*
X00552Y01087*
X00553Y01086*
X00554Y01085*
X00556Y01084*
X00557Y01083*
X00559Y01082*
X0056Y01081*
X00562Y01081*
X00563Y0108*
X00565Y0108*
X00567Y0108*
X00569Y0108*
X0057*
X00572Y0108*
X00574Y0108*
X00576Y0108*
X00577Y01081*
X00579Y01081*
X0058Y01082*
X00582Y01083*
X00583Y01084*
X00585Y01085*
X00586Y01086*
X00587Y01087*
X00589Y01088*
X0059Y0109*
X00591Y01091*
X00592Y01093*
X00592Y01094*
X00593Y01096*
X00594Y01098*
X00594Y01099*
X00594Y01101*
X00594Y01103*
X00595Y01105*
X02295D02*
D01*
X02294Y01106*
X02294Y01108*
X02294Y0111*
X02294Y01111*
X02293Y01113*
X02292Y01115*
X02292Y01116*
X02291Y01118*
X0229Y01119*
X02289Y01121*
X02287Y01122*
X02286Y01123*
X02285Y01124*
X02283Y01125*
X02282Y01126*
X0228Y01127*
X02279Y01128*
X02277Y01128*
X02276Y01129*
X02274Y01129*
X02272Y01129*
X0227Y01129*
X02269*
X02267Y01129*
X02265Y01129*
X02263Y01129*
X02262Y01128*
X0226Y01128*
X02259Y01127*
X02257Y01126*
X02256Y01125*
X02254Y01124*
X02253Y01123*
X02252Y01122*
X0225Y01121*
X02249Y01119*
X02248Y01118*
X02247Y01116*
X02247Y01115*
X02246Y01113*
X02245Y01111*
X02245Y0111*
X02245Y01108*
X02245Y01106*
X02245Y01105*
X02245Y01103*
X02245Y01101*
X02245Y01099*
X02245Y01098*
X02246Y01096*
X02247Y01094*
X02247Y01093*
X02248Y01091*
X02249Y0109*
X0225Y01088*
X02252Y01087*
X02253Y01086*
X02254Y01085*
X02256Y01084*
X02257Y01083*
X02259Y01082*
X0226Y01081*
X02262Y01081*
X02263Y0108*
X02265Y0108*
X02267Y0108*
X02269Y0108*
X0227*
X02272Y0108*
X02274Y0108*
X02276Y0108*
X02277Y01081*
X02279Y01081*
X0228Y01082*
X02282Y01083*
X02283Y01084*
X02285Y01085*
X02286Y01086*
X02287Y01087*
X02289Y01088*
X0229Y0109*
X02291Y01091*
X02292Y01093*
X02292Y01094*
X02293Y01096*
X02294Y01098*
X02294Y01099*
X02294Y01101*
X02294Y01103*
X02295Y01105*
X00595Y01205D02*
D01*
X00594Y01206*
X00594Y01208*
X00594Y0121*
X00594Y01211*
X00593Y01213*
X00592Y01215*
X00592Y01216*
X00591Y01218*
X0059Y01219*
X00589Y01221*
X00587Y01222*
X00586Y01223*
X00585Y01224*
X00583Y01225*
X00582Y01226*
X0058Y01227*
X00579Y01228*
X00577Y01228*
X00576Y01229*
X00574Y01229*
X00572Y01229*
X0057Y01229*
X00569*
X00567Y01229*
X00565Y01229*
X00563Y01229*
X00562Y01228*
X0056Y01228*
X00559Y01227*
X00557Y01226*
X00556Y01225*
X00554Y01224*
X00553Y01223*
X00552Y01222*
X0055Y01221*
X00549Y01219*
X00548Y01218*
X00547Y01216*
X00547Y01215*
X00546Y01213*
X00545Y01211*
X00545Y0121*
X00545Y01208*
X00545Y01206*
X00545Y01205*
X00545Y01203*
X00545Y01201*
X00545Y01199*
X00545Y01198*
X00546Y01196*
X00547Y01194*
X00547Y01193*
X00548Y01191*
X00549Y0119*
X0055Y01188*
X00552Y01187*
X00553Y01186*
X00554Y01185*
X00556Y01184*
X00557Y01183*
X00559Y01182*
X0056Y01181*
X00562Y01181*
X00563Y0118*
X00565Y0118*
X00567Y0118*
X00569Y0118*
X0057*
X00572Y0118*
X00574Y0118*
X00576Y0118*
X00577Y01181*
X00579Y01181*
X0058Y01182*
X00582Y01183*
X00583Y01184*
X00585Y01185*
X00586Y01186*
X00587Y01187*
X00589Y01188*
X0059Y0119*
X00591Y01191*
X00592Y01193*
X00592Y01194*
X00593Y01196*
X00594Y01198*
X00594Y01199*
X00594Y01201*
X00594Y01203*
X00595Y01205*
X00995Y01005D02*
D01*
X00994Y01006*
X00994Y01008*
X00994Y0101*
X00994Y01011*
X00993Y01013*
X00992Y01015*
X00992Y01016*
X00991Y01018*
X0099Y01019*
X00989Y01021*
X00987Y01022*
X00986Y01023*
X00985Y01024*
X00983Y01025*
X00982Y01026*
X0098Y01027*
X00979Y01028*
X00977Y01028*
X00976Y01029*
X00974Y01029*
X00972Y01029*
X0097Y01029*
X00969*
X00967Y01029*
X00965Y01029*
X00963Y01029*
X00962Y01028*
X0096Y01028*
X00959Y01027*
X00957Y01026*
X00956Y01025*
X00954Y01024*
X00953Y01023*
X00952Y01022*
X0095Y01021*
X00949Y01019*
X00948Y01018*
X00947Y01016*
X00947Y01015*
X00946Y01013*
X00945Y01011*
X00945Y0101*
X00945Y01008*
X00945Y01006*
X00945Y01005*
X00945Y01003*
X00945Y01001*
X00945Y00999*
X00945Y00998*
X00946Y00996*
X00947Y00994*
X00947Y00993*
X00948Y00991*
X00949Y0099*
X0095Y00988*
X00952Y00987*
X00953Y00986*
X00954Y00985*
X00956Y00984*
X00957Y00983*
X00959Y00982*
X0096Y00981*
X00962Y00981*
X00963Y0098*
X00965Y0098*
X00967Y0098*
X00969Y0098*
X0097*
X00972Y0098*
X00974Y0098*
X00976Y0098*
X00977Y00981*
X00979Y00981*
X0098Y00982*
X00982Y00983*
X00983Y00984*
X00985Y00985*
X00986Y00986*
X00987Y00987*
X00989Y00988*
X0099Y0099*
X00991Y00991*
X00992Y00993*
X00992Y00994*
X00993Y00996*
X00994Y00998*
X00994Y00999*
X00994Y01001*
X00994Y01003*
X00995Y01005*
X02195Y01605D02*
D01*
X02194Y01606*
X02194Y01608*
X02194Y0161*
X02194Y01611*
X02193Y01613*
X02192Y01615*
X02192Y01616*
X02191Y01618*
X0219Y01619*
X02189Y01621*
X02187Y01622*
X02186Y01623*
X02185Y01624*
X02183Y01625*
X02182Y01626*
X0218Y01627*
X02179Y01628*
X02177Y01628*
X02176Y01629*
X02174Y01629*
X02172Y01629*
X0217Y01629*
X02169*
X02167Y01629*
X02165Y01629*
X02163Y01629*
X02162Y01628*
X0216Y01628*
X02159Y01627*
X02157Y01626*
X02156Y01625*
X02154Y01624*
X02153Y01623*
X02152Y01622*
X0215Y01621*
X02149Y01619*
X02148Y01618*
X02147Y01616*
X02147Y01615*
X02146Y01613*
X02145Y01611*
X02145Y0161*
X02145Y01608*
X02145Y01606*
X02145Y01605*
X02145Y01603*
X02145Y01601*
X02145Y01599*
X02145Y01598*
X02146Y01596*
X02147Y01594*
X02147Y01593*
X02148Y01591*
X02149Y0159*
X0215Y01588*
X02152Y01587*
X02153Y01586*
X02154Y01585*
X02156Y01584*
X02157Y01583*
X02159Y01582*
X0216Y01581*
X02162Y01581*
X02163Y0158*
X02165Y0158*
X02167Y0158*
X02169Y0158*
X0217*
X02172Y0158*
X02174Y0158*
X02176Y0158*
X02177Y01581*
X02179Y01581*
X0218Y01582*
X02182Y01583*
X02183Y01584*
X02185Y01585*
X02186Y01586*
X02187Y01587*
X02189Y01588*
X0219Y0159*
X02191Y01591*
X02192Y01593*
X02192Y01594*
X02193Y01596*
X02194Y01598*
X02194Y01599*
X02194Y01601*
X02194Y01603*
X02195Y01605*
X02095D02*
D01*
X02094Y01606*
X02094Y01608*
X02094Y0161*
X02094Y01611*
X02093Y01613*
X02092Y01615*
X02092Y01616*
X02091Y01618*
X0209Y01619*
X02089Y01621*
X02087Y01622*
X02086Y01623*
X02085Y01624*
X02083Y01625*
X02082Y01626*
X0208Y01627*
X02079Y01628*
X02077Y01628*
X02076Y01629*
X02074Y01629*
X02072Y01629*
X0207Y01629*
X02069*
X02067Y01629*
X02065Y01629*
X02063Y01629*
X02062Y01628*
X0206Y01628*
X02059Y01627*
X02057Y01626*
X02056Y01625*
X02054Y01624*
X02053Y01623*
X02052Y01622*
X0205Y01621*
X02049Y01619*
X02048Y01618*
X02047Y01616*
X02047Y01615*
X02046Y01613*
X02045Y01611*
X02045Y0161*
X02045Y01608*
X02045Y01606*
X02045Y01605*
X02045Y01603*
X02045Y01601*
X02045Y01599*
X02045Y01598*
X02046Y01596*
X02047Y01594*
X02047Y01593*
X02048Y01591*
X02049Y0159*
X0205Y01588*
X02052Y01587*
X02053Y01586*
X02054Y01585*
X02056Y01584*
X02057Y01583*
X02059Y01582*
X0206Y01581*
X02062Y01581*
X02063Y0158*
X02065Y0158*
X02067Y0158*
X02069Y0158*
X0207*
X02072Y0158*
X02074Y0158*
X02076Y0158*
X02077Y01581*
X02079Y01581*
X0208Y01582*
X02082Y01583*
X02083Y01584*
X02085Y01585*
X02086Y01586*
X02087Y01587*
X02089Y01588*
X0209Y0159*
X02091Y01591*
X02092Y01593*
X02092Y01594*
X02093Y01596*
X02094Y01598*
X02094Y01599*
X02094Y01601*
X02094Y01603*
X02095Y01605*
X01995D02*
D01*
X01994Y01606*
X01994Y01608*
X01994Y0161*
X01994Y01611*
X01993Y01613*
X01992Y01615*
X01992Y01616*
X01991Y01618*
X0199Y01619*
X01989Y01621*
X01987Y01622*
X01986Y01623*
X01985Y01624*
X01983Y01625*
X01982Y01626*
X0198Y01627*
X01979Y01628*
X01977Y01628*
X01976Y01629*
X01974Y01629*
X01972Y01629*
X0197Y01629*
X01969*
X01967Y01629*
X01965Y01629*
X01963Y01629*
X01962Y01628*
X0196Y01628*
X01959Y01627*
X01957Y01626*
X01956Y01625*
X01954Y01624*
X01953Y01623*
X01952Y01622*
X0195Y01621*
X01949Y01619*
X01948Y01618*
X01947Y01616*
X01947Y01615*
X01946Y01613*
X01945Y01611*
X01945Y0161*
X01945Y01608*
X01945Y01606*
X01945Y01605*
X01945Y01603*
X01945Y01601*
X01945Y01599*
X01945Y01598*
X01946Y01596*
X01947Y01594*
X01947Y01593*
X01948Y01591*
X01949Y0159*
X0195Y01588*
X01952Y01587*
X01953Y01586*
X01954Y01585*
X01956Y01584*
X01957Y01583*
X01959Y01582*
X0196Y01581*
X01962Y01581*
X01963Y0158*
X01965Y0158*
X01967Y0158*
X01969Y0158*
X0197*
X01972Y0158*
X01974Y0158*
X01976Y0158*
X01977Y01581*
X01979Y01581*
X0198Y01582*
X01982Y01583*
X01983Y01584*
X01985Y01585*
X01986Y01586*
X01987Y01587*
X01989Y01588*
X0199Y0159*
X01991Y01591*
X01992Y01593*
X01992Y01594*
X01993Y01596*
X01994Y01598*
X01994Y01599*
X01994Y01601*
X01994Y01603*
X01995Y01605*
X01895D02*
D01*
X01894Y01606*
X01894Y01608*
X01894Y0161*
X01894Y01611*
X01893Y01613*
X01892Y01615*
X01892Y01616*
X01891Y01618*
X0189Y01619*
X01889Y01621*
X01887Y01622*
X01886Y01623*
X01885Y01624*
X01883Y01625*
X01882Y01626*
X0188Y01627*
X01879Y01628*
X01877Y01628*
X01876Y01629*
X01874Y01629*
X01872Y01629*
X0187Y01629*
X01869*
X01867Y01629*
X01865Y01629*
X01863Y01629*
X01862Y01628*
X0186Y01628*
X01859Y01627*
X01857Y01626*
X01856Y01625*
X01854Y01624*
X01853Y01623*
X01852Y01622*
X0185Y01621*
X01849Y01619*
X01848Y01618*
X01847Y01616*
X01847Y01615*
X01846Y01613*
X01845Y01611*
X01845Y0161*
X01845Y01608*
X01845Y01606*
X01845Y01605*
X01845Y01603*
X01845Y01601*
X01845Y01599*
X01845Y01598*
X01846Y01596*
X01847Y01594*
X01847Y01593*
X01848Y01591*
X01849Y0159*
X0185Y01588*
X01852Y01587*
X01853Y01586*
X01854Y01585*
X01856Y01584*
X01857Y01583*
X01859Y01582*
X0186Y01581*
X01862Y01581*
X01863Y0158*
X01865Y0158*
X01867Y0158*
X01869Y0158*
X0187*
X01872Y0158*
X01874Y0158*
X01876Y0158*
X01877Y01581*
X01879Y01581*
X0188Y01582*
X01882Y01583*
X01883Y01584*
X01885Y01585*
X01886Y01586*
X01887Y01587*
X01889Y01588*
X0189Y0159*
X01891Y01591*
X01892Y01593*
X01892Y01594*
X01893Y01596*
X01894Y01598*
X01894Y01599*
X01894Y01601*
X01894Y01603*
X01895Y01605*
X01795D02*
D01*
X01794Y01606*
X01794Y01608*
X01794Y0161*
X01794Y01611*
X01793Y01613*
X01792Y01615*
X01792Y01616*
X01791Y01618*
X0179Y01619*
X01789Y01621*
X01787Y01622*
X01786Y01623*
X01785Y01624*
X01783Y01625*
X01782Y01626*
X0178Y01627*
X01779Y01628*
X01777Y01628*
X01776Y01629*
X01774Y01629*
X01772Y01629*
X0177Y01629*
X01769*
X01767Y01629*
X01765Y01629*
X01763Y01629*
X01762Y01628*
X0176Y01628*
X01759Y01627*
X01757Y01626*
X01756Y01625*
X01754Y01624*
X01753Y01623*
X01752Y01622*
X0175Y01621*
X01749Y01619*
X01748Y01618*
X01747Y01616*
X01747Y01615*
X01746Y01613*
X01745Y01611*
X01745Y0161*
X01745Y01608*
X01745Y01606*
X01745Y01605*
X01745Y01603*
X01745Y01601*
X01745Y01599*
X01745Y01598*
X01746Y01596*
X01747Y01594*
X01747Y01593*
X01748Y01591*
X01749Y0159*
X0175Y01588*
X01752Y01587*
X01753Y01586*
X01754Y01585*
X01756Y01584*
X01757Y01583*
X01759Y01582*
X0176Y01581*
X01762Y01581*
X01763Y0158*
X01765Y0158*
X01767Y0158*
X01769Y0158*
X0177*
X01772Y0158*
X01774Y0158*
X01776Y0158*
X01777Y01581*
X01779Y01581*
X0178Y01582*
X01782Y01583*
X01783Y01584*
X01785Y01585*
X01786Y01586*
X01787Y01587*
X01789Y01588*
X0179Y0159*
X01791Y01591*
X01792Y01593*
X01792Y01594*
X01793Y01596*
X01794Y01598*
X01794Y01599*
X01794Y01601*
X01794Y01603*
X01795Y01605*
X01695D02*
D01*
X01694Y01606*
X01694Y01608*
X01694Y0161*
X01694Y01611*
X01693Y01613*
X01692Y01615*
X01692Y01616*
X01691Y01618*
X0169Y01619*
X01689Y01621*
X01687Y01622*
X01686Y01623*
X01685Y01624*
X01683Y01625*
X01682Y01626*
X0168Y01627*
X01679Y01628*
X01677Y01628*
X01676Y01629*
X01674Y01629*
X01672Y01629*
X0167Y01629*
X01669*
X01667Y01629*
X01665Y01629*
X01663Y01629*
X01662Y01628*
X0166Y01628*
X01659Y01627*
X01657Y01626*
X01656Y01625*
X01654Y01624*
X01653Y01623*
X01652Y01622*
X0165Y01621*
X01649Y01619*
X01648Y01618*
X01647Y01616*
X01647Y01615*
X01646Y01613*
X01645Y01611*
X01645Y0161*
X01645Y01608*
X01645Y01606*
X01645Y01605*
X01645Y01603*
X01645Y01601*
X01645Y01599*
X01645Y01598*
X01646Y01596*
X01647Y01594*
X01647Y01593*
X01648Y01591*
X01649Y0159*
X0165Y01588*
X01652Y01587*
X01653Y01586*
X01654Y01585*
X01656Y01584*
X01657Y01583*
X01659Y01582*
X0166Y01581*
X01662Y01581*
X01663Y0158*
X01665Y0158*
X01667Y0158*
X01669Y0158*
X0167*
X01672Y0158*
X01674Y0158*
X01676Y0158*
X01677Y01581*
X01679Y01581*
X0168Y01582*
X01682Y01583*
X01683Y01584*
X01685Y01585*
X01686Y01586*
X01687Y01587*
X01689Y01588*
X0169Y0159*
X01691Y01591*
X01692Y01593*
X01692Y01594*
X01693Y01596*
X01694Y01598*
X01694Y01599*
X01694Y01601*
X01694Y01603*
X01695Y01605*
X01595D02*
D01*
X01594Y01606*
X01594Y01608*
X01594Y0161*
X01594Y01611*
X01593Y01613*
X01592Y01615*
X01592Y01616*
X01591Y01618*
X0159Y01619*
X01589Y01621*
X01587Y01622*
X01586Y01623*
X01585Y01624*
X01583Y01625*
X01582Y01626*
X0158Y01627*
X01579Y01628*
X01577Y01628*
X01576Y01629*
X01574Y01629*
X01572Y01629*
X0157Y01629*
X01569*
X01567Y01629*
X01565Y01629*
X01563Y01629*
X01562Y01628*
X0156Y01628*
X01559Y01627*
X01557Y01626*
X01556Y01625*
X01554Y01624*
X01553Y01623*
X01552Y01622*
X0155Y01621*
X01549Y01619*
X01548Y01618*
X01547Y01616*
X01547Y01615*
X01546Y01613*
X01545Y01611*
X01545Y0161*
X01545Y01608*
X01545Y01606*
X01545Y01605*
X01545Y01603*
X01545Y01601*
X01545Y01599*
X01545Y01598*
X01546Y01596*
X01547Y01594*
X01547Y01593*
X01548Y01591*
X01549Y0159*
X0155Y01588*
X01552Y01587*
X01553Y01586*
X01554Y01585*
X01556Y01584*
X01557Y01583*
X01559Y01582*
X0156Y01581*
X01562Y01581*
X01563Y0158*
X01565Y0158*
X01567Y0158*
X01569Y0158*
X0157*
X01572Y0158*
X01574Y0158*
X01576Y0158*
X01577Y01581*
X01579Y01581*
X0158Y01582*
X01582Y01583*
X01583Y01584*
X01585Y01585*
X01586Y01586*
X01587Y01587*
X01589Y01588*
X0159Y0159*
X01591Y01591*
X01592Y01593*
X01592Y01594*
X01593Y01596*
X01594Y01598*
X01594Y01599*
X01594Y01601*
X01594Y01603*
X01595Y01605*
X01495D02*
D01*
X01494Y01606*
X01494Y01608*
X01494Y0161*
X01494Y01611*
X01493Y01613*
X01492Y01615*
X01492Y01616*
X01491Y01618*
X0149Y01619*
X01489Y01621*
X01487Y01622*
X01486Y01623*
X01485Y01624*
X01483Y01625*
X01482Y01626*
X0148Y01627*
X01479Y01628*
X01477Y01628*
X01476Y01629*
X01474Y01629*
X01472Y01629*
X0147Y01629*
X01469*
X01467Y01629*
X01465Y01629*
X01463Y01629*
X01462Y01628*
X0146Y01628*
X01459Y01627*
X01457Y01626*
X01456Y01625*
X01454Y01624*
X01453Y01623*
X01452Y01622*
X0145Y01621*
X01449Y01619*
X01448Y01618*
X01447Y01616*
X01447Y01615*
X01446Y01613*
X01445Y01611*
X01445Y0161*
X01445Y01608*
X01445Y01606*
X01445Y01605*
X01445Y01603*
X01445Y01601*
X01445Y01599*
X01445Y01598*
X01446Y01596*
X01447Y01594*
X01447Y01593*
X01448Y01591*
X01449Y0159*
X0145Y01588*
X01452Y01587*
X01453Y01586*
X01454Y01585*
X01456Y01584*
X01457Y01583*
X01459Y01582*
X0146Y01581*
X01462Y01581*
X01463Y0158*
X01465Y0158*
X01467Y0158*
X01469Y0158*
X0147*
X01472Y0158*
X01474Y0158*
X01476Y0158*
X01477Y01581*
X01479Y01581*
X0148Y01582*
X01482Y01583*
X01483Y01584*
X01485Y01585*
X01486Y01586*
X01487Y01587*
X01489Y01588*
X0149Y0159*
X01491Y01591*
X01492Y01593*
X01492Y01594*
X01493Y01596*
X01494Y01598*
X01494Y01599*
X01494Y01601*
X01494Y01603*
X01495Y01605*
X01395D02*
D01*
X01394Y01606*
X01394Y01608*
X01394Y0161*
X01394Y01611*
X01393Y01613*
X01392Y01615*
X01392Y01616*
X01391Y01618*
X0139Y01619*
X01389Y01621*
X01387Y01622*
X01386Y01623*
X01385Y01624*
X01383Y01625*
X01382Y01626*
X0138Y01627*
X01379Y01628*
X01377Y01628*
X01376Y01629*
X01374Y01629*
X01372Y01629*
X0137Y01629*
X01369*
X01367Y01629*
X01365Y01629*
X01363Y01629*
X01362Y01628*
X0136Y01628*
X01359Y01627*
X01357Y01626*
X01356Y01625*
X01354Y01624*
X01353Y01623*
X01352Y01622*
X0135Y01621*
X01349Y01619*
X01348Y01618*
X01347Y01616*
X01347Y01615*
X01346Y01613*
X01345Y01611*
X01345Y0161*
X01345Y01608*
X01345Y01606*
X01345Y01605*
X01345Y01603*
X01345Y01601*
X01345Y01599*
X01345Y01598*
X01346Y01596*
X01347Y01594*
X01347Y01593*
X01348Y01591*
X01349Y0159*
X0135Y01588*
X01352Y01587*
X01353Y01586*
X01354Y01585*
X01356Y01584*
X01357Y01583*
X01359Y01582*
X0136Y01581*
X01362Y01581*
X01363Y0158*
X01365Y0158*
X01367Y0158*
X01369Y0158*
X0137*
X01372Y0158*
X01374Y0158*
X01376Y0158*
X01377Y01581*
X01379Y01581*
X0138Y01582*
X01382Y01583*
X01383Y01584*
X01385Y01585*
X01386Y01586*
X01387Y01587*
X01389Y01588*
X0139Y0159*
X01391Y01591*
X01392Y01593*
X01392Y01594*
X01393Y01596*
X01394Y01598*
X01394Y01599*
X01394Y01601*
X01394Y01603*
X01395Y01605*
X01295D02*
D01*
X01294Y01606*
X01294Y01608*
X01294Y0161*
X01294Y01611*
X01293Y01613*
X01292Y01615*
X01292Y01616*
X01291Y01618*
X0129Y01619*
X01289Y01621*
X01287Y01622*
X01286Y01623*
X01285Y01624*
X01283Y01625*
X01282Y01626*
X0128Y01627*
X01279Y01628*
X01277Y01628*
X01276Y01629*
X01274Y01629*
X01272Y01629*
X0127Y01629*
X01269*
X01267Y01629*
X01265Y01629*
X01263Y01629*
X01262Y01628*
X0126Y01628*
X01259Y01627*
X01257Y01626*
X01256Y01625*
X01254Y01624*
X01253Y01623*
X01252Y01622*
X0125Y01621*
X01249Y01619*
X01248Y01618*
X01247Y01616*
X01247Y01615*
X01246Y01613*
X01245Y01611*
X01245Y0161*
X01245Y01608*
X01245Y01606*
X01245Y01605*
X01245Y01603*
X01245Y01601*
X01245Y01599*
X01245Y01598*
X01246Y01596*
X01247Y01594*
X01247Y01593*
X01248Y01591*
X01249Y0159*
X0125Y01588*
X01252Y01587*
X01253Y01586*
X01254Y01585*
X01256Y01584*
X01257Y01583*
X01259Y01582*
X0126Y01581*
X01262Y01581*
X01263Y0158*
X01265Y0158*
X01267Y0158*
X01269Y0158*
X0127*
X01272Y0158*
X01274Y0158*
X01276Y0158*
X01277Y01581*
X01279Y01581*
X0128Y01582*
X01282Y01583*
X01283Y01584*
X01285Y01585*
X01286Y01586*
X01287Y01587*
X01289Y01588*
X0129Y0159*
X01291Y01591*
X01292Y01593*
X01292Y01594*
X01293Y01596*
X01294Y01598*
X01294Y01599*
X01294Y01601*
X01294Y01603*
X01295Y01605*
X01195D02*
D01*
X01194Y01606*
X01194Y01608*
X01194Y0161*
X01194Y01611*
X01193Y01613*
X01192Y01615*
X01192Y01616*
X01191Y01618*
X0119Y01619*
X01189Y01621*
X01187Y01622*
X01186Y01623*
X01185Y01624*
X01183Y01625*
X01182Y01626*
X0118Y01627*
X01179Y01628*
X01177Y01628*
X01176Y01629*
X01174Y01629*
X01172Y01629*
X0117Y01629*
X01169*
X01167Y01629*
X01165Y01629*
X01163Y01629*
X01162Y01628*
X0116Y01628*
X01159Y01627*
X01157Y01626*
X01156Y01625*
X01154Y01624*
X01153Y01623*
X01152Y01622*
X0115Y01621*
X01149Y01619*
X01148Y01618*
X01147Y01616*
X01147Y01615*
X01146Y01613*
X01145Y01611*
X01145Y0161*
X01145Y01608*
X01145Y01606*
X01145Y01605*
X01145Y01603*
X01145Y01601*
X01145Y01599*
X01145Y01598*
X01146Y01596*
X01147Y01594*
X01147Y01593*
X01148Y01591*
X01149Y0159*
X0115Y01588*
X01152Y01587*
X01153Y01586*
X01154Y01585*
X01156Y01584*
X01157Y01583*
X01159Y01582*
X0116Y01581*
X01162Y01581*
X01163Y0158*
X01165Y0158*
X01167Y0158*
X01169Y0158*
X0117*
X01172Y0158*
X01174Y0158*
X01176Y0158*
X01177Y01581*
X01179Y01581*
X0118Y01582*
X01182Y01583*
X01183Y01584*
X01185Y01585*
X01186Y01586*
X01187Y01587*
X01189Y01588*
X0119Y0159*
X01191Y01591*
X01192Y01593*
X01192Y01594*
X01193Y01596*
X01194Y01598*
X01194Y01599*
X01194Y01601*
X01194Y01603*
X01195Y01605*
X01095D02*
D01*
X01094Y01606*
X01094Y01608*
X01094Y0161*
X01094Y01611*
X01093Y01613*
X01092Y01615*
X01092Y01616*
X01091Y01618*
X0109Y01619*
X01089Y01621*
X01087Y01622*
X01086Y01623*
X01085Y01624*
X01083Y01625*
X01082Y01626*
X0108Y01627*
X01079Y01628*
X01077Y01628*
X01076Y01629*
X01074Y01629*
X01072Y01629*
X0107Y01629*
X01069*
X01067Y01629*
X01065Y01629*
X01063Y01629*
X01062Y01628*
X0106Y01628*
X01059Y01627*
X01057Y01626*
X01056Y01625*
X01054Y01624*
X01053Y01623*
X01052Y01622*
X0105Y01621*
X01049Y01619*
X01048Y01618*
X01047Y01616*
X01047Y01615*
X01046Y01613*
X01045Y01611*
X01045Y0161*
X01045Y01608*
X01045Y01606*
X01045Y01605*
X01045Y01603*
X01045Y01601*
X01045Y01599*
X01045Y01598*
X01046Y01596*
X01047Y01594*
X01047Y01593*
X01048Y01591*
X01049Y0159*
X0105Y01588*
X01052Y01587*
X01053Y01586*
X01054Y01585*
X01056Y01584*
X01057Y01583*
X01059Y01582*
X0106Y01581*
X01062Y01581*
X01063Y0158*
X01065Y0158*
X01067Y0158*
X01069Y0158*
X0107*
X01072Y0158*
X01074Y0158*
X01076Y0158*
X01077Y01581*
X01079Y01581*
X0108Y01582*
X01082Y01583*
X01083Y01584*
X01085Y01585*
X01086Y01586*
X01087Y01587*
X01089Y01588*
X0109Y0159*
X01091Y01591*
X01092Y01593*
X01092Y01594*
X01093Y01596*
X01094Y01598*
X01094Y01599*
X01094Y01601*
X01094Y01603*
X01095Y01605*
X00995D02*
D01*
X00994Y01606*
X00994Y01608*
X00994Y0161*
X00994Y01611*
X00993Y01613*
X00992Y01615*
X00992Y01616*
X00991Y01618*
X0099Y01619*
X00989Y01621*
X00987Y01622*
X00986Y01623*
X00985Y01624*
X00983Y01625*
X00982Y01626*
X0098Y01627*
X00979Y01628*
X00977Y01628*
X00976Y01629*
X00974Y01629*
X00972Y01629*
X0097Y01629*
X00969*
X00967Y01629*
X00965Y01629*
X00963Y01629*
X00962Y01628*
X0096Y01628*
X00959Y01627*
X00957Y01626*
X00956Y01625*
X00954Y01624*
X00953Y01623*
X00952Y01622*
X0095Y01621*
X00949Y01619*
X00948Y01618*
X00947Y01616*
X00947Y01615*
X00946Y01613*
X00945Y01611*
X00945Y0161*
X00945Y01608*
X00945Y01606*
X00945Y01605*
X00945Y01603*
X00945Y01601*
X00945Y01599*
X00945Y01598*
X00946Y01596*
X00947Y01594*
X00947Y01593*
X00948Y01591*
X00949Y0159*
X0095Y01588*
X00952Y01587*
X00953Y01586*
X00954Y01585*
X00956Y01584*
X00957Y01583*
X00959Y01582*
X0096Y01581*
X00962Y01581*
X00963Y0158*
X00965Y0158*
X00967Y0158*
X00969Y0158*
X0097*
X00972Y0158*
X00974Y0158*
X00976Y0158*
X00977Y01581*
X00979Y01581*
X0098Y01582*
X00982Y01583*
X00983Y01584*
X00985Y01585*
X00986Y01586*
X00987Y01587*
X00989Y01588*
X0099Y0159*
X00991Y01591*
X00992Y01593*
X00992Y01594*
X00993Y01596*
X00994Y01598*
X00994Y01599*
X00994Y01601*
X00994Y01603*
X00995Y01605*
X01095Y01005D02*
D01*
X01094Y01006*
X01094Y01008*
X01094Y0101*
X01094Y01011*
X01093Y01013*
X01092Y01015*
X01092Y01016*
X01091Y01018*
X0109Y01019*
X01089Y01021*
X01087Y01022*
X01086Y01023*
X01085Y01024*
X01083Y01025*
X01082Y01026*
X0108Y01027*
X01079Y01028*
X01077Y01028*
X01076Y01029*
X01074Y01029*
X01072Y01029*
X0107Y01029*
X01069*
X01067Y01029*
X01065Y01029*
X01063Y01029*
X01062Y01028*
X0106Y01028*
X01059Y01027*
X01057Y01026*
X01056Y01025*
X01054Y01024*
X01053Y01023*
X01052Y01022*
X0105Y01021*
X01049Y01019*
X01048Y01018*
X01047Y01016*
X01047Y01015*
X01046Y01013*
X01045Y01011*
X01045Y0101*
X01045Y01008*
X01045Y01006*
X01045Y01005*
X01045Y01003*
X01045Y01001*
X01045Y00999*
X01045Y00998*
X01046Y00996*
X01047Y00994*
X01047Y00993*
X01048Y00991*
X01049Y0099*
X0105Y00988*
X01052Y00987*
X01053Y00986*
X01054Y00985*
X01056Y00984*
X01057Y00983*
X01059Y00982*
X0106Y00981*
X01062Y00981*
X01063Y0098*
X01065Y0098*
X01067Y0098*
X01069Y0098*
X0107*
X01072Y0098*
X01074Y0098*
X01076Y0098*
X01077Y00981*
X01079Y00981*
X0108Y00982*
X01082Y00983*
X01083Y00984*
X01085Y00985*
X01086Y00986*
X01087Y00987*
X01089Y00988*
X0109Y0099*
X01091Y00991*
X01092Y00993*
X01092Y00994*
X01093Y00996*
X01094Y00998*
X01094Y00999*
X01094Y01001*
X01094Y01003*
X01095Y01005*
X01195D02*
D01*
X01194Y01006*
X01194Y01008*
X01194Y0101*
X01194Y01011*
X01193Y01013*
X01192Y01015*
X01192Y01016*
X01191Y01018*
X0119Y01019*
X01189Y01021*
X01187Y01022*
X01186Y01023*
X01185Y01024*
X01183Y01025*
X01182Y01026*
X0118Y01027*
X01179Y01028*
X01177Y01028*
X01176Y01029*
X01174Y01029*
X01172Y01029*
X0117Y01029*
X01169*
X01167Y01029*
X01165Y01029*
X01163Y01029*
X01162Y01028*
X0116Y01028*
X01159Y01027*
X01157Y01026*
X01156Y01025*
X01154Y01024*
X01153Y01023*
X01152Y01022*
X0115Y01021*
X01149Y01019*
X01148Y01018*
X01147Y01016*
X01147Y01015*
X01146Y01013*
X01145Y01011*
X01145Y0101*
X01145Y01008*
X01145Y01006*
X01145Y01005*
X01145Y01003*
X01145Y01001*
X01145Y00999*
X01145Y00998*
X01146Y00996*
X01147Y00994*
X01147Y00993*
X01148Y00991*
X01149Y0099*
X0115Y00988*
X01152Y00987*
X01153Y00986*
X01154Y00985*
X01156Y00984*
X01157Y00983*
X01159Y00982*
X0116Y00981*
X01162Y00981*
X01163Y0098*
X01165Y0098*
X01167Y0098*
X01169Y0098*
X0117*
X01172Y0098*
X01174Y0098*
X01176Y0098*
X01177Y00981*
X01179Y00981*
X0118Y00982*
X01182Y00983*
X01183Y00984*
X01185Y00985*
X01186Y00986*
X01187Y00987*
X01189Y00988*
X0119Y0099*
X01191Y00991*
X01192Y00993*
X01192Y00994*
X01193Y00996*
X01194Y00998*
X01194Y00999*
X01194Y01001*
X01194Y01003*
X01195Y01005*
X01295D02*
D01*
X01294Y01006*
X01294Y01008*
X01294Y0101*
X01294Y01011*
X01293Y01013*
X01292Y01015*
X01292Y01016*
X01291Y01018*
X0129Y01019*
X01289Y01021*
X01287Y01022*
X01286Y01023*
X01285Y01024*
X01283Y01025*
X01282Y01026*
X0128Y01027*
X01279Y01028*
X01277Y01028*
X01276Y01029*
X01274Y01029*
X01272Y01029*
X0127Y01029*
X01269*
X01267Y01029*
X01265Y01029*
X01263Y01029*
X01262Y01028*
X0126Y01028*
X01259Y01027*
X01257Y01026*
X01256Y01025*
X01254Y01024*
X01253Y01023*
X01252Y01022*
X0125Y01021*
X01249Y01019*
X01248Y01018*
X01247Y01016*
X01247Y01015*
X01246Y01013*
X01245Y01011*
X01245Y0101*
X01245Y01008*
X01245Y01006*
X01245Y01005*
X01245Y01003*
X01245Y01001*
X01245Y00999*
X01245Y00998*
X01246Y00996*
X01247Y00994*
X01247Y00993*
X01248Y00991*
X01249Y0099*
X0125Y00988*
X01252Y00987*
X01253Y00986*
X01254Y00985*
X01256Y00984*
X01257Y00983*
X01259Y00982*
X0126Y00981*
X01262Y00981*
X01263Y0098*
X01265Y0098*
X01267Y0098*
X01269Y0098*
X0127*
X01272Y0098*
X01274Y0098*
X01276Y0098*
X01277Y00981*
X01279Y00981*
X0128Y00982*
X01282Y00983*
X01283Y00984*
X01285Y00985*
X01286Y00986*
X01287Y00987*
X01289Y00988*
X0129Y0099*
X01291Y00991*
X01292Y00993*
X01292Y00994*
X01293Y00996*
X01294Y00998*
X01294Y00999*
X01294Y01001*
X01294Y01003*
X01295Y01005*
X01395D02*
D01*
X01394Y01006*
X01394Y01008*
X01394Y0101*
X01394Y01011*
X01393Y01013*
X01392Y01015*
X01392Y01016*
X01391Y01018*
X0139Y01019*
X01389Y01021*
X01387Y01022*
X01386Y01023*
X01385Y01024*
X01383Y01025*
X01382Y01026*
X0138Y01027*
X01379Y01028*
X01377Y01028*
X01376Y01029*
X01374Y01029*
X01372Y01029*
X0137Y01029*
X01369*
X01367Y01029*
X01365Y01029*
X01363Y01029*
X01362Y01028*
X0136Y01028*
X01359Y01027*
X01357Y01026*
X01356Y01025*
X01354Y01024*
X01353Y01023*
X01352Y01022*
X0135Y01021*
X01349Y01019*
X01348Y01018*
X01347Y01016*
X01347Y01015*
X01346Y01013*
X01345Y01011*
X01345Y0101*
X01345Y01008*
X01345Y01006*
X01345Y01005*
X01345Y01003*
X01345Y01001*
X01345Y00999*
X01345Y00998*
X01346Y00996*
X01347Y00994*
X01347Y00993*
X01348Y00991*
X01349Y0099*
X0135Y00988*
X01352Y00987*
X01353Y00986*
X01354Y00985*
X01356Y00984*
X01357Y00983*
X01359Y00982*
X0136Y00981*
X01362Y00981*
X01363Y0098*
X01365Y0098*
X01367Y0098*
X01369Y0098*
X0137*
X01372Y0098*
X01374Y0098*
X01376Y0098*
X01377Y00981*
X01379Y00981*
X0138Y00982*
X01382Y00983*
X01383Y00984*
X01385Y00985*
X01386Y00986*
X01387Y00987*
X01389Y00988*
X0139Y0099*
X01391Y00991*
X01392Y00993*
X01392Y00994*
X01393Y00996*
X01394Y00998*
X01394Y00999*
X01394Y01001*
X01394Y01003*
X01395Y01005*
X01495D02*
D01*
X01494Y01006*
X01494Y01008*
X01494Y0101*
X01494Y01011*
X01493Y01013*
X01492Y01015*
X01492Y01016*
X01491Y01018*
X0149Y01019*
X01489Y01021*
X01487Y01022*
X01486Y01023*
X01485Y01024*
X01483Y01025*
X01482Y01026*
X0148Y01027*
X01479Y01028*
X01477Y01028*
X01476Y01029*
X01474Y01029*
X01472Y01029*
X0147Y01029*
X01469*
X01467Y01029*
X01465Y01029*
X01463Y01029*
X01462Y01028*
X0146Y01028*
X01459Y01027*
X01457Y01026*
X01456Y01025*
X01454Y01024*
X01453Y01023*
X01452Y01022*
X0145Y01021*
X01449Y01019*
X01448Y01018*
X01447Y01016*
X01447Y01015*
X01446Y01013*
X01445Y01011*
X01445Y0101*
X01445Y01008*
X01445Y01006*
X01445Y01005*
X01445Y01003*
X01445Y01001*
X01445Y00999*
X01445Y00998*
X01446Y00996*
X01447Y00994*
X01447Y00993*
X01448Y00991*
X01449Y0099*
X0145Y00988*
X01452Y00987*
X01453Y00986*
X01454Y00985*
X01456Y00984*
X01457Y00983*
X01459Y00982*
X0146Y00981*
X01462Y00981*
X01463Y0098*
X01465Y0098*
X01467Y0098*
X01469Y0098*
X0147*
X01472Y0098*
X01474Y0098*
X01476Y0098*
X01477Y00981*
X01479Y00981*
X0148Y00982*
X01482Y00983*
X01483Y00984*
X01485Y00985*
X01486Y00986*
X01487Y00987*
X01489Y00988*
X0149Y0099*
X01491Y00991*
X01492Y00993*
X01492Y00994*
X01493Y00996*
X01494Y00998*
X01494Y00999*
X01494Y01001*
X01494Y01003*
X01495Y01005*
X01595D02*
D01*
X01594Y01006*
X01594Y01008*
X01594Y0101*
X01594Y01011*
X01593Y01013*
X01592Y01015*
X01592Y01016*
X01591Y01018*
X0159Y01019*
X01589Y01021*
X01587Y01022*
X01586Y01023*
X01585Y01024*
X01583Y01025*
X01582Y01026*
X0158Y01027*
X01579Y01028*
X01577Y01028*
X01576Y01029*
X01574Y01029*
X01572Y01029*
X0157Y01029*
X01569*
X01567Y01029*
X01565Y01029*
X01563Y01029*
X01562Y01028*
X0156Y01028*
X01559Y01027*
X01557Y01026*
X01556Y01025*
X01554Y01024*
X01553Y01023*
X01552Y01022*
X0155Y01021*
X01549Y01019*
X01548Y01018*
X01547Y01016*
X01547Y01015*
X01546Y01013*
X01545Y01011*
X01545Y0101*
X01545Y01008*
X01545Y01006*
X01545Y01005*
X01545Y01003*
X01545Y01001*
X01545Y00999*
X01545Y00998*
X01546Y00996*
X01547Y00994*
X01547Y00993*
X01548Y00991*
X01549Y0099*
X0155Y00988*
X01552Y00987*
X01553Y00986*
X01554Y00985*
X01556Y00984*
X01557Y00983*
X01559Y00982*
X0156Y00981*
X01562Y00981*
X01563Y0098*
X01565Y0098*
X01567Y0098*
X01569Y0098*
X0157*
X01572Y0098*
X01574Y0098*
X01576Y0098*
X01577Y00981*
X01579Y00981*
X0158Y00982*
X01582Y00983*
X01583Y00984*
X01585Y00985*
X01586Y00986*
X01587Y00987*
X01589Y00988*
X0159Y0099*
X01591Y00991*
X01592Y00993*
X01592Y00994*
X01593Y00996*
X01594Y00998*
X01594Y00999*
X01594Y01001*
X01594Y01003*
X01595Y01005*
X01695D02*
D01*
X01694Y01006*
X01694Y01008*
X01694Y0101*
X01694Y01011*
X01693Y01013*
X01692Y01015*
X01692Y01016*
X01691Y01018*
X0169Y01019*
X01689Y01021*
X01687Y01022*
X01686Y01023*
X01685Y01024*
X01683Y01025*
X01682Y01026*
X0168Y01027*
X01679Y01028*
X01677Y01028*
X01676Y01029*
X01674Y01029*
X01672Y01029*
X0167Y01029*
X01669*
X01667Y01029*
X01665Y01029*
X01663Y01029*
X01662Y01028*
X0166Y01028*
X01659Y01027*
X01657Y01026*
X01656Y01025*
X01654Y01024*
X01653Y01023*
X01652Y01022*
X0165Y01021*
X01649Y01019*
X01648Y01018*
X01647Y01016*
X01647Y01015*
X01646Y01013*
X01645Y01011*
X01645Y0101*
X01645Y01008*
X01645Y01006*
X01645Y01005*
X01645Y01003*
X01645Y01001*
X01645Y00999*
X01645Y00998*
X01646Y00996*
X01647Y00994*
X01647Y00993*
X01648Y00991*
X01649Y0099*
X0165Y00988*
X01652Y00987*
X01653Y00986*
X01654Y00985*
X01656Y00984*
X01657Y00983*
X01659Y00982*
X0166Y00981*
X01662Y00981*
X01663Y0098*
X01665Y0098*
X01667Y0098*
X01669Y0098*
X0167*
X01672Y0098*
X01674Y0098*
X01676Y0098*
X01677Y00981*
X01679Y00981*
X0168Y00982*
X01682Y00983*
X01683Y00984*
X01685Y00985*
X01686Y00986*
X01687Y00987*
X01689Y00988*
X0169Y0099*
X01691Y00991*
X01692Y00993*
X01692Y00994*
X01693Y00996*
X01694Y00998*
X01694Y00999*
X01694Y01001*
X01694Y01003*
X01695Y01005*
X01795D02*
D01*
X01794Y01006*
X01794Y01008*
X01794Y0101*
X01794Y01011*
X01793Y01013*
X01792Y01015*
X01792Y01016*
X01791Y01018*
X0179Y01019*
X01789Y01021*
X01787Y01022*
X01786Y01023*
X01785Y01024*
X01783Y01025*
X01782Y01026*
X0178Y01027*
X01779Y01028*
X01777Y01028*
X01776Y01029*
X01774Y01029*
X01772Y01029*
X0177Y01029*
X01769*
X01767Y01029*
X01765Y01029*
X01763Y01029*
X01762Y01028*
X0176Y01028*
X01759Y01027*
X01757Y01026*
X01756Y01025*
X01754Y01024*
X01753Y01023*
X01752Y01022*
X0175Y01021*
X01749Y01019*
X01748Y01018*
X01747Y01016*
X01747Y01015*
X01746Y01013*
X01745Y01011*
X01745Y0101*
X01745Y01008*
X01745Y01006*
X01745Y01005*
X01745Y01003*
X01745Y01001*
X01745Y00999*
X01745Y00998*
X01746Y00996*
X01747Y00994*
X01747Y00993*
X01748Y00991*
X01749Y0099*
X0175Y00988*
X01752Y00987*
X01753Y00986*
X01754Y00985*
X01756Y00984*
X01757Y00983*
X01759Y00982*
X0176Y00981*
X01762Y00981*
X01763Y0098*
X01765Y0098*
X01767Y0098*
X01769Y0098*
X0177*
X01772Y0098*
X01774Y0098*
X01776Y0098*
X01777Y00981*
X01779Y00981*
X0178Y00982*
X01782Y00983*
X01783Y00984*
X01785Y00985*
X01786Y00986*
X01787Y00987*
X01789Y00988*
X0179Y0099*
X01791Y00991*
X01792Y00993*
X01792Y00994*
X01793Y00996*
X01794Y00998*
X01794Y00999*
X01794Y01001*
X01794Y01003*
X01795Y01005*
X01895D02*
D01*
X01894Y01006*
X01894Y01008*
X01894Y0101*
X01894Y01011*
X01893Y01013*
X01892Y01015*
X01892Y01016*
X01891Y01018*
X0189Y01019*
X01889Y01021*
X01887Y01022*
X01886Y01023*
X01885Y01024*
X01883Y01025*
X01882Y01026*
X0188Y01027*
X01879Y01028*
X01877Y01028*
X01876Y01029*
X01874Y01029*
X01872Y01029*
X0187Y01029*
X01869*
X01867Y01029*
X01865Y01029*
X01863Y01029*
X01862Y01028*
X0186Y01028*
X01859Y01027*
X01857Y01026*
X01856Y01025*
X01854Y01024*
X01853Y01023*
X01852Y01022*
X0185Y01021*
X01849Y01019*
X01848Y01018*
X01847Y01016*
X01847Y01015*
X01846Y01013*
X01845Y01011*
X01845Y0101*
X01845Y01008*
X01845Y01006*
X01845Y01005*
X01845Y01003*
X01845Y01001*
X01845Y00999*
X01845Y00998*
X01846Y00996*
X01847Y00994*
X01847Y00993*
X01848Y00991*
X01849Y0099*
X0185Y00988*
X01852Y00987*
X01853Y00986*
X01854Y00985*
X01856Y00984*
X01857Y00983*
X01859Y00982*
X0186Y00981*
X01862Y00981*
X01863Y0098*
X01865Y0098*
X01867Y0098*
X01869Y0098*
X0187*
X01872Y0098*
X01874Y0098*
X01876Y0098*
X01877Y00981*
X01879Y00981*
X0188Y00982*
X01882Y00983*
X01883Y00984*
X01885Y00985*
X01886Y00986*
X01887Y00987*
X01889Y00988*
X0189Y0099*
X01891Y00991*
X01892Y00993*
X01892Y00994*
X01893Y00996*
X01894Y00998*
X01894Y00999*
X01894Y01001*
X01894Y01003*
X01895Y01005*
X01995D02*
D01*
X01994Y01006*
X01994Y01008*
X01994Y0101*
X01994Y01011*
X01993Y01013*
X01992Y01015*
X01992Y01016*
X01991Y01018*
X0199Y01019*
X01989Y01021*
X01987Y01022*
X01986Y01023*
X01985Y01024*
X01983Y01025*
X01982Y01026*
X0198Y01027*
X01979Y01028*
X01977Y01028*
X01976Y01029*
X01974Y01029*
X01972Y01029*
X0197Y01029*
X01969*
X01967Y01029*
X01965Y01029*
X01963Y01029*
X01962Y01028*
X0196Y01028*
X01959Y01027*
X01957Y01026*
X01956Y01025*
X01954Y01024*
X01953Y01023*
X01952Y01022*
X0195Y01021*
X01949Y01019*
X01948Y01018*
X01947Y01016*
X01947Y01015*
X01946Y01013*
X01945Y01011*
X01945Y0101*
X01945Y01008*
X01945Y01006*
X01945Y01005*
X01945Y01003*
X01945Y01001*
X01945Y00999*
X01945Y00998*
X01946Y00996*
X01947Y00994*
X01947Y00993*
X01948Y00991*
X01949Y0099*
X0195Y00988*
X01952Y00987*
X01953Y00986*
X01954Y00985*
X01956Y00984*
X01957Y00983*
X01959Y00982*
X0196Y00981*
X01962Y00981*
X01963Y0098*
X01965Y0098*
X01967Y0098*
X01969Y0098*
X0197*
X01972Y0098*
X01974Y0098*
X01976Y0098*
X01977Y00981*
X01979Y00981*
X0198Y00982*
X01982Y00983*
X01983Y00984*
X01985Y00985*
X01986Y00986*
X01987Y00987*
X01989Y00988*
X0199Y0099*
X01991Y00991*
X01992Y00993*
X01992Y00994*
X01993Y00996*
X01994Y00998*
X01994Y00999*
X01994Y01001*
X01994Y01003*
X01995Y01005*
X02095D02*
D01*
X02094Y01006*
X02094Y01008*
X02094Y0101*
X02094Y01011*
X02093Y01013*
X02092Y01015*
X02092Y01016*
X02091Y01018*
X0209Y01019*
X02089Y01021*
X02087Y01022*
X02086Y01023*
X02085Y01024*
X02083Y01025*
X02082Y01026*
X0208Y01027*
X02079Y01028*
X02077Y01028*
X02076Y01029*
X02074Y01029*
X02072Y01029*
X0207Y01029*
X02069*
X02067Y01029*
X02065Y01029*
X02063Y01029*
X02062Y01028*
X0206Y01028*
X02059Y01027*
X02057Y01026*
X02056Y01025*
X02054Y01024*
X02053Y01023*
X02052Y01022*
X0205Y01021*
X02049Y01019*
X02048Y01018*
X02047Y01016*
X02047Y01015*
X02046Y01013*
X02045Y01011*
X02045Y0101*
X02045Y01008*
X02045Y01006*
X02045Y01005*
X02045Y01003*
X02045Y01001*
X02045Y00999*
X02045Y00998*
X02046Y00996*
X02047Y00994*
X02047Y00993*
X02048Y00991*
X02049Y0099*
X0205Y00988*
X02052Y00987*
X02053Y00986*
X02054Y00985*
X02056Y00984*
X02057Y00983*
X02059Y00982*
X0206Y00981*
X02062Y00981*
X02063Y0098*
X02065Y0098*
X02067Y0098*
X02069Y0098*
X0207*
X02072Y0098*
X02074Y0098*
X02076Y0098*
X02077Y00981*
X02079Y00981*
X0208Y00982*
X02082Y00983*
X02083Y00984*
X02085Y00985*
X02086Y00986*
X02087Y00987*
X02089Y00988*
X0209Y0099*
X02091Y00991*
X02092Y00993*
X02092Y00994*
X02093Y00996*
X02094Y00998*
X02094Y00999*
X02094Y01001*
X02094Y01003*
X02095Y01005*
X02195D02*
D01*
X02194Y01006*
X02194Y01008*
X02194Y0101*
X02194Y01011*
X02193Y01013*
X02192Y01015*
X02192Y01016*
X02191Y01018*
X0219Y01019*
X02189Y01021*
X02187Y01022*
X02186Y01023*
X02185Y01024*
X02183Y01025*
X02182Y01026*
X0218Y01027*
X02179Y01028*
X02177Y01028*
X02176Y01029*
X02174Y01029*
X02172Y01029*
X0217Y01029*
X02169*
X02167Y01029*
X02165Y01029*
X02163Y01029*
X02162Y01028*
X0216Y01028*
X02159Y01027*
X02157Y01026*
X02156Y01025*
X02154Y01024*
X02153Y01023*
X02152Y01022*
X0215Y01021*
X02149Y01019*
X02148Y01018*
X02147Y01016*
X02147Y01015*
X02146Y01013*
X02145Y01011*
X02145Y0101*
X02145Y01008*
X02145Y01006*
X02145Y01005*
X02145Y01003*
X02145Y01001*
X02145Y00999*
X02145Y00998*
X02146Y00996*
X02147Y00994*
X02147Y00993*
X02148Y00991*
X02149Y0099*
X0215Y00988*
X02152Y00987*
X02153Y00986*
X02154Y00985*
X02156Y00984*
X02157Y00983*
X02159Y00982*
X0216Y00981*
X02162Y00981*
X02163Y0098*
X02165Y0098*
X02167Y0098*
X02169Y0098*
X0217*
X02172Y0098*
X02174Y0098*
X02176Y0098*
X02177Y00981*
X02179Y00981*
X0218Y00982*
X02182Y00983*
X02183Y00984*
X02185Y00985*
X02186Y00986*
X02187Y00987*
X02189Y00988*
X0219Y0099*
X02191Y00991*
X02192Y00993*
X02192Y00994*
X02193Y00996*
X02194Y00998*
X02194Y00999*
X02194Y01001*
X02194Y01003*
X02195Y01005*
X02295D02*
D01*
X02294Y01006*
X02294Y01008*
X02294Y0101*
X02294Y01011*
X02293Y01013*
X02292Y01015*
X02292Y01016*
X02291Y01018*
X0229Y01019*
X02289Y01021*
X02287Y01022*
X02286Y01023*
X02285Y01024*
X02283Y01025*
X02282Y01026*
X0228Y01027*
X02279Y01028*
X02277Y01028*
X02276Y01029*
X02274Y01029*
X02272Y01029*
X0227Y01029*
X02269*
X02267Y01029*
X02265Y01029*
X02263Y01029*
X02262Y01028*
X0226Y01028*
X02259Y01027*
X02257Y01026*
X02256Y01025*
X02254Y01024*
X02253Y01023*
X02252Y01022*
X0225Y01021*
X02249Y01019*
X02248Y01018*
X02247Y01016*
X02247Y01015*
X02246Y01013*
X02245Y01011*
X02245Y0101*
X02245Y01008*
X02245Y01006*
X02245Y01005*
X02245Y01003*
X02245Y01001*
X02245Y00999*
X02245Y00998*
X02246Y00996*
X02247Y00994*
X02247Y00993*
X02248Y00991*
X02249Y0099*
X0225Y00988*
X02252Y00987*
X02253Y00986*
X02254Y00985*
X02256Y00984*
X02257Y00983*
X02259Y00982*
X0226Y00981*
X02262Y00981*
X02263Y0098*
X02265Y0098*
X02267Y0098*
X02269Y0098*
X0227*
X02272Y0098*
X02274Y0098*
X02276Y0098*
X02277Y00981*
X02279Y00981*
X0228Y00982*
X02282Y00983*
X02283Y00984*
X02285Y00985*
X02286Y00986*
X02287Y00987*
X02289Y00988*
X0229Y0099*
X02291Y00991*
X02292Y00993*
X02292Y00994*
X02293Y00996*
X02294Y00998*
X02294Y00999*
X02294Y01001*
X02294Y01003*
X02295Y01005*
X02395D02*
D01*
X02394Y01006*
X02394Y01008*
X02394Y0101*
X02394Y01011*
X02393Y01013*
X02392Y01015*
X02392Y01016*
X02391Y01018*
X0239Y01019*
X02389Y01021*
X02387Y01022*
X02386Y01023*
X02385Y01024*
X02383Y01025*
X02382Y01026*
X0238Y01027*
X02379Y01028*
X02377Y01028*
X02376Y01029*
X02374Y01029*
X02372Y01029*
X0237Y01029*
X02369*
X02367Y01029*
X02365Y01029*
X02363Y01029*
X02362Y01028*
X0236Y01028*
X02359Y01027*
X02357Y01026*
X02356Y01025*
X02354Y01024*
X02353Y01023*
X02352Y01022*
X0235Y01021*
X02349Y01019*
X02348Y01018*
X02347Y01016*
X02347Y01015*
X02346Y01013*
X02345Y01011*
X02345Y0101*
X02345Y01008*
X02345Y01006*
X02345Y01005*
X02345Y01003*
X02345Y01001*
X02345Y00999*
X02345Y00998*
X02346Y00996*
X02347Y00994*
X02347Y00993*
X02348Y00991*
X02349Y0099*
X0235Y00988*
X02352Y00987*
X02353Y00986*
X02354Y00985*
X02356Y00984*
X02357Y00983*
X02359Y00982*
X0236Y00981*
X02362Y00981*
X02363Y0098*
X02365Y0098*
X02367Y0098*
X02369Y0098*
X0237*
X02372Y0098*
X02374Y0098*
X02376Y0098*
X02377Y00981*
X02379Y00981*
X0238Y00982*
X02382Y00983*
X02383Y00984*
X02385Y00985*
X02386Y00986*
X02387Y00987*
X02389Y00988*
X0239Y0099*
X02391Y00991*
X02392Y00993*
X02392Y00994*
X02393Y00996*
X02394Y00998*
X02394Y00999*
X02394Y01001*
X02394Y01003*
X02395Y01005*
X00895Y01605D02*
D01*
X00894Y01606*
X00894Y01608*
X00894Y0161*
X00894Y01611*
X00893Y01613*
X00892Y01615*
X00892Y01616*
X00891Y01618*
X0089Y01619*
X00889Y01621*
X00887Y01622*
X00886Y01623*
X00885Y01624*
X00883Y01625*
X00882Y01626*
X0088Y01627*
X00879Y01628*
X00877Y01628*
X00876Y01629*
X00874Y01629*
X00872Y01629*
X0087Y01629*
X00869*
X00867Y01629*
X00865Y01629*
X00863Y01629*
X00862Y01628*
X0086Y01628*
X00859Y01627*
X00857Y01626*
X00856Y01625*
X00854Y01624*
X00853Y01623*
X00852Y01622*
X0085Y01621*
X00849Y01619*
X00848Y01618*
X00847Y01616*
X00847Y01615*
X00846Y01613*
X00845Y01611*
X00845Y0161*
X00845Y01608*
X00845Y01606*
X00845Y01605*
X00845Y01603*
X00845Y01601*
X00845Y01599*
X00845Y01598*
X00846Y01596*
X00847Y01594*
X00847Y01593*
X00848Y01591*
X00849Y0159*
X0085Y01588*
X00852Y01587*
X00853Y01586*
X00854Y01585*
X00856Y01584*
X00857Y01583*
X00859Y01582*
X0086Y01581*
X00862Y01581*
X00863Y0158*
X00865Y0158*
X00867Y0158*
X00869Y0158*
X0087*
X00872Y0158*
X00874Y0158*
X00876Y0158*
X00877Y01581*
X00879Y01581*
X0088Y01582*
X00882Y01583*
X00883Y01584*
X00885Y01585*
X00886Y01586*
X00887Y01587*
X00889Y01588*
X0089Y0159*
X00891Y01591*
X00892Y01593*
X00892Y01594*
X00893Y01596*
X00894Y01598*
X00894Y01599*
X00894Y01601*
X00894Y01603*
X00895Y01605*
X00795D02*
D01*
X00794Y01606*
X00794Y01608*
X00794Y0161*
X00794Y01611*
X00793Y01613*
X00792Y01615*
X00792Y01616*
X00791Y01618*
X0079Y01619*
X00789Y01621*
X00787Y01622*
X00786Y01623*
X00785Y01624*
X00783Y01625*
X00782Y01626*
X0078Y01627*
X00779Y01628*
X00777Y01628*
X00776Y01629*
X00774Y01629*
X00772Y01629*
X0077Y01629*
X00769*
X00767Y01629*
X00765Y01629*
X00763Y01629*
X00762Y01628*
X0076Y01628*
X00759Y01627*
X00757Y01626*
X00756Y01625*
X00754Y01624*
X00753Y01623*
X00752Y01622*
X0075Y01621*
X00749Y01619*
X00748Y01618*
X00747Y01616*
X00747Y01615*
X00746Y01613*
X00745Y01611*
X00745Y0161*
X00745Y01608*
X00745Y01606*
X00745Y01605*
X00745Y01603*
X00745Y01601*
X00745Y01599*
X00745Y01598*
X00746Y01596*
X00747Y01594*
X00747Y01593*
X00748Y01591*
X00749Y0159*
X0075Y01588*
X00752Y01587*
X00753Y01586*
X00754Y01585*
X00756Y01584*
X00757Y01583*
X00759Y01582*
X0076Y01581*
X00762Y01581*
X00763Y0158*
X00765Y0158*
X00767Y0158*
X00769Y0158*
X0077*
X00772Y0158*
X00774Y0158*
X00776Y0158*
X00777Y01581*
X00779Y01581*
X0078Y01582*
X00782Y01583*
X00783Y01584*
X00785Y01585*
X00786Y01586*
X00787Y01587*
X00789Y01588*
X0079Y0159*
X00791Y01591*
X00792Y01593*
X00792Y01594*
X00793Y01596*
X00794Y01598*
X00794Y01599*
X00794Y01601*
X00794Y01603*
X00795Y01605*
X00695D02*
D01*
X00694Y01606*
X00694Y01608*
X00694Y0161*
X00694Y01611*
X00693Y01613*
X00692Y01615*
X00692Y01616*
X00691Y01618*
X0069Y01619*
X00689Y01621*
X00687Y01622*
X00686Y01623*
X00685Y01624*
X00683Y01625*
X00682Y01626*
X0068Y01627*
X00679Y01628*
X00677Y01628*
X00676Y01629*
X00674Y01629*
X00672Y01629*
X0067Y01629*
X00669*
X00667Y01629*
X00665Y01629*
X00663Y01629*
X00662Y01628*
X0066Y01628*
X00659Y01627*
X00657Y01626*
X00656Y01625*
X00654Y01624*
X00653Y01623*
X00652Y01622*
X0065Y01621*
X00649Y01619*
X00648Y01618*
X00647Y01616*
X00647Y01615*
X00646Y01613*
X00645Y01611*
X00645Y0161*
X00645Y01608*
X00645Y01606*
X00645Y01605*
X00645Y01603*
X00645Y01601*
X00645Y01599*
X00645Y01598*
X00646Y01596*
X00647Y01594*
X00647Y01593*
X00648Y01591*
X00649Y0159*
X0065Y01588*
X00652Y01587*
X00653Y01586*
X00654Y01585*
X00656Y01584*
X00657Y01583*
X00659Y01582*
X0066Y01581*
X00662Y01581*
X00663Y0158*
X00665Y0158*
X00667Y0158*
X00669Y0158*
X0067*
X00672Y0158*
X00674Y0158*
X00676Y0158*
X00677Y01581*
X00679Y01581*
X0068Y01582*
X00682Y01583*
X00683Y01584*
X00685Y01585*
X00686Y01586*
X00687Y01587*
X00689Y01588*
X0069Y0159*
X00691Y01591*
X00692Y01593*
X00692Y01594*
X00693Y01596*
X00694Y01598*
X00694Y01599*
X00694Y01601*
X00694Y01603*
X00695Y01605*
X00595D02*
D01*
X00594Y01606*
X00594Y01608*
X00594Y0161*
X00594Y01611*
X00593Y01613*
X00592Y01615*
X00592Y01616*
X00591Y01618*
X0059Y01619*
X00589Y01621*
X00587Y01622*
X00586Y01623*
X00585Y01624*
X00583Y01625*
X00582Y01626*
X0058Y01627*
X00579Y01628*
X00577Y01628*
X00576Y01629*
X00574Y01629*
X00572Y01629*
X0057Y01629*
X00569*
X00567Y01629*
X00565Y01629*
X00563Y01629*
X00562Y01628*
X0056Y01628*
X00559Y01627*
X00557Y01626*
X00556Y01625*
X00554Y01624*
X00553Y01623*
X00552Y01622*
X0055Y01621*
X00549Y01619*
X00548Y01618*
X00547Y01616*
X00547Y01615*
X00546Y01613*
X00545Y01611*
X00545Y0161*
X00545Y01608*
X00545Y01606*
X00545Y01605*
X00545Y01603*
X00545Y01601*
X00545Y01599*
X00545Y01598*
X00546Y01596*
X00547Y01594*
X00547Y01593*
X00548Y01591*
X00549Y0159*
X0055Y01588*
X00552Y01587*
X00553Y01586*
X00554Y01585*
X00556Y01584*
X00557Y01583*
X00559Y01582*
X0056Y01581*
X00562Y01581*
X00563Y0158*
X00565Y0158*
X00567Y0158*
X00569Y0158*
X0057*
X00572Y0158*
X00574Y0158*
X00576Y0158*
X00577Y01581*
X00579Y01581*
X0058Y01582*
X00582Y01583*
X00583Y01584*
X00585Y01585*
X00586Y01586*
X00587Y01587*
X00589Y01588*
X0059Y0159*
X00591Y01591*
X00592Y01593*
X00592Y01594*
X00593Y01596*
X00594Y01598*
X00594Y01599*
X00594Y01601*
X00594Y01603*
X00595Y01605*
X00495D02*
D01*
X00494Y01606*
X00494Y01608*
X00494Y0161*
X00494Y01611*
X00493Y01613*
X00492Y01615*
X00492Y01616*
X00491Y01618*
X0049Y01619*
X00489Y01621*
X00487Y01622*
X00486Y01623*
X00485Y01624*
X00483Y01625*
X00482Y01626*
X0048Y01627*
X00479Y01628*
X00477Y01628*
X00476Y01629*
X00474Y01629*
X00472Y01629*
X0047Y01629*
X00469*
X00467Y01629*
X00465Y01629*
X00463Y01629*
X00462Y01628*
X0046Y01628*
X00459Y01627*
X00457Y01626*
X00456Y01625*
X00454Y01624*
X00453Y01623*
X00452Y01622*
X0045Y01621*
X00449Y01619*
X00448Y01618*
X00447Y01616*
X00447Y01615*
X00446Y01613*
X00445Y01611*
X00445Y0161*
X00445Y01608*
X00445Y01606*
X00445Y01605*
X00445Y01603*
X00445Y01601*
X00445Y01599*
X00445Y01598*
X00446Y01596*
X00447Y01594*
X00447Y01593*
X00448Y01591*
X00449Y0159*
X0045Y01588*
X00452Y01587*
X00453Y01586*
X00454Y01585*
X00456Y01584*
X00457Y01583*
X00459Y01582*
X0046Y01581*
X00462Y01581*
X00463Y0158*
X00465Y0158*
X00467Y0158*
X00469Y0158*
X0047*
X00472Y0158*
X00474Y0158*
X00476Y0158*
X00477Y01581*
X00479Y01581*
X0048Y01582*
X00482Y01583*
X00483Y01584*
X00485Y01585*
X00486Y01586*
X00487Y01587*
X00489Y01588*
X0049Y0159*
X00491Y01591*
X00492Y01593*
X00492Y01594*
X00493Y01596*
X00494Y01598*
X00494Y01599*
X00494Y01601*
X00494Y01603*
X00495Y01605*
X00395D02*
D01*
X00394Y01606*
X00394Y01608*
X00394Y0161*
X00394Y01611*
X00393Y01613*
X00392Y01615*
X00392Y01616*
X00391Y01618*
X0039Y01619*
X00389Y01621*
X00387Y01622*
X00386Y01623*
X00385Y01624*
X00383Y01625*
X00382Y01626*
X0038Y01627*
X00379Y01628*
X00377Y01628*
X00376Y01629*
X00374Y01629*
X00372Y01629*
X0037Y01629*
X00369*
X00367Y01629*
X00365Y01629*
X00363Y01629*
X00362Y01628*
X0036Y01628*
X00359Y01627*
X00357Y01626*
X00356Y01625*
X00354Y01624*
X00353Y01623*
X00352Y01622*
X0035Y01621*
X00349Y01619*
X00348Y01618*
X00347Y01616*
X00347Y01615*
X00346Y01613*
X00345Y01611*
X00345Y0161*
X00345Y01608*
X00345Y01606*
X00345Y01605*
X00345Y01603*
X00345Y01601*
X00345Y01599*
X00345Y01598*
X00346Y01596*
X00347Y01594*
X00347Y01593*
X00348Y01591*
X00349Y0159*
X0035Y01588*
X00352Y01587*
X00353Y01586*
X00354Y01585*
X00356Y01584*
X00357Y01583*
X00359Y01582*
X0036Y01581*
X00362Y01581*
X00363Y0158*
X00365Y0158*
X00367Y0158*
X00369Y0158*
X0037*
X00372Y0158*
X00374Y0158*
X00376Y0158*
X00377Y01581*
X00379Y01581*
X0038Y01582*
X00382Y01583*
X00383Y01584*
X00385Y01585*
X00386Y01586*
X00387Y01587*
X00389Y01588*
X0039Y0159*
X00391Y01591*
X00392Y01593*
X00392Y01594*
X00393Y01596*
X00394Y01598*
X00394Y01599*
X00394Y01601*
X00394Y01603*
X00395Y01605*
X00295D02*
D01*
X00294Y01606*
X00294Y01608*
X00294Y0161*
X00294Y01611*
X00293Y01613*
X00292Y01615*
X00292Y01616*
X00291Y01618*
X0029Y01619*
X00289Y01621*
X00287Y01622*
X00286Y01623*
X00285Y01624*
X00283Y01625*
X00282Y01626*
X0028Y01627*
X00279Y01628*
X00277Y01628*
X00276Y01629*
X00274Y01629*
X00272Y01629*
X0027Y01629*
X00269*
X00267Y01629*
X00265Y01629*
X00263Y01629*
X00262Y01628*
X0026Y01628*
X00259Y01627*
X00257Y01626*
X00256Y01625*
X00254Y01624*
X00253Y01623*
X00252Y01622*
X0025Y01621*
X00249Y01619*
X00248Y01618*
X00247Y01616*
X00247Y01615*
X00246Y01613*
X00245Y01611*
X00245Y0161*
X00245Y01608*
X00245Y01606*
X00245Y01605*
X00245Y01603*
X00245Y01601*
X00245Y01599*
X00245Y01598*
X00246Y01596*
X00247Y01594*
X00247Y01593*
X00248Y01591*
X00249Y0159*
X0025Y01588*
X00252Y01587*
X00253Y01586*
X00254Y01585*
X00256Y01584*
X00257Y01583*
X00259Y01582*
X0026Y01581*
X00262Y01581*
X00263Y0158*
X00265Y0158*
X00267Y0158*
X00269Y0158*
X0027*
X00272Y0158*
X00274Y0158*
X00276Y0158*
X00277Y01581*
X00279Y01581*
X0028Y01582*
X00282Y01583*
X00283Y01584*
X00285Y01585*
X00286Y01586*
X00287Y01587*
X00289Y01588*
X0029Y0159*
X00291Y01591*
X00292Y01593*
X00292Y01594*
X00293Y01596*
X00294Y01598*
X00294Y01599*
X00294Y01601*
X00294Y01603*
X00295Y01605*
X00195D02*
D01*
X00194Y01606*
X00194Y01608*
X00194Y0161*
X00194Y01611*
X00193Y01613*
X00192Y01615*
X00192Y01616*
X00191Y01618*
X0019Y01619*
X00189Y01621*
X00187Y01622*
X00186Y01623*
X00185Y01624*
X00183Y01625*
X00182Y01626*
X0018Y01627*
X00179Y01628*
X00177Y01628*
X00176Y01629*
X00174Y01629*
X00172Y01629*
X0017Y01629*
X00169*
X00167Y01629*
X00165Y01629*
X00163Y01629*
X00162Y01628*
X0016Y01628*
X00159Y01627*
X00157Y01626*
X00156Y01625*
X00154Y01624*
X00153Y01623*
X00152Y01622*
X0015Y01621*
X00149Y01619*
X00148Y01618*
X00147Y01616*
X00147Y01615*
X00146Y01613*
X00145Y01611*
X00145Y0161*
X00145Y01608*
X00145Y01606*
X00145Y01605*
X00145Y01603*
X00145Y01601*
X00145Y01599*
X00145Y01598*
X00146Y01596*
X00147Y01594*
X00147Y01593*
X00148Y01591*
X00149Y0159*
X0015Y01588*
X00152Y01587*
X00153Y01586*
X00154Y01585*
X00156Y01584*
X00157Y01583*
X00159Y01582*
X0016Y01581*
X00162Y01581*
X00163Y0158*
X00165Y0158*
X00167Y0158*
X00169Y0158*
X0017*
X00172Y0158*
X00174Y0158*
X00176Y0158*
X00177Y01581*
X00179Y01581*
X0018Y01582*
X00182Y01583*
X00183Y01584*
X00185Y01585*
X00186Y01586*
X00187Y01587*
X00189Y01588*
X0019Y0159*
X00191Y01591*
X00192Y01593*
X00192Y01594*
X00193Y01596*
X00194Y01598*
X00194Y01599*
X00194Y01601*
X00194Y01603*
X00195Y01605*
X00095D02*
D01*
X00094Y01606*
X00094Y01608*
X00094Y0161*
X00094Y01611*
X00093Y01613*
X00092Y01615*
X00092Y01616*
X00091Y01618*
X0009Y01619*
X00089Y01621*
X00087Y01622*
X00086Y01623*
X00085Y01624*
X00083Y01625*
X00082Y01626*
X0008Y01627*
X00079Y01628*
X00077Y01628*
X00076Y01629*
X00074Y01629*
X00072Y01629*
X0007Y01629*
X00069*
X00067Y01629*
X00065Y01629*
X00063Y01629*
X00062Y01628*
X0006Y01628*
X00059Y01627*
X00057Y01626*
X00056Y01625*
X00054Y01624*
X00053Y01623*
X00052Y01622*
X0005Y01621*
X00049Y01619*
X00048Y01618*
X00047Y01616*
X00047Y01615*
X00046Y01613*
X00045Y01611*
X00045Y0161*
X00045Y01608*
X00045Y01606*
X00045Y01605*
X00045Y01603*
X00045Y01601*
X00045Y01599*
X00045Y01598*
X00046Y01596*
X00047Y01594*
X00047Y01593*
X00048Y01591*
X00049Y0159*
X0005Y01588*
X00052Y01587*
X00053Y01586*
X00054Y01585*
X00056Y01584*
X00057Y01583*
X00059Y01582*
X0006Y01581*
X00062Y01581*
X00063Y0158*
X00065Y0158*
X00067Y0158*
X00069Y0158*
X0007*
X00072Y0158*
X00074Y0158*
X00076Y0158*
X00077Y01581*
X00079Y01581*
X0008Y01582*
X00082Y01583*
X00083Y01584*
X00085Y01585*
X00086Y01586*
X00087Y01587*
X00089Y01588*
X0009Y0159*
X00091Y01591*
X00092Y01593*
X00092Y01594*
X00093Y01596*
X00094Y01598*
X00094Y01599*
X00094Y01601*
X00094Y01603*
X00095Y01605*
Y01005D02*
D01*
X00094Y01006*
X00094Y01008*
X00094Y0101*
X00094Y01011*
X00093Y01013*
X00092Y01015*
X00092Y01016*
X00091Y01018*
X0009Y01019*
X00089Y01021*
X00087Y01022*
X00086Y01023*
X00085Y01024*
X00083Y01025*
X00082Y01026*
X0008Y01027*
X00079Y01028*
X00077Y01028*
X00076Y01029*
X00074Y01029*
X00072Y01029*
X0007Y01029*
X00069*
X00067Y01029*
X00065Y01029*
X00063Y01029*
X00062Y01028*
X0006Y01028*
X00059Y01027*
X00057Y01026*
X00056Y01025*
X00054Y01024*
X00053Y01023*
X00052Y01022*
X0005Y01021*
X00049Y01019*
X00048Y01018*
X00047Y01016*
X00047Y01015*
X00046Y01013*
X00045Y01011*
X00045Y0101*
X00045Y01008*
X00045Y01006*
X00045Y01005*
X00045Y01003*
X00045Y01001*
X00045Y00999*
X00045Y00998*
X00046Y00996*
X00047Y00994*
X00047Y00993*
X00048Y00991*
X00049Y0099*
X0005Y00988*
X00052Y00987*
X00053Y00986*
X00054Y00985*
X00056Y00984*
X00057Y00983*
X00059Y00982*
X0006Y00981*
X00062Y00981*
X00063Y0098*
X00065Y0098*
X00067Y0098*
X00069Y0098*
X0007*
X00072Y0098*
X00074Y0098*
X00076Y0098*
X00077Y00981*
X00079Y00981*
X0008Y00982*
X00082Y00983*
X00083Y00984*
X00085Y00985*
X00086Y00986*
X00087Y00987*
X00089Y00988*
X0009Y0099*
X00091Y00991*
X00092Y00993*
X00092Y00994*
X00093Y00996*
X00094Y00998*
X00094Y00999*
X00094Y01001*
X00094Y01003*
X00095Y01005*
X00195D02*
D01*
X00194Y01006*
X00194Y01008*
X00194Y0101*
X00194Y01011*
X00193Y01013*
X00192Y01015*
X00192Y01016*
X00191Y01018*
X0019Y01019*
X00189Y01021*
X00187Y01022*
X00186Y01023*
X00185Y01024*
X00183Y01025*
X00182Y01026*
X0018Y01027*
X00179Y01028*
X00177Y01028*
X00176Y01029*
X00174Y01029*
X00172Y01029*
X0017Y01029*
X00169*
X00167Y01029*
X00165Y01029*
X00163Y01029*
X00162Y01028*
X0016Y01028*
X00159Y01027*
X00157Y01026*
X00156Y01025*
X00154Y01024*
X00153Y01023*
X00152Y01022*
X0015Y01021*
X00149Y01019*
X00148Y01018*
X00147Y01016*
X00147Y01015*
X00146Y01013*
X00145Y01011*
X00145Y0101*
X00145Y01008*
X00145Y01006*
X00145Y01005*
X00145Y01003*
X00145Y01001*
X00145Y00999*
X00145Y00998*
X00146Y00996*
X00147Y00994*
X00147Y00993*
X00148Y00991*
X00149Y0099*
X0015Y00988*
X00152Y00987*
X00153Y00986*
X00154Y00985*
X00156Y00984*
X00157Y00983*
X00159Y00982*
X0016Y00981*
X00162Y00981*
X00163Y0098*
X00165Y0098*
X00167Y0098*
X00169Y0098*
X0017*
X00172Y0098*
X00174Y0098*
X00176Y0098*
X00177Y00981*
X00179Y00981*
X0018Y00982*
X00182Y00983*
X00183Y00984*
X00185Y00985*
X00186Y00986*
X00187Y00987*
X00189Y00988*
X0019Y0099*
X00191Y00991*
X00192Y00993*
X00192Y00994*
X00193Y00996*
X00194Y00998*
X00194Y00999*
X00194Y01001*
X00194Y01003*
X00195Y01005*
X00295D02*
D01*
X00294Y01006*
X00294Y01008*
X00294Y0101*
X00294Y01011*
X00293Y01013*
X00292Y01015*
X00292Y01016*
X00291Y01018*
X0029Y01019*
X00289Y01021*
X00287Y01022*
X00286Y01023*
X00285Y01024*
X00283Y01025*
X00282Y01026*
X0028Y01027*
X00279Y01028*
X00277Y01028*
X00276Y01029*
X00274Y01029*
X00272Y01029*
X0027Y01029*
X00269*
X00267Y01029*
X00265Y01029*
X00263Y01029*
X00262Y01028*
X0026Y01028*
X00259Y01027*
X00257Y01026*
X00256Y01025*
X00254Y01024*
X00253Y01023*
X00252Y01022*
X0025Y01021*
X00249Y01019*
X00248Y01018*
X00247Y01016*
X00247Y01015*
X00246Y01013*
X00245Y01011*
X00245Y0101*
X00245Y01008*
X00245Y01006*
X00245Y01005*
X00245Y01003*
X00245Y01001*
X00245Y00999*
X00245Y00998*
X00246Y00996*
X00247Y00994*
X00247Y00993*
X00248Y00991*
X00249Y0099*
X0025Y00988*
X00252Y00987*
X00253Y00986*
X00254Y00985*
X00256Y00984*
X00257Y00983*
X00259Y00982*
X0026Y00981*
X00262Y00981*
X00263Y0098*
X00265Y0098*
X00267Y0098*
X00269Y0098*
X0027*
X00272Y0098*
X00274Y0098*
X00276Y0098*
X00277Y00981*
X00279Y00981*
X0028Y00982*
X00282Y00983*
X00283Y00984*
X00285Y00985*
X00286Y00986*
X00287Y00987*
X00289Y00988*
X0029Y0099*
X00291Y00991*
X00292Y00993*
X00292Y00994*
X00293Y00996*
X00294Y00998*
X00294Y00999*
X00294Y01001*
X00294Y01003*
X00295Y01005*
X00395D02*
D01*
X00394Y01006*
X00394Y01008*
X00394Y0101*
X00394Y01011*
X00393Y01013*
X00392Y01015*
X00392Y01016*
X00391Y01018*
X0039Y01019*
X00389Y01021*
X00387Y01022*
X00386Y01023*
X00385Y01024*
X00383Y01025*
X00382Y01026*
X0038Y01027*
X00379Y01028*
X00377Y01028*
X00376Y01029*
X00374Y01029*
X00372Y01029*
X0037Y01029*
X00369*
X00367Y01029*
X00365Y01029*
X00363Y01029*
X00362Y01028*
X0036Y01028*
X00359Y01027*
X00357Y01026*
X00356Y01025*
X00354Y01024*
X00353Y01023*
X00352Y01022*
X0035Y01021*
X00349Y01019*
X00348Y01018*
X00347Y01016*
X00347Y01015*
X00346Y01013*
X00345Y01011*
X00345Y0101*
X00345Y01008*
X00345Y01006*
X00345Y01005*
X00345Y01003*
X00345Y01001*
X00345Y00999*
X00345Y00998*
X00346Y00996*
X00347Y00994*
X00347Y00993*
X00348Y00991*
X00349Y0099*
X0035Y00988*
X00352Y00987*
X00353Y00986*
X00354Y00985*
X00356Y00984*
X00357Y00983*
X00359Y00982*
X0036Y00981*
X00362Y00981*
X00363Y0098*
X00365Y0098*
X00367Y0098*
X00369Y0098*
X0037*
X00372Y0098*
X00374Y0098*
X00376Y0098*
X00377Y00981*
X00379Y00981*
X0038Y00982*
X00382Y00983*
X00383Y00984*
X00385Y00985*
X00386Y00986*
X00387Y00987*
X00389Y00988*
X0039Y0099*
X00391Y00991*
X00392Y00993*
X00392Y00994*
X00393Y00996*
X00394Y00998*
X00394Y00999*
X00394Y01001*
X00394Y01003*
X00395Y01005*
X00495D02*
D01*
X00494Y01006*
X00494Y01008*
X00494Y0101*
X00494Y01011*
X00493Y01013*
X00492Y01015*
X00492Y01016*
X00491Y01018*
X0049Y01019*
X00489Y01021*
X00487Y01022*
X00486Y01023*
X00485Y01024*
X00483Y01025*
X00482Y01026*
X0048Y01027*
X00479Y01028*
X00477Y01028*
X00476Y01029*
X00474Y01029*
X00472Y01029*
X0047Y01029*
X00469*
X00467Y01029*
X00465Y01029*
X00463Y01029*
X00462Y01028*
X0046Y01028*
X00459Y01027*
X00457Y01026*
X00456Y01025*
X00454Y01024*
X00453Y01023*
X00452Y01022*
X0045Y01021*
X00449Y01019*
X00448Y01018*
X00447Y01016*
X00447Y01015*
X00446Y01013*
X00445Y01011*
X00445Y0101*
X00445Y01008*
X00445Y01006*
X00445Y01005*
X00445Y01003*
X00445Y01001*
X00445Y00999*
X00445Y00998*
X00446Y00996*
X00447Y00994*
X00447Y00993*
X00448Y00991*
X00449Y0099*
X0045Y00988*
X00452Y00987*
X00453Y00986*
X00454Y00985*
X00456Y00984*
X00457Y00983*
X00459Y00982*
X0046Y00981*
X00462Y00981*
X00463Y0098*
X00465Y0098*
X00467Y0098*
X00469Y0098*
X0047*
X00472Y0098*
X00474Y0098*
X00476Y0098*
X00477Y00981*
X00479Y00981*
X0048Y00982*
X00482Y00983*
X00483Y00984*
X00485Y00985*
X00486Y00986*
X00487Y00987*
X00489Y00988*
X0049Y0099*
X00491Y00991*
X00492Y00993*
X00492Y00994*
X00493Y00996*
X00494Y00998*
X00494Y00999*
X00494Y01001*
X00494Y01003*
X00495Y01005*
X00595D02*
D01*
X00594Y01006*
X00594Y01008*
X00594Y0101*
X00594Y01011*
X00593Y01013*
X00592Y01015*
X00592Y01016*
X00591Y01018*
X0059Y01019*
X00589Y01021*
X00587Y01022*
X00586Y01023*
X00585Y01024*
X00583Y01025*
X00582Y01026*
X0058Y01027*
X00579Y01028*
X00577Y01028*
X00576Y01029*
X00574Y01029*
X00572Y01029*
X0057Y01029*
X00569*
X00567Y01029*
X00565Y01029*
X00563Y01029*
X00562Y01028*
X0056Y01028*
X00559Y01027*
X00557Y01026*
X00556Y01025*
X00554Y01024*
X00553Y01023*
X00552Y01022*
X0055Y01021*
X00549Y01019*
X00548Y01018*
X00547Y01016*
X00547Y01015*
X00546Y01013*
X00545Y01011*
X00545Y0101*
X00545Y01008*
X00545Y01006*
X00545Y01005*
X00545Y01003*
X00545Y01001*
X00545Y00999*
X00545Y00998*
X00546Y00996*
X00547Y00994*
X00547Y00993*
X00548Y00991*
X00549Y0099*
X0055Y00988*
X00552Y00987*
X00553Y00986*
X00554Y00985*
X00556Y00984*
X00557Y00983*
X00559Y00982*
X0056Y00981*
X00562Y00981*
X00563Y0098*
X00565Y0098*
X00567Y0098*
X00569Y0098*
X0057*
X00572Y0098*
X00574Y0098*
X00576Y0098*
X00577Y00981*
X00579Y00981*
X0058Y00982*
X00582Y00983*
X00583Y00984*
X00585Y00985*
X00586Y00986*
X00587Y00987*
X00589Y00988*
X0059Y0099*
X00591Y00991*
X00592Y00993*
X00592Y00994*
X00593Y00996*
X00594Y00998*
X00594Y00999*
X00594Y01001*
X00594Y01003*
X00595Y01005*
X00695D02*
D01*
X00694Y01006*
X00694Y01008*
X00694Y0101*
X00694Y01011*
X00693Y01013*
X00692Y01015*
X00692Y01016*
X00691Y01018*
X0069Y01019*
X00689Y01021*
X00687Y01022*
X00686Y01023*
X00685Y01024*
X00683Y01025*
X00682Y01026*
X0068Y01027*
X00679Y01028*
X00677Y01028*
X00676Y01029*
X00674Y01029*
X00672Y01029*
X0067Y01029*
X00669*
X00667Y01029*
X00665Y01029*
X00663Y01029*
X00662Y01028*
X0066Y01028*
X00659Y01027*
X00657Y01026*
X00656Y01025*
X00654Y01024*
X00653Y01023*
X00652Y01022*
X0065Y01021*
X00649Y01019*
X00648Y01018*
X00647Y01016*
X00647Y01015*
X00646Y01013*
X00645Y01011*
X00645Y0101*
X00645Y01008*
X00645Y01006*
X00645Y01005*
X00645Y01003*
X00645Y01001*
X00645Y00999*
X00645Y00998*
X00646Y00996*
X00647Y00994*
X00647Y00993*
X00648Y00991*
X00649Y0099*
X0065Y00988*
X00652Y00987*
X00653Y00986*
X00654Y00985*
X00656Y00984*
X00657Y00983*
X00659Y00982*
X0066Y00981*
X00662Y00981*
X00663Y0098*
X00665Y0098*
X00667Y0098*
X00669Y0098*
X0067*
X00672Y0098*
X00674Y0098*
X00676Y0098*
X00677Y00981*
X00679Y00981*
X0068Y00982*
X00682Y00983*
X00683Y00984*
X00685Y00985*
X00686Y00986*
X00687Y00987*
X00689Y00988*
X0069Y0099*
X00691Y00991*
X00692Y00993*
X00692Y00994*
X00693Y00996*
X00694Y00998*
X00694Y00999*
X00694Y01001*
X00694Y01003*
X00695Y01005*
X00795D02*
D01*
X00794Y01006*
X00794Y01008*
X00794Y0101*
X00794Y01011*
X00793Y01013*
X00792Y01015*
X00792Y01016*
X00791Y01018*
X0079Y01019*
X00789Y01021*
X00787Y01022*
X00786Y01023*
X00785Y01024*
X00783Y01025*
X00782Y01026*
X0078Y01027*
X00779Y01028*
X00777Y01028*
X00776Y01029*
X00774Y01029*
X00772Y01029*
X0077Y01029*
X00769*
X00767Y01029*
X00765Y01029*
X00763Y01029*
X00762Y01028*
X0076Y01028*
X00759Y01027*
X00757Y01026*
X00756Y01025*
X00754Y01024*
X00753Y01023*
X00752Y01022*
X0075Y01021*
X00749Y01019*
X00748Y01018*
X00747Y01016*
X00747Y01015*
X00746Y01013*
X00745Y01011*
X00745Y0101*
X00745Y01008*
X00745Y01006*
X00745Y01005*
X00745Y01003*
X00745Y01001*
X00745Y00999*
X00745Y00998*
X00746Y00996*
X00747Y00994*
X00747Y00993*
X00748Y00991*
X00749Y0099*
X0075Y00988*
X00752Y00987*
X00753Y00986*
X00754Y00985*
X00756Y00984*
X00757Y00983*
X00759Y00982*
X0076Y00981*
X00762Y00981*
X00763Y0098*
X00765Y0098*
X00767Y0098*
X00769Y0098*
X0077*
X00772Y0098*
X00774Y0098*
X00776Y0098*
X00777Y00981*
X00779Y00981*
X0078Y00982*
X00782Y00983*
X00783Y00984*
X00785Y00985*
X00786Y00986*
X00787Y00987*
X00789Y00988*
X0079Y0099*
X00791Y00991*
X00792Y00993*
X00792Y00994*
X00793Y00996*
X00794Y00998*
X00794Y00999*
X00794Y01001*
X00794Y01003*
X00795Y01005*
X00895D02*
D01*
X00894Y01006*
X00894Y01008*
X00894Y0101*
X00894Y01011*
X00893Y01013*
X00892Y01015*
X00892Y01016*
X00891Y01018*
X0089Y01019*
X00889Y01021*
X00887Y01022*
X00886Y01023*
X00885Y01024*
X00883Y01025*
X00882Y01026*
X0088Y01027*
X00879Y01028*
X00877Y01028*
X00876Y01029*
X00874Y01029*
X00872Y01029*
X0087Y01029*
X00869*
X00867Y01029*
X00865Y01029*
X00863Y01029*
X00862Y01028*
X0086Y01028*
X00859Y01027*
X00857Y01026*
X00856Y01025*
X00854Y01024*
X00853Y01023*
X00852Y01022*
X0085Y01021*
X00849Y01019*
X00848Y01018*
X00847Y01016*
X00847Y01015*
X00846Y01013*
X00845Y01011*
X00845Y0101*
X00845Y01008*
X00845Y01006*
X00845Y01005*
X00845Y01003*
X00845Y01001*
X00845Y00999*
X00845Y00998*
X00846Y00996*
X00847Y00994*
X00847Y00993*
X00848Y00991*
X00849Y0099*
X0085Y00988*
X00852Y00987*
X00853Y00986*
X00854Y00985*
X00856Y00984*
X00857Y00983*
X00859Y00982*
X0086Y00981*
X00862Y00981*
X00863Y0098*
X00865Y0098*
X00867Y0098*
X00869Y0098*
X0087*
X00872Y0098*
X00874Y0098*
X00876Y0098*
X00877Y00981*
X00879Y00981*
X0088Y00982*
X00882Y00983*
X00883Y00984*
X00885Y00985*
X00886Y00986*
X00887Y00987*
X00889Y00988*
X0089Y0099*
X00891Y00991*
X00892Y00993*
X00892Y00994*
X00893Y00996*
X00894Y00998*
X00894Y00999*
X00894Y01001*
X00894Y01003*
X00895Y01005*
X02325Y02445D02*
X02375D01*
Y02495*
X02325D02*
X02375D01*
X02325Y02445D02*
Y02495D01*
Y02545D02*
X02375D01*
Y02595*
X02325D02*
X02375D01*
X02325Y02545D02*
Y02595D01*
Y02645D02*
X02375D01*
Y02695*
X02325D02*
X02375D01*
X02325Y02645D02*
Y02695D01*
X00185Y01795D02*
Y01807D01*
X00197Y0182*
X00185Y01832D02*
X00197Y0182D01*
X00185Y01832D02*
Y01845D01*
X00197*
X0021Y01832*
X00222Y01845*
X00235*
Y01832D02*
Y01845D01*
X00222Y0182D02*
X00235Y01832D01*
X00222Y0182D02*
X00235Y01807D01*
Y01795D02*
Y01807D01*
X00222Y01795D02*
X00235D01*
X0021Y01807D02*
X00222Y01795D01*
X00197D02*
X0021Y01807D01*
X00185Y01795D02*
X00197D01*
X00285D02*
Y01807D01*
X00297Y0182*
X00285Y01832D02*
X00297Y0182D01*
X00285Y01832D02*
Y01845D01*
X00297*
X0031Y01832*
X00322Y01845*
X00335*
Y01832D02*
Y01845D01*
X00322Y0182D02*
X00335Y01832D01*
X00322Y0182D02*
X00335Y01807D01*
Y01795D02*
Y01807D01*
X00322Y01795D02*
X00335D01*
X0031Y01807D02*
X00322Y01795D01*
X00297D02*
X0031Y01807D01*
X00285Y01795D02*
X00297D01*
X00485D02*
Y01807D01*
X00497Y0182*
X00485Y01832D02*
X00497Y0182D01*
X00485Y01832D02*
Y01845D01*
X00497*
X0051Y01832*
X00522Y01845*
X00535*
Y01832D02*
Y01845D01*
X00522Y0182D02*
X00535Y01832D01*
X00522Y0182D02*
X00535Y01807D01*
Y01795D02*
Y01807D01*
X00522Y01795D02*
X00535D01*
X0051Y01807D02*
X00522Y01795D01*
X00497D02*
X0051Y01807D01*
X00485Y01795D02*
X00497D01*
X00685D02*
Y01807D01*
X00697Y0182*
X00685Y01832D02*
X00697Y0182D01*
X00685Y01832D02*
Y01845D01*
X00697*
X0071Y01832*
X00722Y01845*
X00735*
Y01832D02*
Y01845D01*
X00722Y0182D02*
X00735Y01832D01*
X00722Y0182D02*
X00735Y01807D01*
Y01795D02*
Y01807D01*
X00722Y01795D02*
X00735D01*
X0071Y01807D02*
X00722Y01795D01*
X00697D02*
X0071Y01807D01*
X00685Y01795D02*
X00697D01*
X00585D02*
Y01807D01*
X00597Y0182*
X00585Y01832D02*
X00597Y0182D01*
X00585Y01832D02*
Y01845D01*
X00597*
X0061Y01832*
X00622Y01845*
X00635*
Y01832D02*
Y01845D01*
X00622Y0182D02*
X00635Y01832D01*
X00622Y0182D02*
X00635Y01807D01*
Y01795D02*
Y01807D01*
X00622Y01795D02*
X00635D01*
X0061Y01807D02*
X00622Y01795D01*
X00597D02*
X0061Y01807D01*
X00585Y01795D02*
X00597D01*
X00385D02*
Y01807D01*
X00397Y0182*
X00385Y01832D02*
X00397Y0182D01*
X00385Y01832D02*
Y01845D01*
X00397*
X0041Y01832*
X00422Y01845*
X00435*
Y01832D02*
Y01845D01*
X00422Y0182D02*
X00435Y01832D01*
X00422Y0182D02*
X00435Y01807D01*
Y01795D02*
Y01807D01*
X00422Y01795D02*
X00435D01*
X0041Y01807D02*
X00422Y01795D01*
X00397D02*
X0041Y01807D01*
X00385Y01795D02*
X00397D01*
X01475Y0079D02*
X015Y00802D01*
X01525Y0079*
X01512Y00815D02*
X01525Y0079D01*
X01512Y00815D02*
X01525Y0084D01*
X015Y00827D02*
X01525Y0084D01*
X01475D02*
X015Y00827D01*
X01475Y0084D02*
X01487Y00815D01*
X01475Y0079D02*
X01487Y00815D01*
X01975Y0079D02*
X02Y00802D01*
X02025Y0079*
X02012Y00815D02*
X02025Y0079D01*
X02012Y00815D02*
X02025Y0084D01*
X02Y00827D02*
X02025Y0084D01*
X01975D02*
X02Y00827D01*
X01975Y0084D02*
X01987Y00815D01*
X01975Y0079D02*
X01987Y00815D01*
X01575Y0079D02*
X016Y00802D01*
X01625Y0079*
X01612Y00815D02*
X01625Y0079D01*
X01612Y00815D02*
X01625Y0084D01*
X016Y00827D02*
X01625Y0084D01*
X01575D02*
X016Y00827D01*
X01575Y0084D02*
X01587Y00815D01*
X01575Y0079D02*
X01587Y00815D01*
X01875Y0079D02*
X019Y00802D01*
X01925Y0079*
X01912Y00815D02*
X01925Y0079D01*
X01912Y00815D02*
X01925Y0084D01*
X019Y00827D02*
X01925Y0084D01*
X01875D02*
X019Y00827D01*
X01875Y0084D02*
X01887Y00815D01*
X01875Y0079D02*
X01887Y00815D01*
X01675Y0079D02*
X017Y00802D01*
X01725Y0079*
X01712Y00815D02*
X01725Y0079D01*
X01712Y00815D02*
X01725Y0084D01*
X017Y00827D02*
X01725Y0084D01*
X01675D02*
X017Y00827D01*
X01675Y0084D02*
X01687Y00815D01*
X01675Y0079D02*
X01687Y00815D01*
X01775Y0079D02*
X018Y00802D01*
X01825Y0079*
X01812Y00815D02*
X01825Y0079D01*
X01812Y00815D02*
X01825Y0084D01*
X018Y00827D02*
X01825Y0084D01*
X01775D02*
X018Y00827D01*
X01775Y0084D02*
X01787Y00815D01*
X01775Y0079D02*
X01787Y00815D01*
X01575Y0009D02*
X016Y00102D01*
X01625Y0009*
X01612Y00115D02*
X01625Y0009D01*
X01612Y00115D02*
X01625Y0014D01*
X016Y00127D02*
X01625Y0014D01*
X01575D02*
X016Y00127D01*
X01575Y0014D02*
X01587Y00115D01*
X01575Y0009D02*
X01587Y00115D01*
X01875Y0009D02*
X019Y00102D01*
X01925Y0009*
X01912Y00115D02*
X01925Y0009D01*
X01912Y00115D02*
X01925Y0014D01*
X019Y00127D02*
X01925Y0014D01*
X01875D02*
X019Y00127D01*
X01875Y0014D02*
X01887Y00115D01*
X01875Y0009D02*
X01887Y00115D01*
X01675Y0009D02*
X017Y00102D01*
X01725Y0009*
X01712Y00115D02*
X01725Y0009D01*
X01712Y00115D02*
X01725Y0014D01*
X017Y00127D02*
X01725Y0014D01*
X01675D02*
X017Y00127D01*
X01675Y0014D02*
X01687Y00115D01*
X01675Y0009D02*
X01687Y00115D01*
X01775Y0009D02*
X018Y00102D01*
X01825Y0009*
X01812Y00115D02*
X01825Y0009D01*
X01812Y00115D02*
X01825Y0014D01*
X018Y00127D02*
X01825Y0014D01*
X01775D02*
X018Y00127D01*
X01775Y0014D02*
X01787Y00115D01*
X01775Y0009D02*
X01787Y00115D01*
X00605Y0039D02*
X00655D01*
Y0044*
X00605D02*
X00655D01*
X00605Y0039D02*
Y0044D01*
Y0056D02*
X00655D01*
Y0061*
X00605D02*
X00655D01*
X00605Y0056D02*
Y0061D01*
X0178Y01076D02*
X01805Y01126D01*
X01755D02*
X01805D01*
X01755D02*
X0178Y01076D01*
X01859D02*
X01884Y01126D01*
X01834D02*
X01884D01*
X01834D02*
X01859Y01076D01*
X0178Y01155D02*
X01805Y01205D01*
X01755D02*
X01805D01*
X01755D02*
X0178Y01155D01*
Y01233D02*
X01805Y01283D01*
X01755D02*
X01805D01*
X01755D02*
X0178Y01233D01*
X01859Y01155D02*
X01884Y01205D01*
X01834D02*
X01884D01*
X01834D02*
X01859Y01155D01*
Y01233D02*
X01884Y01283D01*
X01834D02*
X01884D01*
X01834D02*
X01859Y01233D01*
X02107Y01472D02*
X0212Y01459D01*
X02095Y01472D02*
X02107D01*
X02095D02*
X02107Y01484D01*
X02095Y01497D02*
X02107Y01484D01*
X02095Y01497D02*
X02107D01*
X0212Y01509*
X02132Y01497*
X02145*
X02132Y01484D02*
X02145Y01497D01*
X02132Y01484D02*
X02145Y01472D01*
X02132D02*
X02145D01*
X0212Y01459D02*
X02132Y01472D01*
X02007D02*
X0202Y01459D01*
X01995Y01472D02*
X02007D01*
X01995D02*
X02007Y01484D01*
X01995Y01497D02*
X02007Y01484D01*
X01995Y01497D02*
X02007D01*
X0202Y01509*
X02032Y01497*
X02045*
X02032Y01484D02*
X02045Y01497D01*
X02032Y01484D02*
X02045Y01472D01*
X02032D02*
X02045D01*
X0202Y01459D02*
X02032Y01472D01*
X01907D02*
X0192Y01459D01*
X01895Y01472D02*
X01907D01*
X01895D02*
X01907Y01484D01*
X01895Y01497D02*
X01907Y01484D01*
X01895Y01497D02*
X01907D01*
X0192Y01509*
X01932Y01497*
X01945*
X01932Y01484D02*
X01945Y01497D01*
X01932Y01484D02*
X01945Y01472D01*
X01932D02*
X01945D01*
X0192Y01459D02*
X01932Y01472D01*
X01807D02*
X0182Y01459D01*
X01795Y01472D02*
X01807D01*
X01795D02*
X01807Y01484D01*
X01795Y01497D02*
X01807Y01484D01*
X01795Y01497D02*
X01807D01*
X0182Y01509*
X01832Y01497*
X01845*
X01832Y01484D02*
X01845Y01497D01*
X01832Y01484D02*
X01845Y01472D01*
X01832D02*
X01845D01*
X0182Y01459D02*
X01832Y01472D01*
X01707D02*
X0172Y01459D01*
X01695Y01472D02*
X01707D01*
X01695D02*
X01707Y01484D01*
X01695Y01497D02*
X01707Y01484D01*
X01695Y01497D02*
X01707D01*
X0172Y01509*
X01732Y01497*
X01745*
X01732Y01484D02*
X01745Y01497D01*
X01732Y01484D02*
X01745Y01472D01*
X01732D02*
X01745D01*
X0172Y01459D02*
X01732Y01472D01*
G54D13*
X0409Y00798D02*
D01*
X0409Y008*
X0409Y00802*
X04089Y00805*
X04089Y00807*
X04088Y00809*
X04087Y00811*
X04086Y00813*
X04085Y00815*
X04084Y00817*
X04082Y00819*
X04081Y00821*
X04079Y00823*
X04077Y00824*
X04075Y00825*
X04073Y00827*
X04071Y00828*
X04069Y00829*
X04067Y0083*
X04065Y0083*
X04063Y00831*
X0406Y00831*
X04058Y00831*
X04056*
X04053Y00831*
X04051Y00831*
X04049Y0083*
X04046Y0083*
X04044Y00829*
X04042Y00828*
X0404Y00827*
X04038Y00825*
X04036Y00824*
X04034Y00823*
X04033Y00821*
X04031Y00819*
X0403Y00817*
X04028Y00815*
X04027Y00813*
X04026Y00811*
X04025Y00809*
X04025Y00807*
X04024Y00805*
X04024Y00802*
X04023Y008*
X04023Y00798*
X04023Y00796*
X04024Y00793*
X04024Y00791*
X04025Y00789*
X04025Y00786*
X04026Y00784*
X04027Y00782*
X04028Y0078*
X0403Y00778*
X04031Y00776*
X04033Y00775*
X04034Y00773*
X04036Y00772*
X04038Y0077*
X0404Y00769*
X04042Y00768*
X04044Y00767*
X04046Y00766*
X04049Y00765*
X04051Y00765*
X04053Y00765*
X04056Y00765*
X04058*
X0406Y00765*
X04063Y00765*
X04065Y00765*
X04067Y00766*
X04069Y00767*
X04071Y00768*
X04073Y00769*
X04075Y0077*
X04077Y00772*
X04079Y00773*
X04081Y00775*
X04082Y00776*
X04084Y00778*
X04085Y0078*
X04086Y00782*
X04087Y00784*
X04088Y00786*
X04089Y00789*
X04089Y00791*
X0409Y00793*
X0409Y00796*
X0409Y00798*
X0404Y01531D02*
X04057Y01515D01*
X04023Y01531D02*
X0404D01*
X04023D02*
X0404Y01548D01*
X04023Y01565D02*
X0404Y01548D01*
X04023Y01565D02*
X0404D01*
X04057Y01581*
X04073Y01565*
X0409*
X04073Y01548D02*
X0409Y01565D01*
X04073Y01548D02*
X0409Y01531D01*
X04073D02*
X0409D01*
X04057Y01515D02*
X04073Y01531D01*
X04023Y01365D02*
X0409D01*
Y01431*
X04023D02*
X0409D01*
X04023Y01365D02*
Y01431D01*
X04057Y01215D02*
X0409Y01281D01*
X04023D02*
X0409D01*
X04023D02*
X04057Y01215D01*
X04023Y01065D02*
Y01081D01*
X0404Y01098*
X04023Y01115D02*
X0404Y01098D01*
X04023Y01115D02*
Y01131D01*
X0404*
X04057Y01115*
X04073Y01131*
X0409*
Y01115D02*
Y01131D01*
X04073Y01098D02*
X0409Y01115D01*
X04073Y01098D02*
X0409Y01081D01*
Y01065D02*
Y01081D01*
X04073Y01065D02*
X0409D01*
X04057Y01081D02*
X04073Y01065D01*
X0404D02*
X04057Y01081D01*
X04023Y01065D02*
X0404D01*
X04023Y00915D02*
X04057Y00931D01*
X0409Y00915*
X04073Y00948D02*
X0409Y00915D01*
X04073Y00948D02*
X0409Y00981D01*
X04057Y00965D02*
X0409Y00981D01*
X04023D02*
X04057Y00965D01*
X04023Y00981D02*
X0404Y00948D01*
X04023Y00915D02*
X0404Y00948D01*
X10314Y01554D02*
X10284D01*
X10274Y01544*
Y01524*
X10284Y01515*
X10314*
X10334D02*
X10354D01*
X10344*
Y01574*
X10334Y01564*
X10424Y01515D02*
X10384D01*
X10424Y01554*
Y01564*
X10414Y01574*
X10394*
X10384Y01564*
X10484Y01574D02*
X10464Y01564D01*
X10444Y01544*
Y01524*
X10454Y01515*
X10474*
X10484Y01524*
Y01534*
X10474Y01544*
X10444*
X10504Y01574D02*
Y01515D01*
Y01544*
X10514Y01554*
X10534*
X10544Y01544*
Y01515*
X10564Y01574D02*
X10604D01*
Y01564*
X10564Y01524*
Y01515*
X10664Y01574D02*
X10624D01*
Y01544*
X10644Y01554*
X10654*
X10664Y01544*
Y01524*
X10654Y01515*
X10634*
X10624Y01524*
X10314Y01404D02*
X10284D01*
X10274Y01394*
Y01374*
X10284Y01365*
X10314*
X10334D02*
X10354D01*
X10344*
Y01424*
X10334Y01414*
X10424Y01424D02*
X10384D01*
Y01394*
X10404Y01404*
X10414*
X10424Y01394*
Y01374*
X10414Y01365*
X10394*
X10384Y01374*
X10484Y01365D02*
X10444D01*
X10484Y01404*
Y01414*
X10474Y01424*
X10454*
X10444Y01414*
X10504Y01424D02*
Y01365D01*
Y01394*
X10514Y01404*
X10534*
X10544Y01394*
Y01365*
X10564Y01424D02*
X10604D01*
Y01414*
X10564Y01374*
Y01365*
X10664Y01424D02*
X10644Y01414D01*
X10624Y01394*
Y01374*
X10634Y01365*
X10654*
X10664Y01374*
Y01384*
X10654Y01394*
X10624*
X10314Y01254D02*
X10284D01*
X10274Y01244*
Y01224*
X10284Y01215*
X10314*
X10334D02*
X10354D01*
X10344*
Y01274*
X10334Y01264*
X10424Y01215D02*
X10384D01*
X10424Y01254*
Y01264*
X10414Y01274*
X10394*
X10384Y01264*
X10444Y01215D02*
X10464D01*
X10454*
Y01274*
X10444Y01264*
X10494Y01274D02*
Y01215D01*
Y01244*
X10504Y01254*
X10524*
X10534Y01244*
Y01215*
X10554Y01274D02*
X10594D01*
Y01264*
X10554Y01224*
Y01215*
X10614Y01264D02*
X10624Y01274D01*
X10644*
X10654Y01264*
Y01224*
X10644Y01215*
X10624*
X10614Y01224*
Y01264*
X10294Y01065D02*
X10274Y01084D01*
Y01104*
X10294Y01124*
X10324Y01065D02*
Y01124D01*
X10344Y01104*
X10364Y01124*
Y01065*
X10384D02*
X10404D01*
X10394*
Y01104*
X10384*
X10434D02*
X10474Y01065D01*
X10454Y01084*
X10474Y01104*
X10434Y01065*
X10524D02*
X10504D01*
X10494Y01074*
Y01094*
X10504Y01104*
X10524*
X10534Y01094*
Y01084*
X10494*
X10594Y01124D02*
Y01065D01*
X10564*
X10554Y01074*
Y01094*
X10564Y01104*
X10594*
X10614Y01065D02*
X10634Y01084D01*
Y01104*
X10614Y01124*
X10314Y00954D02*
X10284D01*
X10274Y00944*
Y00924*
X10284Y00915*
X10314*
X10334D02*
X10354D01*
X10344*
Y00974*
X10334Y00964*
X10384Y00924D02*
X10394Y00915D01*
X10414*
X10424Y00924*
Y00964*
X10414Y00974*
X10394*
X10384Y00964*
Y00954*
X10394Y00944*
X10424*
X10444Y00964D02*
X10454Y00974D01*
X10474*
X10484Y00964*
Y00954*
X10474Y00944*
X10464*
X10474*
X10484Y00934*
Y00924*
X10474Y00915*
X10454*
X10444Y00924*
X10504Y00974D02*
Y00915D01*
Y00944*
X10514Y00954*
X10534*
X10544Y00944*
Y00915*
X10564D02*
X10584D01*
X10574*
Y00974*
X10564Y00964*
X10614D02*
X10624Y00974D01*
X10644*
X10654Y00964*
Y00924*
X10644Y00915*
X10624*
X10614Y00924*
Y00964*
X10674D02*
X10684Y00974D01*
X10704*
X10714Y00964*
Y00924*
X10704Y00915*
X10684*
X10674Y00924*
Y00964*
X10294Y00765D02*
X10274Y00784D01*
Y00804*
X10294Y00824*
X10324Y00765D02*
Y00824D01*
X10344Y00804*
X10364Y00824*
Y00765*
X10384D02*
X10404D01*
X10394*
Y00804*
X10384*
X10434D02*
X10474Y00765D01*
X10454Y00784*
X10474Y00804*
X10434Y00765*
X10524D02*
X10504D01*
X10494Y00774*
Y00794*
X10504Y00804*
X10524*
X10534Y00794*
Y00784*
X10494*
X10594Y00824D02*
Y00765D01*
X10564*
X10554Y00774*
Y00794*
X10564Y00804*
X10594*
X10614Y00765D02*
X10634Y00784D01*
Y00804*
X10614Y00824*
X09528Y01515D02*
Y01574D01*
X09558*
X09568Y01564*
Y01544*
X09558Y01534*
X09528*
X09548D02*
X09568Y01515D01*
X09598D02*
X09618D01*
X09628Y01524*
Y01544*
X09618Y01554*
X09598*
X09588Y01544*
Y01524*
X09598Y01515*
X09648Y01554D02*
Y01524D01*
X09658Y01515*
X09688*
Y01554*
X09708Y01515D02*
Y01554D01*
X09738*
X09748Y01544*
Y01515*
X09808Y01574D02*
Y01515D01*
X09778*
X09768Y01524*
Y01544*
X09778Y01554*
X09808*
X09858Y01515D02*
X09838D01*
X09828Y01524*
Y01544*
X09838Y01554*
X09858*
X09868Y01544*
Y01534*
X09828*
X09928Y01574D02*
Y01515D01*
X09898*
X09888Y01524*
Y01544*
X09898Y01554*
X09928*
X09528Y01365D02*
Y01424D01*
X09558*
X09568Y01414*
Y01394*
X09558Y01384*
X09528*
X09548D02*
X09568Y01365D01*
X09598D02*
X09618D01*
X09628Y01374*
Y01394*
X09618Y01404*
X09598*
X09588Y01394*
Y01374*
X09598Y01365*
X09648Y01404D02*
Y01374D01*
X09658Y01365*
X09688*
Y01404*
X09708Y01365D02*
Y01404D01*
X09738*
X09748Y01394*
Y01365*
X09808Y01424D02*
Y01365D01*
X09778*
X09768Y01374*
Y01394*
X09778Y01404*
X09808*
X09858Y01365D02*
X09838D01*
X09828Y01374*
Y01394*
X09838Y01404*
X09858*
X09868Y01394*
Y01384*
X09828*
X09928Y01424D02*
Y01365D01*
X09898*
X09888Y01374*
Y01394*
X09898Y01404*
X09928*
X09528Y01215D02*
Y01274D01*
X09558*
X09568Y01264*
Y01244*
X09558Y01234*
X09528*
X09548D02*
X09568Y01215D01*
X09598D02*
X09618D01*
X09628Y01224*
Y01244*
X09618Y01254*
X09598*
X09588Y01244*
Y01224*
X09598Y01215*
X09648Y01254D02*
Y01224D01*
X09658Y01215*
X09688*
Y01254*
X09708Y01215D02*
Y01254D01*
X09738*
X09748Y01244*
Y01215*
X09808Y01274D02*
Y01215D01*
X09778*
X09768Y01224*
Y01244*
X09778Y01254*
X09808*
X09858Y01215D02*
X09838D01*
X09828Y01224*
Y01244*
X09838Y01254*
X09858*
X09868Y01244*
Y01234*
X09828*
X09928Y01274D02*
Y01215D01*
X09898*
X09888Y01224*
Y01244*
X09898Y01254*
X09928*
X09548Y01065D02*
X09528Y01084D01*
Y01104*
X09548Y01124*
X09578Y01065D02*
Y01124D01*
X09598Y01104*
X09618Y01124*
Y01065*
X09638D02*
X09658D01*
X09648*
Y01104*
X09638*
X09688D02*
X09728Y01065D01*
X09708Y01084*
X09728Y01104*
X09688Y01065*
X09778D02*
X09758D01*
X09748Y01074*
Y01094*
X09758Y01104*
X09778*
X09788Y01094*
Y01084*
X09748*
X09848Y01124D02*
Y01065D01*
X09818*
X09808Y01074*
Y01094*
X09818Y01104*
X09848*
X09868Y01065D02*
X09888Y01084D01*
Y01104*
X09868Y01124*
X09528Y00915D02*
Y00974D01*
X09558*
X09568Y00964*
Y00944*
X09558Y00934*
X09528*
X09548D02*
X09568Y00915D01*
X09598D02*
X09618D01*
X09628Y00924*
Y00944*
X09618Y00954*
X09598*
X09588Y00944*
Y00924*
X09598Y00915*
X09648Y00954D02*
Y00924D01*
X09658Y00915*
X09688*
Y00954*
X09708Y00915D02*
Y00954D01*
X09738*
X09748Y00944*
Y00915*
X09808Y00974D02*
Y00915D01*
X09778*
X09768Y00924*
Y00944*
X09778Y00954*
X09808*
X09858Y00915D02*
X09838D01*
X09828Y00924*
Y00944*
X09838Y00954*
X09858*
X09868Y00944*
Y00934*
X09828*
X09928Y00974D02*
Y00915D01*
X09898*
X09888Y00924*
Y00944*
X09898Y00954*
X09928*
X09528Y00765D02*
Y00824D01*
X09558*
X09568Y00814*
Y00794*
X09558Y00784*
X09528*
X09548D02*
X09568Y00765D01*
X09598D02*
X09618D01*
X09628Y00774*
Y00794*
X09618Y00804*
X09598*
X09588Y00794*
Y00774*
X09598Y00765*
X09648Y00804D02*
Y00774D01*
X09658Y00765*
X09688*
Y00804*
X09708Y00765D02*
Y00804D01*
X09738*
X09748Y00794*
Y00765*
X09808Y00824D02*
Y00765D01*
X09778*
X09768Y00774*
Y00794*
X09778Y00804*
X09808*
X09858Y00765D02*
X09838D01*
X09828Y00774*
Y00794*
X09838Y00804*
X09858*
X09868Y00794*
Y00784*
X09828*
X09928Y00824D02*
Y00765D01*
X09898*
X09888Y00774*
Y00794*
X09898Y00804*
X09928*
X08938Y01515D02*
Y01574D01*
X08968*
X08978Y01564*
Y01544*
X08968Y01534*
X08938*
X09008Y01554D02*
X09028D01*
X09038Y01544*
Y01515*
X09008*
X08998Y01524*
X09008Y01534*
X09038*
X09098Y01574D02*
Y01515D01*
X09068*
X09058Y01524*
Y01544*
X09068Y01554*
X09098*
X08938Y01365D02*
Y01424D01*
X08968*
X08978Y01414*
Y01394*
X08968Y01384*
X08938*
X09008Y01404D02*
X09028D01*
X09038Y01394*
Y01365*
X09008*
X08998Y01374*
X09008Y01384*
X09038*
X09098Y01424D02*
Y01365D01*
X09068*
X09058Y01374*
Y01394*
X09068Y01404*
X09098*
X08938Y01215D02*
Y01274D01*
X08968*
X08978Y01264*
Y01244*
X08968Y01234*
X08938*
X09008Y01254D02*
X09028D01*
X09038Y01244*
Y01215*
X09008*
X08998Y01224*
X09008Y01234*
X09038*
X09098Y01274D02*
Y01215D01*
X09068*
X09058Y01224*
Y01244*
X09068Y01254*
X09098*
X08938Y01065D02*
Y01124D01*
X08968*
X08978Y01114*
Y01094*
X08968Y01084*
X08938*
X09008Y01104D02*
X09028D01*
X09038Y01094*
Y01065*
X09008*
X08998Y01074*
X09008Y01084*
X09038*
X09098Y01124D02*
Y01065D01*
X09068*
X09058Y01074*
Y01094*
X09068Y01104*
X09098*
X08938Y00915D02*
Y00974D01*
X08968*
X08978Y00964*
Y00944*
X08968Y00934*
X08938*
X09008Y00954D02*
X09028D01*
X09038Y00944*
Y00915*
X09008*
X08998Y00924*
X09008Y00934*
X09038*
X09098Y00974D02*
Y00915D01*
X09068*
X09058Y00924*
Y00944*
X09068Y00954*
X09098*
X08938Y00765D02*
Y00824D01*
X08968*
X08978Y00814*
Y00794*
X08968Y00784*
X08938*
X09008Y00804D02*
X09028D01*
X09038Y00794*
Y00765*
X09008*
X08998Y00774*
X09008Y00784*
X09038*
X09098Y00824D02*
Y00765D01*
X09068*
X09058Y00774*
Y00794*
X09068Y00804*
X09098*
X07439Y01574D02*
X07479D01*
X07459*
Y01515*
X07509D02*
X07529D01*
X07539Y01524*
Y01544*
X07529Y01554*
X07509*
X07499Y01544*
Y01524*
X07509Y01515*
X07559Y01495D02*
Y01554D01*
X07589*
X07599Y01544*
Y01524*
X07589Y01515*
X07559*
X07679Y01574D02*
Y01515D01*
X07719*
X07749Y01554D02*
X07769D01*
X07779Y01544*
Y01515*
X07749*
X07739Y01524*
X07749Y01534*
X07779*
X07799Y01554D02*
Y01524D01*
X07809Y01515*
X07839*
Y01505*
X07829Y01495*
X07819*
X07839Y01515D02*
Y01554D01*
X07889Y01515D02*
X07869D01*
X07859Y01524*
Y01544*
X07869Y01554*
X07889*
X07899Y01544*
Y01534*
X07859*
X07919Y01554D02*
Y01515D01*
Y01534*
X07929Y01544*
X07939Y01554*
X07949*
X08039Y01544D02*
X08079D01*
X08158Y01574D02*
Y01515D01*
X08188*
X08198Y01524*
Y01534*
X08188Y01544*
X08158*
X08188*
X08198Y01554*
Y01564*
X08188Y01574*
X08158*
X08228Y01515D02*
X08248D01*
X08258Y01524*
Y01544*
X08248Y01554*
X08228*
X08218Y01544*
Y01524*
X08228Y01515*
X08288Y01564D02*
Y01554D01*
X08278*
X08298*
X08288*
Y01524*
X08298Y01515*
X08338Y01564D02*
Y01554D01*
X08328*
X08348*
X08338*
Y01524*
X08348Y01515*
X08388D02*
X08408D01*
X08418Y01524*
Y01544*
X08408Y01554*
X08388*
X08378Y01544*
Y01524*
X08388Y01515*
X08438D02*
Y01554D01*
X08448*
X08458Y01544*
Y01515*
Y01544*
X08468Y01554*
X08478Y01544*
Y01515*
X08558Y01574D02*
Y01515D01*
X08598*
X08628Y01554D02*
X08648D01*
X08658Y01544*
Y01515*
X08628*
X08618Y01524*
X08628Y01534*
X08658*
X08678Y01554D02*
Y01524D01*
X08688Y01515*
X08718*
Y01505*
X08708Y01495*
X08698*
X08718Y01515D02*
Y01554D01*
X08768Y01515D02*
X08748D01*
X08738Y01524*
Y01544*
X08748Y01554*
X08768*
X08778Y01544*
Y01534*
X08738*
X08798Y01554D02*
Y01515D01*
Y01534*
X08808Y01544*
X08818Y01554*
X08828*
X07439Y01424D02*
X07479D01*
X07459*
Y01365*
X07509D02*
X07529D01*
X07539Y01374*
Y01394*
X07529Y01404*
X07509*
X07499Y01394*
Y01374*
X07509Y01365*
X07559Y01345D02*
Y01404D01*
X07589*
X07599Y01394*
Y01374*
X07589Y01365*
X07559*
X07679Y01424D02*
Y01365D01*
X07719*
X07749Y01404D02*
X07769D01*
X07779Y01394*
Y01365*
X07749*
X07739Y01374*
X07749Y01384*
X07779*
X07799Y01404D02*
Y01374D01*
X07809Y01365*
X07839*
Y01355*
X07829Y01345*
X07819*
X07839Y01365D02*
Y01404D01*
X07889Y01365D02*
X07869D01*
X07859Y01374*
Y01394*
X07869Y01404*
X07889*
X07899Y01394*
Y01384*
X07859*
X07919Y01404D02*
Y01365D01*
Y01384*
X07929Y01394*
X07939Y01404*
X07949*
X08039Y01394D02*
X08079D01*
X08158Y01424D02*
Y01365D01*
X08188*
X08198Y01374*
Y01384*
X08188Y01394*
X08158*
X08188*
X08198Y01404*
Y01414*
X08188Y01424*
X08158*
X08228Y01365D02*
X08248D01*
X08258Y01374*
Y01394*
X08248Y01404*
X08228*
X08218Y01394*
Y01374*
X08228Y01365*
X08288Y01414D02*
Y01404D01*
X08278*
X08298*
X08288*
Y01374*
X08298Y01365*
X08338Y01414D02*
Y01404D01*
X08328*
X08348*
X08338*
Y01374*
X08348Y01365*
X08388D02*
X08408D01*
X08418Y01374*
Y01394*
X08408Y01404*
X08388*
X08378Y01394*
Y01374*
X08388Y01365*
X08438D02*
Y01404D01*
X08448*
X08458Y01394*
Y01365*
Y01394*
X08468Y01404*
X08478Y01394*
Y01365*
X08558Y01424D02*
Y01365D01*
X08598*
X08628Y01404D02*
X08648D01*
X08658Y01394*
Y01365*
X08628*
X08618Y01374*
X08628Y01384*
X08658*
X08678Y01404D02*
Y01374D01*
X08688Y01365*
X08718*
Y01355*
X08708Y01345*
X08698*
X08718Y01365D02*
Y01404D01*
X08768Y01365D02*
X08748D01*
X08738Y01374*
Y01394*
X08748Y01404*
X08768*
X08778Y01394*
Y01384*
X08738*
X08798Y01404D02*
Y01365D01*
Y01384*
X08808Y01394*
X08818Y01404*
X08828*
X07439Y01274D02*
X07479D01*
X07459*
Y01215*
X07509D02*
X07529D01*
X07539Y01224*
Y01244*
X07529Y01254*
X07509*
X07499Y01244*
Y01224*
X07509Y01215*
X07559Y01195D02*
Y01254D01*
X07589*
X07599Y01244*
Y01224*
X07589Y01215*
X07559*
X07679Y01274D02*
Y01215D01*
X07719*
X07749Y01254D02*
X07769D01*
X07779Y01244*
Y01215*
X07749*
X07739Y01224*
X07749Y01234*
X07779*
X07799Y01254D02*
Y01224D01*
X07809Y01215*
X07839*
Y01205*
X07829Y01195*
X07819*
X07839Y01215D02*
Y01254D01*
X07889Y01215D02*
X07869D01*
X07859Y01224*
Y01244*
X07869Y01254*
X07889*
X07899Y01244*
Y01234*
X07859*
X07919Y01254D02*
Y01215D01*
Y01234*
X07929Y01244*
X07939Y01254*
X07949*
X08039Y01244D02*
X08079D01*
X08158Y01274D02*
Y01215D01*
X08188*
X08198Y01224*
Y01234*
X08188Y01244*
X08158*
X08188*
X08198Y01254*
Y01264*
X08188Y01274*
X08158*
X08228Y01215D02*
X08248D01*
X08258Y01224*
Y01244*
X08248Y01254*
X08228*
X08218Y01244*
Y01224*
X08228Y01215*
X08288Y01264D02*
Y01254D01*
X08278*
X08298*
X08288*
Y01224*
X08298Y01215*
X08338Y01264D02*
Y01254D01*
X08328*
X08348*
X08338*
Y01224*
X08348Y01215*
X08388D02*
X08408D01*
X08418Y01224*
Y01244*
X08408Y01254*
X08388*
X08378Y01244*
Y01224*
X08388Y01215*
X08438D02*
Y01254D01*
X08448*
X08458Y01244*
Y01215*
Y01244*
X08468Y01254*
X08478Y01244*
Y01215*
X08558Y01274D02*
Y01215D01*
X08598*
X08628Y01254D02*
X08648D01*
X08658Y01244*
Y01215*
X08628*
X08618Y01224*
X08628Y01234*
X08658*
X08678Y01254D02*
Y01224D01*
X08688Y01215*
X08718*
Y01205*
X08708Y01195*
X08698*
X08718Y01215D02*
Y01254D01*
X08768Y01215D02*
X08748D01*
X08738Y01224*
Y01244*
X08748Y01254*
X08768*
X08778Y01244*
Y01234*
X08738*
X08798Y01254D02*
Y01215D01*
Y01234*
X08808Y01244*
X08818Y01254*
X08828*
X07439Y01124D02*
X07479D01*
X07459*
Y01065*
X07509D02*
X07529D01*
X07539Y01074*
Y01094*
X07529Y01104*
X07509*
X07499Y01094*
Y01074*
X07509Y01065*
X07559Y01045D02*
Y01104D01*
X07589*
X07599Y01094*
Y01074*
X07589Y01065*
X07559*
X07679Y01124D02*
Y01065D01*
X07719*
X07749Y01104D02*
X07769D01*
X07779Y01094*
Y01065*
X07749*
X07739Y01074*
X07749Y01084*
X07779*
X07799Y01104D02*
Y01074D01*
X07809Y01065*
X07839*
Y01055*
X07829Y01045*
X07819*
X07839Y01065D02*
Y01104D01*
X07889Y01065D02*
X07869D01*
X07859Y01074*
Y01094*
X07869Y01104*
X07889*
X07899Y01094*
Y01084*
X07859*
X07919Y01104D02*
Y01065D01*
Y01084*
X07929Y01094*
X07939Y01104*
X07949*
X08039Y01094D02*
X08079D01*
X08158Y01124D02*
Y01065D01*
X08188*
X08198Y01074*
Y01084*
X08188Y01094*
X08158*
X08188*
X08198Y01104*
Y01114*
X08188Y01124*
X08158*
X08228Y01065D02*
X08248D01*
X08258Y01074*
Y01094*
X08248Y01104*
X08228*
X08218Y01094*
Y01074*
X08228Y01065*
X08288Y01114D02*
Y01104D01*
X08278*
X08298*
X08288*
Y01074*
X08298Y01065*
X08338Y01114D02*
Y01104D01*
X08328*
X08348*
X08338*
Y01074*
X08348Y01065*
X08388D02*
X08408D01*
X08418Y01074*
Y01094*
X08408Y01104*
X08388*
X08378Y01094*
Y01074*
X08388Y01065*
X08438D02*
Y01104D01*
X08448*
X08458Y01094*
Y01065*
Y01094*
X08468Y01104*
X08478Y01094*
Y01065*
X08558Y01124D02*
Y01065D01*
X08598*
X08628Y01104D02*
X08648D01*
X08658Y01094*
Y01065*
X08628*
X08618Y01074*
X08628Y01084*
X08658*
X08678Y01104D02*
Y01074D01*
X08688Y01065*
X08718*
Y01055*
X08708Y01045*
X08698*
X08718Y01065D02*
Y01104D01*
X08768Y01065D02*
X08748D01*
X08738Y01074*
Y01094*
X08748Y01104*
X08768*
X08778Y01094*
Y01084*
X08738*
X08798Y01104D02*
Y01065D01*
Y01084*
X08808Y01094*
X08818Y01104*
X08828*
X07439Y00974D02*
X07479D01*
X07459*
Y00915*
X07509D02*
X07529D01*
X07539Y00924*
Y00944*
X07529Y00954*
X07509*
X07499Y00944*
Y00924*
X07509Y00915*
X07559Y00895D02*
Y00954D01*
X07589*
X07599Y00944*
Y00924*
X07589Y00915*
X07559*
X07679Y00974D02*
Y00915D01*
X07719*
X07749Y00954D02*
X07769D01*
X07779Y00944*
Y00915*
X07749*
X07739Y00924*
X07749Y00934*
X07779*
X07799Y00954D02*
Y00924D01*
X07809Y00915*
X07839*
Y00905*
X07829Y00895*
X07819*
X07839Y00915D02*
Y00954D01*
X07889Y00915D02*
X07869D01*
X07859Y00924*
Y00944*
X07869Y00954*
X07889*
X07899Y00944*
Y00934*
X07859*
X07919Y00954D02*
Y00915D01*
Y00934*
X07929Y00944*
X07939Y00954*
X07949*
X08039Y00944D02*
X08079D01*
X08158Y00974D02*
Y00915D01*
X08188*
X08198Y00924*
Y00934*
X08188Y00944*
X08158*
X08188*
X08198Y00954*
Y00964*
X08188Y00974*
X08158*
X08228Y00915D02*
X08248D01*
X08258Y00924*
Y00944*
X08248Y00954*
X08228*
X08218Y00944*
Y00924*
X08228Y00915*
X08288Y00964D02*
Y00954D01*
X08278*
X08298*
X08288*
Y00924*
X08298Y00915*
X08338Y00964D02*
Y00954D01*
X08328*
X08348*
X08338*
Y00924*
X08348Y00915*
X08388D02*
X08408D01*
X08418Y00924*
Y00944*
X08408Y00954*
X08388*
X08378Y00944*
Y00924*
X08388Y00915*
X08438D02*
Y00954D01*
X08448*
X08458Y00944*
Y00915*
Y00944*
X08468Y00954*
X08478Y00944*
Y00915*
X08558Y00974D02*
Y00915D01*
X08598*
X08628Y00954D02*
X08648D01*
X08658Y00944*
Y00915*
X08628*
X08618Y00924*
X08628Y00934*
X08658*
X08678Y00954D02*
Y00924D01*
X08688Y00915*
X08718*
Y00905*
X08708Y00895*
X08698*
X08718Y00915D02*
Y00954D01*
X08768Y00915D02*
X08748D01*
X08738Y00924*
Y00944*
X08748Y00954*
X08768*
X08778Y00944*
Y00934*
X08738*
X08798Y00954D02*
Y00915D01*
Y00934*
X08808Y00944*
X08818Y00954*
X08828*
X07439Y00824D02*
X07479D01*
X07459*
Y00765*
X07509D02*
X07529D01*
X07539Y00774*
Y00794*
X07529Y00804*
X07509*
X07499Y00794*
Y00774*
X07509Y00765*
X07559Y00745D02*
Y00804D01*
X07589*
X07599Y00794*
Y00774*
X07589Y00765*
X07559*
X07679Y00824D02*
Y00765D01*
X07719*
X07749Y00804D02*
X07769D01*
X07779Y00794*
Y00765*
X07749*
X07739Y00774*
X07749Y00784*
X07779*
X07799Y00804D02*
Y00774D01*
X07809Y00765*
X07839*
Y00755*
X07829Y00745*
X07819*
X07839Y00765D02*
Y00804D01*
X07889Y00765D02*
X07869D01*
X07859Y00774*
Y00794*
X07869Y00804*
X07889*
X07899Y00794*
Y00784*
X07859*
X07919Y00804D02*
Y00765D01*
Y00784*
X07929Y00794*
X07939Y00804*
X07949*
X08039Y00794D02*
X08079D01*
X08158Y00824D02*
Y00765D01*
X08188*
X08198Y00774*
Y00784*
X08188Y00794*
X08158*
X08188*
X08198Y00804*
Y00814*
X08188Y00824*
X08158*
X08228Y00765D02*
X08248D01*
X08258Y00774*
Y00794*
X08248Y00804*
X08228*
X08218Y00794*
Y00774*
X08228Y00765*
X08288Y00814D02*
Y00804D01*
X08278*
X08298*
X08288*
Y00774*
X08298Y00765*
X08338Y00814D02*
Y00804D01*
X08328*
X08348*
X08338*
Y00774*
X08348Y00765*
X08388D02*
X08408D01*
X08418Y00774*
Y00794*
X08408Y00804*
X08388*
X08378Y00794*
Y00774*
X08388Y00765*
X08438D02*
Y00804D01*
X08448*
X08458Y00794*
Y00765*
Y00794*
X08468Y00804*
X08478Y00794*
Y00765*
X08558Y00824D02*
Y00765D01*
X08598*
X08628Y00804D02*
X08648D01*
X08658Y00794*
Y00765*
X08628*
X08618Y00774*
X08628Y00784*
X08658*
X08678Y00804D02*
Y00774D01*
X08688Y00765*
X08718*
Y00755*
X08708Y00745*
X08698*
X08718Y00765D02*
Y00804D01*
X08768Y00765D02*
X08748D01*
X08738Y00774*
Y00794*
X08748Y00804*
X08768*
X08778Y00794*
Y00784*
X08738*
X08798Y00804D02*
Y00765D01*
Y00784*
X08808Y00794*
X08818Y00804*
X08828*
X06705Y01515D02*
Y01574D01*
X06735*
X06745Y01564*
Y01544*
X06735Y01534*
X06705*
X06725D02*
X06745Y01515D01*
X06775D02*
X06795D01*
X06805Y01524*
Y01544*
X06795Y01554*
X06775*
X06765Y01544*
Y01524*
X06775Y01515*
X06825Y01554D02*
Y01524D01*
X06835Y01515*
X06865*
Y01554*
X06885Y01515D02*
Y01554D01*
X06915*
X06925Y01544*
Y01515*
X06985Y01574D02*
Y01515D01*
X06955*
X06945Y01524*
Y01544*
X06955Y01554*
X06985*
X06705Y01365D02*
Y01424D01*
X06735*
X06745Y01414*
Y01394*
X06735Y01384*
X06705*
X06725D02*
X06745Y01365D01*
X06775D02*
X06795D01*
X06805Y01374*
Y01394*
X06795Y01404*
X06775*
X06765Y01394*
Y01374*
X06775Y01365*
X06825Y01404D02*
Y01374D01*
X06835Y01365*
X06865*
Y01404*
X06885Y01365D02*
Y01404D01*
X06915*
X06925Y01394*
Y01365*
X06985Y01424D02*
Y01365D01*
X06955*
X06945Y01374*
Y01394*
X06955Y01404*
X06985*
X06705Y01215D02*
Y01274D01*
X06735*
X06745Y01264*
Y01244*
X06735Y01234*
X06705*
X06725D02*
X06745Y01215D01*
X06775D02*
X06795D01*
X06805Y01224*
Y01244*
X06795Y01254*
X06775*
X06765Y01244*
Y01224*
X06775Y01215*
X06825Y01254D02*
Y01224D01*
X06835Y01215*
X06865*
Y01254*
X06885Y01215D02*
Y01254D01*
X06915*
X06925Y01244*
Y01215*
X06985Y01274D02*
Y01215D01*
X06955*
X06945Y01224*
Y01244*
X06955Y01254*
X06985*
X06705Y01065D02*
Y01124D01*
X06735*
X06745Y01114*
Y01094*
X06735Y01084*
X06705*
X06725D02*
X06745Y01065D01*
X06775D02*
X06795D01*
X06805Y01074*
Y01094*
X06795Y01104*
X06775*
X06765Y01094*
Y01074*
X06775Y01065*
X06825Y01104D02*
Y01074D01*
X06835Y01065*
X06865*
Y01104*
X06885Y01065D02*
Y01104D01*
X06915*
X06925Y01094*
Y01065*
X06985Y01124D02*
Y01065D01*
X06955*
X06945Y01074*
Y01094*
X06955Y01104*
X06985*
X06705Y00915D02*
Y00974D01*
X06735*
X06745Y00964*
Y00944*
X06735Y00934*
X06705*
X06725D02*
X06745Y00915D01*
X06775D02*
X06795D01*
X06805Y00924*
Y00944*
X06795Y00954*
X06775*
X06765Y00944*
Y00924*
X06775Y00915*
X06825Y00954D02*
Y00924D01*
X06835Y00915*
X06865*
Y00954*
X06885Y00915D02*
Y00954D01*
X06915*
X06925Y00944*
Y00915*
X06985Y00974D02*
Y00915D01*
X06955*
X06945Y00924*
Y00944*
X06955Y00954*
X06985*
X06705Y00765D02*
Y00824D01*
X06735*
X06745Y00814*
Y00794*
X06735Y00784*
X06705*
X06725D02*
X06745Y00765D01*
X06775D02*
X06795D01*
X06805Y00774*
Y00794*
X06795Y00804*
X06775*
X06765Y00794*
Y00774*
X06775Y00765*
X06825Y00804D02*
Y00774D01*
X06835Y00765*
X06865*
Y00804*
X06885Y00765D02*
Y00804D01*
X06915*
X06925Y00794*
Y00765*
X06985Y00824D02*
Y00765D01*
X06955*
X06945Y00774*
Y00794*
X06955Y00804*
X06985*
X06199Y01515D02*
Y01574D01*
X06229*
X06239Y01564*
Y01544*
X06229Y01534*
X06199*
X06259Y01574D02*
X06299D01*
X06279*
Y01515*
X06319Y01574D02*
Y01515D01*
Y01544*
X06359*
Y01574*
Y01515*
X06199Y01365D02*
Y01424D01*
X06229*
X06239Y01414*
Y01394*
X06229Y01384*
X06199*
X06259Y01424D02*
X06299D01*
X06279*
Y01365*
X06319Y01424D02*
Y01365D01*
Y01394*
X06359*
Y01424*
Y01365*
X06199Y01215D02*
Y01274D01*
X06229*
X06239Y01264*
Y01244*
X06229Y01234*
X06199*
X06259Y01274D02*
X06299D01*
X06279*
Y01215*
X06319Y01274D02*
Y01215D01*
Y01244*
X06359*
Y01274*
Y01215*
X06199Y01065D02*
Y01124D01*
X06229*
X06239Y01114*
Y01094*
X06229Y01084*
X06199*
X06259Y01124D02*
X06299D01*
X06279*
Y01065*
X06319Y01124D02*
Y01065D01*
Y01094*
X06359*
Y01124*
Y01065*
X06199Y00915D02*
Y00974D01*
X06229*
X06239Y00964*
Y00944*
X06229Y00934*
X06199*
X06259Y00974D02*
X06299D01*
X06279*
Y00915*
X06319Y00974D02*
Y00915D01*
Y00944*
X06359*
Y00974*
Y00915*
X06199Y00765D02*
Y00824D01*
X06229*
X06239Y00814*
Y00794*
X06229Y00784*
X06199*
X06259Y00824D02*
X06299D01*
X06279*
Y00765*
X06319Y00824D02*
Y00765D01*
Y00794*
X06359*
Y00824*
Y00765*
X05099Y01564D02*
X05109Y01574D01*
X05129*
X05139Y01564*
Y01524*
X05129Y01515*
X05109*
X05099Y01524*
Y01564*
X05159Y01515D02*
Y01524D01*
X05169*
Y01515*
X05159*
X05209Y01574D02*
X05249D01*
Y01564*
X05209Y01524*
Y01515*
X05309Y01574D02*
X05269D01*
Y01544*
X05289Y01554*
X05299*
X05309Y01544*
Y01524*
X05299Y01515*
X05279*
X05269Y01524*
X05329Y01564D02*
X05339Y01574D01*
X05359*
X05369Y01564*
Y01524*
X05359Y01515*
X05339*
X05329Y01524*
Y01564*
X05389Y01515D02*
Y01554D01*
X05399*
X05409Y01544*
Y01515*
Y01544*
X05419Y01554*
X05429Y01544*
Y01515*
X05449D02*
Y01554D01*
X05459*
X05469Y01544*
Y01515*
Y01544*
X05479Y01554*
X05489Y01544*
Y01515*
X05589D02*
X05569Y01534D01*
Y01554*
X05589Y01574*
X05659Y01515D02*
X05619D01*
X05659Y01554*
Y01564*
X05649Y01574*
X05629*
X05619Y01564*
X05679Y01524D02*
X05689Y01515D01*
X05709*
X05719Y01524*
Y01564*
X05709Y01574*
X05689*
X05679Y01564*
Y01554*
X05689Y01544*
X05719*
X05739Y01515D02*
Y01524D01*
X05749*
Y01515*
X05739*
X05829Y01574D02*
X05789D01*
Y01544*
X05809Y01554*
X05819*
X05829Y01544*
Y01524*
X05819Y01515*
X05799*
X05789Y01524*
X05849Y01564D02*
X05859Y01574D01*
X05879*
X05889Y01564*
Y01554*
X05879Y01544*
X05869*
X05879*
X05889Y01534*
Y01524*
X05879Y01515*
X05859*
X05849Y01524*
X05909Y01515D02*
Y01554D01*
X05919*
X05929Y01544*
Y01515*
Y01544*
X05939Y01554*
X05949Y01544*
Y01515*
X05969D02*
X05989D01*
X05979*
Y01554*
X05969*
X06019Y01515D02*
X06039D01*
X06029*
Y01574*
X06019*
X06069Y01515D02*
X06089Y01534D01*
Y01554*
X06069Y01574*
X05099Y01414D02*
X05109Y01424D01*
X05129*
X05139Y01414*
Y01374*
X05129Y01365*
X05109*
X05099Y01374*
Y01414*
X05159Y01365D02*
Y01374D01*
X05169*
Y01365*
X05159*
X05209Y01424D02*
X05249D01*
Y01414*
X05209Y01374*
Y01365*
X05309Y01424D02*
X05289Y01414D01*
X05269Y01394*
Y01374*
X05279Y01365*
X05299*
X05309Y01374*
Y01384*
X05299Y01394*
X05269*
X05369Y01365D02*
X05329D01*
X05369Y01404*
Y01414*
X05359Y01424*
X05339*
X05329Y01414*
X05389Y01365D02*
Y01404D01*
X05399*
X05409Y01394*
Y01365*
Y01394*
X05419Y01404*
X05429Y01394*
Y01365*
X05449D02*
Y01404D01*
X05459*
X05469Y01394*
Y01365*
Y01394*
X05479Y01404*
X05489Y01394*
Y01365*
X05589D02*
X05569Y01384D01*
Y01404*
X05589Y01424*
X05619Y01414D02*
X05629Y01424D01*
X05649*
X05659Y01414*
Y01404*
X05649Y01394*
X05639*
X05649*
X05659Y01384*
Y01374*
X05649Y01365*
X05629*
X05619Y01374*
X05679Y01414D02*
X05689Y01424D01*
X05709*
X05719Y01414*
Y01374*
X05709Y01365*
X05689*
X05679Y01374*
Y01414*
X05739Y01365D02*
Y01374D01*
X05749*
Y01365*
X05739*
X05789Y01414D02*
X05799Y01424D01*
X05819*
X05829Y01414*
Y01374*
X05819Y01365*
X05799*
X05789Y01374*
Y01414*
X05849D02*
X05859Y01424D01*
X05879*
X05889Y01414*
Y01374*
X05879Y01365*
X05859*
X05849Y01374*
Y01414*
X05909Y01365D02*
Y01404D01*
X05919*
X05929Y01394*
Y01365*
Y01394*
X05939Y01404*
X05949Y01394*
Y01365*
X05969D02*
X05989D01*
X05979*
Y01404*
X05969*
X06019Y01365D02*
X06039D01*
X06029*
Y01424*
X06019*
X06069Y01365D02*
X06089Y01384D01*
Y01404*
X06069Y01424*
X05099Y01264D02*
X05109Y01274D01*
X05129*
X05139Y01264*
Y01224*
X05129Y01215*
X05109*
X05099Y01224*
Y01264*
X05159Y01215D02*
Y01224D01*
X05169*
Y01215*
X05159*
X05209Y01274D02*
X05249D01*
Y01264*
X05209Y01224*
Y01215*
X05269Y01264D02*
X05279Y01274D01*
X05299*
X05309Y01264*
Y01224*
X05299Y01215*
X05279*
X05269Y01224*
Y01264*
X05329D02*
X05339Y01274D01*
X05359*
X05369Y01264*
Y01224*
X05359Y01215*
X05339*
X05329Y01224*
Y01264*
X05389Y01215D02*
Y01254D01*
X05399*
X05409Y01244*
Y01215*
Y01244*
X05419Y01254*
X05429Y01244*
Y01215*
X05449D02*
Y01254D01*
X05459*
X05469Y01244*
Y01215*
Y01244*
X05479Y01254*
X05489Y01244*
Y01215*
X05589D02*
X05569Y01234D01*
Y01254*
X05589Y01274*
X05659Y01215D02*
X05619D01*
X05659Y01254*
Y01264*
X05649Y01274*
X05629*
X05619Y01264*
X05679Y01274D02*
X05719D01*
Y01264*
X05679Y01224*
Y01215*
X05739D02*
Y01224D01*
X05749*
Y01215*
X05739*
X05829Y01274D02*
X05789D01*
Y01244*
X05809Y01254*
X05819*
X05829Y01244*
Y01224*
X05819Y01215*
X05799*
X05789Y01224*
X05889Y01274D02*
X05869Y01264D01*
X05849Y01244*
Y01224*
X05859Y01215*
X05879*
X05889Y01224*
Y01234*
X05879Y01244*
X05849*
X05909Y01215D02*
Y01254D01*
X05919*
X05929Y01244*
Y01215*
Y01244*
X05939Y01254*
X05949Y01244*
Y01215*
X05969D02*
X05989D01*
X05979*
Y01254*
X05969*
X06019Y01215D02*
X06039D01*
X06029*
Y01274*
X06019*
X06069Y01215D02*
X06089Y01234D01*
Y01254*
X06069Y01274*
X05099Y01065D02*
X05119D01*
X05109*
Y01124*
X05099Y01114*
X05149Y01065D02*
Y01074D01*
X05159*
Y01065*
X05149*
X05199D02*
X05219D01*
X05209*
Y01124*
X05199Y01114*
X05249D02*
X05259Y01124D01*
X05279*
X05289Y01114*
Y01074*
X05279Y01065*
X05259*
X05249Y01074*
Y01114*
X05309D02*
X05319Y01124D01*
X05339*
X05349Y01114*
Y01074*
X05339Y01065*
X05319*
X05309Y01074*
Y01114*
X05369Y01065D02*
Y01104D01*
X05379*
X05389Y01094*
Y01065*
Y01094*
X05399Y01104*
X05409Y01094*
Y01065*
X05429D02*
Y01104D01*
X05439*
X05449Y01094*
Y01065*
Y01094*
X05459Y01104*
X05469Y01094*
Y01065*
X05569D02*
X05549Y01084D01*
Y01104*
X05569Y01124*
X05629Y01065D02*
Y01124D01*
X05599Y01094*
X05639*
X05659Y01114D02*
X05669Y01124D01*
X05689*
X05699Y01114*
Y01104*
X05689Y01094*
X05679*
X05689*
X05699Y01084*
Y01074*
X05689Y01065*
X05669*
X05659Y01074*
X05719Y01065D02*
Y01074D01*
X05729*
Y01065*
X05719*
X05769Y01114D02*
X05779Y01124D01*
X05799*
X05809Y01114*
Y01104*
X05799Y01094*
X05789*
X05799*
X05809Y01084*
Y01074*
X05799Y01065*
X05779*
X05769Y01074*
X05829Y01065D02*
X05849D01*
X05839*
Y01124*
X05829Y01114*
X05879Y01065D02*
Y01104D01*
X05889*
X05899Y01094*
Y01065*
Y01094*
X05909Y01104*
X05919Y01094*
Y01065*
X05939D02*
X05959D01*
X05949*
Y01104*
X05939*
X05989Y01065D02*
X06009D01*
X05999*
Y01124*
X05989*
X06039Y01065D02*
X06059Y01084D01*
Y01104*
X06039Y01124*
X05099Y00915D02*
X05119D01*
X05109*
Y00974*
X05099Y00964*
X05149Y00915D02*
Y00924D01*
X05159*
Y00915*
X05149*
X05199Y00964D02*
X05209Y00974D01*
X05229*
X05239Y00964*
Y00924*
X05229Y00915*
X05209*
X05199Y00924*
Y00964*
X05259D02*
X05269Y00974D01*
X05289*
X05299Y00964*
Y00924*
X05289Y00915*
X05269*
X05259Y00924*
Y00964*
X05319D02*
X05329Y00974D01*
X05349*
X05359Y00964*
Y00924*
X05349Y00915*
X05329*
X05319Y00924*
Y00964*
X05379Y00915D02*
Y00954D01*
X05389*
X05399Y00944*
Y00915*
Y00944*
X05409Y00954*
X05419Y00944*
Y00915*
X05439D02*
Y00954D01*
X05449*
X05459Y00944*
Y00915*
Y00944*
X05469Y00954*
X05479Y00944*
Y00915*
X05579D02*
X05559Y00934D01*
Y00954*
X05579Y00974*
X05609Y00964D02*
X05619Y00974D01*
X05639*
X05649Y00964*
Y00954*
X05639Y00944*
X05629*
X05639*
X05649Y00934*
Y00924*
X05639Y00915*
X05619*
X05609Y00924*
X05669D02*
X05679Y00915D01*
X05699*
X05709Y00924*
Y00964*
X05699Y00974*
X05679*
X05669Y00964*
Y00954*
X05679Y00944*
X05709*
X05729Y00915D02*
Y00924D01*
X05739*
Y00915*
X05729*
X05779Y00964D02*
X05789Y00974D01*
X05809*
X05819Y00964*
Y00954*
X05809Y00944*
X05799*
X05809*
X05819Y00934*
Y00924*
X05809Y00915*
X05789*
X05779Y00924*
X05839Y00974D02*
X05879D01*
Y00964*
X05839Y00924*
Y00915*
X05899D02*
Y00954D01*
X05909*
X05919Y00944*
Y00915*
Y00944*
X05929Y00954*
X05939Y00944*
Y00915*
X05959D02*
X05979D01*
X05969*
Y00954*
X05959*
X06009Y00915D02*
X06029D01*
X06019*
Y00974*
X06009*
X06059Y00915D02*
X06079Y00934D01*
Y00954*
X06059Y00974*
X05099Y00814D02*
X05109Y00824D01*
X05129*
X05139Y00814*
Y00774*
X05129Y00765*
X05109*
X05099Y00774*
Y00814*
X05159Y00765D02*
Y00774D01*
X05169*
Y00765*
X05159*
X05209Y00814D02*
X05219Y00824D01*
X05239*
X05249Y00814*
Y00804*
X05239Y00794*
X05249Y00784*
Y00774*
X05239Y00765*
X05219*
X05209Y00774*
Y00784*
X05219Y00794*
X05209Y00804*
Y00814*
X05219Y00794D02*
X05239D01*
X05269Y00814D02*
X05279Y00824D01*
X05299*
X05309Y00814*
Y00774*
X05299Y00765*
X05279*
X05269Y00774*
Y00814*
X05329D02*
X05339Y00824D01*
X05359*
X05369Y00814*
Y00774*
X05359Y00765*
X05339*
X05329Y00774*
Y00814*
X05389Y00765D02*
Y00804D01*
X05399*
X05409Y00794*
Y00765*
Y00794*
X05419Y00804*
X05429Y00794*
Y00765*
X05449D02*
Y00804D01*
X05459*
X05469Y00794*
Y00765*
Y00794*
X05479Y00804*
X05489Y00794*
Y00765*
X05589D02*
X05569Y00784D01*
Y00804*
X05589Y00824*
X05619Y00814D02*
X05629Y00824D01*
X05649*
X05659Y00814*
Y00804*
X05649Y00794*
X05639*
X05649*
X05659Y00784*
Y00774*
X05649Y00765*
X05629*
X05619Y00774*
X05679Y00765D02*
X05699D01*
X05689*
Y00824*
X05679Y00814*
X05729Y00765D02*
Y00774D01*
X05739*
Y00765*
X05729*
X05819Y00824D02*
X05779D01*
Y00794*
X05799Y00804*
X05809*
X05819Y00794*
Y00774*
X05809Y00765*
X05789*
X05779Y00774*
X05839Y00814D02*
X05849Y00824D01*
X05869*
X05879Y00814*
Y00774*
X05869Y00765*
X05849*
X05839Y00774*
Y00814*
X05899Y00765D02*
Y00804D01*
X05909*
X05919Y00794*
Y00765*
Y00794*
X05929Y00804*
X05939Y00794*
Y00765*
X05959D02*
X05979D01*
X05969*
Y00804*
X05959*
X06009Y00765D02*
X06029D01*
X06019*
Y00824*
X06009*
X06059Y00765D02*
X06079Y00784D01*
Y00804*
X06059Y00824*
X0456Y00624D02*
X04569Y00615D01*
X04589*
X04599Y00624*
Y00664*
X04589Y00674*
X04569*
X0456Y00664*
Y00654*
X04569Y00644*
X04599*
X04659Y00615D02*
X04619D01*
X04659Y00654*
Y00664*
X04649Y00674*
X04629*
X04619Y00664*
X04739Y00674D02*
X04779D01*
X04759*
Y00615*
X04809D02*
X04829D01*
X04839Y00624*
Y00644*
X04829Y00654*
X04809*
X04799Y00644*
Y00624*
X04809Y00615*
X04869Y00664D02*
Y00654D01*
X04859*
X04879*
X04869*
Y00624*
X04879Y00615*
X04919Y00654D02*
X04939D01*
X04949Y00644*
Y00615*
X04919*
X04909Y00624*
X04919Y00634*
X04949*
X04969Y00615D02*
X04989D01*
X04979*
Y00674*
X04969*
X04599Y01574D02*
X0456D01*
Y01544*
X04579Y01554*
X04589*
X04599Y01544*
Y01524*
X04589Y01515*
X04569*
X0456Y01524*
X04599Y01424D02*
X0456D01*
Y01394*
X04579Y01404*
X04589*
X04599Y01394*
Y01374*
X04589Y01365*
X04569*
X0456Y01374*
X04599Y01274D02*
X04579Y01264D01*
X0456Y01244*
Y01224*
X04569Y01215*
X04589*
X04599Y01224*
Y01234*
X04589Y01244*
X0456*
X04599Y01124D02*
X04579Y01114D01*
X0456Y01094*
Y01074*
X04569Y01065*
X04589*
X04599Y01074*
Y01084*
X04589Y01094*
X0456*
Y00915D02*
X04579D01*
X04569*
Y00974*
X0456Y00964*
X04609D02*
X04619Y00974D01*
X04639*
X04649Y00964*
Y00924*
X04639Y00915*
X04619*
X04609Y00924*
Y00964*
X04599Y00824D02*
X04579Y00814D01*
X0456Y00794*
Y00774*
X04569Y00765*
X04589*
X04599Y00774*
Y00784*
X04589Y00794*
X0456*
X04619Y00814D02*
X04629Y00824D01*
X04649*
X04659Y00814*
Y00774*
X04649Y00765*
X04629*
X04619Y00774*
Y00814*
G54D29*
X03964Y0162D02*
X14445D01*
X03964Y0072D02*
X14445D01*
X03964Y0057D02*
X14445D01*
Y0177*
X03964D02*
X14445D01*
X03964Y0057D02*
Y0177D01*
X13066Y0057D02*
Y0177D01*
X11733Y0057D02*
Y0177D01*
X10879Y0057D02*
Y0177D01*
X10229Y0057D02*
Y0177D01*
X09483Y0057D02*
Y0177D01*
X08893Y0057D02*
Y0177D01*
X07394Y0057D02*
Y0177D01*
X0666Y0057D02*
Y0177D01*
X06154Y0057D02*
Y0177D01*
X05054Y0057D02*
Y0177D01*
X04515Y0057D02*
Y0177D01*
G54D31*
X13111Y01736D02*
Y01665D01*
Y017*
X13159*
Y01736*
Y01665*
X13195D02*
X13219D01*
X13231Y01676*
Y017*
X13219Y01712*
X13195*
X13183Y017*
Y01676*
X13195Y01665*
X13255D02*
X13279D01*
X13267*
Y01736*
X13255*
X13351Y01665D02*
X13327D01*
X13315Y01676*
Y017*
X13327Y01712*
X13351*
X13363Y017*
Y01688*
X13315*
X13459Y01736D02*
X13507D01*
X13483*
Y01665*
X13543D02*
X13567D01*
X13579Y01676*
Y017*
X13567Y01712*
X13543*
X13531Y017*
Y01676*
X13543Y01665*
X13603D02*
X13627D01*
X13615*
Y01736*
X13603*
X13699Y01665D02*
X13675D01*
X13663Y01676*
Y017*
X13675Y01712*
X13699*
X13711Y017*
Y01688*
X13663*
X13735Y01712D02*
Y01665D01*
Y01688*
X13747Y017*
X13759Y01712*
X13771*
X13819D02*
X13843D01*
X13855Y017*
Y01665*
X13819*
X13807Y01676*
X13819Y01688*
X13855*
X13879Y01665D02*
Y01712D01*
X13915*
X13927Y017*
Y01665*
X13999Y01712D02*
X13963D01*
X13951Y017*
Y01676*
X13963Y01665*
X13999*
X14059D02*
X14035D01*
X14023Y01676*
Y017*
X14035Y01712*
X14059*
X14071Y017*
Y01688*
X14023*
X14191Y01665D02*
X14167Y01688D01*
Y01712*
X14191Y01736*
X14227Y017D02*
X14275D01*
X14299Y01665D02*
X14323Y01688D01*
Y01712*
X14299Y01736*
X11778D02*
Y01665D01*
Y017*
X11825*
Y01736*
Y01665*
X11861D02*
X11885D01*
X11897Y01676*
Y017*
X11885Y01712*
X11861*
X11849Y017*
Y01676*
X11861Y01665*
X11921D02*
X11945D01*
X11933*
Y01736*
X11921*
X12017Y01665D02*
X11993D01*
X11981Y01676*
Y017*
X11993Y01712*
X12017*
X12029Y017*
Y01688*
X11981*
X12125Y01736D02*
X12173D01*
X12149*
Y01665*
X12209D02*
X12233D01*
X12245Y01676*
Y017*
X12233Y01712*
X12209*
X12197Y017*
Y01676*
X12209Y01665*
X12269D02*
X12293D01*
X12281*
Y01736*
X12269*
X12365Y01665D02*
X12341D01*
X12329Y01676*
Y017*
X12341Y01712*
X12365*
X12377Y017*
Y01688*
X12329*
X12401Y01712D02*
Y01665D01*
Y01688*
X12413Y017*
X12425Y01712*
X12437*
X12485D02*
X12509D01*
X12521Y017*
Y01665*
X12485*
X12473Y01676*
X12485Y01688*
X12521*
X12545Y01665D02*
Y01712D01*
X12581*
X12593Y017*
Y01665*
X12665Y01712D02*
X12629D01*
X12617Y017*
Y01676*
X12629Y01665*
X12665*
X12725D02*
X12701D01*
X12689Y01676*
Y017*
X12701Y01712*
X12725*
X12737Y017*
Y01688*
X12689*
X12857Y01665D02*
X12833Y01688D01*
Y01712*
X12857Y01736*
X12893Y017D02*
X12941D01*
X12917Y01724D02*
Y01676D01*
X12965Y01665D02*
X12989Y01688D01*
Y01712*
X12965Y01736*
X10924D02*
Y01665D01*
X1096*
X10972Y01676*
Y01724*
X1096Y01736*
X10924*
X11032Y01665D02*
X11008D01*
X10996Y01676*
Y017*
X11008Y01712*
X11032*
X11044Y017*
Y01688*
X10996*
X11068Y01665D02*
X11104D01*
X11116Y01676*
X11104Y01688*
X1108*
X11068Y017*
X1108Y01712*
X11116*
X11188D02*
X11152D01*
X1114Y017*
Y01676*
X11152Y01665*
X11188*
X11212Y01712D02*
Y01665D01*
Y01688*
X11224Y017*
X11236Y01712*
X11248*
X11284Y01665D02*
X11308D01*
X11296*
Y01712*
X11284*
X11344Y01641D02*
Y01712D01*
X1138*
X11392Y017*
Y01676*
X1138Y01665*
X11344*
X11428Y01724D02*
Y01712D01*
X11416*
X1144*
X11428*
Y01676*
X1144Y01665*
X11476D02*
X115D01*
X11488*
Y01712*
X11476*
X11548Y01665D02*
X11572D01*
X11584Y01676*
Y017*
X11572Y01712*
X11548*
X11536Y017*
Y01676*
X11548Y01665*
X11608D02*
Y01712D01*
X11644*
X11656Y017*
Y01665*
X10274Y01736D02*
X10322D01*
X10298*
Y01665*
X10382D02*
X10358D01*
X10346Y01676*
Y017*
X10358Y01712*
X10382*
X10394Y017*
Y01688*
X10346*
X10418Y01665D02*
Y01712D01*
X1043*
X10442Y017*
Y01665*
Y017*
X10454Y01712*
X10466Y017*
Y01665*
X1049Y01641D02*
Y01712D01*
X10526*
X10538Y017*
Y01676*
X10526Y01665*
X1049*
X10562D02*
X10586D01*
X10574*
Y01736*
X10562*
X10634Y01712D02*
X10658D01*
X1067Y017*
Y01665*
X10634*
X10622Y01676*
X10634Y01688*
X1067*
X10706Y01724D02*
Y01712D01*
X10694*
X10718*
X10706*
Y01676*
X10718Y01665*
X1079D02*
X10766D01*
X10754Y01676*
Y017*
X10766Y01712*
X1079*
X10802Y017*
Y01688*
X10754*
X09528Y01665D02*
Y01736D01*
X09564*
X09576Y01724*
Y017*
X09564Y01688*
X09528*
X09612Y01712D02*
X09636D01*
X09648Y017*
Y01665*
X09612*
X096Y01676*
X09612Y01688*
X09648*
X0972Y01736D02*
Y01665D01*
X09684*
X09672Y01676*
Y017*
X09684Y01712*
X0972*
X09864Y01724D02*
X09852Y01736D01*
X09828*
X09816Y01724*
Y01712*
X09828Y017*
X09852*
X09864Y01688*
Y01676*
X09852Y01665*
X09828*
X09816Y01676*
X09888Y01736D02*
Y01665D01*
Y017*
X099Y01712*
X09924*
X09936Y017*
Y01665*
X09972Y01712D02*
X09996D01*
X10008Y017*
Y01665*
X09972*
X0996Y01676*
X09972Y01688*
X10008*
X10032Y01641D02*
Y01712D01*
X10068*
X1008Y017*
Y01676*
X10068Y01665*
X10032*
X1014D02*
X10116D01*
X10104Y01676*
Y017*
X10116Y01712*
X1014*
X10152Y017*
Y01688*
X10104*
X08938Y01736D02*
Y01688D01*
X08962Y01665*
X08986Y01688*
Y01736*
X0901Y01665D02*
X09034D01*
X09022*
Y01712*
X0901*
X09082D02*
X09106D01*
X09118Y017*
Y01665*
X09082*
X0907Y01676*
X09082Y01688*
X09118*
X09142Y01665D02*
X0919Y01712D01*
X09214Y01665D02*
Y01736D01*
X0925*
X09262Y01724*
Y017*
X0925Y01688*
X09214*
X09298Y01712D02*
X09322D01*
X09334Y017*
Y01665*
X09298*
X09286Y01676*
X09298Y01688*
X09334*
X09406Y01736D02*
Y01665D01*
X0937*
X09358Y01676*
Y017*
X0937Y01712*
X09406*
X07439Y01736D02*
Y01665D01*
X07475*
X07487Y01676*
Y01724*
X07475Y01736*
X07439*
X07511Y01712D02*
Y01665D01*
Y01688*
X07523Y017*
X07535Y01712*
X07547*
X07583Y01665D02*
X07607D01*
X07595*
Y01712*
X07583*
X07643Y01665D02*
X07667D01*
X07655*
Y01736*
X07643*
X07703Y01665D02*
X07727D01*
X07715*
Y01736*
X07703*
X07835D02*
Y01665D01*
X07883*
X07919Y01712D02*
X07943D01*
X07955Y017*
Y01665*
X07919*
X07907Y01676*
X07919Y01688*
X07955*
X07979Y01712D02*
Y01676D01*
X07991Y01665*
X08027*
Y01653*
X08015Y01641*
X08003*
X08027Y01665D02*
Y01712D01*
X08087Y01665D02*
X08063D01*
X08051Y01676*
Y017*
X08063Y01712*
X08087*
X08099Y017*
Y01688*
X08051*
X08122Y01712D02*
Y01665D01*
Y01688*
X08134Y017*
X08146Y01712*
X08158*
X08266Y01665D02*
Y01736D01*
X08302*
X08314Y01724*
Y017*
X08302Y01688*
X08266*
X0835Y01712D02*
X08374D01*
X08386Y017*
Y01665*
X0835*
X08338Y01676*
X0835Y01688*
X08386*
X0841Y01665D02*
X08434D01*
X08422*
Y01712*
X0841*
X0847D02*
Y01665D01*
Y01688*
X08482Y017*
X08494Y01712*
X08506*
X06705Y01736D02*
Y01665D01*
Y017*
X06753*
Y01736*
Y01665*
X06789D02*
X06813D01*
X06825Y01676*
Y017*
X06813Y01712*
X06789*
X06777Y017*
Y01676*
X06789Y01665*
X06849D02*
X06873D01*
X06861*
Y01736*
X06849*
X06945Y01665D02*
X06921D01*
X06909Y01676*
Y017*
X06921Y01712*
X06945*
X06957Y017*
Y01688*
X06909*
X07053Y01736D02*
X07101D01*
X07077*
Y01665*
X07125Y01712D02*
Y01676D01*
X07137Y01665*
X07173*
Y01653*
X07161Y01641*
X07149*
X07173Y01665D02*
Y01712D01*
X07197Y01641D02*
Y01712D01*
X07233*
X07245Y017*
Y01676*
X07233Y01665*
X07197*
X07305D02*
X07281D01*
X07269Y01676*
Y017*
X07281Y01712*
X07305*
X07317Y017*
Y01688*
X07269*
X06199Y01665D02*
Y01736D01*
X06235*
X06247Y01724*
Y017*
X06235Y01688*
X06199*
X06271Y01665D02*
X06295D01*
X06283*
Y01736*
X06271*
X06343Y01712D02*
X06367D01*
X06379Y017*
Y01665*
X06343*
X06331Y01676*
X06343Y01688*
X06379*
X06415Y01724D02*
Y01712D01*
X06403*
X06427*
X06415*
Y01676*
X06427Y01665*
X06499D02*
X06475D01*
X06463Y01676*
Y017*
X06475Y01712*
X06499*
X06511Y017*
Y01688*
X06463*
X06583Y01736D02*
Y01665D01*
X06547*
X06535Y01676*
Y017*
X06547Y01712*
X06583*
X05099Y01736D02*
Y01665D01*
Y017*
X05147*
Y01736*
Y01665*
X05183D02*
X05207D01*
X05219Y01676*
Y017*
X05207Y01712*
X05183*
X05171Y017*
Y01676*
X05183Y01665*
X05243D02*
X05267D01*
X05255*
Y01736*
X05243*
X05339Y01665D02*
X05315D01*
X05303Y01676*
Y017*
X05315Y01712*
X05339*
X05351Y017*
Y01688*
X05303*
X05495Y01724D02*
X05483Y01736D01*
X05459*
X05447Y01724*
Y01712*
X05459Y017*
X05483*
X05495Y01688*
Y01676*
X05483Y01665*
X05459*
X05447Y01676*
X05519Y01665D02*
X05543D01*
X05531*
Y01712*
X05519*
X05579D02*
X05627D01*
X05579Y01665*
X05627*
X05687D02*
X05663D01*
X05651Y01676*
Y017*
X05663Y01712*
X05687*
X05699Y017*
Y01688*
X05651*
X04607Y01724D02*
X04595Y01736D01*
X04571*
X0456Y01724*
Y01676*
X04571Y01665*
X04595*
X04607Y01676*
X04643Y01665D02*
X04667D01*
X04679Y01676*
Y017*
X04667Y01712*
X04643*
X04631Y017*
Y01676*
X04643Y01665*
X04703Y01712D02*
Y01676D01*
X04715Y01665*
X04751*
Y01712*
X04775Y01665D02*
Y01712D01*
X04811*
X04823Y017*
Y01665*
X04859Y01724D02*
Y01712D01*
X04847*
X04871*
X04859*
Y01676*
X04871Y01665*
X04102Y01724D02*
X0409Y01736D01*
X04066*
X04054Y01724*
Y01712*
X04066Y017*
X0409*
X04102Y01688*
Y01676*
X0409Y01665*
X04066*
X04054Y01676*
X04126Y01712D02*
Y01676D01*
X04138Y01665*
X04174*
Y01653*
X04162Y01641*
X0415*
X04174Y01665D02*
Y01712D01*
X04198Y01665D02*
Y01712D01*
X0421*
X04222Y017*
Y01665*
Y017*
X04234Y01712*
X04246Y017*
Y01665*
X0427Y01736D02*
Y01665D01*
X04306*
X04318Y01676*
Y01688*
Y017*
X04306Y01712*
X0427*
X04354Y01665D02*
X04378D01*
X0439Y01676*
Y017*
X04378Y01712*
X04354*
X04342Y017*
Y01676*
X04354Y01665*
X04414D02*
X04438D01*
X04426*
Y01736*
X04414*
M02*