%FSTAX23Y23*%
%MOIN*%
%SFA1B1*%

%IPPOS*%
%ADD13C,0.010000*%
%ADD28C,0.006000*%
%LNpcb1_diemensions-1*%
%LPD*%
G54D13*
X03745Y0282D02*
X03765Y0276D01*
X03725D02*
X03745Y0282D01*
X03725Y0006D02*
X03745Y0D01*
X03765Y0006*
X03745Y01716D02*
Y0282D01*
Y0D02*
Y01155D01*
X02515Y0282D02*
X03755D01*
X02515Y0D02*
X03755D01*
X0Y-00905D02*
X0006Y-00885D01*
X0Y-00905D02*
X0006Y-00925D01*
X02445D02*
X02505Y-00905D01*
X02445Y-00885D02*
X02505Y-00905D01*
X0D02*
X0095D01*
X01522D02*
X02505D01*
X0Y-00915D02*
Y-0001D01*
X02505Y-00915D02*
Y-0001D01*
G54D28*
X03704Y01171D02*
Y0121D01*
X03714*
X03754Y01171*
X03764*
Y0123D02*
Y0125D01*
Y0124*
X03704*
X03714Y0123*
X03764Y0128D02*
X03754D01*
Y0129*
X03764*
Y0128*
X03704Y0137D02*
X03714Y0135D01*
X03734Y0133*
X03754*
X03764Y0134*
Y0136*
X03754Y0137*
X03744*
X03734Y0136*
Y0133*
X03714Y0139D02*
X03704Y014D01*
Y0142*
X03714Y0143*
X03724*
X03734Y0142*
Y0141*
Y0142*
X03744Y0143*
X03754*
X03764Y0142*
Y014*
X03754Y0139*
X03764Y0153D02*
X03744Y0151D01*
X03724*
X03704Y0153*
X03764Y0156D02*
X03724D01*
Y0157*
X03734Y0158*
X03764*
X03734*
X03724Y0159*
X03734Y016*
X03764*
Y0162D02*
X03724D01*
Y0163*
X03734Y0164*
X03764*
X03734*
X03724Y0165*
X03734Y0166*
X03764*
Y0168D02*
X03744Y017D01*
X03724*
X03704Y0168*
X01006Y-00881D02*
X00986Y-00891D01*
X00966Y-00911*
Y-0093*
X00976Y-0094*
X00996*
X01006Y-0093*
Y-0092*
X00996Y-00911*
X00966*
X01026Y-00891D02*
X01036Y-00881D01*
X01056*
X01066Y-00891*
Y-00901*
X01056Y-00911*
X01046*
X01056*
X01066Y-0092*
Y-0093*
X01056Y-0094*
X01036*
X01026Y-0093*
X01086Y-0094D02*
Y-0093D01*
X01096*
Y-0094*
X01086*
X01176Y-00881D02*
X01156Y-00891D01*
X01136Y-00911*
Y-0093*
X01146Y-0094*
X01166*
X01176Y-0093*
Y-0092*
X01166Y-00911*
X01136*
X01196Y-00891D02*
X01206Y-00881D01*
X01226*
X01236Y-00891*
Y-00901*
X01226Y-00911*
X01216*
X01226*
X01236Y-0092*
Y-0093*
X01226Y-0094*
X01206*
X01196Y-0093*
X01336Y-0094D02*
X01316Y-0092D01*
Y-00901*
X01336Y-00881*
X01366Y-0094D02*
Y-00901D01*
X01376*
X01386Y-00911*
Y-0094*
Y-00911*
X01396Y-00901*
X01406Y-00911*
Y-0094*
X01426D02*
Y-00901D01*
X01436*
X01446Y-00911*
Y-0094*
Y-00911*
X01456Y-00901*
X01466Y-00911*
Y-0094*
X01486D02*
X01506Y-0092D01*
Y-00901*
X01486Y-00881*
M02*