G04*
G04 #@! TF.GenerationSoftware,Altium Limited,Altium Designer,24.10.1 (45)*
G04*
G04 Layer_Color=659217*
%FSLAX44Y44*%
%MOMM*%
G71*
G04*
G04 #@! TF.SameCoordinates,E42ED8F9-0A9E-45B5-B6EF-10B4D8FD7D59*
G04*
G04*
G04 #@! TF.FilePolarity,Positive*
G04*
G01*
G75*
%ADD13C,0.2540*%
%ADD29C,0.3810*%
D13*
X1030158Y742310D02*
Y727075D01*
X1040315D01*
X1047932Y737232D02*
X1053011D01*
X1055550Y734693D01*
Y727075D01*
X1047932D01*
X1045393Y729614D01*
X1047932Y732153D01*
X1055550D01*
X1060628Y737232D02*
Y729614D01*
X1063167Y727075D01*
X1070785D01*
Y724536D01*
X1068246Y721997D01*
X1065707D01*
X1070785Y727075D02*
Y737232D01*
X1083481Y727075D02*
X1078402D01*
X1075863Y729614D01*
Y734693D01*
X1078402Y737232D01*
X1083481D01*
X1086020Y734693D01*
Y732153D01*
X1075863D01*
X1091098Y737232D02*
Y727075D01*
Y732153D01*
X1093638Y734693D01*
X1096177Y737232D01*
X1098716D01*
X1040315Y574675D02*
X1030158D01*
X1040315Y584832D01*
Y587371D01*
X1037776Y589910D01*
X1032697D01*
X1030158Y587371D01*
Y635635D02*
X1035237D01*
X1032697D01*
Y650870D01*
X1030158Y648331D01*
X1134276Y727075D02*
Y742310D01*
X1144433Y727075D01*
Y742310D01*
X1152050Y737232D02*
X1157129D01*
X1159668Y734693D01*
Y727075D01*
X1152050D01*
X1149511Y729614D01*
X1152050Y732153D01*
X1159668D01*
X1164746Y727075D02*
Y737232D01*
X1167285D01*
X1169824Y734693D01*
Y727075D01*
Y734693D01*
X1172364Y737232D01*
X1174903Y734693D01*
Y727075D01*
X1187599D02*
X1182520D01*
X1179981Y729614D01*
Y734693D01*
X1182520Y737232D01*
X1187599D01*
X1190138Y734693D01*
Y732153D01*
X1179981D01*
X1134276Y528950D02*
Y513715D01*
X1141893D01*
X1144433Y516254D01*
Y518793D01*
X1141893Y521333D01*
X1134276D01*
X1141893D01*
X1144433Y523872D01*
Y526411D01*
X1141893Y528950D01*
X1134276D01*
X1152050Y513715D02*
X1157129D01*
X1159668Y516254D01*
Y521333D01*
X1157129Y523872D01*
X1152050D01*
X1149511Y521333D01*
Y516254D01*
X1152050Y513715D01*
X1167285Y526411D02*
Y523872D01*
X1164746D01*
X1169824D01*
X1167285D01*
Y516254D01*
X1169824Y513715D01*
X1179981Y526411D02*
Y523872D01*
X1177442D01*
X1182520D01*
X1179981D01*
Y516254D01*
X1182520Y513715D01*
X1192677D02*
X1197755D01*
X1200295Y516254D01*
Y521333D01*
X1197755Y523872D01*
X1192677D01*
X1190138Y521333D01*
Y516254D01*
X1192677Y513715D01*
X1205373D02*
Y523872D01*
X1207912D01*
X1210451Y521333D01*
Y513715D01*
Y521333D01*
X1212990Y523872D01*
X1215530Y521333D01*
Y513715D01*
X1243461Y528950D02*
X1238382D01*
X1235843Y526411D01*
Y516254D01*
X1238382Y513715D01*
X1243461D01*
X1246000Y516254D01*
Y526411D01*
X1243461Y528950D01*
X1251078Y523872D02*
X1256156Y513715D01*
X1261235Y523872D01*
X1273931Y513715D02*
X1268852D01*
X1266313Y516254D01*
Y521333D01*
X1268852Y523872D01*
X1273931D01*
X1276470Y521333D01*
Y518793D01*
X1266313D01*
X1281548Y523872D02*
Y513715D01*
Y518793D01*
X1284088Y521333D01*
X1286627Y523872D01*
X1289166D01*
X1296783Y513715D02*
X1301862D01*
X1299323D01*
Y528950D01*
X1296783D01*
X1312018Y523872D02*
X1317097D01*
X1319636Y521333D01*
Y513715D01*
X1312018D01*
X1309479Y516254D01*
X1312018Y518793D01*
X1319636D01*
X1324714Y523872D02*
Y516254D01*
X1327254Y513715D01*
X1334871D01*
Y511176D01*
X1332332Y508637D01*
X1329793D01*
X1334871Y513715D02*
Y523872D01*
X1134276Y559430D02*
Y544195D01*
X1141893D01*
X1144433Y546734D01*
Y549273D01*
X1141893Y551813D01*
X1134276D01*
X1141893D01*
X1144433Y554352D01*
Y556891D01*
X1141893Y559430D01*
X1134276D01*
X1152050Y544195D02*
X1157129D01*
X1159668Y546734D01*
Y551813D01*
X1157129Y554352D01*
X1152050D01*
X1149511Y551813D01*
Y546734D01*
X1152050Y544195D01*
X1167285Y556891D02*
Y554352D01*
X1164746D01*
X1169824D01*
X1167285D01*
Y546734D01*
X1169824Y544195D01*
X1179981Y556891D02*
Y554352D01*
X1177442D01*
X1182520D01*
X1179981D01*
Y546734D01*
X1182520Y544195D01*
X1192677D02*
X1197755D01*
X1200295Y546734D01*
Y551813D01*
X1197755Y554352D01*
X1192677D01*
X1190138Y551813D01*
Y546734D01*
X1192677Y544195D01*
X1205373D02*
Y554352D01*
X1207912D01*
X1210451Y551813D01*
Y544195D01*
Y551813D01*
X1212990Y554352D01*
X1215530Y551813D01*
Y544195D01*
X1246000Y556891D02*
X1243461Y559430D01*
X1238382D01*
X1235843Y556891D01*
Y554352D01*
X1238382Y551813D01*
X1243461D01*
X1246000Y549273D01*
Y546734D01*
X1243461Y544195D01*
X1238382D01*
X1235843Y546734D01*
X1253617Y544195D02*
X1258696D01*
X1261235Y546734D01*
Y551813D01*
X1258696Y554352D01*
X1253617D01*
X1251078Y551813D01*
Y546734D01*
X1253617Y544195D01*
X1266313D02*
X1271392D01*
X1268852D01*
Y559430D01*
X1266313D01*
X1289166D02*
Y544195D01*
X1281548D01*
X1279009Y546734D01*
Y551813D01*
X1281548Y554352D01*
X1289166D01*
X1301862Y544195D02*
X1296783D01*
X1294244Y546734D01*
Y551813D01*
X1296783Y554352D01*
X1301862D01*
X1304401Y551813D01*
Y549273D01*
X1294244D01*
X1309479Y554352D02*
Y544195D01*
Y549273D01*
X1312018Y551813D01*
X1314558Y554352D01*
X1317097D01*
X1134276Y589910D02*
Y574675D01*
X1141893D01*
X1144433Y577214D01*
Y579753D01*
X1141893Y582293D01*
X1134276D01*
X1141893D01*
X1144433Y584832D01*
Y587371D01*
X1141893Y589910D01*
X1134276D01*
X1152050Y574675D02*
X1157129D01*
X1159668Y577214D01*
Y582293D01*
X1157129Y584832D01*
X1152050D01*
X1149511Y582293D01*
Y577214D01*
X1152050Y574675D01*
X1167285Y587371D02*
Y584832D01*
X1164746D01*
X1169824D01*
X1167285D01*
Y577214D01*
X1169824Y574675D01*
X1179981Y587371D02*
Y584832D01*
X1177442D01*
X1182520D01*
X1179981D01*
Y577214D01*
X1182520Y574675D01*
X1192677D02*
X1197755D01*
X1200295Y577214D01*
Y582293D01*
X1197755Y584832D01*
X1192677D01*
X1190138Y582293D01*
Y577214D01*
X1192677Y574675D01*
X1205373D02*
Y584832D01*
X1207912D01*
X1210451Y582293D01*
Y574675D01*
Y582293D01*
X1212990Y584832D01*
X1215530Y582293D01*
Y574675D01*
X1235843Y589910D02*
Y574675D01*
X1246000D01*
X1253617Y584832D02*
X1258696D01*
X1261235Y582293D01*
Y574675D01*
X1253617D01*
X1251078Y577214D01*
X1253617Y579753D01*
X1261235D01*
X1266313Y584832D02*
Y577214D01*
X1268852Y574675D01*
X1276470D01*
Y572136D01*
X1273931Y569597D01*
X1271392D01*
X1276470Y574675D02*
Y584832D01*
X1289166Y574675D02*
X1284088D01*
X1281548Y577214D01*
Y582293D01*
X1284088Y584832D01*
X1289166D01*
X1291705Y582293D01*
Y579753D01*
X1281548D01*
X1296783Y584832D02*
Y574675D01*
Y579753D01*
X1299323Y582293D01*
X1301862Y584832D01*
X1304401D01*
X1134276Y620390D02*
Y605155D01*
X1141893D01*
X1144433Y607694D01*
Y617851D01*
X1141893Y620390D01*
X1134276D01*
X1149511Y605155D02*
X1154589D01*
X1152050D01*
Y615312D01*
X1149511D01*
X1169824Y605155D02*
X1164746D01*
X1162207Y607694D01*
Y612772D01*
X1164746Y615312D01*
X1169824D01*
X1172364Y612772D01*
Y610233D01*
X1162207D01*
X1177442Y605155D02*
X1182520D01*
X1179981D01*
Y620390D01*
X1177442D01*
X1197755Y605155D02*
X1192677D01*
X1190138Y607694D01*
Y612772D01*
X1192677Y615312D01*
X1197755D01*
X1200295Y612772D01*
Y610233D01*
X1190138D01*
X1215530Y615312D02*
X1207912D01*
X1205373Y612772D01*
Y607694D01*
X1207912Y605155D01*
X1215530D01*
X1223147Y617851D02*
Y615312D01*
X1220608D01*
X1225686D01*
X1223147D01*
Y607694D01*
X1225686Y605155D01*
X1233304Y615312D02*
Y605155D01*
Y610233D01*
X1235843Y612772D01*
X1238382Y615312D01*
X1240921D01*
X1248539Y605155D02*
X1253617D01*
X1251078D01*
Y615312D01*
X1248539D01*
X1271392D02*
X1263774D01*
X1261235Y612772D01*
Y607694D01*
X1263774Y605155D01*
X1271392D01*
X1291705D02*
X1296783D01*
X1294244D01*
Y620390D01*
X1291705Y617851D01*
X1134276Y650870D02*
X1144433D01*
X1139354D01*
Y635635D01*
X1152050D02*
X1157129D01*
X1159668Y638174D01*
Y643252D01*
X1157129Y645792D01*
X1152050D01*
X1149511Y643252D01*
Y638174D01*
X1152050Y635635D01*
X1164746Y630557D02*
Y645792D01*
X1172364D01*
X1174903Y643252D01*
Y638174D01*
X1172364Y635635D01*
X1164746D01*
X1195216Y650870D02*
Y635635D01*
X1205373D01*
X1212990Y645792D02*
X1218069D01*
X1220608Y643252D01*
Y635635D01*
X1212990D01*
X1210451Y638174D01*
X1212990Y640713D01*
X1220608D01*
X1225686Y645792D02*
Y638174D01*
X1228226Y635635D01*
X1235843D01*
Y633096D01*
X1233304Y630557D01*
X1230765D01*
X1235843Y635635D02*
Y645792D01*
X1248539Y635635D02*
X1243461D01*
X1240921Y638174D01*
Y643252D01*
X1243461Y645792D01*
X1248539D01*
X1251078Y643252D01*
Y640713D01*
X1240921D01*
X1256156Y645792D02*
Y635635D01*
Y640713D01*
X1258696Y643252D01*
X1261235Y645792D01*
X1263774D01*
X1134276Y681350D02*
X1144433D01*
X1139354D01*
Y666115D01*
X1152050D02*
X1157129D01*
X1159668Y668654D01*
Y673733D01*
X1157129Y676272D01*
X1152050D01*
X1149511Y673733D01*
Y668654D01*
X1152050Y666115D01*
X1164746Y661037D02*
Y676272D01*
X1172364D01*
X1174903Y673733D01*
Y668654D01*
X1172364Y666115D01*
X1164746D01*
X1205373Y678811D02*
X1202834Y681350D01*
X1197755D01*
X1195216Y678811D01*
Y676272D01*
X1197755Y673733D01*
X1202834D01*
X1205373Y671193D01*
Y668654D01*
X1202834Y666115D01*
X1197755D01*
X1195216Y668654D01*
X1212990Y666115D02*
X1218069D01*
X1220608Y668654D01*
Y673733D01*
X1218069Y676272D01*
X1212990D01*
X1210451Y673733D01*
Y668654D01*
X1212990Y666115D01*
X1225686D02*
X1230765D01*
X1228226D01*
Y681350D01*
X1225686D01*
X1248539D02*
Y666115D01*
X1240921D01*
X1238382Y668654D01*
Y673733D01*
X1240921Y676272D01*
X1248539D01*
X1261235Y666115D02*
X1256156D01*
X1253617Y668654D01*
Y673733D01*
X1256156Y676272D01*
X1261235D01*
X1263774Y673733D01*
Y671193D01*
X1253617D01*
X1268852Y676272D02*
Y666115D01*
Y671193D01*
X1271392Y673733D01*
X1273931Y676272D01*
X1276470D01*
X1134276Y711830D02*
X1144433D01*
X1139354D01*
Y696595D01*
X1152050D02*
X1157129D01*
X1159668Y699134D01*
Y704212D01*
X1157129Y706752D01*
X1152050D01*
X1149511Y704212D01*
Y699134D01*
X1152050Y696595D01*
X1164746Y691517D02*
Y706752D01*
X1172364D01*
X1174903Y704212D01*
Y699134D01*
X1172364Y696595D01*
X1164746D01*
X1202834Y711830D02*
X1197755D01*
X1195216Y709291D01*
Y699134D01*
X1197755Y696595D01*
X1202834D01*
X1205373Y699134D01*
Y709291D01*
X1202834Y711830D01*
X1210451Y706752D02*
X1215530Y696595D01*
X1220608Y706752D01*
X1233304Y696595D02*
X1228226D01*
X1225686Y699134D01*
Y704212D01*
X1228226Y706752D01*
X1233304D01*
X1235843Y704212D01*
Y701673D01*
X1225686D01*
X1240921Y706752D02*
Y696595D01*
Y701673D01*
X1243461Y704212D01*
X1246000Y706752D01*
X1248539D01*
X1256156Y696595D02*
X1261235D01*
X1258696D01*
Y711830D01*
X1256156D01*
X1271392Y706752D02*
X1276470D01*
X1279009Y704212D01*
Y696595D01*
X1271392D01*
X1268852Y699134D01*
X1271392Y701673D01*
X1279009D01*
X1284088Y706752D02*
Y699134D01*
X1286627Y696595D01*
X1294244D01*
Y694056D01*
X1291705Y691517D01*
X1289166D01*
X1294244Y696595D02*
Y706752D01*
X1370431Y727075D02*
Y742310D01*
X1375509Y737232D01*
X1380588Y742310D01*
Y727075D01*
X1388205Y737232D02*
X1393284D01*
X1395823Y734693D01*
Y727075D01*
X1388205D01*
X1385666Y729614D01*
X1388205Y732153D01*
X1395823D01*
X1403440Y739771D02*
Y737232D01*
X1400901D01*
X1405979D01*
X1403440D01*
Y729614D01*
X1405979Y727075D01*
X1421215D02*
X1416136D01*
X1413597Y729614D01*
Y734693D01*
X1416136Y737232D01*
X1421215D01*
X1423754Y734693D01*
Y732153D01*
X1413597D01*
X1428832Y737232D02*
Y727075D01*
Y732153D01*
X1431371Y734693D01*
X1433911Y737232D01*
X1436450D01*
X1444067Y727075D02*
X1449146D01*
X1446606D01*
Y737232D01*
X1444067D01*
X1459302D02*
X1464381D01*
X1466920Y734693D01*
Y727075D01*
X1459302D01*
X1456763Y729614D01*
X1459302Y732153D01*
X1466920D01*
X1471998Y727075D02*
X1477077D01*
X1474537D01*
Y742310D01*
X1471998D01*
X1380588Y556891D02*
X1378049Y559430D01*
X1372970D01*
X1370431Y556891D01*
Y554352D01*
X1372970Y551813D01*
X1378049D01*
X1380588Y549273D01*
Y546734D01*
X1378049Y544195D01*
X1372970D01*
X1370431Y546734D01*
X1388205Y544195D02*
X1393284D01*
X1395823Y546734D01*
Y551813D01*
X1393284Y554352D01*
X1388205D01*
X1385666Y551813D01*
Y546734D01*
X1388205Y544195D01*
X1400901D02*
X1405979D01*
X1403440D01*
Y559430D01*
X1400901D01*
X1423754D02*
Y544195D01*
X1416136D01*
X1413597Y546734D01*
Y551813D01*
X1416136Y554352D01*
X1423754D01*
X1436450Y544195D02*
X1431371D01*
X1428832Y546734D01*
Y551813D01*
X1431371Y554352D01*
X1436450D01*
X1438989Y551813D01*
Y549273D01*
X1428832D01*
X1444067Y554352D02*
Y544195D01*
Y549273D01*
X1446606Y551813D01*
X1449146Y554352D01*
X1451685D01*
X1474537Y544195D02*
Y559430D01*
X1482155D01*
X1484694Y556891D01*
Y551813D01*
X1482155Y549273D01*
X1474537D01*
X1479616D02*
X1484694Y544195D01*
X1497390D02*
X1492312D01*
X1489772Y546734D01*
Y551813D01*
X1492312Y554352D01*
X1497390D01*
X1499929Y551813D01*
Y549273D01*
X1489772D01*
X1505007Y544195D02*
X1512625D01*
X1515164Y546734D01*
X1512625Y549273D01*
X1507547D01*
X1505007Y551813D01*
X1507547Y554352D01*
X1515164D01*
X1520243Y544195D02*
X1525321D01*
X1522782D01*
Y554352D01*
X1520243D01*
X1532939Y544195D02*
X1540556D01*
X1543095Y546734D01*
X1540556Y549273D01*
X1535478D01*
X1532939Y551813D01*
X1535478Y554352D01*
X1543095D01*
X1550713Y556891D02*
Y554352D01*
X1548174D01*
X1553252D01*
X1550713D01*
Y546734D01*
X1553252Y544195D01*
X1380588Y620390D02*
X1370431D01*
Y612772D01*
X1375509D01*
X1370431D01*
Y605155D01*
X1385666D02*
Y620390D01*
X1393284D01*
X1395823Y617851D01*
Y612772D01*
X1393284Y610233D01*
X1385666D01*
X1390744D02*
X1395823Y605155D01*
X1400901Y612772D02*
X1411058D01*
X1423754Y605155D02*
Y620390D01*
X1416136Y612772D01*
X1426293D01*
X1380588Y678811D02*
X1378049Y681350D01*
X1372970D01*
X1370431Y678811D01*
Y676272D01*
X1372970Y673733D01*
X1378049D01*
X1380588Y671193D01*
Y668654D01*
X1378049Y666115D01*
X1372970D01*
X1370431Y668654D01*
X1388205Y666115D02*
X1393284D01*
X1395823Y668654D01*
Y673733D01*
X1393284Y676272D01*
X1388205D01*
X1385666Y673733D01*
Y668654D01*
X1388205Y666115D01*
X1400901D02*
X1405979D01*
X1403440D01*
Y681350D01*
X1400901D01*
X1423754D02*
Y666115D01*
X1416136D01*
X1413597Y668654D01*
Y673733D01*
X1416136Y676272D01*
X1423754D01*
X1436450Y666115D02*
X1431371D01*
X1428832Y668654D01*
Y673733D01*
X1431371Y676272D01*
X1436450D01*
X1438989Y673733D01*
Y671193D01*
X1428832D01*
X1444067Y676272D02*
Y666115D01*
Y671193D01*
X1446606Y673733D01*
X1449146Y676272D01*
X1451685D01*
X1474537Y666115D02*
Y681350D01*
X1482155D01*
X1484694Y678811D01*
Y673733D01*
X1482155Y671193D01*
X1474537D01*
X1479616D02*
X1484694Y666115D01*
X1497390D02*
X1492312D01*
X1489772Y668654D01*
Y673733D01*
X1492312Y676272D01*
X1497390D01*
X1499929Y673733D01*
Y671193D01*
X1489772D01*
X1505007Y666115D02*
X1512625D01*
X1515164Y668654D01*
X1512625Y671193D01*
X1507547D01*
X1505007Y673733D01*
X1507547Y676272D01*
X1515164D01*
X1520243Y666115D02*
X1525321D01*
X1522782D01*
Y676272D01*
X1520243D01*
X1532939Y666115D02*
X1540556D01*
X1543095Y668654D01*
X1540556Y671193D01*
X1535478D01*
X1532939Y673733D01*
X1535478Y676272D01*
X1543095D01*
X1550713Y678811D02*
Y676272D01*
X1548174D01*
X1553252D01*
X1550713D01*
Y668654D01*
X1553252Y666115D01*
X1588812Y742310D02*
X1598969D01*
X1593890D01*
Y727075D01*
X1604047Y742310D02*
Y727075D01*
Y734693D01*
X1606586Y737232D01*
X1611664D01*
X1614204Y734693D01*
Y727075D01*
X1619282D02*
X1624360D01*
X1621821D01*
Y737232D01*
X1619282D01*
X1642135D02*
X1634517D01*
X1631978Y734693D01*
Y729614D01*
X1634517Y727075D01*
X1642135D01*
X1647213D02*
Y742310D01*
Y732153D02*
X1654830Y737232D01*
X1647213Y732153D02*
X1654830Y727075D01*
X1662448D02*
Y737232D01*
X1670066D01*
X1672605Y734693D01*
Y727075D01*
X1685301D02*
X1680222D01*
X1677683Y729614D01*
Y734693D01*
X1680222Y737232D01*
X1685301D01*
X1687840Y734693D01*
Y732153D01*
X1677683D01*
X1692918Y727075D02*
X1700536D01*
X1703075Y729614D01*
X1700536Y732153D01*
X1695457D01*
X1692918Y734693D01*
X1695457Y737232D01*
X1703075D01*
X1708153Y727075D02*
X1715771D01*
X1718310Y729614D01*
X1715771Y732153D01*
X1710692D01*
X1708153Y734693D01*
X1710692Y737232D01*
X1718310D01*
X1588812Y556891D02*
X1591351Y559430D01*
X1596429D01*
X1598969Y556891D01*
Y546734D01*
X1596429Y544195D01*
X1591351D01*
X1588812Y546734D01*
Y556891D01*
X1604047Y544195D02*
Y546734D01*
X1606586D01*
Y544195D01*
X1604047D01*
X1616743Y556891D02*
X1619282Y559430D01*
X1624360D01*
X1626900Y556891D01*
Y546734D01*
X1624360Y544195D01*
X1619282D01*
X1616743Y546734D01*
Y556891D01*
X1631978Y544195D02*
X1637056D01*
X1634517D01*
Y559430D01*
X1631978Y556891D01*
X1644674D02*
X1647213Y559430D01*
X1652291D01*
X1654830Y556891D01*
Y546734D01*
X1652291Y544195D01*
X1647213D01*
X1644674Y546734D01*
Y556891D01*
X1659909Y544195D02*
Y554352D01*
X1662448D01*
X1664987Y551813D01*
Y544195D01*
Y551813D01*
X1667526Y554352D01*
X1670066Y551813D01*
Y544195D01*
X1675144D02*
Y554352D01*
X1677683D01*
X1680222Y551813D01*
Y544195D01*
Y551813D01*
X1682762Y554352D01*
X1685301Y551813D01*
Y544195D01*
X1588812Y587371D02*
X1591351Y589910D01*
X1596429D01*
X1598969Y587371D01*
Y577214D01*
X1596429Y574675D01*
X1591351D01*
X1588812Y577214D01*
Y587371D01*
X1604047Y574675D02*
Y577214D01*
X1606586D01*
Y574675D01*
X1604047D01*
X1616743Y587371D02*
X1619282Y589910D01*
X1624360D01*
X1626900Y587371D01*
Y577214D01*
X1624360Y574675D01*
X1619282D01*
X1616743Y577214D01*
Y587371D01*
X1631978D02*
X1634517Y589910D01*
X1639595D01*
X1642135Y587371D01*
Y584832D01*
X1639595Y582293D01*
X1637056D01*
X1639595D01*
X1642135Y579753D01*
Y577214D01*
X1639595Y574675D01*
X1634517D01*
X1631978Y577214D01*
X1657370Y589910D02*
X1647213D01*
Y582293D01*
X1652291Y584832D01*
X1654830D01*
X1657370Y582293D01*
Y577214D01*
X1654830Y574675D01*
X1649752D01*
X1647213Y577214D01*
X1662448Y574675D02*
Y584832D01*
X1664987D01*
X1667526Y582293D01*
Y574675D01*
Y582293D01*
X1670066Y584832D01*
X1672605Y582293D01*
Y574675D01*
X1677683D02*
Y584832D01*
X1680222D01*
X1682762Y582293D01*
Y574675D01*
Y582293D01*
X1685301Y584832D01*
X1687840Y582293D01*
Y574675D01*
X1588812Y605155D02*
X1593890D01*
X1591351D01*
Y620390D01*
X1588812Y617851D01*
X1601508Y605155D02*
Y607694D01*
X1604047D01*
Y605155D01*
X1601508D01*
X1624360Y620390D02*
X1614204D01*
Y612772D01*
X1619282Y615312D01*
X1621821D01*
X1624360Y612772D01*
Y607694D01*
X1621821Y605155D01*
X1616743D01*
X1614204Y607694D01*
X1629439Y617851D02*
X1631978Y620390D01*
X1637056D01*
X1639595Y617851D01*
Y607694D01*
X1637056Y605155D01*
X1631978D01*
X1629439Y607694D01*
Y617851D01*
X1644674D02*
X1647213Y620390D01*
X1652291D01*
X1654830Y617851D01*
Y607694D01*
X1652291Y605155D01*
X1647213D01*
X1644674Y607694D01*
Y617851D01*
X1659909Y605155D02*
Y615312D01*
X1662448D01*
X1664987Y612772D01*
Y605155D01*
Y612772D01*
X1667526Y615312D01*
X1670066Y612772D01*
Y605155D01*
X1675144D02*
Y615312D01*
X1677683D01*
X1680222Y612772D01*
Y605155D01*
Y612772D01*
X1682762Y615312D01*
X1685301Y612772D01*
Y605155D01*
X1588812Y648331D02*
X1591351Y650870D01*
X1596429D01*
X1598969Y648331D01*
Y638174D01*
X1596429Y635635D01*
X1591351D01*
X1588812Y638174D01*
Y648331D01*
X1604047Y635635D02*
Y638174D01*
X1606586D01*
Y635635D01*
X1604047D01*
X1616743Y648331D02*
X1619282Y650870D01*
X1624360D01*
X1626900Y648331D01*
Y638174D01*
X1624360Y635635D01*
X1619282D01*
X1616743Y638174D01*
Y648331D01*
X1631978D02*
X1634517Y650870D01*
X1639595D01*
X1642135Y648331D01*
Y645792D01*
X1639595Y643252D01*
X1637056D01*
X1639595D01*
X1642135Y640713D01*
Y638174D01*
X1639595Y635635D01*
X1634517D01*
X1631978Y638174D01*
X1657370Y650870D02*
X1647213D01*
Y643252D01*
X1652291Y645792D01*
X1654830D01*
X1657370Y643252D01*
Y638174D01*
X1654830Y635635D01*
X1649752D01*
X1647213Y638174D01*
X1662448Y635635D02*
Y645792D01*
X1664987D01*
X1667526Y643252D01*
Y635635D01*
Y643252D01*
X1670066Y645792D01*
X1672605Y643252D01*
Y635635D01*
X1677683D02*
Y645792D01*
X1680222D01*
X1682762Y643252D01*
Y635635D01*
Y643252D01*
X1685301Y645792D01*
X1687840Y643252D01*
Y635635D01*
X1588812Y678811D02*
X1591351Y681350D01*
X1596429D01*
X1598969Y678811D01*
Y668654D01*
X1596429Y666115D01*
X1591351D01*
X1588812Y668654D01*
Y678811D01*
X1604047Y666115D02*
Y668654D01*
X1606586D01*
Y666115D01*
X1604047D01*
X1616743Y678811D02*
X1619282Y681350D01*
X1624360D01*
X1626900Y678811D01*
Y668654D01*
X1624360Y666115D01*
X1619282D01*
X1616743Y668654D01*
Y678811D01*
X1631978Y666115D02*
X1637056D01*
X1634517D01*
Y681350D01*
X1631978Y678811D01*
X1644674D02*
X1647213Y681350D01*
X1652291D01*
X1654830Y678811D01*
Y668654D01*
X1652291Y666115D01*
X1647213D01*
X1644674Y668654D01*
Y678811D01*
X1659909Y666115D02*
Y676272D01*
X1662448D01*
X1664987Y673733D01*
Y666115D01*
Y673733D01*
X1667526Y676272D01*
X1670066Y673733D01*
Y666115D01*
X1675144D02*
Y676272D01*
X1677683D01*
X1680222Y673733D01*
Y666115D01*
Y673733D01*
X1682762Y676272D01*
X1685301Y673733D01*
Y666115D01*
X1764027Y739771D02*
X1761487Y742310D01*
X1756409D01*
X1753870Y739771D01*
Y729614D01*
X1756409Y727075D01*
X1761487D01*
X1764027Y729614D01*
X1771644Y727075D02*
X1776723D01*
X1779262Y729614D01*
Y734693D01*
X1776723Y737232D01*
X1771644D01*
X1769105Y734693D01*
Y729614D01*
X1771644Y727075D01*
X1784340D02*
Y737232D01*
X1791958D01*
X1794497Y734693D01*
Y727075D01*
X1799575D02*
X1807193D01*
X1809732Y729614D01*
X1807193Y732153D01*
X1802114D01*
X1799575Y734693D01*
X1802114Y737232D01*
X1809732D01*
X1817350Y739771D02*
Y737232D01*
X1814810D01*
X1819889D01*
X1817350D01*
Y729614D01*
X1819889Y727075D01*
X1830045Y737232D02*
X1835124D01*
X1837663Y734693D01*
Y727075D01*
X1830045D01*
X1827506Y729614D01*
X1830045Y732153D01*
X1837663D01*
X1842741Y727075D02*
Y737232D01*
X1850359D01*
X1852898Y734693D01*
Y727075D01*
X1860515Y739771D02*
Y737232D01*
X1857976D01*
X1863055D01*
X1860515D01*
Y729614D01*
X1863055Y727075D01*
X1753870Y556891D02*
X1756409Y559430D01*
X1761487D01*
X1764027Y556891D01*
Y554352D01*
X1761487Y551813D01*
X1758948D01*
X1761487D01*
X1764027Y549273D01*
Y546734D01*
X1761487Y544195D01*
X1756409D01*
X1753870Y546734D01*
X1769105Y544195D02*
Y546734D01*
X1771644D01*
Y544195D01*
X1769105D01*
X1791958Y559430D02*
X1781801D01*
Y551813D01*
X1786879Y554352D01*
X1789418D01*
X1791958Y551813D01*
Y546734D01*
X1789418Y544195D01*
X1784340D01*
X1781801Y546734D01*
X1761487Y605155D02*
Y620390D01*
X1753870Y612772D01*
X1764027D01*
X1769105Y605155D02*
Y607694D01*
X1771644D01*
Y605155D01*
X1769105D01*
X1781801Y617851D02*
X1784340Y620390D01*
X1789418D01*
X1791958Y617851D01*
Y615312D01*
X1789418Y612772D01*
X1791958Y610233D01*
Y607694D01*
X1789418Y605155D01*
X1784340D01*
X1781801Y607694D01*
Y610233D01*
X1784340Y612772D01*
X1781801Y615312D01*
Y617851D01*
X1784340Y612772D02*
X1789418D01*
X1753870Y678811D02*
X1756409Y681350D01*
X1761487D01*
X1764027Y678811D01*
Y676272D01*
X1761487Y673733D01*
X1758948D01*
X1761487D01*
X1764027Y671193D01*
Y668654D01*
X1761487Y666115D01*
X1756409D01*
X1753870Y668654D01*
X1769105Y666115D02*
Y668654D01*
X1771644D01*
Y666115D01*
X1769105D01*
X1791958Y681350D02*
X1781801D01*
Y673733D01*
X1786879Y676272D01*
X1789418D01*
X1791958Y673733D01*
Y668654D01*
X1789418Y666115D01*
X1784340D01*
X1781801Y668654D01*
X1908771Y739771D02*
X1906232Y742310D01*
X1901154D01*
X1898615Y739771D01*
Y729614D01*
X1901154Y727075D01*
X1906232D01*
X1908771Y729614D01*
Y734693D01*
X1903693D01*
X1921467Y727075D02*
X1916389D01*
X1913850Y729614D01*
Y734693D01*
X1916389Y737232D01*
X1921467D01*
X1924007Y734693D01*
Y732153D01*
X1913850D01*
X1929085Y737232D02*
Y727075D01*
Y732153D01*
X1931624Y734693D01*
X1934163Y737232D01*
X1936702D01*
X1944320Y742310D02*
Y727075D01*
X1951937D01*
X1954477Y729614D01*
Y732153D01*
Y734693D01*
X1951937Y737232D01*
X1944320D01*
X1967173Y727075D02*
X1962094D01*
X1959555Y729614D01*
Y734693D01*
X1962094Y737232D01*
X1967173D01*
X1969712Y734693D01*
Y732153D01*
X1959555D01*
X1974790Y737232D02*
Y727075D01*
Y732153D01*
X1977329Y734693D01*
X1979868Y737232D01*
X1982408D01*
X1908771Y526411D02*
X1906232Y528950D01*
X1901154D01*
X1898615Y526411D01*
Y516254D01*
X1901154Y513715D01*
X1906232D01*
X1908771Y516254D01*
Y521333D01*
X1903693D01*
X1913850Y528950D02*
Y513715D01*
X1921467D01*
X1924007Y516254D01*
Y518793D01*
X1921467Y521333D01*
X1913850D01*
X1921467D01*
X1924007Y523872D01*
Y526411D01*
X1921467Y528950D01*
X1913850D01*
X1936702D02*
X1931624D01*
X1929085Y526411D01*
Y516254D01*
X1931624Y513715D01*
X1936702D01*
X1939241Y516254D01*
Y526411D01*
X1936702Y528950D01*
X1908771Y556891D02*
X1906232Y559430D01*
X1901154D01*
X1898615Y556891D01*
Y546734D01*
X1901154Y544195D01*
X1906232D01*
X1908771Y546734D01*
Y551813D01*
X1903693D01*
X1913850Y559430D02*
Y544195D01*
X1921467D01*
X1924007Y546734D01*
Y549273D01*
X1921467Y551813D01*
X1913850D01*
X1921467D01*
X1924007Y554352D01*
Y556891D01*
X1921467Y559430D01*
X1913850D01*
X1939241Y556891D02*
X1936702Y559430D01*
X1931624D01*
X1929085Y556891D01*
Y554352D01*
X1931624Y551813D01*
X1936702D01*
X1939241Y549273D01*
Y546734D01*
X1936702Y544195D01*
X1931624D01*
X1929085Y546734D01*
X1908771Y587371D02*
X1906232Y589910D01*
X1901154D01*
X1898615Y587371D01*
Y577214D01*
X1901154Y574675D01*
X1906232D01*
X1908771Y577214D01*
Y582293D01*
X1903693D01*
X1913850Y589910D02*
Y574675D01*
X1921467D01*
X1924007Y577214D01*
Y579753D01*
X1921467Y582293D01*
X1913850D01*
X1921467D01*
X1924007Y584832D01*
Y587371D01*
X1921467Y589910D01*
X1913850D01*
X1929085D02*
Y574675D01*
X1939241D01*
X1908771Y648331D02*
X1906232Y650870D01*
X1901154D01*
X1898615Y648331D01*
Y638174D01*
X1901154Y635635D01*
X1906232D01*
X1908771Y638174D01*
Y643252D01*
X1903693D01*
X1913850Y650870D02*
X1924007D01*
X1918928D01*
Y635635D01*
X1929085Y650870D02*
Y635635D01*
X1939241D01*
X1908771Y678811D02*
X1906232Y681350D01*
X1901154D01*
X1898615Y678811D01*
Y668654D01*
X1901154Y666115D01*
X1906232D01*
X1908771Y668654D01*
Y673733D01*
X1903693D01*
X1913850Y681350D02*
X1924007D01*
X1918928D01*
Y666115D01*
X1939241Y678811D02*
X1936702Y681350D01*
X1931624D01*
X1929085Y678811D01*
Y676272D01*
X1931624Y673733D01*
X1936702D01*
X1939241Y671193D01*
Y668654D01*
X1936702Y666115D01*
X1931624D01*
X1929085Y668654D01*
X1908771Y709291D02*
X1906232Y711830D01*
X1901154D01*
X1898615Y709291D01*
Y699134D01*
X1901154Y696595D01*
X1906232D01*
X1908771Y699134D01*
Y704212D01*
X1903693D01*
X1913850Y711830D02*
X1924007D01*
X1918928D01*
Y696595D01*
X1936702Y711830D02*
X1931624D01*
X1929085Y709291D01*
Y699134D01*
X1931624Y696595D01*
X1936702D01*
X1939241Y699134D01*
Y709291D01*
X1936702Y711830D01*
X1030158Y498470D02*
X1040315D01*
X1035237D01*
Y483235D01*
X1047932D02*
X1053011D01*
X1055550Y485774D01*
Y490853D01*
X1053011Y493392D01*
X1047932D01*
X1045393Y490853D01*
Y485774D01*
X1047932Y483235D01*
X1063167Y495931D02*
Y493392D01*
X1060628D01*
X1065707D01*
X1063167D01*
Y485774D01*
X1065707Y483235D01*
X1075863Y493392D02*
X1080942D01*
X1083481Y490853D01*
Y483235D01*
X1075863D01*
X1073324Y485774D01*
X1075863Y488313D01*
X1083481D01*
X1088559Y483235D02*
X1093638D01*
X1091098D01*
Y498470D01*
X1088559D01*
X1116490D02*
Y483235D01*
X1124108D01*
X1126647Y485774D01*
Y488313D01*
Y490853D01*
X1124108Y493392D01*
X1116490D01*
X1134264Y483235D02*
X1139343D01*
X1141882Y485774D01*
Y490853D01*
X1139343Y493392D01*
X1134264D01*
X1131725Y490853D01*
Y485774D01*
X1134264Y483235D01*
X1149500Y493392D02*
X1154578D01*
X1157117Y490853D01*
Y483235D01*
X1149500D01*
X1146960Y485774D01*
X1149500Y488313D01*
X1157117D01*
X1162195Y493392D02*
Y483235D01*
Y488313D01*
X1164735Y490853D01*
X1167274Y493392D01*
X1169813D01*
X1187587Y498470D02*
Y483235D01*
X1179970D01*
X1177430Y485774D01*
Y490853D01*
X1179970Y493392D01*
X1187587D01*
X1210440Y495931D02*
Y493392D01*
X1207901D01*
X1212979D01*
X1210440D01*
Y485774D01*
X1212979Y483235D01*
X1220596Y498470D02*
Y483235D01*
Y490853D01*
X1223136Y493392D01*
X1228214D01*
X1230753Y490853D01*
Y483235D01*
X1235832D02*
X1240910D01*
X1238371D01*
Y493392D01*
X1235832D01*
X1258684D02*
X1251067D01*
X1248527Y490853D01*
Y485774D01*
X1251067Y483235D01*
X1258684D01*
X1263763D02*
Y498470D01*
Y488313D02*
X1271380Y493392D01*
X1263763Y488313D02*
X1271380Y483235D01*
X1278998D02*
Y493392D01*
X1286615D01*
X1289154Y490853D01*
Y483235D01*
X1301850D02*
X1296772D01*
X1294233Y485774D01*
Y490853D01*
X1296772Y493392D01*
X1301850D01*
X1304389Y490853D01*
Y488313D01*
X1294233D01*
X1309468Y483235D02*
X1317085D01*
X1319624Y485774D01*
X1317085Y488313D01*
X1312007D01*
X1309468Y490853D01*
X1312007Y493392D01*
X1319624D01*
X1324703Y483235D02*
X1332320D01*
X1334859Y485774D01*
X1332320Y488313D01*
X1327242D01*
X1324703Y490853D01*
X1327242Y493392D01*
X1334859D01*
X1339938D02*
X1342477D01*
Y490853D01*
X1339938D01*
Y493392D01*
Y485774D02*
X1342477D01*
Y483235D01*
X1339938D01*
Y485774D01*
X1588812Y483235D02*
X1593890D01*
X1591351D01*
Y498470D01*
X1588812Y495931D01*
X1601508Y483235D02*
Y485774D01*
X1604047D01*
Y483235D01*
X1601508D01*
X1624360Y498470D02*
X1614204D01*
Y490853D01*
X1619282Y493392D01*
X1621821D01*
X1624360Y490853D01*
Y485774D01*
X1621821Y483235D01*
X1616743D01*
X1614204Y485774D01*
X1629439D02*
X1631978Y483235D01*
X1637056D01*
X1639595Y485774D01*
Y495931D01*
X1637056Y498470D01*
X1631978D01*
X1629439Y495931D01*
Y493392D01*
X1631978Y490853D01*
X1639595D01*
X1644674Y495931D02*
X1647213Y498470D01*
X1652291D01*
X1654830Y495931D01*
Y485774D01*
X1652291Y483235D01*
X1647213D01*
X1644674Y485774D01*
Y495931D01*
X1659909Y483235D02*
Y493392D01*
X1662448D01*
X1664987Y490853D01*
Y483235D01*
Y490853D01*
X1667526Y493392D01*
X1670066Y490853D01*
Y483235D01*
X1675144D02*
Y493392D01*
X1677683D01*
X1680222Y490853D01*
Y483235D01*
Y490853D01*
X1682762Y493392D01*
X1685301Y490853D01*
Y483235D01*
D29*
X1012378Y719455D02*
X2000188D01*
X1012378Y749935D02*
X2000188D01*
X1012378Y506095D02*
Y749935D01*
Y506095D02*
X1116496D01*
X1012378Y536575D02*
X1116496D01*
X1012378Y567055D02*
X1116496D01*
X1012378Y597535D02*
X1116496D01*
X1012378Y628015D02*
X1116496D01*
X1012378Y658495D02*
X1116496D01*
X1012378Y688975D02*
X1116496D01*
Y506095D02*
Y749935D01*
Y506095D02*
X1352651D01*
X1116496Y536575D02*
X1352651D01*
X1116496Y567055D02*
X1352651D01*
X1116496Y597535D02*
X1352651D01*
X1116496Y628015D02*
X1352651D01*
X1116496Y658495D02*
X1352651D01*
X1116496Y688975D02*
X1352651D01*
Y506095D02*
Y749935D01*
Y506095D02*
X1571032D01*
X1352651Y536575D02*
X1571032D01*
X1352651Y567055D02*
X1571032D01*
X1352651Y597535D02*
X1571032D01*
X1352651Y628015D02*
X1571032D01*
X1352651Y658495D02*
X1571032D01*
X1352651Y688975D02*
X1571032D01*
Y506095D02*
Y749935D01*
Y506095D02*
X1736090D01*
X1571032Y536575D02*
X1736090D01*
X1571032Y567055D02*
X1736090D01*
X1571032Y597535D02*
X1736090D01*
X1571032Y628015D02*
X1736090D01*
X1571032Y658495D02*
X1736090D01*
X1571032Y688975D02*
X1736090D01*
Y506095D02*
Y749935D01*
Y506095D02*
X1880835D01*
X1736090Y536575D02*
X1880835D01*
X1736090Y567055D02*
X1880835D01*
X1736090Y597535D02*
X1880835D01*
X1736090Y628015D02*
X1880835D01*
X1736090Y658495D02*
X1880835D01*
X1736090Y688975D02*
X1880835D01*
Y506095D02*
Y749935D01*
Y506095D02*
X2000188D01*
X1880835Y536575D02*
X2000188D01*
X1880835Y567055D02*
X2000188D01*
X1880835Y597535D02*
X2000188D01*
X1880835Y628015D02*
X2000188D01*
X1880835Y658495D02*
X2000188D01*
X1880835Y688975D02*
X2000188D01*
Y506095D02*
Y749935D01*
M02*
