G04*
G04 #@! TF.GenerationSoftware,Altium Limited,Altium Designer,24.10.1 (45)*
G04*
G04 Layer_Color=16711935*
%FSLAX44Y44*%
%MOMM*%
G71*
G04*
G04 #@! TF.SameCoordinates,E42ED8F9-0A9E-45B5-B6EF-10B4D8FD7D59*
G04*
G04*
G04 #@! TF.FilePolarity,Positive*
G04*
G01*
G75*
%ADD30C,0.2644*%
D30*
X312380Y315374D02*
X303916D01*
X308148D01*
Y328070D01*
X293336D02*
X297568D01*
X299684Y325954D01*
Y321722D01*
X297568Y319606D01*
X293336D01*
X291220Y321722D01*
Y323838D01*
X299684D01*
X280640Y328070D02*
X284872D01*
X286988Y325954D01*
Y321722D01*
X284872Y319606D01*
X280640D01*
X278524Y321722D01*
Y323838D01*
X286988D01*
X274292Y328070D02*
Y319606D01*
X267944D01*
X265828Y321722D01*
Y328070D01*
X261597D02*
X255249D01*
X253132Y325954D01*
X255249Y323838D01*
X259480D01*
X261597Y321722D01*
X259480Y319606D01*
X253132D01*
X248901D02*
Y325954D01*
X246785Y328070D01*
X240437D01*
Y330186D01*
X242553Y332302D01*
X244669D01*
X240437Y328070D02*
Y319606D01*
X217161Y328070D02*
Y315374D01*
X223509Y321722D01*
X215045D01*
X210813Y328070D02*
Y325954D01*
X208697D01*
Y328070D01*
X210813D01*
X200233D02*
X196001D01*
X198117D01*
Y315374D01*
X200233Y317490D01*
M02*
