G04*
G04 #@! TF.GenerationSoftware,Altium Limited,Altium Designer,24.10.1 (45)*
G04*
G04 Layer_Physical_Order=1*
G04 Layer_Color=255*
%FSLAX44Y44*%
%MOMM*%
G71*
G04*
G04 #@! TF.SameCoordinates,E42ED8F9-0A9E-45B5-B6EF-10B4D8FD7D59*
G04*
G04*
G04 #@! TF.FilePolarity,Positive*
G04*
G01*
G75*
%ADD13C,0.2540*%
%ADD21C,1.3080*%
%ADD22C,1.2080*%
%ADD23C,1.2580*%
%ADD24C,1.9304*%
%ADD25C,1.5240*%
%ADD26C,1.6000*%
G04:AMPARAMS|DCode=27|XSize=1.6mm|YSize=1.6mm|CornerRadius=0.4mm|HoleSize=0mm|Usage=FLASHONLY|Rotation=180.000|XOffset=0mm|YOffset=0mm|HoleType=Round|Shape=RoundedRectangle|*
%AMROUNDEDRECTD27*
21,1,1.6000,0.8000,0,0,180.0*
21,1,0.8000,1.6000,0,0,180.0*
1,1,0.8000,-0.4000,0.4000*
1,1,0.8000,0.4000,0.4000*
1,1,0.8000,0.4000,-0.4000*
1,1,0.8000,-0.4000,-0.4000*
%
%ADD27ROUNDEDRECTD27*%
G36*
X636270Y0D02*
X0D01*
Y716280D01*
X636270D01*
Y0D01*
D02*
G37*
%LPC*%
G36*
X598238Y688340D02*
X595562D01*
X592978Y687648D01*
X590662Y686310D01*
X588770Y684418D01*
X587432Y682102D01*
X586740Y679518D01*
Y676842D01*
X587432Y674258D01*
X588770Y671942D01*
X590662Y670050D01*
X592978Y668712D01*
X595562Y668020D01*
X598238D01*
X600822Y668712D01*
X603138Y670050D01*
X605030Y671942D01*
X606368Y674258D01*
X607060Y676842D01*
Y679518D01*
X606368Y682102D01*
X605030Y684418D01*
X603138Y686310D01*
X600822Y687648D01*
X598238Y688340D01*
D02*
G37*
G36*
Y662940D02*
X595562D01*
X592978Y662248D01*
X590662Y660910D01*
X588770Y659018D01*
X587432Y656702D01*
X586740Y654118D01*
Y651442D01*
X587432Y648858D01*
X588770Y646542D01*
X590662Y644650D01*
X592978Y643312D01*
X595562Y642620D01*
X598238D01*
X600822Y643312D01*
X603138Y644650D01*
X605030Y646542D01*
X606368Y648858D01*
X607060Y651442D01*
Y654118D01*
X606368Y656702D01*
X605030Y659018D01*
X603138Y660910D01*
X600822Y662248D01*
X598238Y662940D01*
D02*
G37*
G36*
Y637540D02*
X598170D01*
Y628650D01*
X607060D01*
Y628718D01*
X606368Y631302D01*
X605030Y633618D01*
X603138Y635510D01*
X600822Y636848D01*
X598238Y637540D01*
D02*
G37*
G36*
X595630D02*
X595562D01*
X592978Y636848D01*
X590662Y635510D01*
X588770Y633618D01*
X587432Y631302D01*
X586740Y628718D01*
Y628650D01*
X595630D01*
Y637540D01*
D02*
G37*
G36*
X607060Y626110D02*
X598170D01*
Y617220D01*
X598238D01*
X600822Y617912D01*
X603138Y619250D01*
X605030Y621142D01*
X606368Y623458D01*
X607060Y626042D01*
Y626110D01*
D02*
G37*
G36*
X595630D02*
X586740D01*
Y626042D01*
X587432Y623458D01*
X588770Y621142D01*
X590662Y619250D01*
X592978Y617912D01*
X595562Y617220D01*
X595630D01*
Y626110D01*
D02*
G37*
G36*
X598238Y612140D02*
X595562D01*
X592978Y611448D01*
X590662Y610110D01*
X588770Y608218D01*
X587432Y605902D01*
X586740Y603318D01*
Y600642D01*
X587432Y598058D01*
X588770Y595742D01*
X590662Y593850D01*
X592978Y592512D01*
X595562Y591820D01*
X598238D01*
X600822Y592512D01*
X603138Y593850D01*
X605030Y595742D01*
X606368Y598058D01*
X607060Y600642D01*
Y603318D01*
X606368Y605902D01*
X605030Y608218D01*
X603138Y610110D01*
X600822Y611448D01*
X598238Y612140D01*
D02*
G37*
G36*
Y586740D02*
X595562D01*
X592978Y586048D01*
X590662Y584710D01*
X588770Y582818D01*
X587432Y580502D01*
X586740Y577918D01*
Y575242D01*
X587432Y572658D01*
X587452Y572625D01*
X548433Y533607D01*
X547591Y532347D01*
X547295Y530860D01*
Y415912D01*
X545605Y414936D01*
X543914Y413245D01*
X542719Y411175D01*
X542100Y408865D01*
Y406475D01*
X542719Y404165D01*
X543914Y402095D01*
X545605Y400404D01*
X547675Y399209D01*
X549985Y398590D01*
X552375D01*
X554685Y399209D01*
X556755Y400404D01*
X558446Y402095D01*
X559641Y404165D01*
X560260Y406475D01*
Y408865D01*
X559641Y411175D01*
X558446Y413245D01*
X556755Y414936D01*
X555065Y415912D01*
Y529251D01*
X592945Y567132D01*
X592978Y567112D01*
X595562Y566420D01*
X598238D01*
X600822Y567112D01*
X603138Y568450D01*
X605030Y570342D01*
X606368Y572658D01*
X607060Y575242D01*
Y577918D01*
X606368Y580502D01*
X605030Y582818D01*
X603138Y584710D01*
X600822Y586048D01*
X598238Y586740D01*
D02*
G37*
G36*
Y561340D02*
X595562D01*
X592978Y560648D01*
X590662Y559310D01*
X588770Y557418D01*
X587432Y555102D01*
X586740Y552518D01*
Y549842D01*
X587432Y547258D01*
X587452Y547225D01*
X573833Y533607D01*
X572991Y532347D01*
X572695Y530860D01*
Y415912D01*
X571005Y414936D01*
X569314Y413245D01*
X568119Y411175D01*
X567500Y408865D01*
Y406475D01*
X568119Y404165D01*
X569314Y402095D01*
X571005Y400404D01*
X573075Y399209D01*
X575385Y398590D01*
X577775D01*
X580085Y399209D01*
X582155Y400404D01*
X583846Y402095D01*
X585041Y404165D01*
X585660Y406475D01*
Y408865D01*
X585041Y411175D01*
X583846Y413245D01*
X582155Y414936D01*
X580465Y415912D01*
Y529251D01*
X592945Y541731D01*
X592978Y541712D01*
X595562Y541020D01*
X598238D01*
X600822Y541712D01*
X603138Y543050D01*
X605030Y544942D01*
X606368Y547258D01*
X607060Y549842D01*
Y552518D01*
X606368Y555102D01*
X605030Y557418D01*
X603138Y559310D01*
X600822Y560648D01*
X598238Y561340D01*
D02*
G37*
G36*
Y535940D02*
X595562D01*
X592978Y535248D01*
X590662Y533910D01*
X588770Y532018D01*
X587432Y529702D01*
X586740Y527118D01*
Y524442D01*
X587432Y521858D01*
X588770Y519542D01*
X590662Y517650D01*
X592978Y516312D01*
X595562Y515620D01*
X598238D01*
X600822Y516312D01*
X603138Y517650D01*
X605030Y519542D01*
X606368Y521858D01*
X607060Y524442D01*
Y527118D01*
X606368Y529702D01*
X605030Y532018D01*
X603138Y533910D01*
X600822Y535248D01*
X598238Y535940D01*
D02*
G37*
G36*
Y510540D02*
X595562D01*
X592978Y509848D01*
X590662Y508510D01*
X588770Y506618D01*
X587432Y504302D01*
X586740Y501718D01*
Y499042D01*
X587432Y496458D01*
X588770Y494142D01*
X590662Y492250D01*
X592978Y490912D01*
X595562Y490220D01*
X598238D01*
X600822Y490912D01*
X603138Y492250D01*
X605030Y494142D01*
X606368Y496458D01*
X607060Y499042D01*
Y501718D01*
X606368Y504302D01*
X605030Y506618D01*
X603138Y508510D01*
X600822Y509848D01*
X598238Y510540D01*
D02*
G37*
G36*
Y485140D02*
X595562D01*
X592978Y484448D01*
X590662Y483110D01*
X588770Y481218D01*
X587432Y478902D01*
X586740Y476318D01*
Y473642D01*
X587432Y471058D01*
X588770Y468742D01*
X590662Y466850D01*
X592978Y465512D01*
X595562Y464820D01*
X598238D01*
X600822Y465512D01*
X603138Y466850D01*
X605030Y468742D01*
X606368Y471058D01*
X607060Y473642D01*
Y476318D01*
X606368Y478902D01*
X605030Y481218D01*
X603138Y483110D01*
X600822Y484448D01*
X598238Y485140D01*
D02*
G37*
G36*
X80128Y472820D02*
X80010D01*
Y463550D01*
X89280D01*
Y463668D01*
X88562Y466348D01*
X87174Y468752D01*
X85212Y470714D01*
X82808Y472102D01*
X80128Y472820D01*
D02*
G37*
G36*
X77470D02*
X77352D01*
X74672Y472102D01*
X72268Y470714D01*
X70306Y468752D01*
X68918Y466348D01*
X68200Y463668D01*
Y463550D01*
X77470D01*
Y472820D01*
D02*
G37*
G36*
X156328D02*
X153552D01*
X150872Y472102D01*
X148468Y470714D01*
X146506Y468752D01*
X145118Y466348D01*
X144400Y463668D01*
Y460892D01*
X145118Y458212D01*
X146506Y455808D01*
X148468Y453846D01*
X150872Y452458D01*
X153552Y451740D01*
X156328D01*
X159008Y452458D01*
X161412Y453846D01*
X163374Y455808D01*
X164762Y458212D01*
X165480Y460892D01*
Y463668D01*
X164762Y466348D01*
X163374Y468752D01*
X161412Y470714D01*
X159008Y472102D01*
X156328Y472820D01*
D02*
G37*
G36*
X105528D02*
X102752D01*
X100072Y472102D01*
X97668Y470714D01*
X95706Y468752D01*
X94318Y466348D01*
X93600Y463668D01*
Y460892D01*
X94318Y458212D01*
X95706Y455808D01*
X97668Y453846D01*
X100072Y452458D01*
X102752Y451740D01*
X105528D01*
X108208Y452458D01*
X110612Y453846D01*
X112574Y455808D01*
X113962Y458212D01*
X114680Y460892D01*
Y463668D01*
X113962Y466348D01*
X112574Y468752D01*
X110612Y470714D01*
X108208Y472102D01*
X105528Y472820D01*
D02*
G37*
G36*
X89280Y461010D02*
X80010D01*
Y451740D01*
X80128D01*
X82808Y452458D01*
X85212Y453846D01*
X87174Y455808D01*
X88562Y458212D01*
X89280Y460892D01*
Y461010D01*
D02*
G37*
G36*
X77470D02*
X68200D01*
Y460892D01*
X68918Y458212D01*
X70306Y455808D01*
X72268Y453846D01*
X74672Y452458D01*
X77352Y451740D01*
X77470D01*
Y461010D01*
D02*
G37*
G36*
X54728Y472820D02*
X51952D01*
X49272Y472102D01*
X46868Y470714D01*
X44906Y468752D01*
X43518Y466348D01*
X42800Y463668D01*
Y460892D01*
X43518Y458212D01*
X44906Y455808D01*
X46868Y453846D01*
X49272Y452458D01*
X51952Y451740D01*
X54728D01*
X57408Y452458D01*
X59812Y453846D01*
X61774Y455808D01*
X63162Y458212D01*
X63880Y460892D01*
Y463668D01*
X63162Y466348D01*
X61774Y468752D01*
X59812Y470714D01*
X57408Y472102D01*
X54728Y472820D01*
D02*
G37*
G36*
X184340Y472876D02*
X176340D01*
X174633Y472652D01*
X173042Y471993D01*
X171676Y470944D01*
X170627Y469578D01*
X169968Y467987D01*
X169744Y466280D01*
Y458280D01*
X169968Y456573D01*
X170627Y454982D01*
X171676Y453616D01*
X173042Y452567D01*
X174633Y451908D01*
X176340Y451684D01*
X184340D01*
X186047Y451908D01*
X187638Y452567D01*
X189004Y453616D01*
X190053Y454982D01*
X190712Y456573D01*
X190936Y458280D01*
Y466280D01*
X190712Y467987D01*
X190053Y469578D01*
X189004Y470944D01*
X187638Y471993D01*
X186047Y472652D01*
X184340Y472876D01*
D02*
G37*
G36*
X603175Y416750D02*
X600785D01*
X598475Y416131D01*
X596405Y414936D01*
X594714Y413245D01*
X593519Y411175D01*
X592900Y408865D01*
Y406475D01*
X593519Y404165D01*
X594714Y402095D01*
X596405Y400404D01*
X598475Y399209D01*
X600785Y398590D01*
X603175D01*
X605485Y399209D01*
X607555Y400404D01*
X609246Y402095D01*
X610441Y404165D01*
X611060Y406475D01*
Y408865D01*
X610441Y411175D01*
X609246Y413245D01*
X607555Y414936D01*
X605485Y416131D01*
X603175Y416750D01*
D02*
G37*
G36*
X526975D02*
X524585D01*
X522275Y416131D01*
X520205Y414936D01*
X518514Y413245D01*
X517319Y411175D01*
X516700Y408865D01*
Y406475D01*
X517319Y404165D01*
X518514Y402095D01*
X520205Y400404D01*
X522275Y399209D01*
X524585Y398590D01*
X526975D01*
X529285Y399209D01*
X531355Y400404D01*
X533046Y402095D01*
X534241Y404165D01*
X534860Y406475D01*
Y408865D01*
X534241Y411175D01*
X533046Y413245D01*
X531355Y414936D01*
X529285Y416131D01*
X526975Y416750D01*
D02*
G37*
G36*
X501575D02*
X499185D01*
X496875Y416131D01*
X494805Y414936D01*
X493114Y413245D01*
X491919Y411175D01*
X491300Y408865D01*
Y406475D01*
X491919Y404165D01*
X493114Y402095D01*
X494805Y400404D01*
X496875Y399209D01*
X499185Y398590D01*
X501575D01*
X503885Y399209D01*
X505955Y400404D01*
X507646Y402095D01*
X508841Y404165D01*
X509460Y406475D01*
Y408865D01*
X508841Y411175D01*
X507646Y413245D01*
X505955Y414936D01*
X503885Y416131D01*
X501575Y416750D01*
D02*
G37*
G36*
X476175D02*
X473785D01*
X471475Y416131D01*
X469405Y414936D01*
X467714Y413245D01*
X466519Y411175D01*
X465900Y408865D01*
Y406475D01*
X466519Y404165D01*
X467714Y402095D01*
X469405Y400404D01*
X471475Y399209D01*
X473785Y398590D01*
X476175D01*
X478485Y399209D01*
X480555Y400404D01*
X482246Y402095D01*
X483441Y404165D01*
X484060Y406475D01*
Y408865D01*
X483441Y411175D01*
X482246Y413245D01*
X480555Y414936D01*
X478485Y416131D01*
X476175Y416750D01*
D02*
G37*
G36*
X450775D02*
X448385D01*
X446075Y416131D01*
X444005Y414936D01*
X442314Y413245D01*
X441119Y411175D01*
X440500Y408865D01*
Y406475D01*
X441119Y404165D01*
X442314Y402095D01*
X444005Y400404D01*
X446075Y399209D01*
X448385Y398590D01*
X450775D01*
X453085Y399209D01*
X455155Y400404D01*
X456846Y402095D01*
X458041Y404165D01*
X458660Y406475D01*
Y408865D01*
X458041Y411175D01*
X456846Y413245D01*
X455155Y414936D01*
X453085Y416131D01*
X450775Y416750D01*
D02*
G37*
G36*
X425375D02*
X422985D01*
X420675Y416131D01*
X418605Y414936D01*
X416914Y413245D01*
X415719Y411175D01*
X415100Y408865D01*
Y406475D01*
X415719Y404165D01*
X416914Y402095D01*
X418605Y400404D01*
X420675Y399209D01*
X422985Y398590D01*
X425375D01*
X427685Y399209D01*
X429755Y400404D01*
X431446Y402095D01*
X432641Y404165D01*
X433260Y406475D01*
Y408865D01*
X432641Y411175D01*
X431446Y413245D01*
X429755Y414936D01*
X427685Y416131D01*
X425375Y416750D01*
D02*
G37*
G36*
X130928Y472820D02*
X128152D01*
X125472Y472102D01*
X123068Y470714D01*
X121106Y468752D01*
X119718Y466348D01*
X119000Y463668D01*
Y460892D01*
X119718Y458212D01*
X121106Y455808D01*
X123068Y453846D01*
X125472Y452458D01*
X128152Y451740D01*
X130928D01*
X133608Y452458D01*
X133773Y452553D01*
X152193Y434133D01*
X153453Y433291D01*
X154940Y432995D01*
X367961D01*
X390205Y410751D01*
X389700Y408865D01*
Y406475D01*
X390319Y404165D01*
X391514Y402095D01*
X393205Y400404D01*
X395275Y399209D01*
X397585Y398590D01*
X399975D01*
X402285Y399209D01*
X404355Y400404D01*
X406046Y402095D01*
X407241Y404165D01*
X407860Y406475D01*
Y408865D01*
X407241Y411175D01*
X406046Y413245D01*
X404355Y414936D01*
X402285Y416131D01*
X399975Y416750D01*
X397585D01*
X395699Y416245D01*
X372317Y439627D01*
X371057Y440469D01*
X369570Y440765D01*
X156549D01*
X139267Y458047D01*
X139362Y458212D01*
X140080Y460892D01*
Y463668D01*
X139362Y466348D01*
X137974Y468752D01*
X136012Y470714D01*
X133608Y472102D01*
X130928Y472820D01*
D02*
G37*
G36*
X374575Y416750D02*
X372185D01*
X369875Y416131D01*
X367805Y414936D01*
X366114Y413245D01*
X364919Y411175D01*
X364300Y408865D01*
Y406475D01*
X364919Y404165D01*
X366114Y402095D01*
X367805Y400404D01*
X369875Y399209D01*
X372185Y398590D01*
X374575D01*
X376885Y399209D01*
X378955Y400404D01*
X380646Y402095D01*
X381841Y404165D01*
X382460Y406475D01*
Y408865D01*
X381841Y411175D01*
X380646Y413245D01*
X378955Y414936D01*
X376885Y416131D01*
X374575Y416750D01*
D02*
G37*
G36*
X349175D02*
X346785D01*
X344475Y416131D01*
X342405Y414936D01*
X340714Y413245D01*
X339519Y411175D01*
X338900Y408865D01*
Y406475D01*
X339519Y404165D01*
X340714Y402095D01*
X342405Y400404D01*
X344475Y399209D01*
X346785Y398590D01*
X349175D01*
X351485Y399209D01*
X353555Y400404D01*
X355246Y402095D01*
X356441Y404165D01*
X357060Y406475D01*
Y408865D01*
X356441Y411175D01*
X355246Y413245D01*
X353555Y414936D01*
X351485Y416131D01*
X349175Y416750D01*
D02*
G37*
G36*
X323775D02*
X321385D01*
X319075Y416131D01*
X317005Y414936D01*
X315314Y413245D01*
X314119Y411175D01*
X313500Y408865D01*
Y406475D01*
X314119Y404165D01*
X315314Y402095D01*
X317005Y400404D01*
X319075Y399209D01*
X321385Y398590D01*
X323775D01*
X326085Y399209D01*
X328155Y400404D01*
X329846Y402095D01*
X331041Y404165D01*
X331660Y406475D01*
Y408865D01*
X331041Y411175D01*
X329846Y413245D01*
X328155Y414936D01*
X326085Y416131D01*
X323775Y416750D01*
D02*
G37*
G36*
X298375D02*
X295985D01*
X293675Y416131D01*
X291605Y414936D01*
X289914Y413245D01*
X288719Y411175D01*
X288100Y408865D01*
Y406475D01*
X288719Y404165D01*
X289914Y402095D01*
X291605Y400404D01*
X293675Y399209D01*
X295985Y398590D01*
X298375D01*
X300685Y399209D01*
X302755Y400404D01*
X304446Y402095D01*
X305641Y404165D01*
X306260Y406475D01*
Y408865D01*
X305641Y411175D01*
X304446Y413245D01*
X302755Y414936D01*
X300685Y416131D01*
X298375Y416750D01*
D02*
G37*
G36*
X272975D02*
X270585D01*
X268275Y416131D01*
X266205Y414936D01*
X264514Y413245D01*
X263319Y411175D01*
X262700Y408865D01*
Y406475D01*
X263319Y404165D01*
X264514Y402095D01*
X266205Y400404D01*
X268275Y399209D01*
X270585Y398590D01*
X272975D01*
X275285Y399209D01*
X277355Y400404D01*
X279046Y402095D01*
X280241Y404165D01*
X280860Y406475D01*
Y408865D01*
X280241Y411175D01*
X279046Y413245D01*
X277355Y414936D01*
X275285Y416131D01*
X272975Y416750D01*
D02*
G37*
G36*
X247575D02*
X245185D01*
X242875Y416131D01*
X240805Y414936D01*
X239114Y413245D01*
X237919Y411175D01*
X237300Y408865D01*
Y406475D01*
X237919Y404165D01*
X239114Y402095D01*
X240805Y400404D01*
X242875Y399209D01*
X245185Y398590D01*
X247575D01*
X249885Y399209D01*
X251955Y400404D01*
X253646Y402095D01*
X254841Y404165D01*
X255460Y406475D01*
Y408865D01*
X254841Y411175D01*
X253646Y413245D01*
X251955Y414936D01*
X249885Y416131D01*
X247575Y416750D01*
D02*
G37*
G36*
X222175D02*
X219785D01*
X217475Y416131D01*
X215405Y414936D01*
X213714Y413245D01*
X212519Y411175D01*
X211900Y408865D01*
Y406475D01*
X212519Y404165D01*
X213714Y402095D01*
X215405Y400404D01*
X217475Y399209D01*
X219785Y398590D01*
X222175D01*
X224485Y399209D01*
X226555Y400404D01*
X228246Y402095D01*
X229441Y404165D01*
X230060Y406475D01*
Y408865D01*
X229441Y411175D01*
X228246Y413245D01*
X226555Y414936D01*
X224485Y416131D01*
X222175Y416750D01*
D02*
G37*
G36*
X196775D02*
X194385D01*
X192075Y416131D01*
X190005Y414936D01*
X188314Y413245D01*
X187119Y411175D01*
X186500Y408865D01*
Y406475D01*
X187119Y404165D01*
X188314Y402095D01*
X190005Y400404D01*
X192075Y399209D01*
X194385Y398590D01*
X196775D01*
X199085Y399209D01*
X201155Y400404D01*
X202846Y402095D01*
X204041Y404165D01*
X204660Y406475D01*
Y408865D01*
X204041Y411175D01*
X202846Y413245D01*
X201155Y414936D01*
X199085Y416131D01*
X196775Y416750D01*
D02*
G37*
G36*
X171375D02*
X168985D01*
X166675Y416131D01*
X164605Y414936D01*
X162914Y413245D01*
X161719Y411175D01*
X161100Y408865D01*
Y406475D01*
X161719Y404165D01*
X162914Y402095D01*
X164605Y400404D01*
X166675Y399209D01*
X168985Y398590D01*
X171375D01*
X173685Y399209D01*
X175755Y400404D01*
X177446Y402095D01*
X178641Y404165D01*
X179260Y406475D01*
Y408865D01*
X178641Y411175D01*
X177446Y413245D01*
X175755Y414936D01*
X173685Y416131D01*
X171375Y416750D01*
D02*
G37*
G36*
X145975D02*
X143585D01*
X141275Y416131D01*
X139205Y414936D01*
X137514Y413245D01*
X136319Y411175D01*
X135700Y408865D01*
Y406475D01*
X136319Y404165D01*
X137514Y402095D01*
X139205Y400404D01*
X141275Y399209D01*
X143585Y398590D01*
X145975D01*
X148285Y399209D01*
X150355Y400404D01*
X152046Y402095D01*
X153241Y404165D01*
X153860Y406475D01*
Y408865D01*
X153241Y411175D01*
X152046Y413245D01*
X150355Y414936D01*
X148285Y416131D01*
X145975Y416750D01*
D02*
G37*
G36*
X120575D02*
X118185D01*
X115875Y416131D01*
X113805Y414936D01*
X112114Y413245D01*
X110919Y411175D01*
X110300Y408865D01*
Y406475D01*
X110919Y404165D01*
X112114Y402095D01*
X113805Y400404D01*
X115875Y399209D01*
X118185Y398590D01*
X120575D01*
X122885Y399209D01*
X124955Y400404D01*
X126646Y402095D01*
X127841Y404165D01*
X128460Y406475D01*
Y408865D01*
X127841Y411175D01*
X126646Y413245D01*
X124955Y414936D01*
X122885Y416131D01*
X120575Y416750D01*
D02*
G37*
G36*
X95175D02*
X92785D01*
X90475Y416131D01*
X88405Y414936D01*
X86714Y413245D01*
X85519Y411175D01*
X84900Y408865D01*
Y406475D01*
X85519Y404165D01*
X86714Y402095D01*
X88405Y400404D01*
X90475Y399209D01*
X92785Y398590D01*
X95175D01*
X97485Y399209D01*
X99555Y400404D01*
X101246Y402095D01*
X102441Y404165D01*
X103060Y406475D01*
Y408865D01*
X102441Y411175D01*
X101246Y413245D01*
X99555Y414936D01*
X97485Y416131D01*
X95175Y416750D01*
D02*
G37*
G36*
X69775D02*
X67385D01*
X65075Y416131D01*
X63005Y414936D01*
X61314Y413245D01*
X60119Y411175D01*
X59500Y408865D01*
Y406475D01*
X60119Y404165D01*
X61314Y402095D01*
X63005Y400404D01*
X65075Y399209D01*
X67385Y398590D01*
X69775D01*
X72085Y399209D01*
X74155Y400404D01*
X75846Y402095D01*
X77041Y404165D01*
X77660Y406475D01*
Y408865D01*
X77041Y411175D01*
X75846Y413245D01*
X74155Y414936D01*
X72085Y416131D01*
X69775Y416750D01*
D02*
G37*
G36*
X44375D02*
X41985D01*
X39675Y416131D01*
X37605Y414936D01*
X35914Y413245D01*
X34719Y411175D01*
X34100Y408865D01*
Y406475D01*
X34719Y404165D01*
X35914Y402095D01*
X37605Y400404D01*
X39675Y399209D01*
X41985Y398590D01*
X44375D01*
X46685Y399209D01*
X48755Y400404D01*
X50446Y402095D01*
X51641Y404165D01*
X52260Y406475D01*
Y408865D01*
X51641Y411175D01*
X50446Y413245D01*
X48755Y414936D01*
X46685Y416131D01*
X44375Y416750D01*
D02*
G37*
G36*
X18975D02*
X16585D01*
X14275Y416131D01*
X12205Y414936D01*
X10514Y413245D01*
X9319Y411175D01*
X8700Y408865D01*
Y406475D01*
X9319Y404165D01*
X10514Y402095D01*
X12205Y400404D01*
X14275Y399209D01*
X16585Y398590D01*
X18975D01*
X21285Y399209D01*
X23355Y400404D01*
X25046Y402095D01*
X26241Y404165D01*
X26860Y406475D01*
Y408865D01*
X26241Y411175D01*
X25046Y413245D01*
X23355Y414936D01*
X21285Y416131D01*
X18975Y416750D01*
D02*
G37*
G36*
X146050Y391330D02*
Y383540D01*
X153840D01*
X153241Y385775D01*
X152046Y387845D01*
X150355Y389536D01*
X148285Y390731D01*
X146050Y391330D01*
D02*
G37*
G36*
X143510D02*
X141275Y390731D01*
X139205Y389536D01*
X137514Y387845D01*
X136319Y385775D01*
X135720Y383540D01*
X143510D01*
Y391330D01*
D02*
G37*
G36*
X153840Y381000D02*
X146050D01*
Y373210D01*
X148285Y373809D01*
X150355Y375004D01*
X152046Y376695D01*
X153241Y378765D01*
X153840Y381000D01*
D02*
G37*
G36*
X143510D02*
X135720D01*
X136319Y378765D01*
X137514Y376695D01*
X139205Y375004D01*
X141275Y373809D01*
X143510Y373210D01*
Y381000D01*
D02*
G37*
G36*
X539642Y386000D02*
X537318D01*
X535072Y385398D01*
X533058Y384236D01*
X531414Y382592D01*
X530252Y380578D01*
X529650Y378332D01*
Y376007D01*
X530252Y373762D01*
X531414Y371748D01*
X533058Y370104D01*
X535072Y368942D01*
X537318Y368340D01*
X539642D01*
X541888Y368942D01*
X543902Y370104D01*
X545546Y371748D01*
X546708Y373762D01*
X547310Y376007D01*
Y378332D01*
X546708Y380578D01*
X545546Y382592D01*
X543902Y384236D01*
X541888Y385398D01*
X539642Y386000D01*
D02*
G37*
G36*
X514243D02*
X511917D01*
X509672Y385398D01*
X507658Y384236D01*
X506014Y382592D01*
X504852Y380578D01*
X504250Y378332D01*
Y376007D01*
X504852Y373762D01*
X506014Y371748D01*
X507658Y370104D01*
X509672Y368942D01*
X511917Y368340D01*
X514243D01*
X516488Y368942D01*
X518502Y370104D01*
X520146Y371748D01*
X521308Y373762D01*
X521910Y376007D01*
Y378332D01*
X521308Y380578D01*
X520146Y382592D01*
X518502Y384236D01*
X516488Y385398D01*
X514243Y386000D01*
D02*
G37*
G36*
X488843D02*
X486517D01*
X484272Y385398D01*
X482258Y384236D01*
X480614Y382592D01*
X479452Y380578D01*
X478850Y378332D01*
Y376007D01*
X479452Y373762D01*
X480614Y371748D01*
X482258Y370104D01*
X484272Y368942D01*
X486517Y368340D01*
X488843D01*
X491088Y368942D01*
X493102Y370104D01*
X494746Y371748D01*
X495908Y373762D01*
X496510Y376007D01*
Y378332D01*
X495908Y380578D01*
X494746Y382592D01*
X493102Y384236D01*
X491088Y385398D01*
X488843Y386000D01*
D02*
G37*
G36*
X463442D02*
X461118D01*
X458872Y385398D01*
X456858Y384236D01*
X455214Y382592D01*
X454052Y380578D01*
X453450Y378332D01*
Y376007D01*
X454052Y373762D01*
X455214Y371748D01*
X456858Y370104D01*
X458872Y368942D01*
X461118Y368340D01*
X463442D01*
X465688Y368942D01*
X467702Y370104D01*
X469346Y371748D01*
X470508Y373762D01*
X471110Y376007D01*
Y378332D01*
X470508Y380578D01*
X469346Y382592D01*
X467702Y384236D01*
X465688Y385398D01*
X463442Y386000D01*
D02*
G37*
G36*
X438042D02*
X435718D01*
X433472Y385398D01*
X431458Y384236D01*
X429814Y382592D01*
X428652Y380578D01*
X428050Y378332D01*
Y376007D01*
X428652Y373762D01*
X429814Y371748D01*
X431458Y370104D01*
X433472Y368942D01*
X435718Y368340D01*
X438042D01*
X440288Y368942D01*
X442302Y370104D01*
X443946Y371748D01*
X445108Y373762D01*
X445710Y376007D01*
Y378332D01*
X445108Y380578D01*
X443946Y382592D01*
X442302Y384236D01*
X440288Y385398D01*
X438042Y386000D01*
D02*
G37*
G36*
X145975Y365950D02*
X143585D01*
X141275Y365331D01*
X139205Y364136D01*
X137514Y362445D01*
X136319Y360375D01*
X135700Y358065D01*
Y355675D01*
X136319Y353365D01*
X137514Y351295D01*
X139205Y349604D01*
X141275Y348409D01*
X143585Y347790D01*
X145975D01*
X148285Y348409D01*
X150355Y349604D01*
X152046Y351295D01*
X153241Y353365D01*
X153860Y355675D01*
Y358065D01*
X153241Y360375D01*
X152046Y362445D01*
X150355Y364136D01*
X148285Y365331D01*
X145975Y365950D01*
D02*
G37*
G36*
Y340550D02*
X143585D01*
X141275Y339931D01*
X139205Y338736D01*
X137514Y337045D01*
X136319Y334975D01*
X135700Y332665D01*
Y330275D01*
X136319Y327965D01*
X137514Y325895D01*
X139205Y324204D01*
X141275Y323009D01*
X143585Y322390D01*
X145975D01*
X148285Y323009D01*
X150355Y324204D01*
X152046Y325895D01*
X153241Y327965D01*
X153860Y330275D01*
Y332665D01*
X153241Y334975D01*
X152046Y337045D01*
X150355Y338736D01*
X148285Y339931D01*
X145975Y340550D01*
D02*
G37*
G36*
X473410Y328350D02*
X471150D01*
X468968Y327765D01*
X467012Y326636D01*
X465414Y325038D01*
X464285Y323082D01*
X463700Y320900D01*
Y318640D01*
X464285Y316458D01*
X465414Y314502D01*
X467012Y312904D01*
X468968Y311775D01*
X471150Y311190D01*
X473410D01*
X475592Y311775D01*
X477548Y312904D01*
X479146Y314502D01*
X480275Y316458D01*
X480860Y318640D01*
Y320900D01*
X480275Y323082D01*
X479146Y325038D01*
X477548Y326636D01*
X475592Y327765D01*
X473410Y328350D01*
D02*
G37*
G36*
X453410D02*
X451150D01*
X448968Y327765D01*
X447012Y326636D01*
X445414Y325038D01*
X444285Y323082D01*
X443700Y320900D01*
Y318640D01*
X444285Y316458D01*
X445414Y314502D01*
X447012Y312904D01*
X448968Y311775D01*
X451150Y311190D01*
X453410D01*
X455592Y311775D01*
X457548Y312904D01*
X459146Y314502D01*
X460275Y316458D01*
X460860Y318640D01*
Y320900D01*
X460275Y323082D01*
X459146Y325038D01*
X457548Y326636D01*
X455592Y327765D01*
X453410Y328350D01*
D02*
G37*
G36*
X145975Y315150D02*
X143585D01*
X141275Y314531D01*
X139205Y313336D01*
X137514Y311645D01*
X136319Y309575D01*
X135700Y307265D01*
Y304875D01*
X136319Y302565D01*
X137514Y300495D01*
X139205Y298804D01*
X141275Y297609D01*
X143585Y296990D01*
X145975D01*
X148285Y297609D01*
X150355Y298804D01*
X152046Y300495D01*
X153241Y302565D01*
X153860Y304875D01*
Y307265D01*
X153241Y309575D01*
X152046Y311645D01*
X150355Y313336D01*
X148285Y314531D01*
X145975Y315150D01*
D02*
G37*
G36*
X473410Y308350D02*
X471150D01*
X468968Y307765D01*
X467012Y306636D01*
X465414Y305038D01*
X464285Y303082D01*
X463700Y300900D01*
Y298640D01*
X464285Y296458D01*
X465414Y294502D01*
X467012Y292904D01*
X468968Y291775D01*
X471150Y291190D01*
X473410D01*
X475592Y291775D01*
X477548Y292904D01*
X479146Y294502D01*
X480275Y296458D01*
X480860Y298640D01*
Y300900D01*
X480275Y303082D01*
X479146Y305038D01*
X477548Y306636D01*
X475592Y307765D01*
X473410Y308350D01*
D02*
G37*
G36*
X453410D02*
X451150D01*
X448968Y307765D01*
X447012Y306636D01*
X445414Y305038D01*
X444285Y303082D01*
X443700Y300900D01*
Y298640D01*
X444285Y296458D01*
X445414Y294502D01*
X447012Y292904D01*
X448968Y291775D01*
X451150Y291190D01*
X453410D01*
X455592Y291775D01*
X457548Y292904D01*
X459146Y294502D01*
X460275Y296458D01*
X460860Y298640D01*
Y300900D01*
X460275Y303082D01*
X459146Y305038D01*
X457548Y306636D01*
X455592Y307765D01*
X453410Y308350D01*
D02*
G37*
G36*
X577775Y289750D02*
X575385D01*
X573075Y289131D01*
X571005Y287936D01*
X569314Y286245D01*
X568119Y284175D01*
X567500Y281865D01*
Y279475D01*
X568119Y277165D01*
X569314Y275095D01*
X571005Y273404D01*
X573075Y272209D01*
X575385Y271590D01*
X577775D01*
X580085Y272209D01*
X582155Y273404D01*
X583846Y275095D01*
X585041Y277165D01*
X585660Y279475D01*
Y281865D01*
X585041Y284175D01*
X583846Y286245D01*
X582155Y287936D01*
X580085Y289131D01*
X577775Y289750D01*
D02*
G37*
G36*
X145975D02*
X143585D01*
X141275Y289131D01*
X139205Y287936D01*
X137514Y286245D01*
X136319Y284175D01*
X135700Y281865D01*
Y279475D01*
X136319Y277165D01*
X137514Y275095D01*
X139205Y273404D01*
X141275Y272209D01*
X143585Y271590D01*
X145975D01*
X148285Y272209D01*
X150355Y273404D01*
X152046Y275095D01*
X153241Y277165D01*
X153860Y279475D01*
Y281865D01*
X153241Y284175D01*
X152046Y286245D01*
X150355Y287936D01*
X148285Y289131D01*
X145975Y289750D01*
D02*
G37*
G36*
X473410Y288350D02*
X471150D01*
X468968Y287765D01*
X467012Y286636D01*
X465414Y285038D01*
X464285Y283082D01*
X463700Y280900D01*
Y278640D01*
X464285Y276458D01*
X465414Y274502D01*
X467012Y272904D01*
X468968Y271775D01*
X471150Y271190D01*
X473410D01*
X475592Y271775D01*
X477548Y272904D01*
X479146Y274502D01*
X480275Y276458D01*
X480860Y278640D01*
Y280900D01*
X480275Y283082D01*
X479146Y285038D01*
X477548Y286636D01*
X475592Y287765D01*
X473410Y288350D01*
D02*
G37*
G36*
X453410D02*
X451150D01*
X448968Y287765D01*
X447012Y286636D01*
X445414Y285038D01*
X444285Y283082D01*
X443700Y280900D01*
Y278640D01*
X444285Y276458D01*
X445414Y274502D01*
X447012Y272904D01*
X448968Y271775D01*
X451150Y271190D01*
X453410D01*
X455592Y271775D01*
X457548Y272904D01*
X459146Y274502D01*
X460275Y276458D01*
X460860Y278640D01*
Y280900D01*
X460275Y283082D01*
X459146Y285038D01*
X457548Y286636D01*
X455592Y287765D01*
X453410Y288350D01*
D02*
G37*
G36*
X603250Y264330D02*
Y256540D01*
X611040D01*
X610441Y258775D01*
X609246Y260845D01*
X607555Y262536D01*
X605485Y263731D01*
X603250Y264330D01*
D02*
G37*
G36*
X600710D02*
X598475Y263731D01*
X596405Y262536D01*
X594714Y260845D01*
X593519Y258775D01*
X592920Y256540D01*
X600710D01*
Y264330D01*
D02*
G37*
G36*
X611040Y254000D02*
X603250D01*
Y246210D01*
X605485Y246809D01*
X607555Y248004D01*
X609246Y249695D01*
X610441Y251765D01*
X611040Y254000D01*
D02*
G37*
G36*
X600710D02*
X592920D01*
X593519Y251765D01*
X594714Y249695D01*
X596405Y248004D01*
X598475Y246809D01*
X600710Y246210D01*
Y254000D01*
D02*
G37*
G36*
X577775Y264350D02*
X575385D01*
X573075Y263731D01*
X571005Y262536D01*
X569314Y260845D01*
X568119Y258775D01*
X567500Y256465D01*
Y254075D01*
X568119Y251765D01*
X569314Y249695D01*
X571005Y248004D01*
X573075Y246809D01*
X575385Y246190D01*
X577775D01*
X580085Y246809D01*
X582155Y248004D01*
X583846Y249695D01*
X585041Y251765D01*
X585660Y254075D01*
Y256465D01*
X585041Y258775D01*
X583846Y260845D01*
X582155Y262536D01*
X580085Y263731D01*
X577775Y264350D01*
D02*
G37*
G36*
X552375D02*
X549985D01*
X547675Y263731D01*
X545605Y262536D01*
X543914Y260845D01*
X542719Y258775D01*
X542100Y256465D01*
Y254075D01*
X542719Y251765D01*
X543914Y249695D01*
X545605Y248004D01*
X547675Y246809D01*
X549985Y246190D01*
X552375D01*
X554685Y246809D01*
X556755Y248004D01*
X558446Y249695D01*
X559641Y251765D01*
X560260Y254075D01*
Y256465D01*
X559641Y258775D01*
X558446Y260845D01*
X556755Y262536D01*
X554685Y263731D01*
X552375Y264350D01*
D02*
G37*
G36*
X526975D02*
X524585D01*
X522275Y263731D01*
X520205Y262536D01*
X518514Y260845D01*
X517319Y258775D01*
X516700Y256465D01*
Y254075D01*
X517319Y251765D01*
X518514Y249695D01*
X520205Y248004D01*
X522275Y246809D01*
X524585Y246190D01*
X526975D01*
X529285Y246809D01*
X531355Y248004D01*
X533046Y249695D01*
X534241Y251765D01*
X534860Y254075D01*
Y256465D01*
X534241Y258775D01*
X533046Y260845D01*
X531355Y262536D01*
X529285Y263731D01*
X526975Y264350D01*
D02*
G37*
G36*
X501575D02*
X499185D01*
X496875Y263731D01*
X494805Y262536D01*
X493114Y260845D01*
X491919Y258775D01*
X491300Y256465D01*
Y254075D01*
X491919Y251765D01*
X493114Y249695D01*
X494805Y248004D01*
X496875Y246809D01*
X499185Y246190D01*
X501575D01*
X503885Y246809D01*
X505955Y248004D01*
X507646Y249695D01*
X508841Y251765D01*
X509460Y254075D01*
Y256465D01*
X508841Y258775D01*
X507646Y260845D01*
X505955Y262536D01*
X503885Y263731D01*
X501575Y264350D01*
D02*
G37*
G36*
X476175D02*
X473785D01*
X471475Y263731D01*
X469405Y262536D01*
X467714Y260845D01*
X466519Y258775D01*
X465900Y256465D01*
Y254075D01*
X466519Y251765D01*
X467714Y249695D01*
X469405Y248004D01*
X471475Y246809D01*
X473785Y246190D01*
X476175D01*
X478485Y246809D01*
X480555Y248004D01*
X482246Y249695D01*
X483441Y251765D01*
X484060Y254075D01*
Y256465D01*
X483441Y258775D01*
X482246Y260845D01*
X480555Y262536D01*
X478485Y263731D01*
X476175Y264350D01*
D02*
G37*
G36*
X450775D02*
X448385D01*
X446075Y263731D01*
X444005Y262536D01*
X442314Y260845D01*
X441119Y258775D01*
X440500Y256465D01*
Y254075D01*
X441119Y251765D01*
X442314Y249695D01*
X444005Y248004D01*
X446075Y246809D01*
X448385Y246190D01*
X450775D01*
X453085Y246809D01*
X455155Y248004D01*
X456846Y249695D01*
X458041Y251765D01*
X458660Y254075D01*
Y256465D01*
X458041Y258775D01*
X456846Y260845D01*
X455155Y262536D01*
X453085Y263731D01*
X450775Y264350D01*
D02*
G37*
G36*
X374575D02*
X372185D01*
X369875Y263731D01*
X367805Y262536D01*
X366114Y260845D01*
X364919Y258775D01*
X364300Y256465D01*
Y254075D01*
X364919Y251765D01*
X366114Y249695D01*
X367805Y248004D01*
X369875Y246809D01*
X372185Y246190D01*
X374575D01*
X376885Y246809D01*
X378955Y248004D01*
X380646Y249695D01*
X381841Y251765D01*
X382460Y254075D01*
Y256465D01*
X381841Y258775D01*
X380646Y260845D01*
X378955Y262536D01*
X376885Y263731D01*
X374575Y264350D01*
D02*
G37*
G36*
X349175D02*
X346785D01*
X344475Y263731D01*
X342405Y262536D01*
X340714Y260845D01*
X339519Y258775D01*
X338900Y256465D01*
Y254075D01*
X339519Y251765D01*
X340714Y249695D01*
X342405Y248004D01*
X344475Y246809D01*
X346785Y246190D01*
X349175D01*
X351485Y246809D01*
X353555Y248004D01*
X355246Y249695D01*
X356441Y251765D01*
X357060Y254075D01*
Y256465D01*
X356441Y258775D01*
X355246Y260845D01*
X353555Y262536D01*
X351485Y263731D01*
X349175Y264350D01*
D02*
G37*
G36*
X323775D02*
X321385D01*
X319075Y263731D01*
X317005Y262536D01*
X315314Y260845D01*
X314119Y258775D01*
X313500Y256465D01*
Y254075D01*
X314119Y251765D01*
X315314Y249695D01*
X317005Y248004D01*
X319075Y246809D01*
X321385Y246190D01*
X323775D01*
X326085Y246809D01*
X328155Y248004D01*
X329846Y249695D01*
X331041Y251765D01*
X331660Y254075D01*
Y256465D01*
X331041Y258775D01*
X329846Y260845D01*
X328155Y262536D01*
X326085Y263731D01*
X323775Y264350D01*
D02*
G37*
G36*
X298375D02*
X295985D01*
X293675Y263731D01*
X291605Y262536D01*
X289914Y260845D01*
X288719Y258775D01*
X288100Y256465D01*
Y254075D01*
X288719Y251765D01*
X289914Y249695D01*
X291605Y248004D01*
X293675Y246809D01*
X295985Y246190D01*
X298375D01*
X300685Y246809D01*
X302755Y248004D01*
X304446Y249695D01*
X305641Y251765D01*
X306260Y254075D01*
Y256465D01*
X305641Y258775D01*
X304446Y260845D01*
X302755Y262536D01*
X300685Y263731D01*
X298375Y264350D01*
D02*
G37*
G36*
X272975D02*
X270585D01*
X268275Y263731D01*
X266205Y262536D01*
X264514Y260845D01*
X263319Y258775D01*
X262700Y256465D01*
Y254075D01*
X263319Y251765D01*
X264514Y249695D01*
X266205Y248004D01*
X268275Y246809D01*
X270585Y246190D01*
X272975D01*
X275285Y246809D01*
X277355Y248004D01*
X279046Y249695D01*
X280241Y251765D01*
X280860Y254075D01*
Y256465D01*
X280241Y258775D01*
X279046Y260845D01*
X277355Y262536D01*
X275285Y263731D01*
X272975Y264350D01*
D02*
G37*
G36*
X247575D02*
X245185D01*
X242875Y263731D01*
X240805Y262536D01*
X239114Y260845D01*
X237919Y258775D01*
X237300Y256465D01*
Y254075D01*
X237919Y251765D01*
X239114Y249695D01*
X240805Y248004D01*
X242875Y246809D01*
X245185Y246190D01*
X247575D01*
X249885Y246809D01*
X251955Y248004D01*
X253646Y249695D01*
X254841Y251765D01*
X255460Y254075D01*
Y256465D01*
X254841Y258775D01*
X253646Y260845D01*
X251955Y262536D01*
X249885Y263731D01*
X247575Y264350D01*
D02*
G37*
G36*
X222175D02*
X219785D01*
X217475Y263731D01*
X215405Y262536D01*
X213714Y260845D01*
X212519Y258775D01*
X211900Y256465D01*
Y254075D01*
X212519Y251765D01*
X213714Y249695D01*
X215405Y248004D01*
X217475Y246809D01*
X219785Y246190D01*
X222175D01*
X224485Y246809D01*
X226555Y248004D01*
X228246Y249695D01*
X229441Y251765D01*
X230060Y254075D01*
Y256465D01*
X229441Y258775D01*
X228246Y260845D01*
X226555Y262536D01*
X224485Y263731D01*
X222175Y264350D01*
D02*
G37*
G36*
X196775D02*
X194385D01*
X192075Y263731D01*
X190005Y262536D01*
X188314Y260845D01*
X187119Y258775D01*
X186500Y256465D01*
Y254075D01*
X187119Y251765D01*
X188314Y249695D01*
X190005Y248004D01*
X192075Y246809D01*
X194385Y246190D01*
X196775D01*
X199085Y246809D01*
X201155Y248004D01*
X202846Y249695D01*
X204041Y251765D01*
X204660Y254075D01*
Y256465D01*
X204041Y258775D01*
X202846Y260845D01*
X201155Y262536D01*
X199085Y263731D01*
X196775Y264350D01*
D02*
G37*
G36*
X171375D02*
X168985D01*
X166675Y263731D01*
X164605Y262536D01*
X162914Y260845D01*
X161719Y258775D01*
X161100Y256465D01*
Y254075D01*
X161719Y251765D01*
X162914Y249695D01*
X164605Y248004D01*
X166675Y246809D01*
X168985Y246190D01*
X171375D01*
X173685Y246809D01*
X175755Y248004D01*
X177446Y249695D01*
X178641Y251765D01*
X179260Y254075D01*
Y256465D01*
X178641Y258775D01*
X177446Y260845D01*
X175755Y262536D01*
X173685Y263731D01*
X171375Y264350D01*
D02*
G37*
G36*
X145975D02*
X143585D01*
X141275Y263731D01*
X139205Y262536D01*
X137514Y260845D01*
X136319Y258775D01*
X135700Y256465D01*
Y254075D01*
X136319Y251765D01*
X137514Y249695D01*
X139205Y248004D01*
X141275Y246809D01*
X143585Y246190D01*
X145975D01*
X148285Y246809D01*
X150355Y248004D01*
X152046Y249695D01*
X153241Y251765D01*
X153860Y254075D01*
Y256465D01*
X153241Y258775D01*
X152046Y260845D01*
X150355Y262536D01*
X148285Y263731D01*
X145975Y264350D01*
D02*
G37*
G36*
X120575D02*
X118185D01*
X115875Y263731D01*
X113805Y262536D01*
X112114Y260845D01*
X110919Y258775D01*
X110300Y256465D01*
Y254075D01*
X110919Y251765D01*
X112114Y249695D01*
X113805Y248004D01*
X115875Y246809D01*
X118185Y246190D01*
X120575D01*
X122885Y246809D01*
X124955Y248004D01*
X126646Y249695D01*
X127841Y251765D01*
X128460Y254075D01*
Y256465D01*
X127841Y258775D01*
X126646Y260845D01*
X124955Y262536D01*
X122885Y263731D01*
X120575Y264350D01*
D02*
G37*
G36*
X95175D02*
X92785D01*
X90475Y263731D01*
X88405Y262536D01*
X86714Y260845D01*
X85519Y258775D01*
X84900Y256465D01*
Y254075D01*
X85519Y251765D01*
X86714Y249695D01*
X88405Y248004D01*
X90475Y246809D01*
X92785Y246190D01*
X95175D01*
X97485Y246809D01*
X99555Y248004D01*
X101246Y249695D01*
X102441Y251765D01*
X103060Y254075D01*
Y256465D01*
X102441Y258775D01*
X101246Y260845D01*
X99555Y262536D01*
X97485Y263731D01*
X95175Y264350D01*
D02*
G37*
G36*
X69775D02*
X67385D01*
X65075Y263731D01*
X63005Y262536D01*
X61314Y260845D01*
X60119Y258775D01*
X59500Y256465D01*
Y254075D01*
X60119Y251765D01*
X61314Y249695D01*
X63005Y248004D01*
X65075Y246809D01*
X67385Y246190D01*
X69775D01*
X72085Y246809D01*
X74155Y248004D01*
X75846Y249695D01*
X77041Y251765D01*
X77660Y254075D01*
Y256465D01*
X77041Y258775D01*
X75846Y260845D01*
X74155Y262536D01*
X72085Y263731D01*
X69775Y264350D01*
D02*
G37*
G36*
X44375D02*
X41985D01*
X39675Y263731D01*
X37605Y262536D01*
X35914Y260845D01*
X34719Y258775D01*
X34100Y256465D01*
Y254075D01*
X34719Y251765D01*
X35914Y249695D01*
X37605Y248004D01*
X39675Y246809D01*
X41985Y246190D01*
X44375D01*
X46685Y246809D01*
X48755Y248004D01*
X50446Y249695D01*
X51641Y251765D01*
X52260Y254075D01*
Y256465D01*
X51641Y258775D01*
X50446Y260845D01*
X48755Y262536D01*
X46685Y263731D01*
X44375Y264350D01*
D02*
G37*
G36*
X18975D02*
X16585D01*
X14275Y263731D01*
X12205Y262536D01*
X10514Y260845D01*
X9319Y258775D01*
X8700Y256465D01*
Y254075D01*
X9319Y251765D01*
X10514Y249695D01*
X12205Y248004D01*
X14275Y246809D01*
X16585Y246190D01*
X18975D01*
X21285Y246809D01*
X23355Y248004D01*
X25046Y249695D01*
X26241Y251765D01*
X26860Y254075D01*
Y256465D01*
X26241Y258775D01*
X25046Y260845D01*
X23355Y262536D01*
X21285Y263731D01*
X18975Y264350D01*
D02*
G37*
G36*
X425375D02*
X422985D01*
X420675Y263731D01*
X418605Y262536D01*
X416914Y260845D01*
X415719Y258775D01*
X415100Y256465D01*
Y254075D01*
X415719Y251765D01*
X416914Y249695D01*
X418605Y248004D01*
X420675Y246809D01*
X422985Y246190D01*
X425375D01*
X425445Y246209D01*
X427915Y244241D01*
Y218591D01*
X427094Y218371D01*
X424314Y216766D01*
X422044Y214496D01*
X420439Y211716D01*
X420415Y211626D01*
X417785D01*
X417761Y211716D01*
X416156Y214496D01*
X413886Y216766D01*
X411106Y218371D01*
X410285Y218591D01*
Y247650D01*
X409989Y249137D01*
X409147Y250397D01*
X407355Y252189D01*
X407860Y254075D01*
Y256465D01*
X407241Y258775D01*
X406046Y260845D01*
X404355Y262536D01*
X402285Y263731D01*
X399975Y264350D01*
X397585D01*
X395275Y263731D01*
X393205Y262536D01*
X391514Y260845D01*
X390319Y258775D01*
X389700Y256465D01*
Y254075D01*
X390319Y251765D01*
X391514Y249695D01*
X393205Y248004D01*
X395275Y246809D01*
X397585Y246190D01*
X399975D01*
X400045Y246209D01*
X402515Y244241D01*
Y218591D01*
X401694Y218371D01*
X398914Y216766D01*
X396644Y214496D01*
X395039Y211716D01*
X395015Y211626D01*
X392385D01*
X392361Y211716D01*
X390756Y214496D01*
X388486Y216766D01*
X385706Y218371D01*
X382605Y219202D01*
X379395D01*
X376294Y218371D01*
X373514Y216766D01*
X371244Y214496D01*
X369639Y211716D01*
X368808Y208615D01*
Y205405D01*
X369639Y202304D01*
X371244Y199524D01*
X373514Y197254D01*
X376294Y195649D01*
X379395Y194818D01*
X382605D01*
X385706Y195649D01*
X388486Y197254D01*
X390756Y199524D01*
X392361Y202304D01*
X392385Y202394D01*
X395015D01*
X395039Y202304D01*
X396644Y199524D01*
X398914Y197254D01*
X401694Y195649D01*
X404795Y194818D01*
X408005D01*
X411106Y195649D01*
X413886Y197254D01*
X416156Y199524D01*
X417761Y202304D01*
X417785Y202394D01*
X420415D01*
X420439Y202304D01*
X422044Y199524D01*
X424314Y197254D01*
X427094Y195649D01*
X430195Y194818D01*
X433405D01*
X436506Y195649D01*
X439286Y197254D01*
X441556Y199524D01*
X443161Y202304D01*
X443185Y202394D01*
X445815D01*
X445839Y202304D01*
X447444Y199524D01*
X449714Y197254D01*
X452494Y195649D01*
X455595Y194818D01*
X458805D01*
X461906Y195649D01*
X464686Y197254D01*
X466956Y199524D01*
X468561Y202304D01*
X468585Y202394D01*
X471215D01*
X471239Y202304D01*
X472844Y199524D01*
X475114Y197254D01*
X477894Y195649D01*
X480995Y194818D01*
X484205D01*
X487306Y195649D01*
X490086Y197254D01*
X492356Y199524D01*
X493961Y202304D01*
X493985Y202394D01*
X496615D01*
X496639Y202304D01*
X498244Y199524D01*
X500514Y197254D01*
X503294Y195649D01*
X506395Y194818D01*
X506730D01*
Y207010D01*
Y219202D01*
X506395D01*
X503294Y218371D01*
X500514Y216766D01*
X498244Y214496D01*
X496639Y211716D01*
X496615Y211626D01*
X493985D01*
X493961Y211716D01*
X492356Y214496D01*
X490086Y216766D01*
X487306Y218371D01*
X484205Y219202D01*
X480995D01*
X477894Y218371D01*
X475114Y216766D01*
X472844Y214496D01*
X471239Y211716D01*
X471215Y211626D01*
X468585D01*
X468561Y211716D01*
X466956Y214496D01*
X464686Y216766D01*
X461906Y218371D01*
X458805Y219202D01*
X455595D01*
X452494Y218371D01*
X449714Y216766D01*
X447444Y214496D01*
X445839Y211716D01*
X445815Y211626D01*
X443185D01*
X443161Y211716D01*
X441556Y214496D01*
X439286Y216766D01*
X436506Y218371D01*
X435685Y218591D01*
Y247650D01*
X435389Y249137D01*
X434547Y250397D01*
X432755Y252189D01*
X433260Y254075D01*
Y256465D01*
X432641Y258775D01*
X431446Y260845D01*
X429755Y262536D01*
X427685Y263731D01*
X425375Y264350D01*
D02*
G37*
G36*
X509605Y219202D02*
X509270D01*
Y208280D01*
X520192D01*
Y208615D01*
X519361Y211716D01*
X517756Y214496D01*
X515486Y216766D01*
X512706Y218371D01*
X509605Y219202D01*
D02*
G37*
G36*
X520192Y205740D02*
X509270D01*
Y194818D01*
X509605D01*
X512706Y195649D01*
X515486Y197254D01*
X517756Y199524D01*
X519361Y202304D01*
X520192Y205405D01*
Y205740D01*
D02*
G37*
G36*
X161358Y158750D02*
X158682D01*
X156098Y158058D01*
X153782Y156720D01*
X151890Y154828D01*
X150552Y152512D01*
X149860Y149928D01*
Y147252D01*
X150552Y144668D01*
X151890Y142352D01*
X153782Y140460D01*
X156098Y139122D01*
X158682Y138430D01*
X161358D01*
X163942Y139122D01*
X166258Y140460D01*
X168150Y142352D01*
X169488Y144668D01*
X170180Y147252D01*
Y149928D01*
X169488Y152512D01*
X168150Y154828D01*
X166258Y156720D01*
X163942Y158058D01*
X161358Y158750D01*
D02*
G37*
G36*
Y115570D02*
X161290D01*
Y106680D01*
X170180D01*
Y106748D01*
X169488Y109332D01*
X168150Y111648D01*
X166258Y113540D01*
X163942Y114878D01*
X161358Y115570D01*
D02*
G37*
G36*
X158750D02*
X158682D01*
X156098Y114878D01*
X153782Y113540D01*
X151890Y111648D01*
X150552Y109332D01*
X149860Y106748D01*
Y106680D01*
X158750D01*
Y115570D01*
D02*
G37*
G36*
X170180Y104140D02*
X161290D01*
Y95250D01*
X161358D01*
X163942Y95942D01*
X166258Y97280D01*
X168150Y99172D01*
X169488Y101488D01*
X170180Y104072D01*
Y104140D01*
D02*
G37*
G36*
X158750D02*
X149860D01*
Y104072D01*
X150552Y101488D01*
X151890Y99172D01*
X153782Y97280D01*
X156098Y95942D01*
X158682Y95250D01*
X158750D01*
Y104140D01*
D02*
G37*
G36*
X484205Y41402D02*
X480995D01*
X477894Y40571D01*
X475114Y38966D01*
X472844Y36696D01*
X471239Y33916D01*
X471215Y33826D01*
X468585D01*
X468561Y33916D01*
X466956Y36696D01*
X464686Y38966D01*
X461906Y40571D01*
X458805Y41402D01*
X455595D01*
X452494Y40571D01*
X449714Y38966D01*
X447444Y36696D01*
X445839Y33916D01*
X445815Y33826D01*
X443185D01*
X443161Y33916D01*
X441556Y36696D01*
X439286Y38966D01*
X436506Y40571D01*
X433405Y41402D01*
X430195D01*
X427094Y40571D01*
X424314Y38966D01*
X422044Y36696D01*
X420439Y33916D01*
X420415Y33826D01*
X417785D01*
X417761Y33916D01*
X416156Y36696D01*
X413886Y38966D01*
X411106Y40571D01*
X408005Y41402D01*
X404795D01*
X401694Y40571D01*
X398914Y38966D01*
X396644Y36696D01*
X395039Y33916D01*
X394208Y30815D01*
Y27605D01*
X395039Y24504D01*
X396644Y21724D01*
X398914Y19454D01*
X401694Y17849D01*
X404795Y17018D01*
X408005D01*
X411106Y17849D01*
X413886Y19454D01*
X416156Y21724D01*
X417761Y24504D01*
X417785Y24594D01*
X420415D01*
X420439Y24504D01*
X422044Y21724D01*
X424314Y19454D01*
X427094Y17849D01*
X430195Y17018D01*
X433405D01*
X436506Y17849D01*
X439286Y19454D01*
X441556Y21724D01*
X443161Y24504D01*
X443185Y24594D01*
X445815D01*
X445839Y24504D01*
X447444Y21724D01*
X449714Y19454D01*
X452494Y17849D01*
X455595Y17018D01*
X458805D01*
X461906Y17849D01*
X464686Y19454D01*
X466956Y21724D01*
X468561Y24504D01*
X468585Y24594D01*
X471215D01*
X471239Y24504D01*
X472844Y21724D01*
X475114Y19454D01*
X477894Y17849D01*
X480995Y17018D01*
X484205D01*
X487306Y17849D01*
X490086Y19454D01*
X492356Y21724D01*
X493961Y24504D01*
X494792Y27605D01*
Y30815D01*
X493961Y33916D01*
X492356Y36696D01*
X490086Y38966D01*
X487306Y40571D01*
X484205Y41402D01*
D02*
G37*
%LPD*%
D13*
X129540Y462280D02*
X154940Y436880D01*
X369570D01*
X398780Y407670D01*
X576580D02*
Y530860D01*
X596900Y551180D01*
X551180Y407670D02*
Y530860D01*
X596900Y576580D01*
X398780Y255270D02*
X406400Y247650D01*
Y207010D02*
Y247650D01*
X431800Y207010D02*
Y247650D01*
X424180Y255270D02*
X431800Y247650D01*
D21*
X601980Y407670D02*
D03*
X576580D02*
D03*
X144780Y382270D02*
D03*
Y356870D02*
D03*
Y331470D02*
D03*
Y280670D02*
D03*
X576580D02*
D03*
X144780Y306070D02*
D03*
X246380Y255270D02*
D03*
X551180Y407670D02*
D03*
X525780D02*
D03*
X500380D02*
D03*
X474980D02*
D03*
X449580D02*
D03*
X424180D02*
D03*
X398780D02*
D03*
X373380D02*
D03*
X347980D02*
D03*
X322580D02*
D03*
X297180D02*
D03*
X271780D02*
D03*
X246380D02*
D03*
X271780Y255270D02*
D03*
X297180D02*
D03*
X322580D02*
D03*
X347980D02*
D03*
X373380D02*
D03*
X398780D02*
D03*
X424180D02*
D03*
X449580D02*
D03*
X474980D02*
D03*
X500380D02*
D03*
X525780D02*
D03*
X551180D02*
D03*
X576580D02*
D03*
X601980D02*
D03*
X220980Y407670D02*
D03*
X195580D02*
D03*
X170180D02*
D03*
X144780D02*
D03*
X119380D02*
D03*
X93980D02*
D03*
X68580D02*
D03*
X43180D02*
D03*
X17780D02*
D03*
Y255270D02*
D03*
X43180D02*
D03*
X68580D02*
D03*
X93980D02*
D03*
X119380D02*
D03*
X144780D02*
D03*
X170180D02*
D03*
X195580D02*
D03*
X220980D02*
D03*
D22*
X452280Y279770D02*
D03*
X472280D02*
D03*
X452280Y299770D02*
D03*
Y319770D02*
D03*
X472280Y299770D02*
D03*
Y319770D02*
D03*
D23*
X538480Y377170D02*
D03*
X513080D02*
D03*
X487680D02*
D03*
X462280D02*
D03*
X436880D02*
D03*
D24*
X381000Y207010D02*
D03*
X508000D02*
D03*
X406400D02*
D03*
X482600D02*
D03*
X431800D02*
D03*
X457200D02*
D03*
X406400Y29210D02*
D03*
X482600D02*
D03*
X431800D02*
D03*
X457200D02*
D03*
D25*
X596900Y576580D02*
D03*
Y551180D02*
D03*
Y525780D02*
D03*
Y500380D02*
D03*
Y474980D02*
D03*
Y601980D02*
D03*
Y627380D02*
D03*
Y652780D02*
D03*
Y678180D02*
D03*
X160020Y105410D02*
D03*
Y148590D02*
D03*
D26*
X53340Y462280D02*
D03*
X78740D02*
D03*
X129540D02*
D03*
X154940D02*
D03*
X104140D02*
D03*
D27*
X180340D02*
D03*
M02*
