G04*
G04 #@! TF.GenerationSoftware,Altium Limited,Altium Designer,25.0.2 (28)*
G04*
G04 Layer_Color=8388736*
%FSLAX44Y44*%
%MOMM*%
G71*
G04*
G04 #@! TF.SameCoordinates,1FEDFA3E-EA99-418E-B41A-EB270C04C77C*
G04*
G04*
G04 #@! TF.FilePolarity,Positive*
G04*
G01*
G75*
%ADD13C,0.2540*%
%ADD28C,0.1524*%
D13*
X951230Y716280D02*
X956310Y701040D01*
X946150D02*
X951230Y716280D01*
X946150Y15240D02*
X951230Y0D01*
X956310Y15240D01*
X951230Y436074D02*
Y716280D01*
Y0D02*
Y293370D01*
X638810Y716280D02*
X953770D01*
X638810Y0D02*
X953770D01*
X0Y-229870D02*
X15240Y-224790D01*
X0Y-229870D02*
X15240Y-234950D01*
X621030D02*
X636270Y-229870D01*
X621030Y-224790D02*
X636270Y-229870D01*
X0D02*
X241449D01*
X386693D02*
X636270D01*
X0Y-232410D02*
Y-2540D01*
X636270Y-232410D02*
Y-2540D01*
D28*
X940821Y297434D02*
Y307591D01*
X943360D01*
X953517Y297434D01*
X956056D01*
Y312669D02*
Y317747D01*
Y315208D01*
X940821D01*
X943360Y312669D01*
X956056Y325365D02*
X953517D01*
Y327904D01*
X956056D01*
Y325365D01*
X940821Y348218D02*
X943360Y343139D01*
X948438Y338061D01*
X953517D01*
X956056Y340600D01*
Y345678D01*
X953517Y348218D01*
X950978D01*
X948438Y345678D01*
Y338061D01*
X943360Y353296D02*
X940821Y355835D01*
Y360913D01*
X943360Y363453D01*
X945899D01*
X948438Y360913D01*
Y358374D01*
Y360913D01*
X950978Y363453D01*
X953517D01*
X956056Y360913D01*
Y355835D01*
X953517Y353296D01*
X956056Y388844D02*
X950978Y383766D01*
X945899D01*
X940821Y388844D01*
X956056Y396462D02*
X945899D01*
Y399001D01*
X948438Y401540D01*
X956056D01*
X948438D01*
X945899Y404080D01*
X948438Y406619D01*
X956056D01*
Y411697D02*
X945899D01*
Y414236D01*
X948438Y416775D01*
X956056D01*
X948438D01*
X945899Y419314D01*
X948438Y421854D01*
X956056D01*
Y426932D02*
X950978Y432010D01*
X945899D01*
X940821Y426932D01*
X255670Y-223776D02*
X250592Y-226316D01*
X245513Y-231394D01*
Y-236472D01*
X248052Y-239011D01*
X253131D01*
X255670Y-236472D01*
Y-233933D01*
X253131Y-231394D01*
X245513D01*
X260748Y-226316D02*
X263287Y-223776D01*
X268366D01*
X270905Y-226316D01*
Y-228855D01*
X268366Y-231394D01*
X265827D01*
X268366D01*
X270905Y-233933D01*
Y-236472D01*
X268366Y-239011D01*
X263287D01*
X260748Y-236472D01*
X275983Y-239011D02*
Y-236472D01*
X278522D01*
Y-239011D01*
X275983D01*
X298836Y-223776D02*
X293758Y-226316D01*
X288679Y-231394D01*
Y-236472D01*
X291218Y-239011D01*
X296297D01*
X298836Y-236472D01*
Y-233933D01*
X296297Y-231394D01*
X288679D01*
X303914Y-226316D02*
X306453Y-223776D01*
X311532D01*
X314071Y-226316D01*
Y-228855D01*
X311532Y-231394D01*
X308993D01*
X311532D01*
X314071Y-233933D01*
Y-236472D01*
X311532Y-239011D01*
X306453D01*
X303914Y-236472D01*
X339463Y-239011D02*
X334384Y-233933D01*
Y-228855D01*
X339463Y-223776D01*
X347080Y-239011D02*
Y-228855D01*
X349619D01*
X352159Y-231394D01*
Y-239011D01*
Y-231394D01*
X354698Y-228855D01*
X357237Y-231394D01*
Y-239011D01*
X362315D02*
Y-228855D01*
X364855D01*
X367394Y-231394D01*
Y-239011D01*
Y-231394D01*
X369933Y-228855D01*
X372472Y-231394D01*
Y-239011D01*
X377551D02*
X382629Y-233933D01*
Y-228855D01*
X377551Y-223776D01*
M02*
