M48
;Layer_Color=9474304
;FILE_FORMAT=4:4
METRIC,LZ
;TYPE=PLATED
T01F00S00C0.7000
T02F00S00C0.7500
T03F00S00C0.7620
T04F00S00C0.8000
T05F00S00C1.0000
T06F00S00C1.1000
%
T01
X0045228Y0027977
Y0029977
Y0031977
X0047228
Y0029977
Y0027977
T02
X0043688Y0037717
X0046228
X0048768
X0051308
X0053848
T03
X0016002Y0010541
Y0014859
X005969Y0062738
Y0065278
Y0067818
T04
X0001778Y0025527
X0004318
X0006858
X0009398
X0011938
X0014478
X0017018
X0019558
X0022098
X0024638
X0027178
X0029718
X0032258
X0034798
X0037338
X0039878
Y0040767
X0037338
X0034798
X0032258
X0029718
X0027178
X0024638
X0022098
X0019558
X0017018
X0014478
X0011938
X0009398
X0006858
X0004318
X0001778
X0014478Y0038227
Y0035687
Y0033147
Y0030607
Y0028067
X0042418Y0025527
X0044958
X0047498
X0050038
X0052578
X0055118
X0057658
X0060198
X0057658Y0028067
Y0040767
X0055118
X0052578
X0050038
X0047498
X0044958
X0042418
X0060198
X005969Y0047498
Y0050038
Y0052578
Y0055118
Y0057658
Y0060198
T05
X004318Y0002921
X004572
X004826
X004064
Y0020701
X00381
X004318
X004572
X004826
X00508
T06
X0005334Y0046228
X0007874
X0010414
X0012954
X0015494
X0018034
M30
