G04*
G04 #@! TF.GenerationSoftware,Altium Limited,Altium Designer,25.0.2 (28)*
G04*
G04 Layer_Color=65535*
%FSLAX44Y44*%
%MOMM*%
G71*
G04*
G04 #@! TF.SameCoordinates,1FEDFA3E-EA99-418E-B41A-EB270C04C77C*
G04*
G04*
G04 #@! TF.FilePolarity,Positive*
G04*
G01*
G75*
%ADD10C,0.2000*%
%ADD11C,0.1270*%
%ADD12C,0.2500*%
%ADD13C,0.2540*%
D10*
X552180Y426470D02*
G03*
X552180Y426470I-1000J0D01*
G01*
D02*
G03*
X552180Y426470I-1000J0D01*
G01*
X39140Y475730D02*
X194540D01*
Y448830D02*
Y475730D01*
X39140Y448830D02*
X194540D01*
X39140D02*
Y475730D01*
D11*
X552450Y16510D02*
G03*
X577850Y41910I0J25400D01*
G01*
X311150D02*
G03*
X336550Y16510I25400J0D01*
G01*
Y219710D02*
G03*
X311150Y194310I0J-25400D01*
G01*
X577850D02*
G03*
X552450Y219710I-25400J0D01*
G01*
X614680Y242570D02*
Y291170D01*
Y371770D02*
Y420370D01*
X621680Y291170D02*
Y371770D01*
X614680Y291170D02*
X621680D01*
X614680Y371770D02*
X621680D01*
X5080Y420370D02*
X614680D01*
X5080Y242570D02*
Y420370D01*
Y242570D02*
X614680D01*
X495452Y16510D02*
X552450D01*
X336550D02*
X393548D01*
X520852Y219710D02*
X552450D01*
X336550D02*
X368148D01*
X577850Y41910D02*
Y194310D01*
X311150Y41910D02*
Y194310D01*
D12*
X200290Y462280D02*
G03*
X200290Y462280I-1250J0D01*
G01*
D13*
X138430Y82550D02*
X179070D01*
X138430Y167640D02*
X179070D01*
X138430Y82550D02*
Y167640D01*
X179070Y82550D02*
Y167640D01*
X275220Y449310D02*
X617220D01*
X275220Y702310D02*
X617220D01*
X275220Y449310D02*
Y702310D01*
X617220Y449310D02*
Y702310D01*
X39370Y500883D02*
Y485648D01*
Y493265D01*
X49527D01*
Y500883D01*
Y485648D01*
X64762D02*
X54605D01*
X64762Y495805D01*
Y498344D01*
X62223Y500883D01*
X57144D01*
X54605Y498344D01*
X139700Y191765D02*
Y176530D01*
X147317D01*
X149857Y179069D01*
Y181608D01*
X147317Y184147D01*
X139700D01*
X147317D01*
X149857Y186687D01*
Y189226D01*
X147317Y191765D01*
X139700D01*
X154935Y176530D02*
X160013D01*
X157474D01*
Y191765D01*
X154935Y189226D01*
X275594Y217167D02*
Y204472D01*
X278133Y201933D01*
X283212D01*
X285751Y204472D01*
Y217167D01*
X300986Y201933D02*
X290829D01*
X300986Y212089D01*
Y214628D01*
X298447Y217167D01*
X293368D01*
X290829Y214628D01*
X4826Y451353D02*
Y438657D01*
X7365Y436118D01*
X12443D01*
X14983Y438657D01*
Y451353D01*
X20061Y436118D02*
X25139D01*
X22600D01*
Y451353D01*
X20061Y448814D01*
X276606Y726435D02*
Y711200D01*
Y718818D01*
X286763D01*
Y726435D01*
Y711200D01*
X291841D02*
X296919D01*
X294380D01*
Y726435D01*
X291841Y723896D01*
M02*
