G04*
G04 #@! TF.GenerationSoftware,Altium Limited,Altium Designer,25.0.2 (28)*
G04*
G04 Layer_Color=128*
%FSLAX44Y44*%
%MOMM*%
G71*
G04*
G04 #@! TF.SameCoordinates,1FEDFA3E-EA99-418E-B41A-EB270C04C77C*
G04*
G04*
G04 #@! TF.FilePolarity,Positive*
G04*
G01*
G75*
%ADD11C,0.1270*%
D11*
X216980Y255270D02*
X224980D01*
X220980Y251270D02*
Y259270D01*
X191580Y255270D02*
X199580D01*
X195580Y251270D02*
Y259270D01*
X166180Y255270D02*
X174180D01*
X170180Y251270D02*
Y259270D01*
X140780Y255270D02*
X148780D01*
X144780Y251270D02*
Y259270D01*
X115380Y255270D02*
X123380D01*
X119380Y251270D02*
Y259270D01*
X89980Y255270D02*
X97980D01*
X93980Y251270D02*
Y259270D01*
X64580Y255270D02*
X72580D01*
X68580Y251270D02*
Y259270D01*
X39180Y255270D02*
X47180D01*
X43180Y251270D02*
Y259270D01*
X13780Y255270D02*
X21780D01*
X17780Y251270D02*
Y259270D01*
X13780Y407670D02*
X21780D01*
X17780Y403670D02*
Y411670D01*
X39180Y407670D02*
X47180D01*
X43180Y403670D02*
Y411670D01*
X64580Y407670D02*
X72580D01*
X68580Y403670D02*
Y411670D01*
X89980Y407670D02*
X97980D01*
X93980Y403670D02*
Y411670D01*
X115380Y407670D02*
X123380D01*
X119380Y403670D02*
Y411670D01*
X140780Y407670D02*
X148780D01*
X144780Y403670D02*
Y411670D01*
X166180Y407670D02*
X174180D01*
X170180Y403670D02*
Y411670D01*
X191580Y407670D02*
X199580D01*
X195580Y403670D02*
Y411670D01*
X216980Y407670D02*
X224980D01*
X220980Y403670D02*
Y411670D01*
X597980Y255270D02*
X605980D01*
X601980Y251270D02*
Y259270D01*
X572580Y255270D02*
X580580D01*
X576580Y251270D02*
Y259270D01*
X547180Y255270D02*
X555180D01*
X551180Y251270D02*
Y259270D01*
X521780Y255270D02*
X529780D01*
X525780Y251270D02*
Y259270D01*
X496380Y255270D02*
X504380D01*
X500380Y251270D02*
Y259270D01*
X470980Y255270D02*
X478980D01*
X474980Y251270D02*
Y259270D01*
X445580Y255270D02*
X453580D01*
X449580Y251270D02*
Y259270D01*
X420180Y255270D02*
X428180D01*
X424180Y251270D02*
Y259270D01*
X394780Y255270D02*
X402780D01*
X398780Y251270D02*
Y259270D01*
X369380Y255270D02*
X377380D01*
X373380Y251270D02*
Y259270D01*
X343980Y255270D02*
X351980D01*
X347980Y251270D02*
Y259270D01*
X318580Y255270D02*
X326580D01*
X322580Y251270D02*
Y259270D01*
X293180Y255270D02*
X301180D01*
X297180Y251270D02*
Y259270D01*
X267780Y255270D02*
X275780D01*
X271780Y251270D02*
Y259270D01*
X242380Y407670D02*
X250380D01*
X246380Y403670D02*
Y411670D01*
X267780Y407670D02*
X275780D01*
X271780Y403670D02*
Y411670D01*
X293180Y407670D02*
X301180D01*
X297180Y403670D02*
Y411670D01*
X318580Y407670D02*
X326580D01*
X322580Y403670D02*
Y411670D01*
X343980Y407670D02*
X351980D01*
X347980Y403670D02*
Y411670D01*
X369380Y407670D02*
X377380D01*
X373380Y403670D02*
Y411670D01*
X394780Y407670D02*
X402780D01*
X398780Y403670D02*
Y411670D01*
X420180Y407670D02*
X428180D01*
X424180Y403670D02*
Y411670D01*
X445580Y407670D02*
X453580D01*
X449580Y403670D02*
Y411670D01*
X470980Y407670D02*
X478980D01*
X474980Y403670D02*
Y411670D01*
X496380Y407670D02*
X504380D01*
X500380Y403670D02*
Y411670D01*
X521780Y407670D02*
X529780D01*
X525780Y403670D02*
Y411670D01*
X547180Y407670D02*
X555180D01*
X551180Y403670D02*
Y411670D01*
X433130Y377170D02*
X440630D01*
X436880Y373420D02*
Y380920D01*
X458530Y377170D02*
X466030D01*
X462280Y373420D02*
Y380920D01*
X483930Y377170D02*
X491430D01*
X487680Y373420D02*
Y380920D01*
X509330Y377170D02*
X516830D01*
X513080Y373420D02*
Y380920D01*
X534730Y377170D02*
X542230D01*
X538480Y373420D02*
Y380920D01*
X468780Y319770D02*
X475780D01*
X472280Y316270D02*
Y323270D01*
X468780Y299770D02*
X475780D01*
X472280Y296270D02*
Y303270D01*
X448780Y319770D02*
X455780D01*
X452280Y316270D02*
Y323270D01*
X448780Y299770D02*
X455780D01*
X452280Y296270D02*
Y303270D01*
X468780Y279770D02*
X475780D01*
X472280Y276270D02*
Y283270D01*
X448780Y279770D02*
X455780D01*
X452280Y276270D02*
Y283270D01*
X242380Y255270D02*
X250380D01*
X246380Y251270D02*
Y259270D01*
X140780Y306070D02*
X148780D01*
X144780Y302070D02*
Y310070D01*
X572580Y280670D02*
X580580D01*
X576580Y276670D02*
Y284670D01*
X140780Y280670D02*
X148780D01*
X144780Y276670D02*
Y284670D01*
X140780Y331470D02*
X148780D01*
X144780Y327470D02*
Y335470D01*
X140780Y356870D02*
X148780D01*
X144780Y352870D02*
Y360870D01*
X140780Y382270D02*
X148780D01*
X144780Y378270D02*
Y386270D01*
X572580Y407670D02*
X580580D01*
X576580Y403670D02*
Y411670D01*
X597980Y407670D02*
X605980D01*
X601980Y403670D02*
Y411670D01*
X156210Y148590D02*
X163830D01*
X160020Y144780D02*
Y152400D01*
X156210Y105410D02*
X163830D01*
X160020Y101600D02*
Y109220D01*
X452200Y29210D02*
X462200D01*
X457200Y24210D02*
Y34210D01*
X426800Y29210D02*
X436800D01*
X431800Y24210D02*
Y34210D01*
X477600Y29210D02*
X487600D01*
X482600Y24210D02*
Y34210D01*
X401400Y29210D02*
X411400D01*
X406400Y24210D02*
Y34210D01*
X452200Y207010D02*
X462200D01*
X457200Y202010D02*
Y212010D01*
X426800Y207010D02*
X436800D01*
X431800Y202010D02*
Y212010D01*
X477600Y207010D02*
X487600D01*
X482600Y202010D02*
Y212010D01*
X401400Y207010D02*
X411400D01*
X406400Y202010D02*
Y212010D01*
X503000Y207010D02*
X513000D01*
X508000Y202010D02*
Y212010D01*
X376000Y207010D02*
X386000D01*
X381000Y202010D02*
Y212010D01*
X98640Y462280D02*
X109640D01*
X104140Y456780D02*
Y467780D01*
X149440Y462280D02*
X160440D01*
X154940Y456780D02*
Y467780D01*
X174840Y462280D02*
X185840D01*
X180340Y456780D02*
Y467780D01*
X124040Y462280D02*
X135040D01*
X129540Y456780D02*
Y467780D01*
X73240Y462280D02*
X84240D01*
X78740Y456780D02*
Y467780D01*
X47840Y462280D02*
X58840D01*
X53340Y456780D02*
Y467780D01*
X593090Y678180D02*
X600710D01*
X596900Y674370D02*
Y681990D01*
X593090Y652780D02*
X600710D01*
X596900Y648970D02*
Y656590D01*
X593090Y627380D02*
X600710D01*
X596900Y623570D02*
Y631190D01*
X592900Y601980D02*
X600900D01*
X596900Y597980D02*
Y605980D01*
X592900Y474980D02*
X600900D01*
X596900Y470980D02*
Y478980D01*
X592900Y500380D02*
X600900D01*
X596900Y496380D02*
Y504380D01*
X592900Y525780D02*
X600900D01*
X596900Y521780D02*
Y529780D01*
X592900Y551180D02*
X600900D01*
X596900Y547180D02*
Y555180D01*
X592900Y576580D02*
X600900D01*
X596900Y572580D02*
Y580580D01*
M02*
