G04*
G04 #@! TF.GenerationSoftware,Altium Limited,Altium Designer,25.0.2 (28)*
G04*
G04 Layer_Color=2752767*
%FSLAX44Y44*%
%MOMM*%
G71*
G04*
G04 #@! TF.SameCoordinates,1FEDFA3E-EA99-418E-B41A-EB270C04C77C*
G04*
G04*
G04 #@! TF.FilePolarity,Positive*
G04*
G01*
G75*
%ADD11C,0.1270*%
%ADD13C,0.2540*%
%ADD29C,0.3810*%
%ADD31C,0.4064*%
D11*
X603250Y576580D02*
G03*
X603250Y576580I-6350J0D01*
G01*
Y551180D02*
G03*
X603250Y551180I-6350J0D01*
G01*
Y525780D02*
G03*
X603250Y525780I-6350J0D01*
G01*
Y500380D02*
G03*
X603250Y500380I-6350J0D01*
G01*
Y474980D02*
G03*
X603250Y474980I-6350J0D01*
G01*
Y601980D02*
G03*
X603250Y601980I-6350J0D01*
G01*
X608330Y407670D02*
G03*
X608330Y407670I-6350J0D01*
G01*
X582930D02*
G03*
X582930Y407670I-6350J0D01*
G01*
X151130Y382270D02*
G03*
X151130Y382270I-6350J0D01*
G01*
Y356870D02*
G03*
X151130Y356870I-6350J0D01*
G01*
Y331470D02*
G03*
X151130Y331470I-6350J0D01*
G01*
Y280670D02*
G03*
X151130Y280670I-6350J0D01*
G01*
X582930D02*
G03*
X582930Y280670I-6350J0D01*
G01*
X151130Y306070D02*
G03*
X151130Y306070I-6350J0D01*
G01*
X252730Y255270D02*
G03*
X252730Y255270I-6350J0D01*
G01*
X557530Y407670D02*
G03*
X557530Y407670I-6350J0D01*
G01*
X532130D02*
G03*
X532130Y407670I-6350J0D01*
G01*
X506730D02*
G03*
X506730Y407670I-6350J0D01*
G01*
X481330D02*
G03*
X481330Y407670I-6350J0D01*
G01*
X455930D02*
G03*
X455930Y407670I-6350J0D01*
G01*
X430530D02*
G03*
X430530Y407670I-6350J0D01*
G01*
X405130D02*
G03*
X405130Y407670I-6350J0D01*
G01*
X379730D02*
G03*
X379730Y407670I-6350J0D01*
G01*
X354330D02*
G03*
X354330Y407670I-6350J0D01*
G01*
X328930D02*
G03*
X328930Y407670I-6350J0D01*
G01*
X303530D02*
G03*
X303530Y407670I-6350J0D01*
G01*
X278130D02*
G03*
X278130Y407670I-6350J0D01*
G01*
X252730D02*
G03*
X252730Y407670I-6350J0D01*
G01*
X278130Y255270D02*
G03*
X278130Y255270I-6350J0D01*
G01*
X303530D02*
G03*
X303530Y255270I-6350J0D01*
G01*
X328930D02*
G03*
X328930Y255270I-6350J0D01*
G01*
X354330D02*
G03*
X354330Y255270I-6350J0D01*
G01*
X379730D02*
G03*
X379730Y255270I-6350J0D01*
G01*
X405130D02*
G03*
X405130Y255270I-6350J0D01*
G01*
X430530D02*
G03*
X430530Y255270I-6350J0D01*
G01*
X455930D02*
G03*
X455930Y255270I-6350J0D01*
G01*
X481330D02*
G03*
X481330Y255270I-6350J0D01*
G01*
X506730D02*
G03*
X506730Y255270I-6350J0D01*
G01*
X532130D02*
G03*
X532130Y255270I-6350J0D01*
G01*
X557530D02*
G03*
X557530Y255270I-6350J0D01*
G01*
X582930D02*
G03*
X582930Y255270I-6350J0D01*
G01*
X608330D02*
G03*
X608330Y255270I-6350J0D01*
G01*
X227330Y407670D02*
G03*
X227330Y407670I-6350J0D01*
G01*
X201930D02*
G03*
X201930Y407670I-6350J0D01*
G01*
X176530D02*
G03*
X176530Y407670I-6350J0D01*
G01*
X151130D02*
G03*
X151130Y407670I-6350J0D01*
G01*
X125730D02*
G03*
X125730Y407670I-6350J0D01*
G01*
X100330D02*
G03*
X100330Y407670I-6350J0D01*
G01*
X74930D02*
G03*
X74930Y407670I-6350J0D01*
G01*
X49530D02*
G03*
X49530Y407670I-6350J0D01*
G01*
X24130D02*
G03*
X24130Y407670I-6350J0D01*
G01*
Y255270D02*
G03*
X24130Y255270I-6350J0D01*
G01*
X49530D02*
G03*
X49530Y255270I-6350J0D01*
G01*
X74930D02*
G03*
X74930Y255270I-6350J0D01*
G01*
X100330D02*
G03*
X100330Y255270I-6350J0D01*
G01*
X125730D02*
G03*
X125730Y255270I-6350J0D01*
G01*
X151130D02*
G03*
X151130Y255270I-6350J0D01*
G01*
X176530D02*
G03*
X176530Y255270I-6350J0D01*
G01*
X201930D02*
G03*
X201930Y255270I-6350J0D01*
G01*
X227330D02*
G03*
X227330Y255270I-6350J0D01*
G01*
X590550Y621030D02*
X603250D01*
Y633730D01*
X590550D02*
X603250D01*
X590550Y621030D02*
Y633730D01*
Y646430D02*
X603250D01*
Y659130D01*
X590550D02*
X603250D01*
X590550Y646430D02*
Y659130D01*
Y671830D02*
X603250D01*
Y684530D01*
X590550D02*
X603250D01*
X590550Y671830D02*
Y684530D01*
X46990Y455930D02*
Y459105D01*
X50165Y462280D01*
X46990Y465455D02*
X50165Y462280D01*
X46990Y465455D02*
Y468630D01*
X50165D01*
X53340Y465455D01*
X56515Y468630D01*
X59690D01*
Y465455D02*
Y468630D01*
X56515Y462280D02*
X59690Y465455D01*
X56515Y462280D02*
X59690Y459105D01*
Y455930D02*
Y459105D01*
X56515Y455930D02*
X59690D01*
X53340Y459105D02*
X56515Y455930D01*
X50165D02*
X53340Y459105D01*
X46990Y455930D02*
X50165D01*
X72390D02*
Y459105D01*
X75565Y462280D01*
X72390Y465455D02*
X75565Y462280D01*
X72390Y465455D02*
Y468630D01*
X75565D01*
X78740Y465455D01*
X81915Y468630D01*
X85090D01*
Y465455D02*
Y468630D01*
X81915Y462280D02*
X85090Y465455D01*
X81915Y462280D02*
X85090Y459105D01*
Y455930D02*
Y459105D01*
X81915Y455930D02*
X85090D01*
X78740Y459105D02*
X81915Y455930D01*
X75565D02*
X78740Y459105D01*
X72390Y455930D02*
X75565D01*
X123190D02*
Y459105D01*
X126365Y462280D01*
X123190Y465455D02*
X126365Y462280D01*
X123190Y465455D02*
Y468630D01*
X126365D01*
X129540Y465455D01*
X132715Y468630D01*
X135890D01*
Y465455D02*
Y468630D01*
X132715Y462280D02*
X135890Y465455D01*
X132715Y462280D02*
X135890Y459105D01*
Y455930D02*
Y459105D01*
X132715Y455930D02*
X135890D01*
X129540Y459105D02*
X132715Y455930D01*
X126365D02*
X129540Y459105D01*
X123190Y455930D02*
X126365D01*
X173990D02*
Y459105D01*
X177165Y462280D01*
X173990Y465455D02*
X177165Y462280D01*
X173990Y465455D02*
Y468630D01*
X177165D01*
X180340Y465455D01*
X183515Y468630D01*
X186690D01*
Y465455D02*
Y468630D01*
X183515Y462280D02*
X186690Y465455D01*
X183515Y462280D02*
X186690Y459105D01*
Y455930D02*
Y459105D01*
X183515Y455930D02*
X186690D01*
X180340Y459105D02*
X183515Y455930D01*
X177165D02*
X180340Y459105D01*
X173990Y455930D02*
X177165D01*
X148590D02*
Y459105D01*
X151765Y462280D01*
X148590Y465455D02*
X151765Y462280D01*
X148590Y465455D02*
Y468630D01*
X151765D01*
X154940Y465455D01*
X158115Y468630D01*
X161290D01*
Y465455D02*
Y468630D01*
X158115Y462280D02*
X161290Y465455D01*
X158115Y462280D02*
X161290Y459105D01*
Y455930D02*
Y459105D01*
X158115Y455930D02*
X161290D01*
X154940Y459105D02*
X158115Y455930D01*
X151765D02*
X154940Y459105D01*
X148590Y455930D02*
X151765D01*
X97790D02*
Y459105D01*
X100965Y462280D01*
X97790Y465455D02*
X100965Y462280D01*
X97790Y465455D02*
Y468630D01*
X100965D01*
X104140Y465455D01*
X107315Y468630D01*
X110490D01*
Y465455D02*
Y468630D01*
X107315Y462280D02*
X110490Y465455D01*
X107315Y462280D02*
X110490Y459105D01*
Y455930D02*
Y459105D01*
X107315Y455930D02*
X110490D01*
X104140Y459105D02*
X107315Y455930D01*
X100965D02*
X104140Y459105D01*
X97790Y455930D02*
X100965D01*
X374650Y200660D02*
X381000Y203835D01*
X387350Y200660D01*
X384175Y207010D02*
X387350Y200660D01*
X384175Y207010D02*
X387350Y213360D01*
X381000Y210185D02*
X387350Y213360D01*
X374650D02*
X381000Y210185D01*
X374650Y213360D02*
X377825Y207010D01*
X374650Y200660D02*
X377825Y207010D01*
X501650Y200660D02*
X508000Y203835D01*
X514350Y200660D01*
X511175Y207010D02*
X514350Y200660D01*
X511175Y207010D02*
X514350Y213360D01*
X508000Y210185D02*
X514350Y213360D01*
X501650D02*
X508000Y210185D01*
X501650Y213360D02*
X504825Y207010D01*
X501650Y200660D02*
X504825Y207010D01*
X400050Y200660D02*
X406400Y203835D01*
X412750Y200660D01*
X409575Y207010D02*
X412750Y200660D01*
X409575Y207010D02*
X412750Y213360D01*
X406400Y210185D02*
X412750Y213360D01*
X400050D02*
X406400Y210185D01*
X400050Y213360D02*
X403225Y207010D01*
X400050Y200660D02*
X403225Y207010D01*
X476250Y200660D02*
X482600Y203835D01*
X488950Y200660D01*
X485775Y207010D02*
X488950Y200660D01*
X485775Y207010D02*
X488950Y213360D01*
X482600Y210185D02*
X488950Y213360D01*
X476250D02*
X482600Y210185D01*
X476250Y213360D02*
X479425Y207010D01*
X476250Y200660D02*
X479425Y207010D01*
X425450Y200660D02*
X431800Y203835D01*
X438150Y200660D01*
X434975Y207010D02*
X438150Y200660D01*
X434975Y207010D02*
X438150Y213360D01*
X431800Y210185D02*
X438150Y213360D01*
X425450D02*
X431800Y210185D01*
X425450Y213360D02*
X428625Y207010D01*
X425450Y200660D02*
X428625Y207010D01*
X450850Y200660D02*
X457200Y203835D01*
X463550Y200660D01*
X460375Y207010D02*
X463550Y200660D01*
X460375Y207010D02*
X463550Y213360D01*
X457200Y210185D02*
X463550Y213360D01*
X450850D02*
X457200Y210185D01*
X450850Y213360D02*
X454025Y207010D01*
X450850Y200660D02*
X454025Y207010D01*
X400050Y22860D02*
X406400Y26035D01*
X412750Y22860D01*
X409575Y29210D02*
X412750Y22860D01*
X409575Y29210D02*
X412750Y35560D01*
X406400Y32385D02*
X412750Y35560D01*
X400050D02*
X406400Y32385D01*
X400050Y35560D02*
X403225Y29210D01*
X400050Y22860D02*
X403225Y29210D01*
X476250Y22860D02*
X482600Y26035D01*
X488950Y22860D01*
X485775Y29210D02*
X488950Y22860D01*
X485775Y29210D02*
X488950Y35560D01*
X482600Y32385D02*
X488950Y35560D01*
X476250D02*
X482600Y32385D01*
X476250Y35560D02*
X479425Y29210D01*
X476250Y22860D02*
X479425Y29210D01*
X425450Y22860D02*
X431800Y26035D01*
X438150Y22860D01*
X434975Y29210D02*
X438150Y22860D01*
X434975Y29210D02*
X438150Y35560D01*
X431800Y32385D02*
X438150Y35560D01*
X425450D02*
X431800Y32385D01*
X425450Y35560D02*
X428625Y29210D01*
X425450Y22860D02*
X428625Y29210D01*
X450850Y22860D02*
X457200Y26035D01*
X463550Y22860D01*
X460375Y29210D02*
X463550Y22860D01*
X460375Y29210D02*
X463550Y35560D01*
X457200Y32385D02*
X463550Y35560D01*
X450850D02*
X457200Y32385D01*
X450850Y35560D02*
X454025Y29210D01*
X450850Y22860D02*
X454025Y29210D01*
X153670Y99060D02*
X166370D01*
Y111760D01*
X153670D02*
X166370D01*
X153670Y99060D02*
Y111760D01*
Y142240D02*
X166370D01*
Y154940D01*
X153670D02*
X166370D01*
X153670Y142240D02*
Y154940D01*
X452280Y273420D02*
X458630Y286120D01*
X445930D02*
X458630D01*
X445930D02*
X452280Y273420D01*
X472280D02*
X478630Y286120D01*
X465930D02*
X478630D01*
X465930D02*
X472280Y273420D01*
X452280Y293420D02*
X458630Y306120D01*
X445930D02*
X458630D01*
X445930D02*
X452280Y293420D01*
Y313420D02*
X458630Y326120D01*
X445930D02*
X458630D01*
X445930D02*
X452280Y313420D01*
X472280Y293420D02*
X478630Y306120D01*
X465930D02*
X478630D01*
X465930D02*
X472280Y293420D01*
Y313420D02*
X478630Y326120D01*
X465930D02*
X478630D01*
X465930D02*
X472280Y313420D01*
X535305Y373995D02*
X538480Y370820D01*
X532130Y373995D02*
X535305D01*
X532130D02*
X535305Y377170D01*
X532130Y380345D02*
X535305Y377170D01*
X532130Y380345D02*
X535305D01*
X538480Y383520D01*
X541655Y380345D01*
X544830D01*
X541655Y377170D02*
X544830Y380345D01*
X541655Y377170D02*
X544830Y373995D01*
X541655D02*
X544830D01*
X538480Y370820D02*
X541655Y373995D01*
X509905D02*
X513080Y370820D01*
X506730Y373995D02*
X509905D01*
X506730D02*
X509905Y377170D01*
X506730Y380345D02*
X509905Y377170D01*
X506730Y380345D02*
X509905D01*
X513080Y383520D01*
X516255Y380345D01*
X519430D01*
X516255Y377170D02*
X519430Y380345D01*
X516255Y377170D02*
X519430Y373995D01*
X516255D02*
X519430D01*
X513080Y370820D02*
X516255Y373995D01*
X484505D02*
X487680Y370820D01*
X481330Y373995D02*
X484505D01*
X481330D02*
X484505Y377170D01*
X481330Y380345D02*
X484505Y377170D01*
X481330Y380345D02*
X484505D01*
X487680Y383520D01*
X490855Y380345D01*
X494030D01*
X490855Y377170D02*
X494030Y380345D01*
X490855Y377170D02*
X494030Y373995D01*
X490855D02*
X494030D01*
X487680Y370820D02*
X490855Y373995D01*
X459105D02*
X462280Y370820D01*
X455930Y373995D02*
X459105D01*
X455930D02*
X459105Y377170D01*
X455930Y380345D02*
X459105Y377170D01*
X455930Y380345D02*
X459105D01*
X462280Y383520D01*
X465455Y380345D01*
X468630D01*
X465455Y377170D02*
X468630Y380345D01*
X465455Y377170D02*
X468630Y373995D01*
X465455D02*
X468630D01*
X462280Y370820D02*
X465455Y373995D01*
X433705D02*
X436880Y370820D01*
X430530Y373995D02*
X433705D01*
X430530D02*
X433705Y377170D01*
X430530Y380345D02*
X433705Y377170D01*
X430530Y380345D02*
X433705D01*
X436880Y383520D01*
X440055Y380345D01*
X443230D01*
X440055Y377170D02*
X443230Y380345D01*
X440055Y377170D02*
X443230Y373995D01*
X440055D02*
X443230D01*
X436880Y370820D02*
X440055Y373995D01*
D13*
X1039008Y202777D02*
G03*
X1039008Y202777I-8467J0D01*
G01*
X1026308Y389043D02*
X1030541Y384810D01*
X1022075Y389043D02*
X1026308D01*
X1022075D02*
X1026308Y393277D01*
X1022075Y397510D02*
X1026308Y393277D01*
X1022075Y397510D02*
X1026308D01*
X1030541Y401743D01*
X1034775Y397510D01*
X1039008D01*
X1034775Y393277D02*
X1039008Y397510D01*
X1034775Y393277D02*
X1039008Y389043D01*
X1034775D02*
X1039008D01*
X1030541Y384810D02*
X1034775Y389043D01*
X1022075Y346710D02*
X1039008D01*
Y363643D01*
X1022075D02*
X1039008D01*
X1022075Y346710D02*
Y363643D01*
X1030541Y308610D02*
X1039008Y325543D01*
X1022075D02*
X1039008D01*
X1022075D02*
X1030541Y308610D01*
X1022075Y270510D02*
Y274743D01*
X1026308Y278977D01*
X1022075Y283210D02*
X1026308Y278977D01*
X1022075Y283210D02*
Y287443D01*
X1026308D01*
X1030541Y283210D01*
X1034775Y287443D01*
X1039008D01*
Y283210D02*
Y287443D01*
X1034775Y278977D02*
X1039008Y283210D01*
X1034775Y278977D02*
X1039008Y274743D01*
Y270510D02*
Y274743D01*
X1034775Y270510D02*
X1039008D01*
X1030541Y274743D02*
X1034775Y270510D01*
X1026308D02*
X1030541Y274743D01*
X1022075Y270510D02*
X1026308D01*
X1022075Y232410D02*
X1030541Y236643D01*
X1039008Y232410D01*
X1034775Y240877D02*
X1039008Y232410D01*
X1034775Y240877D02*
X1039008Y249343D01*
X1030541Y245110D02*
X1039008Y249343D01*
X1022075D02*
X1030541Y245110D01*
X1022075Y249343D02*
X1026308Y240877D01*
X1022075Y232410D02*
X1026308Y240877D01*
X2619858Y394967D02*
X2612241D01*
X2609702Y392427D01*
Y387349D01*
X2612241Y384810D01*
X2619858D01*
X2624937D02*
X2630015D01*
X2627476D01*
Y400045D01*
X2624937Y397506D01*
X2647789Y384810D02*
X2637632D01*
X2647789Y394967D01*
Y397506D01*
X2645250Y400045D01*
X2640172D01*
X2637632Y397506D01*
X2663024Y400045D02*
X2657946Y397506D01*
X2652868Y392427D01*
Y387349D01*
X2655407Y384810D01*
X2660485D01*
X2663024Y387349D01*
Y389888D01*
X2660485Y392427D01*
X2652868D01*
X2668103Y400045D02*
Y384810D01*
Y392427D01*
X2670642Y394967D01*
X2675720D01*
X2678259Y392427D01*
Y384810D01*
X2683338Y400045D02*
X2693495D01*
Y397506D01*
X2683338Y387349D01*
Y384810D01*
X2708730Y400045D02*
X2698573D01*
Y392427D01*
X2703651Y394967D01*
X2706190D01*
X2708730Y392427D01*
Y387349D01*
X2706190Y384810D01*
X2701112D01*
X2698573Y387349D01*
X2619858Y356867D02*
X2612241D01*
X2609702Y354328D01*
Y349249D01*
X2612241Y346710D01*
X2619858D01*
X2624937D02*
X2630015D01*
X2627476D01*
Y361945D01*
X2624937Y359406D01*
X2647789Y361945D02*
X2637632D01*
Y354328D01*
X2642711Y356867D01*
X2645250D01*
X2647789Y354328D01*
Y349249D01*
X2645250Y346710D01*
X2640172D01*
X2637632Y349249D01*
X2663024Y346710D02*
X2652868D01*
X2663024Y356867D01*
Y359406D01*
X2660485Y361945D01*
X2655407D01*
X2652868Y359406D01*
X2668103Y361945D02*
Y346710D01*
Y354328D01*
X2670642Y356867D01*
X2675720D01*
X2678259Y354328D01*
Y346710D01*
X2683338Y361945D02*
X2693495D01*
Y359406D01*
X2683338Y349249D01*
Y346710D01*
X2708730Y361945D02*
X2703651Y359406D01*
X2698573Y354328D01*
Y349249D01*
X2701112Y346710D01*
X2706190D01*
X2708730Y349249D01*
Y351788D01*
X2706190Y354328D01*
X2698573D01*
X2619858Y318767D02*
X2612241D01*
X2609702Y316227D01*
Y311149D01*
X2612241Y308610D01*
X2619858D01*
X2624937D02*
X2630015D01*
X2627476D01*
Y323845D01*
X2624937Y321306D01*
X2647789Y308610D02*
X2637632D01*
X2647789Y318767D01*
Y321306D01*
X2645250Y323845D01*
X2640172D01*
X2637632Y321306D01*
X2652868Y308610D02*
X2657946D01*
X2655407D01*
Y323845D01*
X2652868Y321306D01*
X2665563Y323845D02*
Y308610D01*
Y316227D01*
X2668103Y318767D01*
X2673181D01*
X2675720Y316227D01*
Y308610D01*
X2680799Y323845D02*
X2690955D01*
Y321306D01*
X2680799Y311149D01*
Y308610D01*
X2696034Y321306D02*
X2698573Y323845D01*
X2703651D01*
X2706190Y321306D01*
Y311149D01*
X2703651Y308610D01*
X2698573D01*
X2696034Y311149D01*
Y321306D01*
X2614780Y270510D02*
X2609702Y275588D01*
Y280667D01*
X2614780Y285745D01*
X2622397Y270510D02*
Y285745D01*
X2627476Y280667D01*
X2632554Y285745D01*
Y270510D01*
X2637632D02*
X2642711D01*
X2640172D01*
Y280667D01*
X2637632D01*
X2650328D02*
X2660485Y270510D01*
X2655407Y275588D01*
X2660485Y280667D01*
X2650328Y270510D01*
X2673181D02*
X2668103D01*
X2665563Y273049D01*
Y278127D01*
X2668103Y280667D01*
X2673181D01*
X2675720Y278127D01*
Y275588D01*
X2665563D01*
X2690955Y285745D02*
Y270510D01*
X2683338D01*
X2680799Y273049D01*
Y278127D01*
X2683338Y280667D01*
X2690955D01*
X2696034Y270510D02*
X2701112Y275588D01*
Y280667D01*
X2696034Y285745D01*
X2619858Y242567D02*
X2612241D01*
X2609702Y240028D01*
Y234949D01*
X2612241Y232410D01*
X2619858D01*
X2624937D02*
X2630015D01*
X2627476D01*
Y247645D01*
X2624937Y245106D01*
X2637632Y234949D02*
X2640172Y232410D01*
X2645250D01*
X2647789Y234949D01*
Y245106D01*
X2645250Y247645D01*
X2640172D01*
X2637632Y245106D01*
Y242567D01*
X2640172Y240028D01*
X2647789D01*
X2652868Y245106D02*
X2655407Y247645D01*
X2660485D01*
X2663024Y245106D01*
Y242567D01*
X2660485Y240028D01*
X2657946D01*
X2660485D01*
X2663024Y237488D01*
Y234949D01*
X2660485Y232410D01*
X2655407D01*
X2652868Y234949D01*
X2668103Y247645D02*
Y232410D01*
Y240028D01*
X2670642Y242567D01*
X2675720D01*
X2678259Y240028D01*
Y232410D01*
X2683338D02*
X2688416D01*
X2685877D01*
Y247645D01*
X2683338Y245106D01*
X2696034D02*
X2698573Y247645D01*
X2703651D01*
X2706190Y245106D01*
Y234949D01*
X2703651Y232410D01*
X2698573D01*
X2696034Y234949D01*
Y245106D01*
X2711269D02*
X2713808Y247645D01*
X2718886D01*
X2721425Y245106D01*
Y234949D01*
X2718886Y232410D01*
X2713808D01*
X2711269Y234949D01*
Y245106D01*
X2614780Y194310D02*
X2609702Y199388D01*
Y204467D01*
X2614780Y209545D01*
X2622397Y194310D02*
Y209545D01*
X2627476Y204467D01*
X2632554Y209545D01*
Y194310D01*
X2637632D02*
X2642711D01*
X2640172D01*
Y204467D01*
X2637632D01*
X2650328D02*
X2660485Y194310D01*
X2655407Y199388D01*
X2660485Y204467D01*
X2650328Y194310D01*
X2673181D02*
X2668103D01*
X2665563Y196849D01*
Y201928D01*
X2668103Y204467D01*
X2673181D01*
X2675720Y201928D01*
Y199388D01*
X2665563D01*
X2690955Y209545D02*
Y194310D01*
X2683338D01*
X2680799Y196849D01*
Y201928D01*
X2683338Y204467D01*
X2690955D01*
X2696034Y194310D02*
X2701112Y199388D01*
Y204467D01*
X2696034Y209545D01*
X2420269Y384810D02*
Y400045D01*
X2427886D01*
X2430426Y397506D01*
Y392427D01*
X2427886Y389888D01*
X2420269D01*
X2425347D02*
X2430426Y384810D01*
X2438043D02*
X2443121D01*
X2445661Y387349D01*
Y392427D01*
X2443121Y394967D01*
X2438043D01*
X2435504Y392427D01*
Y387349D01*
X2438043Y384810D01*
X2450739Y394967D02*
Y387349D01*
X2453278Y384810D01*
X2460896D01*
Y394967D01*
X2465974Y384810D02*
Y394967D01*
X2473592D01*
X2476131Y392427D01*
Y384810D01*
X2491366Y400045D02*
Y384810D01*
X2483748D01*
X2481209Y387349D01*
Y392427D01*
X2483748Y394967D01*
X2491366D01*
X2504062Y384810D02*
X2498983D01*
X2496444Y387349D01*
Y392427D01*
X2498983Y394967D01*
X2504062D01*
X2506601Y392427D01*
Y389888D01*
X2496444D01*
X2521836Y400045D02*
Y384810D01*
X2514218D01*
X2511679Y387349D01*
Y392427D01*
X2514218Y394967D01*
X2521836D01*
X2420269Y346710D02*
Y361945D01*
X2427886D01*
X2430426Y359406D01*
Y354328D01*
X2427886Y351788D01*
X2420269D01*
X2425347D02*
X2430426Y346710D01*
X2438043D02*
X2443121D01*
X2445661Y349249D01*
Y354328D01*
X2443121Y356867D01*
X2438043D01*
X2435504Y354328D01*
Y349249D01*
X2438043Y346710D01*
X2450739Y356867D02*
Y349249D01*
X2453278Y346710D01*
X2460896D01*
Y356867D01*
X2465974Y346710D02*
Y356867D01*
X2473592D01*
X2476131Y354328D01*
Y346710D01*
X2491366Y361945D02*
Y346710D01*
X2483748D01*
X2481209Y349249D01*
Y354328D01*
X2483748Y356867D01*
X2491366D01*
X2504062Y346710D02*
X2498983D01*
X2496444Y349249D01*
Y354328D01*
X2498983Y356867D01*
X2504062D01*
X2506601Y354328D01*
Y351788D01*
X2496444D01*
X2521836Y361945D02*
Y346710D01*
X2514218D01*
X2511679Y349249D01*
Y354328D01*
X2514218Y356867D01*
X2521836D01*
X2420269Y308610D02*
Y323845D01*
X2427886D01*
X2430426Y321306D01*
Y316227D01*
X2427886Y313688D01*
X2420269D01*
X2425347D02*
X2430426Y308610D01*
X2438043D02*
X2443121D01*
X2445661Y311149D01*
Y316227D01*
X2443121Y318767D01*
X2438043D01*
X2435504Y316227D01*
Y311149D01*
X2438043Y308610D01*
X2450739Y318767D02*
Y311149D01*
X2453278Y308610D01*
X2460896D01*
Y318767D01*
X2465974Y308610D02*
Y318767D01*
X2473592D01*
X2476131Y316227D01*
Y308610D01*
X2491366Y323845D02*
Y308610D01*
X2483748D01*
X2481209Y311149D01*
Y316227D01*
X2483748Y318767D01*
X2491366D01*
X2504062Y308610D02*
X2498983D01*
X2496444Y311149D01*
Y316227D01*
X2498983Y318767D01*
X2504062D01*
X2506601Y316227D01*
Y313688D01*
X2496444D01*
X2521836Y323845D02*
Y308610D01*
X2514218D01*
X2511679Y311149D01*
Y316227D01*
X2514218Y318767D01*
X2521836D01*
X2425347Y270510D02*
X2420269Y275588D01*
Y280667D01*
X2425347Y285745D01*
X2432965Y270510D02*
Y285745D01*
X2438043Y280667D01*
X2443121Y285745D01*
Y270510D01*
X2448200D02*
X2453278D01*
X2450739D01*
Y280667D01*
X2448200D01*
X2460896D02*
X2471052Y270510D01*
X2465974Y275588D01*
X2471052Y280667D01*
X2460896Y270510D01*
X2483748D02*
X2478670D01*
X2476131Y273049D01*
Y278127D01*
X2478670Y280667D01*
X2483748D01*
X2486288Y278127D01*
Y275588D01*
X2476131D01*
X2501523Y285745D02*
Y270510D01*
X2493905D01*
X2491366Y273049D01*
Y278127D01*
X2493905Y280667D01*
X2501523D01*
X2506601Y270510D02*
X2511679Y275588D01*
Y280667D01*
X2506601Y285745D01*
X2420269Y232410D02*
Y247645D01*
X2427886D01*
X2430426Y245106D01*
Y240028D01*
X2427886Y237488D01*
X2420269D01*
X2425347D02*
X2430426Y232410D01*
X2438043D02*
X2443121D01*
X2445661Y234949D01*
Y240028D01*
X2443121Y242567D01*
X2438043D01*
X2435504Y240028D01*
Y234949D01*
X2438043Y232410D01*
X2450739Y242567D02*
Y234949D01*
X2453278Y232410D01*
X2460896D01*
Y242567D01*
X2465974Y232410D02*
Y242567D01*
X2473592D01*
X2476131Y240028D01*
Y232410D01*
X2491366Y247645D02*
Y232410D01*
X2483748D01*
X2481209Y234949D01*
Y240028D01*
X2483748Y242567D01*
X2491366D01*
X2504062Y232410D02*
X2498983D01*
X2496444Y234949D01*
Y240028D01*
X2498983Y242567D01*
X2504062D01*
X2506601Y240028D01*
Y237488D01*
X2496444D01*
X2521836Y247645D02*
Y232410D01*
X2514218D01*
X2511679Y234949D01*
Y240028D01*
X2514218Y242567D01*
X2521836D01*
X2420269Y194310D02*
Y209545D01*
X2427886D01*
X2430426Y207006D01*
Y201928D01*
X2427886Y199388D01*
X2420269D01*
X2425347D02*
X2430426Y194310D01*
X2438043D02*
X2443121D01*
X2445661Y196849D01*
Y201928D01*
X2443121Y204467D01*
X2438043D01*
X2435504Y201928D01*
Y196849D01*
X2438043Y194310D01*
X2450739Y204467D02*
Y196849D01*
X2453278Y194310D01*
X2460896D01*
Y204467D01*
X2465974Y194310D02*
Y204467D01*
X2473592D01*
X2476131Y201928D01*
Y194310D01*
X2491366Y209545D02*
Y194310D01*
X2483748D01*
X2481209Y196849D01*
Y201928D01*
X2483748Y204467D01*
X2491366D01*
X2504062Y194310D02*
X2498983D01*
X2496444Y196849D01*
Y201928D01*
X2498983Y204467D01*
X2504062D01*
X2506601Y201928D01*
Y199388D01*
X2496444D01*
X2521836Y209545D02*
Y194310D01*
X2514218D01*
X2511679Y196849D01*
Y201928D01*
X2514218Y204467D01*
X2521836D01*
X2270447Y384810D02*
Y400045D01*
X2278065D01*
X2280604Y397506D01*
Y392427D01*
X2278065Y389888D01*
X2270447D01*
X2288222Y394967D02*
X2293300D01*
X2295839Y392427D01*
Y384810D01*
X2288222D01*
X2285682Y387349D01*
X2288222Y389888D01*
X2295839D01*
X2311074Y400045D02*
Y384810D01*
X2303457D01*
X2300917Y387349D01*
Y392427D01*
X2303457Y394967D01*
X2311074D01*
X2270447Y346710D02*
Y361945D01*
X2278065D01*
X2280604Y359406D01*
Y354328D01*
X2278065Y351788D01*
X2270447D01*
X2288222Y356867D02*
X2293300D01*
X2295839Y354328D01*
Y346710D01*
X2288222D01*
X2285682Y349249D01*
X2288222Y351788D01*
X2295839D01*
X2311074Y361945D02*
Y346710D01*
X2303457D01*
X2300917Y349249D01*
Y354328D01*
X2303457Y356867D01*
X2311074D01*
X2270447Y308610D02*
Y323845D01*
X2278065D01*
X2280604Y321306D01*
Y316227D01*
X2278065Y313688D01*
X2270447D01*
X2288222Y318767D02*
X2293300D01*
X2295839Y316227D01*
Y308610D01*
X2288222D01*
X2285682Y311149D01*
X2288222Y313688D01*
X2295839D01*
X2311074Y323845D02*
Y308610D01*
X2303457D01*
X2300917Y311149D01*
Y316227D01*
X2303457Y318767D01*
X2311074D01*
X2270447Y270510D02*
Y285745D01*
X2278065D01*
X2280604Y283206D01*
Y278127D01*
X2278065Y275588D01*
X2270447D01*
X2288222Y280667D02*
X2293300D01*
X2295839Y278127D01*
Y270510D01*
X2288222D01*
X2285682Y273049D01*
X2288222Y275588D01*
X2295839D01*
X2311074Y285745D02*
Y270510D01*
X2303457D01*
X2300917Y273049D01*
Y278127D01*
X2303457Y280667D01*
X2311074D01*
X2270447Y232410D02*
Y247645D01*
X2278065D01*
X2280604Y245106D01*
Y240028D01*
X2278065Y237488D01*
X2270447D01*
X2288222Y242567D02*
X2293300D01*
X2295839Y240028D01*
Y232410D01*
X2288222D01*
X2285682Y234949D01*
X2288222Y237488D01*
X2295839D01*
X2311074Y247645D02*
Y232410D01*
X2303457D01*
X2300917Y234949D01*
Y240028D01*
X2303457Y242567D01*
X2311074D01*
X2270447Y194310D02*
Y209545D01*
X2278065D01*
X2280604Y207006D01*
Y201928D01*
X2278065Y199388D01*
X2270447D01*
X2288222Y204467D02*
X2293300D01*
X2295839Y201928D01*
Y194310D01*
X2288222D01*
X2285682Y196849D01*
X2288222Y199388D01*
X2295839D01*
X2311074Y209545D02*
Y194310D01*
X2303457D01*
X2300917Y196849D01*
Y201928D01*
X2303457Y204467D01*
X2311074D01*
X1889561Y400045D02*
X1899718D01*
X1894640D01*
Y384810D01*
X1907336D02*
X1912414D01*
X1914953Y387349D01*
Y392427D01*
X1912414Y394967D01*
X1907336D01*
X1904796Y392427D01*
Y387349D01*
X1907336Y384810D01*
X1920032Y379732D02*
Y394967D01*
X1927649D01*
X1930188Y392427D01*
Y387349D01*
X1927649Y384810D01*
X1920032D01*
X1950502Y400045D02*
Y384810D01*
X1960659D01*
X1968276Y394967D02*
X1973354D01*
X1975894Y392427D01*
Y384810D01*
X1968276D01*
X1965737Y387349D01*
X1968276Y389888D01*
X1975894D01*
X1980972Y394967D02*
Y387349D01*
X1983511Y384810D01*
X1991129D01*
Y382271D01*
X1988589Y379732D01*
X1986050D01*
X1991129Y384810D02*
Y394967D01*
X2003824Y384810D02*
X1998746D01*
X1996207Y387349D01*
Y392427D01*
X1998746Y394967D01*
X2003824D01*
X2006364Y392427D01*
Y389888D01*
X1996207D01*
X2011442Y394967D02*
Y384810D01*
Y389888D01*
X2013981Y392427D01*
X2016520Y394967D01*
X2019060D01*
X2041912Y392427D02*
X2052069D01*
X2072382Y400045D02*
Y384810D01*
X2080000D01*
X2082539Y387349D01*
Y389888D01*
X2080000Y392427D01*
X2072382D01*
X2080000D01*
X2082539Y394967D01*
Y397506D01*
X2080000Y400045D01*
X2072382D01*
X2090157Y384810D02*
X2095235D01*
X2097774Y387349D01*
Y392427D01*
X2095235Y394967D01*
X2090157D01*
X2087617Y392427D01*
Y387349D01*
X2090157Y384810D01*
X2105392Y397506D02*
Y394967D01*
X2102852D01*
X2107931D01*
X2105392D01*
Y387349D01*
X2107931Y384810D01*
X2118088Y397506D02*
Y394967D01*
X2115548D01*
X2120627D01*
X2118088D01*
Y387349D01*
X2120627Y384810D01*
X2130783D02*
X2135862D01*
X2138401Y387349D01*
Y392427D01*
X2135862Y394967D01*
X2130783D01*
X2128244Y392427D01*
Y387349D01*
X2130783Y384810D01*
X2143479D02*
Y394967D01*
X2146019D01*
X2148558Y392427D01*
Y384810D01*
Y392427D01*
X2151097Y394967D01*
X2153636Y392427D01*
Y384810D01*
X2173949Y400045D02*
Y384810D01*
X2184106D01*
X2191724Y394967D02*
X2196802D01*
X2199341Y392427D01*
Y384810D01*
X2191724D01*
X2189185Y387349D01*
X2191724Y389888D01*
X2199341D01*
X2204420Y394967D02*
Y387349D01*
X2206959Y384810D01*
X2214576D01*
Y382271D01*
X2212037Y379732D01*
X2209498D01*
X2214576Y384810D02*
Y394967D01*
X2227272Y384810D02*
X2222194D01*
X2219655Y387349D01*
Y392427D01*
X2222194Y394967D01*
X2227272D01*
X2229811Y392427D01*
Y389888D01*
X2219655D01*
X2234890Y394967D02*
Y384810D01*
Y389888D01*
X2237429Y392427D01*
X2239968Y394967D01*
X2242507D01*
X1889561Y361945D02*
X1899718D01*
X1894640D01*
Y346710D01*
X1907336D02*
X1912414D01*
X1914953Y349249D01*
Y354328D01*
X1912414Y356867D01*
X1907336D01*
X1904796Y354328D01*
Y349249D01*
X1907336Y346710D01*
X1920032Y341632D02*
Y356867D01*
X1927649D01*
X1930188Y354328D01*
Y349249D01*
X1927649Y346710D01*
X1920032D01*
X1950502Y361945D02*
Y346710D01*
X1960659D01*
X1968276Y356867D02*
X1973354D01*
X1975894Y354328D01*
Y346710D01*
X1968276D01*
X1965737Y349249D01*
X1968276Y351788D01*
X1975894D01*
X1980972Y356867D02*
Y349249D01*
X1983511Y346710D01*
X1991129D01*
Y344171D01*
X1988589Y341632D01*
X1986050D01*
X1991129Y346710D02*
Y356867D01*
X2003824Y346710D02*
X1998746D01*
X1996207Y349249D01*
Y354328D01*
X1998746Y356867D01*
X2003824D01*
X2006364Y354328D01*
Y351788D01*
X1996207D01*
X2011442Y356867D02*
Y346710D01*
Y351788D01*
X2013981Y354328D01*
X2016520Y356867D01*
X2019060D01*
X2041912Y354328D02*
X2052069D01*
X2072382Y361945D02*
Y346710D01*
X2080000D01*
X2082539Y349249D01*
Y351788D01*
X2080000Y354328D01*
X2072382D01*
X2080000D01*
X2082539Y356867D01*
Y359406D01*
X2080000Y361945D01*
X2072382D01*
X2090157Y346710D02*
X2095235D01*
X2097774Y349249D01*
Y354328D01*
X2095235Y356867D01*
X2090157D01*
X2087617Y354328D01*
Y349249D01*
X2090157Y346710D01*
X2105392Y359406D02*
Y356867D01*
X2102852D01*
X2107931D01*
X2105392D01*
Y349249D01*
X2107931Y346710D01*
X2118088Y359406D02*
Y356867D01*
X2115548D01*
X2120627D01*
X2118088D01*
Y349249D01*
X2120627Y346710D01*
X2130783D02*
X2135862D01*
X2138401Y349249D01*
Y354328D01*
X2135862Y356867D01*
X2130783D01*
X2128244Y354328D01*
Y349249D01*
X2130783Y346710D01*
X2143479D02*
Y356867D01*
X2146019D01*
X2148558Y354328D01*
Y346710D01*
Y354328D01*
X2151097Y356867D01*
X2153636Y354328D01*
Y346710D01*
X2173949Y361945D02*
Y346710D01*
X2184106D01*
X2191724Y356867D02*
X2196802D01*
X2199341Y354328D01*
Y346710D01*
X2191724D01*
X2189185Y349249D01*
X2191724Y351788D01*
X2199341D01*
X2204420Y356867D02*
Y349249D01*
X2206959Y346710D01*
X2214576D01*
Y344171D01*
X2212037Y341632D01*
X2209498D01*
X2214576Y346710D02*
Y356867D01*
X2227272Y346710D02*
X2222194D01*
X2219655Y349249D01*
Y354328D01*
X2222194Y356867D01*
X2227272D01*
X2229811Y354328D01*
Y351788D01*
X2219655D01*
X2234890Y356867D02*
Y346710D01*
Y351788D01*
X2237429Y354328D01*
X2239968Y356867D01*
X2242507D01*
X1889561Y323845D02*
X1899718D01*
X1894640D01*
Y308610D01*
X1907336D02*
X1912414D01*
X1914953Y311149D01*
Y316227D01*
X1912414Y318767D01*
X1907336D01*
X1904796Y316227D01*
Y311149D01*
X1907336Y308610D01*
X1920032Y303532D02*
Y318767D01*
X1927649D01*
X1930188Y316227D01*
Y311149D01*
X1927649Y308610D01*
X1920032D01*
X1950502Y323845D02*
Y308610D01*
X1960659D01*
X1968276Y318767D02*
X1973354D01*
X1975894Y316227D01*
Y308610D01*
X1968276D01*
X1965737Y311149D01*
X1968276Y313688D01*
X1975894D01*
X1980972Y318767D02*
Y311149D01*
X1983511Y308610D01*
X1991129D01*
Y306071D01*
X1988589Y303532D01*
X1986050D01*
X1991129Y308610D02*
Y318767D01*
X2003824Y308610D02*
X1998746D01*
X1996207Y311149D01*
Y316227D01*
X1998746Y318767D01*
X2003824D01*
X2006364Y316227D01*
Y313688D01*
X1996207D01*
X2011442Y318767D02*
Y308610D01*
Y313688D01*
X2013981Y316227D01*
X2016520Y318767D01*
X2019060D01*
X2041912Y316227D02*
X2052069D01*
X2072382Y323845D02*
Y308610D01*
X2080000D01*
X2082539Y311149D01*
Y313688D01*
X2080000Y316227D01*
X2072382D01*
X2080000D01*
X2082539Y318767D01*
Y321306D01*
X2080000Y323845D01*
X2072382D01*
X2090157Y308610D02*
X2095235D01*
X2097774Y311149D01*
Y316227D01*
X2095235Y318767D01*
X2090157D01*
X2087617Y316227D01*
Y311149D01*
X2090157Y308610D01*
X2105392Y321306D02*
Y318767D01*
X2102852D01*
X2107931D01*
X2105392D01*
Y311149D01*
X2107931Y308610D01*
X2118088Y321306D02*
Y318767D01*
X2115548D01*
X2120627D01*
X2118088D01*
Y311149D01*
X2120627Y308610D01*
X2130783D02*
X2135862D01*
X2138401Y311149D01*
Y316227D01*
X2135862Y318767D01*
X2130783D01*
X2128244Y316227D01*
Y311149D01*
X2130783Y308610D01*
X2143479D02*
Y318767D01*
X2146019D01*
X2148558Y316227D01*
Y308610D01*
Y316227D01*
X2151097Y318767D01*
X2153636Y316227D01*
Y308610D01*
X2173949Y323845D02*
Y308610D01*
X2184106D01*
X2191724Y318767D02*
X2196802D01*
X2199341Y316227D01*
Y308610D01*
X2191724D01*
X2189185Y311149D01*
X2191724Y313688D01*
X2199341D01*
X2204420Y318767D02*
Y311149D01*
X2206959Y308610D01*
X2214576D01*
Y306071D01*
X2212037Y303532D01*
X2209498D01*
X2214576Y308610D02*
Y318767D01*
X2227272Y308610D02*
X2222194D01*
X2219655Y311149D01*
Y316227D01*
X2222194Y318767D01*
X2227272D01*
X2229811Y316227D01*
Y313688D01*
X2219655D01*
X2234890Y318767D02*
Y308610D01*
Y313688D01*
X2237429Y316227D01*
X2239968Y318767D01*
X2242507D01*
X1889561Y285745D02*
X1899718D01*
X1894640D01*
Y270510D01*
X1907336D02*
X1912414D01*
X1914953Y273049D01*
Y278127D01*
X1912414Y280667D01*
X1907336D01*
X1904796Y278127D01*
Y273049D01*
X1907336Y270510D01*
X1920032Y265432D02*
Y280667D01*
X1927649D01*
X1930188Y278127D01*
Y273049D01*
X1927649Y270510D01*
X1920032D01*
X1950502Y285745D02*
Y270510D01*
X1960659D01*
X1968276Y280667D02*
X1973354D01*
X1975894Y278127D01*
Y270510D01*
X1968276D01*
X1965737Y273049D01*
X1968276Y275588D01*
X1975894D01*
X1980972Y280667D02*
Y273049D01*
X1983511Y270510D01*
X1991129D01*
Y267971D01*
X1988589Y265432D01*
X1986050D01*
X1991129Y270510D02*
Y280667D01*
X2003824Y270510D02*
X1998746D01*
X1996207Y273049D01*
Y278127D01*
X1998746Y280667D01*
X2003824D01*
X2006364Y278127D01*
Y275588D01*
X1996207D01*
X2011442Y280667D02*
Y270510D01*
Y275588D01*
X2013981Y278127D01*
X2016520Y280667D01*
X2019060D01*
X2041912Y278127D02*
X2052069D01*
X2072382Y285745D02*
Y270510D01*
X2080000D01*
X2082539Y273049D01*
Y275588D01*
X2080000Y278127D01*
X2072382D01*
X2080000D01*
X2082539Y280667D01*
Y283206D01*
X2080000Y285745D01*
X2072382D01*
X2090157Y270510D02*
X2095235D01*
X2097774Y273049D01*
Y278127D01*
X2095235Y280667D01*
X2090157D01*
X2087617Y278127D01*
Y273049D01*
X2090157Y270510D01*
X2105392Y283206D02*
Y280667D01*
X2102852D01*
X2107931D01*
X2105392D01*
Y273049D01*
X2107931Y270510D01*
X2118088Y283206D02*
Y280667D01*
X2115548D01*
X2120627D01*
X2118088D01*
Y273049D01*
X2120627Y270510D01*
X2130783D02*
X2135862D01*
X2138401Y273049D01*
Y278127D01*
X2135862Y280667D01*
X2130783D01*
X2128244Y278127D01*
Y273049D01*
X2130783Y270510D01*
X2143479D02*
Y280667D01*
X2146019D01*
X2148558Y278127D01*
Y270510D01*
Y278127D01*
X2151097Y280667D01*
X2153636Y278127D01*
Y270510D01*
X2173949Y285745D02*
Y270510D01*
X2184106D01*
X2191724Y280667D02*
X2196802D01*
X2199341Y278127D01*
Y270510D01*
X2191724D01*
X2189185Y273049D01*
X2191724Y275588D01*
X2199341D01*
X2204420Y280667D02*
Y273049D01*
X2206959Y270510D01*
X2214576D01*
Y267971D01*
X2212037Y265432D01*
X2209498D01*
X2214576Y270510D02*
Y280667D01*
X2227272Y270510D02*
X2222194D01*
X2219655Y273049D01*
Y278127D01*
X2222194Y280667D01*
X2227272D01*
X2229811Y278127D01*
Y275588D01*
X2219655D01*
X2234890Y280667D02*
Y270510D01*
Y275588D01*
X2237429Y278127D01*
X2239968Y280667D01*
X2242507D01*
X1889561Y247645D02*
X1899718D01*
X1894640D01*
Y232410D01*
X1907336D02*
X1912414D01*
X1914953Y234949D01*
Y240028D01*
X1912414Y242567D01*
X1907336D01*
X1904796Y240028D01*
Y234949D01*
X1907336Y232410D01*
X1920032Y227332D02*
Y242567D01*
X1927649D01*
X1930188Y240028D01*
Y234949D01*
X1927649Y232410D01*
X1920032D01*
X1950502Y247645D02*
Y232410D01*
X1960659D01*
X1968276Y242567D02*
X1973354D01*
X1975894Y240028D01*
Y232410D01*
X1968276D01*
X1965737Y234949D01*
X1968276Y237488D01*
X1975894D01*
X1980972Y242567D02*
Y234949D01*
X1983511Y232410D01*
X1991129D01*
Y229871D01*
X1988589Y227332D01*
X1986050D01*
X1991129Y232410D02*
Y242567D01*
X2003824Y232410D02*
X1998746D01*
X1996207Y234949D01*
Y240028D01*
X1998746Y242567D01*
X2003824D01*
X2006364Y240028D01*
Y237488D01*
X1996207D01*
X2011442Y242567D02*
Y232410D01*
Y237488D01*
X2013981Y240028D01*
X2016520Y242567D01*
X2019060D01*
X2041912Y240028D02*
X2052069D01*
X2072382Y247645D02*
Y232410D01*
X2080000D01*
X2082539Y234949D01*
Y237488D01*
X2080000Y240028D01*
X2072382D01*
X2080000D01*
X2082539Y242567D01*
Y245106D01*
X2080000Y247645D01*
X2072382D01*
X2090157Y232410D02*
X2095235D01*
X2097774Y234949D01*
Y240028D01*
X2095235Y242567D01*
X2090157D01*
X2087617Y240028D01*
Y234949D01*
X2090157Y232410D01*
X2105392Y245106D02*
Y242567D01*
X2102852D01*
X2107931D01*
X2105392D01*
Y234949D01*
X2107931Y232410D01*
X2118088Y245106D02*
Y242567D01*
X2115548D01*
X2120627D01*
X2118088D01*
Y234949D01*
X2120627Y232410D01*
X2130783D02*
X2135862D01*
X2138401Y234949D01*
Y240028D01*
X2135862Y242567D01*
X2130783D01*
X2128244Y240028D01*
Y234949D01*
X2130783Y232410D01*
X2143479D02*
Y242567D01*
X2146019D01*
X2148558Y240028D01*
Y232410D01*
Y240028D01*
X2151097Y242567D01*
X2153636Y240028D01*
Y232410D01*
X2173949Y247645D02*
Y232410D01*
X2184106D01*
X2191724Y242567D02*
X2196802D01*
X2199341Y240028D01*
Y232410D01*
X2191724D01*
X2189185Y234949D01*
X2191724Y237488D01*
X2199341D01*
X2204420Y242567D02*
Y234949D01*
X2206959Y232410D01*
X2214576D01*
Y229871D01*
X2212037Y227332D01*
X2209498D01*
X2214576Y232410D02*
Y242567D01*
X2227272Y232410D02*
X2222194D01*
X2219655Y234949D01*
Y240028D01*
X2222194Y242567D01*
X2227272D01*
X2229811Y240028D01*
Y237488D01*
X2219655D01*
X2234890Y242567D02*
Y232410D01*
Y237488D01*
X2237429Y240028D01*
X2239968Y242567D01*
X2242507D01*
X1889561Y209545D02*
X1899718D01*
X1894640D01*
Y194310D01*
X1907336D02*
X1912414D01*
X1914953Y196849D01*
Y201928D01*
X1912414Y204467D01*
X1907336D01*
X1904796Y201928D01*
Y196849D01*
X1907336Y194310D01*
X1920032Y189232D02*
Y204467D01*
X1927649D01*
X1930188Y201928D01*
Y196849D01*
X1927649Y194310D01*
X1920032D01*
X1950502Y209545D02*
Y194310D01*
X1960659D01*
X1968276Y204467D02*
X1973354D01*
X1975894Y201928D01*
Y194310D01*
X1968276D01*
X1965737Y196849D01*
X1968276Y199388D01*
X1975894D01*
X1980972Y204467D02*
Y196849D01*
X1983511Y194310D01*
X1991129D01*
Y191771D01*
X1988589Y189232D01*
X1986050D01*
X1991129Y194310D02*
Y204467D01*
X2003824Y194310D02*
X1998746D01*
X1996207Y196849D01*
Y201928D01*
X1998746Y204467D01*
X2003824D01*
X2006364Y201928D01*
Y199388D01*
X1996207D01*
X2011442Y204467D02*
Y194310D01*
Y199388D01*
X2013981Y201928D01*
X2016520Y204467D01*
X2019060D01*
X2041912Y201928D02*
X2052069D01*
X2072382Y209545D02*
Y194310D01*
X2080000D01*
X2082539Y196849D01*
Y199388D01*
X2080000Y201928D01*
X2072382D01*
X2080000D01*
X2082539Y204467D01*
Y207006D01*
X2080000Y209545D01*
X2072382D01*
X2090157Y194310D02*
X2095235D01*
X2097774Y196849D01*
Y201928D01*
X2095235Y204467D01*
X2090157D01*
X2087617Y201928D01*
Y196849D01*
X2090157Y194310D01*
X2105392Y207006D02*
Y204467D01*
X2102852D01*
X2107931D01*
X2105392D01*
Y196849D01*
X2107931Y194310D01*
X2118088Y207006D02*
Y204467D01*
X2115548D01*
X2120627D01*
X2118088D01*
Y196849D01*
X2120627Y194310D01*
X2130783D02*
X2135862D01*
X2138401Y196849D01*
Y201928D01*
X2135862Y204467D01*
X2130783D01*
X2128244Y201928D01*
Y196849D01*
X2130783Y194310D01*
X2143479D02*
Y204467D01*
X2146019D01*
X2148558Y201928D01*
Y194310D01*
Y201928D01*
X2151097Y204467D01*
X2153636Y201928D01*
Y194310D01*
X2173949Y209545D02*
Y194310D01*
X2184106D01*
X2191724Y204467D02*
X2196802D01*
X2199341Y201928D01*
Y194310D01*
X2191724D01*
X2189185Y196849D01*
X2191724Y199388D01*
X2199341D01*
X2204420Y204467D02*
Y196849D01*
X2206959Y194310D01*
X2214576D01*
Y191771D01*
X2212037Y189232D01*
X2209498D01*
X2214576Y194310D02*
Y204467D01*
X2227272Y194310D02*
X2222194D01*
X2219655Y196849D01*
Y201928D01*
X2222194Y204467D01*
X2227272D01*
X2229811Y201928D01*
Y199388D01*
X2219655D01*
X2234890Y204467D02*
Y194310D01*
Y199388D01*
X2237429Y201928D01*
X2239968Y204467D01*
X2242507D01*
X1703176Y384810D02*
Y400045D01*
X1710793D01*
X1713333Y397506D01*
Y392427D01*
X1710793Y389888D01*
X1703176D01*
X1708254D02*
X1713333Y384810D01*
X1720950D02*
X1726028D01*
X1728568Y387349D01*
Y392427D01*
X1726028Y394967D01*
X1720950D01*
X1718411Y392427D01*
Y387349D01*
X1720950Y384810D01*
X1733646Y394967D02*
Y387349D01*
X1736185Y384810D01*
X1743803D01*
Y394967D01*
X1748881Y384810D02*
Y394967D01*
X1756499D01*
X1759038Y392427D01*
Y384810D01*
X1774273Y400045D02*
Y384810D01*
X1766655D01*
X1764116Y387349D01*
Y392427D01*
X1766655Y394967D01*
X1774273D01*
X1703176Y346710D02*
Y361945D01*
X1710793D01*
X1713333Y359406D01*
Y354328D01*
X1710793Y351788D01*
X1703176D01*
X1708254D02*
X1713333Y346710D01*
X1720950D02*
X1726028D01*
X1728568Y349249D01*
Y354328D01*
X1726028Y356867D01*
X1720950D01*
X1718411Y354328D01*
Y349249D01*
X1720950Y346710D01*
X1733646Y356867D02*
Y349249D01*
X1736185Y346710D01*
X1743803D01*
Y356867D01*
X1748881Y346710D02*
Y356867D01*
X1756499D01*
X1759038Y354328D01*
Y346710D01*
X1774273Y361945D02*
Y346710D01*
X1766655D01*
X1764116Y349249D01*
Y354328D01*
X1766655Y356867D01*
X1774273D01*
X1703176Y308610D02*
Y323845D01*
X1710793D01*
X1713333Y321306D01*
Y316227D01*
X1710793Y313688D01*
X1703176D01*
X1708254D02*
X1713333Y308610D01*
X1720950D02*
X1726028D01*
X1728568Y311149D01*
Y316227D01*
X1726028Y318767D01*
X1720950D01*
X1718411Y316227D01*
Y311149D01*
X1720950Y308610D01*
X1733646Y318767D02*
Y311149D01*
X1736185Y308610D01*
X1743803D01*
Y318767D01*
X1748881Y308610D02*
Y318767D01*
X1756499D01*
X1759038Y316227D01*
Y308610D01*
X1774273Y323845D02*
Y308610D01*
X1766655D01*
X1764116Y311149D01*
Y316227D01*
X1766655Y318767D01*
X1774273D01*
X1703176Y270510D02*
Y285745D01*
X1710793D01*
X1713333Y283206D01*
Y278127D01*
X1710793Y275588D01*
X1703176D01*
X1708254D02*
X1713333Y270510D01*
X1720950D02*
X1726028D01*
X1728568Y273049D01*
Y278127D01*
X1726028Y280667D01*
X1720950D01*
X1718411Y278127D01*
Y273049D01*
X1720950Y270510D01*
X1733646Y280667D02*
Y273049D01*
X1736185Y270510D01*
X1743803D01*
Y280667D01*
X1748881Y270510D02*
Y280667D01*
X1756499D01*
X1759038Y278127D01*
Y270510D01*
X1774273Y285745D02*
Y270510D01*
X1766655D01*
X1764116Y273049D01*
Y278127D01*
X1766655Y280667D01*
X1774273D01*
X1703176Y232410D02*
Y247645D01*
X1710793D01*
X1713333Y245106D01*
Y240028D01*
X1710793Y237488D01*
X1703176D01*
X1708254D02*
X1713333Y232410D01*
X1720950D02*
X1726028D01*
X1728568Y234949D01*
Y240028D01*
X1726028Y242567D01*
X1720950D01*
X1718411Y240028D01*
Y234949D01*
X1720950Y232410D01*
X1733646Y242567D02*
Y234949D01*
X1736185Y232410D01*
X1743803D01*
Y242567D01*
X1748881Y232410D02*
Y242567D01*
X1756499D01*
X1759038Y240028D01*
Y232410D01*
X1774273Y247645D02*
Y232410D01*
X1766655D01*
X1764116Y234949D01*
Y240028D01*
X1766655Y242567D01*
X1774273D01*
X1703176Y194310D02*
Y209545D01*
X1710793D01*
X1713333Y207006D01*
Y201928D01*
X1710793Y199388D01*
X1703176D01*
X1708254D02*
X1713333Y194310D01*
X1720950D02*
X1726028D01*
X1728568Y196849D01*
Y201928D01*
X1726028Y204467D01*
X1720950D01*
X1718411Y201928D01*
Y196849D01*
X1720950Y194310D01*
X1733646Y204467D02*
Y196849D01*
X1736185Y194310D01*
X1743803D01*
Y204467D01*
X1748881Y194310D02*
Y204467D01*
X1756499D01*
X1759038Y201928D01*
Y194310D01*
X1774273Y209545D02*
Y194310D01*
X1766655D01*
X1764116Y196849D01*
Y201928D01*
X1766655Y204467D01*
X1774273D01*
X1574683Y384810D02*
Y400045D01*
X1582301D01*
X1584840Y397506D01*
Y392427D01*
X1582301Y389888D01*
X1574683D01*
X1589918Y400045D02*
X1600075D01*
X1594997D01*
Y384810D01*
X1605154Y400045D02*
Y384810D01*
Y392427D01*
X1615310D01*
Y400045D01*
Y384810D01*
X1574683Y346710D02*
Y361945D01*
X1582301D01*
X1584840Y359406D01*
Y354328D01*
X1582301Y351788D01*
X1574683D01*
X1589918Y361945D02*
X1600075D01*
X1594997D01*
Y346710D01*
X1605154Y361945D02*
Y346710D01*
Y354328D01*
X1615310D01*
Y361945D01*
Y346710D01*
X1574683Y308610D02*
Y323845D01*
X1582301D01*
X1584840Y321306D01*
Y316227D01*
X1582301Y313688D01*
X1574683D01*
X1589918Y323845D02*
X1600075D01*
X1594997D01*
Y308610D01*
X1605154Y323845D02*
Y308610D01*
Y316227D01*
X1615310D01*
Y323845D01*
Y308610D01*
X1574683Y270510D02*
Y285745D01*
X1582301D01*
X1584840Y283206D01*
Y278127D01*
X1582301Y275588D01*
X1574683D01*
X1589918Y285745D02*
X1600075D01*
X1594997D01*
Y270510D01*
X1605154Y285745D02*
Y270510D01*
Y278127D01*
X1615310D01*
Y285745D01*
Y270510D01*
X1574683Y232410D02*
Y247645D01*
X1582301D01*
X1584840Y245106D01*
Y240028D01*
X1582301Y237488D01*
X1574683D01*
X1589918Y247645D02*
X1600075D01*
X1594997D01*
Y232410D01*
X1605154Y247645D02*
Y232410D01*
Y240028D01*
X1615310D01*
Y247645D01*
Y232410D01*
X1574683Y194310D02*
Y209545D01*
X1582301D01*
X1584840Y207006D01*
Y201928D01*
X1582301Y199388D01*
X1574683D01*
X1589918Y209545D02*
X1600075D01*
X1594997D01*
Y194310D01*
X1605154Y209545D02*
Y194310D01*
Y201928D01*
X1615310D01*
Y209545D01*
Y194310D01*
X1295365Y397506D02*
X1297904Y400045D01*
X1302982D01*
X1305521Y397506D01*
Y387349D01*
X1302982Y384810D01*
X1297904D01*
X1295365Y387349D01*
Y397506D01*
X1310600Y384810D02*
Y387349D01*
X1313139D01*
Y384810D01*
X1310600D01*
X1323296Y400045D02*
X1333452D01*
Y397506D01*
X1323296Y387349D01*
Y384810D01*
X1348687Y400045D02*
X1338531D01*
Y392427D01*
X1343609Y394967D01*
X1346148D01*
X1348687Y392427D01*
Y387349D01*
X1346148Y384810D01*
X1341070D01*
X1338531Y387349D01*
X1353766Y397506D02*
X1356305Y400045D01*
X1361383D01*
X1363922Y397506D01*
Y387349D01*
X1361383Y384810D01*
X1356305D01*
X1353766Y387349D01*
Y397506D01*
X1369001Y384810D02*
Y394967D01*
X1371540D01*
X1374079Y392427D01*
Y384810D01*
Y392427D01*
X1376618Y394967D01*
X1379158Y392427D01*
Y384810D01*
X1384236D02*
Y394967D01*
X1386775D01*
X1389314Y392427D01*
Y384810D01*
Y392427D01*
X1391853Y394967D01*
X1394393Y392427D01*
Y384810D01*
X1419784D02*
X1414706Y389888D01*
Y394967D01*
X1419784Y400045D01*
X1437559Y384810D02*
X1427402D01*
X1437559Y394967D01*
Y397506D01*
X1435020Y400045D01*
X1429941D01*
X1427402Y397506D01*
X1442637Y387349D02*
X1445176Y384810D01*
X1450255D01*
X1452794Y387349D01*
Y397506D01*
X1450255Y400045D01*
X1445176D01*
X1442637Y397506D01*
Y394967D01*
X1445176Y392427D01*
X1452794D01*
X1457872Y384810D02*
Y387349D01*
X1460411D01*
Y384810D01*
X1457872D01*
X1480725Y400045D02*
X1470568D01*
Y392427D01*
X1475646Y394967D01*
X1478185D01*
X1480725Y392427D01*
Y387349D01*
X1478185Y384810D01*
X1473107D01*
X1470568Y387349D01*
X1485803Y397506D02*
X1488342Y400045D01*
X1493421D01*
X1495960Y397506D01*
Y394967D01*
X1493421Y392427D01*
X1490881D01*
X1493421D01*
X1495960Y389888D01*
Y387349D01*
X1493421Y384810D01*
X1488342D01*
X1485803Y387349D01*
X1501038Y384810D02*
Y394967D01*
X1503577D01*
X1506116Y392427D01*
Y384810D01*
Y392427D01*
X1508656Y394967D01*
X1511195Y392427D01*
Y384810D01*
X1516273D02*
X1521351D01*
X1518812D01*
Y394967D01*
X1516273D01*
X1528969Y384810D02*
X1534047D01*
X1531508D01*
Y400045D01*
X1528969D01*
X1541665Y384810D02*
X1546743Y389888D01*
Y394967D01*
X1541665Y400045D01*
X1295365Y359406D02*
X1297904Y361945D01*
X1302982D01*
X1305521Y359406D01*
Y349249D01*
X1302982Y346710D01*
X1297904D01*
X1295365Y349249D01*
Y359406D01*
X1310600Y346710D02*
Y349249D01*
X1313139D01*
Y346710D01*
X1310600D01*
X1323296Y361945D02*
X1333452D01*
Y359406D01*
X1323296Y349249D01*
Y346710D01*
X1348687Y361945D02*
X1343609Y359406D01*
X1338531Y354328D01*
Y349249D01*
X1341070Y346710D01*
X1346148D01*
X1348687Y349249D01*
Y351788D01*
X1346148Y354328D01*
X1338531D01*
X1363922Y346710D02*
X1353766D01*
X1363922Y356867D01*
Y359406D01*
X1361383Y361945D01*
X1356305D01*
X1353766Y359406D01*
X1369001Y346710D02*
Y356867D01*
X1371540D01*
X1374079Y354328D01*
Y346710D01*
Y354328D01*
X1376618Y356867D01*
X1379158Y354328D01*
Y346710D01*
X1384236D02*
Y356867D01*
X1386775D01*
X1389314Y354328D01*
Y346710D01*
Y354328D01*
X1391853Y356867D01*
X1394393Y354328D01*
Y346710D01*
X1419784D02*
X1414706Y351788D01*
Y356867D01*
X1419784Y361945D01*
X1427402Y359406D02*
X1429941Y361945D01*
X1435020D01*
X1437559Y359406D01*
Y356867D01*
X1435020Y354328D01*
X1432480D01*
X1435020D01*
X1437559Y351788D01*
Y349249D01*
X1435020Y346710D01*
X1429941D01*
X1427402Y349249D01*
X1442637Y359406D02*
X1445176Y361945D01*
X1450255D01*
X1452794Y359406D01*
Y349249D01*
X1450255Y346710D01*
X1445176D01*
X1442637Y349249D01*
Y359406D01*
X1457872Y346710D02*
Y349249D01*
X1460411D01*
Y346710D01*
X1457872D01*
X1470568Y359406D02*
X1473107Y361945D01*
X1478185D01*
X1480725Y359406D01*
Y349249D01*
X1478185Y346710D01*
X1473107D01*
X1470568Y349249D01*
Y359406D01*
X1485803D02*
X1488342Y361945D01*
X1493421D01*
X1495960Y359406D01*
Y349249D01*
X1493421Y346710D01*
X1488342D01*
X1485803Y349249D01*
Y359406D01*
X1501038Y346710D02*
Y356867D01*
X1503577D01*
X1506116Y354328D01*
Y346710D01*
Y354328D01*
X1508656Y356867D01*
X1511195Y354328D01*
Y346710D01*
X1516273D02*
X1521351D01*
X1518812D01*
Y356867D01*
X1516273D01*
X1528969Y346710D02*
X1534047D01*
X1531508D01*
Y361945D01*
X1528969D01*
X1541665Y346710D02*
X1546743Y351788D01*
Y356867D01*
X1541665Y361945D01*
X1295365Y321306D02*
X1297904Y323845D01*
X1302982D01*
X1305521Y321306D01*
Y311149D01*
X1302982Y308610D01*
X1297904D01*
X1295365Y311149D01*
Y321306D01*
X1310600Y308610D02*
Y311149D01*
X1313139D01*
Y308610D01*
X1310600D01*
X1323296Y323845D02*
X1333452D01*
Y321306D01*
X1323296Y311149D01*
Y308610D01*
X1338531Y321306D02*
X1341070Y323845D01*
X1346148D01*
X1348687Y321306D01*
Y311149D01*
X1346148Y308610D01*
X1341070D01*
X1338531Y311149D01*
Y321306D01*
X1353766D02*
X1356305Y323845D01*
X1361383D01*
X1363922Y321306D01*
Y311149D01*
X1361383Y308610D01*
X1356305D01*
X1353766Y311149D01*
Y321306D01*
X1369001Y308610D02*
Y318767D01*
X1371540D01*
X1374079Y316227D01*
Y308610D01*
Y316227D01*
X1376618Y318767D01*
X1379158Y316227D01*
Y308610D01*
X1384236D02*
Y318767D01*
X1386775D01*
X1389314Y316227D01*
Y308610D01*
Y316227D01*
X1391853Y318767D01*
X1394393Y316227D01*
Y308610D01*
X1419784D02*
X1414706Y313688D01*
Y318767D01*
X1419784Y323845D01*
X1437559Y308610D02*
X1427402D01*
X1437559Y318767D01*
Y321306D01*
X1435020Y323845D01*
X1429941D01*
X1427402Y321306D01*
X1442637Y323845D02*
X1452794D01*
Y321306D01*
X1442637Y311149D01*
Y308610D01*
X1457872D02*
Y311149D01*
X1460411D01*
Y308610D01*
X1457872D01*
X1480725Y323845D02*
X1470568D01*
Y316227D01*
X1475646Y318767D01*
X1478185D01*
X1480725Y316227D01*
Y311149D01*
X1478185Y308610D01*
X1473107D01*
X1470568Y311149D01*
X1495960Y323845D02*
X1490881Y321306D01*
X1485803Y316227D01*
Y311149D01*
X1488342Y308610D01*
X1493421D01*
X1495960Y311149D01*
Y313688D01*
X1493421Y316227D01*
X1485803D01*
X1501038Y308610D02*
Y318767D01*
X1503577D01*
X1506116Y316227D01*
Y308610D01*
Y316227D01*
X1508656Y318767D01*
X1511195Y316227D01*
Y308610D01*
X1516273D02*
X1521351D01*
X1518812D01*
Y318767D01*
X1516273D01*
X1528969Y308610D02*
X1534047D01*
X1531508D01*
Y323845D01*
X1528969D01*
X1541665Y308610D02*
X1546743Y313688D01*
Y318767D01*
X1541665Y323845D01*
X1295365Y270510D02*
X1300443D01*
X1297904D01*
Y285745D01*
X1295365Y283206D01*
X1308061Y270510D02*
Y273049D01*
X1310600D01*
Y270510D01*
X1308061D01*
X1320756D02*
X1325835D01*
X1323296D01*
Y285745D01*
X1320756Y283206D01*
X1333452D02*
X1335992Y285745D01*
X1341070D01*
X1343609Y283206D01*
Y273049D01*
X1341070Y270510D01*
X1335992D01*
X1333452Y273049D01*
Y283206D01*
X1348687D02*
X1351227Y285745D01*
X1356305D01*
X1358844Y283206D01*
Y273049D01*
X1356305Y270510D01*
X1351227D01*
X1348687Y273049D01*
Y283206D01*
X1363922Y270510D02*
Y280667D01*
X1366462D01*
X1369001Y278127D01*
Y270510D01*
Y278127D01*
X1371540Y280667D01*
X1374079Y278127D01*
Y270510D01*
X1379158D02*
Y280667D01*
X1381697D01*
X1384236Y278127D01*
Y270510D01*
Y278127D01*
X1386775Y280667D01*
X1389314Y278127D01*
Y270510D01*
X1414706D02*
X1409628Y275588D01*
Y280667D01*
X1414706Y285745D01*
X1429941Y270510D02*
Y285745D01*
X1422324Y278127D01*
X1432480D01*
X1437559Y283206D02*
X1440098Y285745D01*
X1445176D01*
X1447715Y283206D01*
Y280667D01*
X1445176Y278127D01*
X1442637D01*
X1445176D01*
X1447715Y275588D01*
Y273049D01*
X1445176Y270510D01*
X1440098D01*
X1437559Y273049D01*
X1452794Y270510D02*
Y273049D01*
X1455333D01*
Y270510D01*
X1452794D01*
X1465490Y283206D02*
X1468029Y285745D01*
X1473107D01*
X1475646Y283206D01*
Y280667D01*
X1473107Y278127D01*
X1470568D01*
X1473107D01*
X1475646Y275588D01*
Y273049D01*
X1473107Y270510D01*
X1468029D01*
X1465490Y273049D01*
X1480725Y270510D02*
X1485803D01*
X1483264D01*
Y285745D01*
X1480725Y283206D01*
X1493421Y270510D02*
Y280667D01*
X1495960D01*
X1498499Y278127D01*
Y270510D01*
Y278127D01*
X1501038Y280667D01*
X1503577Y278127D01*
Y270510D01*
X1508656D02*
X1513734D01*
X1511195D01*
Y280667D01*
X1508656D01*
X1521351Y270510D02*
X1526430D01*
X1523891D01*
Y285745D01*
X1521351D01*
X1534047Y270510D02*
X1539126Y275588D01*
Y280667D01*
X1534047Y285745D01*
X1295365Y232410D02*
X1300443D01*
X1297904D01*
Y247645D01*
X1295365Y245106D01*
X1308061Y232410D02*
Y234949D01*
X1310600D01*
Y232410D01*
X1308061D01*
X1320756Y245106D02*
X1323296Y247645D01*
X1328374D01*
X1330913Y245106D01*
Y234949D01*
X1328374Y232410D01*
X1323296D01*
X1320756Y234949D01*
Y245106D01*
X1335992D02*
X1338531Y247645D01*
X1343609D01*
X1346148Y245106D01*
Y234949D01*
X1343609Y232410D01*
X1338531D01*
X1335992Y234949D01*
Y245106D01*
X1351227D02*
X1353766Y247645D01*
X1358844D01*
X1361383Y245106D01*
Y234949D01*
X1358844Y232410D01*
X1353766D01*
X1351227Y234949D01*
Y245106D01*
X1366462Y232410D02*
Y242567D01*
X1369001D01*
X1371540Y240028D01*
Y232410D01*
Y240028D01*
X1374079Y242567D01*
X1376618Y240028D01*
Y232410D01*
X1381697D02*
Y242567D01*
X1384236D01*
X1386775Y240028D01*
Y232410D01*
Y240028D01*
X1389314Y242567D01*
X1391853Y240028D01*
Y232410D01*
X1417245D02*
X1412167Y237488D01*
Y242567D01*
X1417245Y247645D01*
X1424863Y245106D02*
X1427402Y247645D01*
X1432480D01*
X1435020Y245106D01*
Y242567D01*
X1432480Y240028D01*
X1429941D01*
X1432480D01*
X1435020Y237488D01*
Y234949D01*
X1432480Y232410D01*
X1427402D01*
X1424863Y234949D01*
X1440098D02*
X1442637Y232410D01*
X1447715D01*
X1450255Y234949D01*
Y245106D01*
X1447715Y247645D01*
X1442637D01*
X1440098Y245106D01*
Y242567D01*
X1442637Y240028D01*
X1450255D01*
X1455333Y232410D02*
Y234949D01*
X1457872D01*
Y232410D01*
X1455333D01*
X1468029Y245106D02*
X1470568Y247645D01*
X1475646D01*
X1478185Y245106D01*
Y242567D01*
X1475646Y240028D01*
X1473107D01*
X1475646D01*
X1478185Y237488D01*
Y234949D01*
X1475646Y232410D01*
X1470568D01*
X1468029Y234949D01*
X1483264Y247645D02*
X1493421D01*
Y245106D01*
X1483264Y234949D01*
Y232410D01*
X1498499D02*
Y242567D01*
X1501038D01*
X1503577Y240028D01*
Y232410D01*
Y240028D01*
X1506116Y242567D01*
X1508656Y240028D01*
Y232410D01*
X1513734D02*
X1518812D01*
X1516273D01*
Y242567D01*
X1513734D01*
X1526430Y232410D02*
X1531508D01*
X1528969D01*
Y247645D01*
X1526430D01*
X1539126Y232410D02*
X1544204Y237488D01*
Y242567D01*
X1539126Y247645D01*
X1295365Y207006D02*
X1297904Y209545D01*
X1302982D01*
X1305521Y207006D01*
Y196849D01*
X1302982Y194310D01*
X1297904D01*
X1295365Y196849D01*
Y207006D01*
X1310600Y194310D02*
Y196849D01*
X1313139D01*
Y194310D01*
X1310600D01*
X1323296Y207006D02*
X1325835Y209545D01*
X1330913D01*
X1333452Y207006D01*
Y204467D01*
X1330913Y201928D01*
X1333452Y199388D01*
Y196849D01*
X1330913Y194310D01*
X1325835D01*
X1323296Y196849D01*
Y199388D01*
X1325835Y201928D01*
X1323296Y204467D01*
Y207006D01*
X1325835Y201928D02*
X1330913D01*
X1338531Y207006D02*
X1341070Y209545D01*
X1346148D01*
X1348687Y207006D01*
Y196849D01*
X1346148Y194310D01*
X1341070D01*
X1338531Y196849D01*
Y207006D01*
X1353766D02*
X1356305Y209545D01*
X1361383D01*
X1363922Y207006D01*
Y196849D01*
X1361383Y194310D01*
X1356305D01*
X1353766Y196849D01*
Y207006D01*
X1369001Y194310D02*
Y204467D01*
X1371540D01*
X1374079Y201928D01*
Y194310D01*
Y201928D01*
X1376618Y204467D01*
X1379158Y201928D01*
Y194310D01*
X1384236D02*
Y204467D01*
X1386775D01*
X1389314Y201928D01*
Y194310D01*
Y201928D01*
X1391853Y204467D01*
X1394393Y201928D01*
Y194310D01*
X1419784D02*
X1414706Y199388D01*
Y204467D01*
X1419784Y209545D01*
X1427402Y207006D02*
X1429941Y209545D01*
X1435020D01*
X1437559Y207006D01*
Y204467D01*
X1435020Y201928D01*
X1432480D01*
X1435020D01*
X1437559Y199388D01*
Y196849D01*
X1435020Y194310D01*
X1429941D01*
X1427402Y196849D01*
X1442637Y194310D02*
X1447715D01*
X1445176D01*
Y209545D01*
X1442637Y207006D01*
X1455333Y194310D02*
Y196849D01*
X1457872D01*
Y194310D01*
X1455333D01*
X1478185Y209545D02*
X1468029D01*
Y201928D01*
X1473107Y204467D01*
X1475646D01*
X1478185Y201928D01*
Y196849D01*
X1475646Y194310D01*
X1470568D01*
X1468029Y196849D01*
X1483264Y207006D02*
X1485803Y209545D01*
X1490881D01*
X1493421Y207006D01*
Y196849D01*
X1490881Y194310D01*
X1485803D01*
X1483264Y196849D01*
Y207006D01*
X1498499Y194310D02*
Y204467D01*
X1501038D01*
X1503577Y201928D01*
Y194310D01*
Y201928D01*
X1506116Y204467D01*
X1508656Y201928D01*
Y194310D01*
X1513734D02*
X1518812D01*
X1516273D01*
Y204467D01*
X1513734D01*
X1526430Y194310D02*
X1531508D01*
X1528969D01*
Y209545D01*
X1526430D01*
X1539126Y194310D02*
X1544204Y199388D01*
Y204467D01*
X1539126Y209545D01*
X1158240Y158749D02*
X1160779Y156210D01*
X1165857D01*
X1168397Y158749D01*
Y168906D01*
X1165857Y171445D01*
X1160779D01*
X1158240Y168906D01*
Y166367D01*
X1160779Y163827D01*
X1168397D01*
X1183632Y156210D02*
X1173475D01*
X1183632Y166367D01*
Y168906D01*
X1181093Y171445D01*
X1176014D01*
X1173475Y168906D01*
X1203945Y171445D02*
X1214102D01*
X1209024D01*
Y156210D01*
X1221720D02*
X1226798D01*
X1229337Y158749D01*
Y163827D01*
X1226798Y166367D01*
X1221720D01*
X1219180Y163827D01*
Y158749D01*
X1221720Y156210D01*
X1236954Y168906D02*
Y166367D01*
X1234415D01*
X1239494D01*
X1236954D01*
Y158749D01*
X1239494Y156210D01*
X1249650Y166367D02*
X1254729D01*
X1257268Y163827D01*
Y156210D01*
X1249650D01*
X1247111Y158749D01*
X1249650Y161288D01*
X1257268D01*
X1262346Y156210D02*
X1267425D01*
X1264885D01*
Y171445D01*
X1262346D01*
X1168397Y400045D02*
X1158240D01*
Y392427D01*
X1163318Y394967D01*
X1165857D01*
X1168397Y392427D01*
Y387349D01*
X1165857Y384810D01*
X1160779D01*
X1158240Y387349D01*
X1168397Y361945D02*
X1158240D01*
Y354328D01*
X1163318Y356867D01*
X1165857D01*
X1168397Y354328D01*
Y349249D01*
X1165857Y346710D01*
X1160779D01*
X1158240Y349249D01*
X1168397Y323845D02*
X1163318Y321306D01*
X1158240Y316227D01*
Y311149D01*
X1160779Y308610D01*
X1165857D01*
X1168397Y311149D01*
Y313688D01*
X1165857Y316227D01*
X1158240D01*
X1168397Y285745D02*
X1163318Y283206D01*
X1158240Y278127D01*
Y273049D01*
X1160779Y270510D01*
X1165857D01*
X1168397Y273049D01*
Y275588D01*
X1165857Y278127D01*
X1158240D01*
Y232410D02*
X1163318D01*
X1160779D01*
Y247645D01*
X1158240Y245106D01*
X1170936D02*
X1173475Y247645D01*
X1178553D01*
X1181093Y245106D01*
Y234949D01*
X1178553Y232410D01*
X1173475D01*
X1170936Y234949D01*
Y245106D01*
X1168397Y209545D02*
X1163318Y207006D01*
X1158240Y201928D01*
Y196849D01*
X1160779Y194310D01*
X1165857D01*
X1168397Y196849D01*
Y199388D01*
X1165857Y201928D01*
X1158240D01*
X1173475Y207006D02*
X1176014Y209545D01*
X1181093D01*
X1183632Y207006D01*
Y196849D01*
X1181093Y194310D01*
X1176014D01*
X1173475Y196849D01*
Y207006D01*
D29*
X1006888Y411480D02*
X3669087D01*
X1006888Y182880D02*
X3669087D01*
X1006888Y144780D02*
X3669087D01*
Y449580D01*
X1006888D02*
X3669087D01*
X1006888Y144780D02*
Y449580D01*
X3318920Y144780D02*
Y449580D01*
X2980184Y144780D02*
Y449580D01*
X2763328Y144780D02*
Y449580D01*
X2598271Y144780D02*
Y449580D01*
X2408839Y144780D02*
Y449580D01*
X2259017Y144780D02*
Y449580D01*
X1878132Y144780D02*
Y449580D01*
X1691746Y144780D02*
Y449580D01*
X1563253Y144780D02*
Y449580D01*
X1283935Y144780D02*
Y449580D01*
X1146810Y144780D02*
Y449580D01*
D31*
X3330350Y441192D02*
Y422910D01*
Y432051D01*
X3342538D01*
Y441192D01*
Y422910D01*
X3351679D02*
X3357773D01*
X3360821Y425957D01*
Y432051D01*
X3357773Y435098D01*
X3351679D01*
X3348633Y432051D01*
Y425957D01*
X3351679Y422910D01*
X3366915D02*
X3373009D01*
X3369962D01*
Y441192D01*
X3366915D01*
X3391291Y422910D02*
X3385197D01*
X3382150Y425957D01*
Y432051D01*
X3385197Y435098D01*
X3391291D01*
X3394338Y432051D01*
Y429004D01*
X3382150D01*
X3418714Y441192D02*
X3430902D01*
X3424808D01*
Y422910D01*
X3440043D02*
X3446137D01*
X3449184Y425957D01*
Y432051D01*
X3446137Y435098D01*
X3440043D01*
X3436996Y432051D01*
Y425957D01*
X3440043Y422910D01*
X3455278D02*
X3461372D01*
X3458325D01*
Y441192D01*
X3455278D01*
X3479654Y422910D02*
X3473560D01*
X3470513Y425957D01*
Y432051D01*
X3473560Y435098D01*
X3479654D01*
X3482701Y432051D01*
Y429004D01*
X3470513D01*
X3488795Y435098D02*
Y422910D01*
Y429004D01*
X3491842Y432051D01*
X3494889Y435098D01*
X3497936D01*
X3510124D02*
X3516218D01*
X3519265Y432051D01*
Y422910D01*
X3510124D01*
X3507077Y425957D01*
X3510124Y429004D01*
X3519265D01*
X3525359Y422910D02*
Y435098D01*
X3534500D01*
X3537547Y432051D01*
Y422910D01*
X3555829Y435098D02*
X3546689D01*
X3543641Y432051D01*
Y425957D01*
X3546689Y422910D01*
X3555829D01*
X3571064D02*
X3564970D01*
X3561924Y425957D01*
Y432051D01*
X3564970Y435098D01*
X3571064D01*
X3574112Y432051D01*
Y429004D01*
X3561924D01*
X3604582Y422910D02*
X3598488Y429004D01*
Y435098D01*
X3604582Y441192D01*
X3613723Y432051D02*
X3625911D01*
X3632005Y422910D02*
X3638099Y429004D01*
Y435098D01*
X3632005Y441192D01*
X2991614D02*
Y422910D01*
Y432051D01*
X3003802D01*
Y441192D01*
Y422910D01*
X3012943D02*
X3019037D01*
X3022084Y425957D01*
Y432051D01*
X3019037Y435098D01*
X3012943D01*
X3009896Y432051D01*
Y425957D01*
X3012943Y422910D01*
X3028178D02*
X3034272D01*
X3031225D01*
Y441192D01*
X3028178D01*
X3052554Y422910D02*
X3046460D01*
X3043413Y425957D01*
Y432051D01*
X3046460Y435098D01*
X3052554D01*
X3055601Y432051D01*
Y429004D01*
X3043413D01*
X3079977Y441192D02*
X3092166D01*
X3086071D01*
Y422910D01*
X3101306D02*
X3107401D01*
X3110448Y425957D01*
Y432051D01*
X3107401Y435098D01*
X3101306D01*
X3098260Y432051D01*
Y425957D01*
X3101306Y422910D01*
X3116542D02*
X3122635D01*
X3119589D01*
Y441192D01*
X3116542D01*
X3140918Y422910D02*
X3134824D01*
X3131777Y425957D01*
Y432051D01*
X3134824Y435098D01*
X3140918D01*
X3143965Y432051D01*
Y429004D01*
X3131777D01*
X3150059Y435098D02*
Y422910D01*
Y429004D01*
X3153106Y432051D01*
X3156153Y435098D01*
X3159200D01*
X3171388D02*
X3177482D01*
X3180529Y432051D01*
Y422910D01*
X3171388D01*
X3168341Y425957D01*
X3171388Y429004D01*
X3180529D01*
X3186623Y422910D02*
Y435098D01*
X3195764D01*
X3198811Y432051D01*
Y422910D01*
X3217093Y435098D02*
X3207952D01*
X3204905Y432051D01*
Y425957D01*
X3207952Y422910D01*
X3217093D01*
X3232328D02*
X3226234D01*
X3223187Y425957D01*
Y432051D01*
X3226234Y435098D01*
X3232328D01*
X3235375Y432051D01*
Y429004D01*
X3223187D01*
X3265845Y422910D02*
X3259751Y429004D01*
Y435098D01*
X3265845Y441192D01*
X3274986Y432051D02*
X3287174D01*
X3281080Y438145D02*
Y425957D01*
X3293268Y422910D02*
X3299362Y429004D01*
Y435098D01*
X3293268Y441192D01*
X2774758D02*
Y422910D01*
X2783899D01*
X2786946Y425957D01*
Y438145D01*
X2783899Y441192D01*
X2774758D01*
X2802181Y422910D02*
X2796087D01*
X2793040Y425957D01*
Y432051D01*
X2796087Y435098D01*
X2802181D01*
X2805228Y432051D01*
Y429004D01*
X2793040D01*
X2811322Y422910D02*
X2820463D01*
X2823510Y425957D01*
X2820463Y429004D01*
X2814370D01*
X2811322Y432051D01*
X2814370Y435098D01*
X2823510D01*
X2841793D02*
X2832651D01*
X2829604Y432051D01*
Y425957D01*
X2832651Y422910D01*
X2841793D01*
X2847886Y435098D02*
Y422910D01*
Y429004D01*
X2850934Y432051D01*
X2853980Y435098D01*
X2857028D01*
X2866169Y422910D02*
X2872263D01*
X2869216D01*
Y435098D01*
X2866169D01*
X2881404Y416816D02*
Y435098D01*
X2890545D01*
X2893592Y432051D01*
Y425957D01*
X2890545Y422910D01*
X2881404D01*
X2902733Y438145D02*
Y435098D01*
X2899686D01*
X2905780D01*
X2902733D01*
Y425957D01*
X2905780Y422910D01*
X2914921D02*
X2921015D01*
X2917968D01*
Y435098D01*
X2914921D01*
X2933203Y422910D02*
X2939297D01*
X2942344Y425957D01*
Y432051D01*
X2939297Y435098D01*
X2933203D01*
X2930156Y432051D01*
Y425957D01*
X2933203Y422910D01*
X2948438D02*
Y435098D01*
X2957579D01*
X2960626Y432051D01*
Y422910D01*
X2609702Y441192D02*
X2621890D01*
X2615796D01*
Y422910D01*
X2637125D02*
X2631031D01*
X2627984Y425957D01*
Y432051D01*
X2631031Y435098D01*
X2637125D01*
X2640172Y432051D01*
Y429004D01*
X2627984D01*
X2646266Y422910D02*
Y435098D01*
X2649313D01*
X2652360Y432051D01*
Y422910D01*
Y432051D01*
X2655407Y435098D01*
X2658454Y432051D01*
Y422910D01*
X2664548Y416816D02*
Y435098D01*
X2673689D01*
X2676736Y432051D01*
Y425957D01*
X2673689Y422910D01*
X2664548D01*
X2682830D02*
X2688924D01*
X2685877D01*
Y441192D01*
X2682830D01*
X2701112Y435098D02*
X2707206D01*
X2710253Y432051D01*
Y422910D01*
X2701112D01*
X2698065Y425957D01*
X2701112Y429004D01*
X2710253D01*
X2719394Y438145D02*
Y435098D01*
X2716347D01*
X2722441D01*
X2719394D01*
Y425957D01*
X2722441Y422910D01*
X2740723D02*
X2734629D01*
X2731582Y425957D01*
Y432051D01*
X2734629Y435098D01*
X2740723D01*
X2743770Y432051D01*
Y429004D01*
X2731582D01*
X2420269Y422910D02*
Y441192D01*
X2429410D01*
X2432457Y438145D01*
Y432051D01*
X2429410Y429004D01*
X2420269D01*
X2441598Y435098D02*
X2447692D01*
X2450739Y432051D01*
Y422910D01*
X2441598D01*
X2438551Y425957D01*
X2441598Y429004D01*
X2450739D01*
X2469021Y441192D02*
Y422910D01*
X2459880D01*
X2456833Y425957D01*
Y432051D01*
X2459880Y435098D01*
X2469021D01*
X2505585Y438145D02*
X2502538Y441192D01*
X2496444D01*
X2493397Y438145D01*
Y435098D01*
X2496444Y432051D01*
X2502538D01*
X2505585Y429004D01*
Y425957D01*
X2502538Y422910D01*
X2496444D01*
X2493397Y425957D01*
X2511679Y441192D02*
Y422910D01*
Y432051D01*
X2514726Y435098D01*
X2520820D01*
X2523867Y432051D01*
Y422910D01*
X2533008Y435098D02*
X2539102D01*
X2542149Y432051D01*
Y422910D01*
X2533008D01*
X2529961Y425957D01*
X2533008Y429004D01*
X2542149D01*
X2548243Y416816D02*
Y435098D01*
X2557384D01*
X2560432Y432051D01*
Y425957D01*
X2557384Y422910D01*
X2548243D01*
X2575667D02*
X2569572D01*
X2566526Y425957D01*
Y432051D01*
X2569572Y435098D01*
X2575667D01*
X2578714Y432051D01*
Y429004D01*
X2566526D01*
X2270447Y441192D02*
Y429004D01*
X2276541Y422910D01*
X2282635Y429004D01*
Y441192D01*
X2288729Y422910D02*
X2294823D01*
X2291776D01*
Y435098D01*
X2288729D01*
X2307012D02*
X2313105D01*
X2316152Y432051D01*
Y422910D01*
X2307012D01*
X2303965Y425957D01*
X2307012Y429004D01*
X2316152D01*
X2322247Y422910D02*
X2334435Y435098D01*
X2340529Y422910D02*
Y441192D01*
X2349670D01*
X2352717Y438145D01*
Y432051D01*
X2349670Y429004D01*
X2340529D01*
X2361858Y435098D02*
X2367952D01*
X2370999Y432051D01*
Y422910D01*
X2361858D01*
X2358811Y425957D01*
X2361858Y429004D01*
X2370999D01*
X2389281Y441192D02*
Y422910D01*
X2380140D01*
X2377093Y425957D01*
Y432051D01*
X2380140Y435098D01*
X2389281D01*
X1889561Y441192D02*
Y422910D01*
X1898703D01*
X1901750Y425957D01*
Y438145D01*
X1898703Y441192D01*
X1889561D01*
X1907844Y435098D02*
Y422910D01*
Y429004D01*
X1910891Y432051D01*
X1913938Y435098D01*
X1916985D01*
X1926126Y422910D02*
X1932220D01*
X1929173D01*
Y435098D01*
X1926126D01*
X1941361Y422910D02*
X1947455D01*
X1944408D01*
Y441192D01*
X1941361D01*
X1956596Y422910D02*
X1962690D01*
X1959643D01*
Y441192D01*
X1956596D01*
X1990113D02*
Y422910D01*
X2002301D01*
X2011442Y435098D02*
X2017536D01*
X2020583Y432051D01*
Y422910D01*
X2011442D01*
X2008395Y425957D01*
X2011442Y429004D01*
X2020583D01*
X2026677Y435098D02*
Y425957D01*
X2029724Y422910D01*
X2038865D01*
Y419863D01*
X2035818Y416816D01*
X2032771D01*
X2038865Y422910D02*
Y435098D01*
X2054100Y422910D02*
X2048006D01*
X2044959Y425957D01*
Y432051D01*
X2048006Y435098D01*
X2054100D01*
X2057147Y432051D01*
Y429004D01*
X2044959D01*
X2063241Y435098D02*
Y422910D01*
Y429004D01*
X2066288Y432051D01*
X2069335Y435098D01*
X2072382D01*
X2099805Y422910D02*
Y441192D01*
X2108947D01*
X2111994Y438145D01*
Y432051D01*
X2108947Y429004D01*
X2099805D01*
X2121134Y435098D02*
X2127229D01*
X2130276Y432051D01*
Y422910D01*
X2121134D01*
X2118087Y425957D01*
X2121134Y429004D01*
X2130276D01*
X2136370Y422910D02*
X2142464D01*
X2139417D01*
Y435098D01*
X2136370D01*
X2151605D02*
Y422910D01*
Y429004D01*
X2154652Y432051D01*
X2157699Y435098D01*
X2160746D01*
X1703176Y441192D02*
Y422910D01*
Y432051D01*
X1715364D01*
Y441192D01*
Y422910D01*
X1724505D02*
X1730599D01*
X1733646Y425957D01*
Y432051D01*
X1730599Y435098D01*
X1724505D01*
X1721458Y432051D01*
Y425957D01*
X1724505Y422910D01*
X1739740D02*
X1745834D01*
X1742787D01*
Y441192D01*
X1739740D01*
X1764116Y422910D02*
X1758022D01*
X1754975Y425957D01*
Y432051D01*
X1758022Y435098D01*
X1764116D01*
X1767163Y432051D01*
Y429004D01*
X1754975D01*
X1791539Y441192D02*
X1803727D01*
X1797633D01*
Y422910D01*
X1809821Y435098D02*
Y425957D01*
X1812868Y422910D01*
X1822009D01*
Y419863D01*
X1818962Y416816D01*
X1815915D01*
X1822009Y422910D02*
Y435098D01*
X1828103Y416816D02*
Y435098D01*
X1837244D01*
X1840291Y432051D01*
Y425957D01*
X1837244Y422910D01*
X1828103D01*
X1855526D02*
X1849432D01*
X1846385Y425957D01*
Y432051D01*
X1849432Y435098D01*
X1855526D01*
X1858573Y432051D01*
Y429004D01*
X1846385D01*
X1574683Y422910D02*
Y441192D01*
X1583824D01*
X1586871Y438145D01*
Y432051D01*
X1583824Y429004D01*
X1574683D01*
X1592965Y422910D02*
X1599059D01*
X1596012D01*
Y441192D01*
X1592965D01*
X1611248Y435098D02*
X1617341D01*
X1620388Y432051D01*
Y422910D01*
X1611248D01*
X1608201Y425957D01*
X1611248Y429004D01*
X1620388D01*
X1629530Y438145D02*
Y435098D01*
X1626483D01*
X1632577D01*
X1629530D01*
Y425957D01*
X1632577Y422910D01*
X1650859D02*
X1644765D01*
X1641718Y425957D01*
Y432051D01*
X1644765Y435098D01*
X1650859D01*
X1653906Y432051D01*
Y429004D01*
X1641718D01*
X1672188Y441192D02*
Y422910D01*
X1663047D01*
X1660000Y425957D01*
Y432051D01*
X1663047Y435098D01*
X1672188D01*
X1295365Y441192D02*
Y422910D01*
Y432051D01*
X1307553D01*
Y441192D01*
Y422910D01*
X1316694D02*
X1322788D01*
X1325835Y425957D01*
Y432051D01*
X1322788Y435098D01*
X1316694D01*
X1313647Y432051D01*
Y425957D01*
X1316694Y422910D01*
X1331929D02*
X1338023D01*
X1334976D01*
Y441192D01*
X1331929D01*
X1356305Y422910D02*
X1350211D01*
X1347164Y425957D01*
Y432051D01*
X1350211Y435098D01*
X1356305D01*
X1359352Y432051D01*
Y429004D01*
X1347164D01*
X1395916Y438145D02*
X1392869Y441192D01*
X1386775D01*
X1383728Y438145D01*
Y435098D01*
X1386775Y432051D01*
X1392869D01*
X1395916Y429004D01*
Y425957D01*
X1392869Y422910D01*
X1386775D01*
X1383728Y425957D01*
X1402010Y422910D02*
X1408104D01*
X1405057D01*
Y435098D01*
X1402010D01*
X1417245D02*
X1429433D01*
X1417245Y422910D01*
X1429433D01*
X1444668D02*
X1438574D01*
X1435527Y425957D01*
Y432051D01*
X1438574Y435098D01*
X1444668D01*
X1447715Y432051D01*
Y429004D01*
X1435527D01*
X1170428Y438145D02*
X1167381Y441192D01*
X1161287D01*
X1158240Y438145D01*
Y425957D01*
X1161287Y422910D01*
X1167381D01*
X1170428Y425957D01*
X1179569Y422910D02*
X1185663D01*
X1188710Y425957D01*
Y432051D01*
X1185663Y435098D01*
X1179569D01*
X1176522Y432051D01*
Y425957D01*
X1179569Y422910D01*
X1194804Y435098D02*
Y425957D01*
X1197851Y422910D01*
X1206992D01*
Y435098D01*
X1213086Y422910D02*
Y435098D01*
X1222227D01*
X1225274Y432051D01*
Y422910D01*
X1234415Y438145D02*
Y435098D01*
X1231368D01*
X1237462D01*
X1234415D01*
Y425957D01*
X1237462Y422910D01*
X1041936Y438145D02*
X1038889Y441192D01*
X1032795D01*
X1029748Y438145D01*
Y435098D01*
X1032795Y432051D01*
X1038889D01*
X1041936Y429004D01*
Y425957D01*
X1038889Y422910D01*
X1032795D01*
X1029748Y425957D01*
X1048030Y435098D02*
Y425957D01*
X1051077Y422910D01*
X1060218D01*
Y419863D01*
X1057171Y416816D01*
X1054124D01*
X1060218Y422910D02*
Y435098D01*
X1066312Y422910D02*
Y435098D01*
X1069359D01*
X1072406Y432051D01*
Y422910D01*
Y432051D01*
X1075453Y435098D01*
X1078500Y432051D01*
Y422910D01*
X1084594Y441192D02*
Y422910D01*
X1093735D01*
X1096782Y425957D01*
Y429004D01*
Y432051D01*
X1093735Y435098D01*
X1084594D01*
X1105923Y422910D02*
X1112017D01*
X1115064Y425957D01*
Y432051D01*
X1112017Y435098D01*
X1105923D01*
X1102876Y432051D01*
Y425957D01*
X1105923Y422910D01*
X1121158D02*
X1127252D01*
X1124205D01*
Y441192D01*
X1121158D01*
M02*
